<?xml version="1.0" standalone="no"?><!DOCTYPE svg PUBLIC "-//W3C//DTD SVG 1.1//EN" "http://www.w3.org/Graphics/SVG/1.1/DTD/svg11.dtd"><svg t="1583836795005" class="icon" viewBox="0 0 1024 1024" version="1.1" xmlns="http://www.w3.org/2000/svg" p-id="10849" xmlns:xlink="http://www.w3.org/1999/xlink" width="64" height="64"><defs><style type="text/css"></style></defs><path d="M804.571429 804.571429H219.428571a219.428571 219.428571 0 0 0-219.428571 219.428571h1024a219.428571 219.428571 0 0 0-219.428571-219.428571zM146.285714 585.142857a73.142857 73.142857 0 0 0 73.142857-73.142857v-54.857143a73.142857 73.142857 0 0 0-73.142857-73.142857 66.56 66.56 0 0 0-33.645714 9.508571 401.554286 401.554286 0 0 1 798.72 0 66.56 66.56 0 0 0-33.645714-9.508571 73.142857 73.142857 0 0 0-73.142857 73.142857V512a73.142857 73.142857 0 0 0 32.914285 59.245714A171.885714 171.885714 0 0 1 688.274286 658.285714 35.84 35.84 0 0 0 658.285714 640h-36.571428a36.571429 36.571429 0 0 0 0 73.142857H658.285714a35.84 35.84 0 0 0 32.182857-20.48A205.531429 205.531429 0 0 0 870.4 585.142857h7.314286a73.142857 73.142857 0 0 0 73.142857-73.142857V438.857143A438.857143 438.857143 0 0 0 73.142857 438.857143v73.142857a73.142857 73.142857 0 0 0 73.142857 73.142857z m475.428572 18.285714H658.285714a67.291429 67.291429 0 0 1 38.034286 12.434286A255.268571 255.268571 0 1 0 512 694.857143a360.594286 360.594286 0 0 0 39.497143-3.657143 103.862857 103.862857 0 0 1 0-14.628571 73.142857 73.142857 0 0 1 70.217143-73.142858z" p-id="10850"></path></svg>