<svg xmlns="http://www.w3.org/2000/svg" viewBox="0 0 14 14"><defs><style>.cls-1{fill:none;}.cls-2{fill:#323333;fill-rule:evenodd;}</style></defs><title>notification</title><g id="图层_2" data-name="图层 2"><g id="图层_1-2" data-name="图层 1"><g id="notification"><path class="cls-2" d="M1.89,8.77A.51.51,0,0,0,2,8.46V5A5,5,0,0,1,7,0H7a5,5,0,0,1,5,5V8.46a.51.51,0,0,0,.11.31l.75,1a.51.51,0,0,1,.06.53.5.5,0,0,1-.45.28H1.53a.5.5,0,0,1-.45-.28.51.51,0,0,1,.06-.53C1.42,9.36,1.73,9,1.89,8.77ZM9,11.64a.14.14,0,0,0-.14-.14H5.14a.14.14,0,0,0-.14.14V12a2,2,0,0,0,4,0Z"/></g></g></g></svg>