<svg xmlns="http://www.w3.org/2000/svg" viewBox="0 0 14 14"><defs><style>.cls-1{fill:none;}.cls-2{fill:#323333;fill-rule:evenodd;}</style></defs><title>defeat</title><g id="图层_2" data-name="图层 2"><g id="图层_1-2" data-name="图层 1"><g id="defeat"><path class="cls-2" d="M4.17,4.17a.51.51,0,0,1,.71,0L6.65,5.94a.5.5,0,0,0,.7,0L9.12,4.17a.5.5,0,0,1,.71.71L8.06,6.65a.5.5,0,0,0,0,.7c.47.48,1.31,1.31,1.78,1.78a.49.49,0,0,1,0,.69h0a.51.51,0,0,1-.37.15.51.51,0,0,1-.36-.15L7.35,8.06a.5.5,0,0,0-.7,0L4.89,9.82a.51.51,0,0,1-.36.15.51.51,0,0,1-.37-.15h0a.49.49,0,0,1,0-.69L5.94,7.35a.5.5,0,0,0,0-.7L4.17,4.88a.51.51,0,0,1,0-.71ZM7,1A6,6,0,1,1,1,7,6,6,0,0,1,7,1ZM7,0A7,7,0,1,1,0,7,7,7,0,0,1,7,0Z"/></g></g></g></svg>