<svg xmlns="http://www.w3.org/2000/svg" viewBox="0 0 14 14"><defs><style>.cls-1{fill:none;}.cls-2,.cls-3{fill:#323333;}.cls-2{fill-rule:evenodd;}</style></defs><title>succeed</title><g id="图层_2" data-name="图层 2"><g id="图层_1-2" data-name="图层 1"><g id="succeed"><path class="cls-2" d="M7,1A6,6,0,1,1,1,7,6,6,0,0,1,7,1ZM7,0A7,7,0,1,1,0,7,7,7,0,0,1,7,0Z"/><path class="cls-3" d="M6.68,9a.49.49,0,0,1-.36.15A.47.47,0,0,1,6,9L4.41,7.42a.5.5,0,0,1,0-.71.5.5,0,0,1,.7,0L6.32,7.92,9.1,5.15a.5.5,0,0,1,.71,0,.5.5,0,0,1,0,.7Z"/></g></g></g></svg>