<?xml version="1.0" encoding="UTF-8" standalone="no"?>
<!DOCTYPE svg PUBLIC "-//W3C//DTD SVG 1.1//EN" "http://www.w3.org/Graphics/SVG/1.1/DTD/svg11.dtd">
<svg width="100%" height="100%" viewBox="0 0 14 14" version="1.1" xmlns="http://www.w3.org/2000/svg" xmlns:xlink="http://www.w3.org/1999/xlink" xml:space="preserve" xmlns:serif="http://www.serif.com/" style="fill-rule:evenodd;clip-rule:evenodd;stroke-linejoin:round;stroke-miterlimit:2;">
    <g transform="matrix(1,0,0,1,-254.374,-193.839)">
        <g id="第一组">
        </g>
        <g id="第一组1" serif:id="第一组" transform="matrix(1,0,0,1,7.10543e-15,16)">
            <g id="upload">
            </g>
        </g>
        <g id="第二组">
        </g>
        <g id="第二组1" serif:id="第二组">
        </g>
        <g id="第三组">
        </g>
        <g id="第三组1" serif:id="第三组">
        </g>
        <g id="第四组">
        </g>
        <g id="第四组1" serif:id="第四组">
        </g>
        <g id="第五组">
        </g>
        <g id="第五组1" serif:id="第五组">
        </g>
        <g id="第六组">
        </g>
        <g id="第六组1" serif:id="第六组">
        </g>
        <g id="第六组2" serif:id="第六组">
        </g>
        <g id="第六组3" serif:id="第六组">
        </g>
        <g id="第七组">
        </g>
        <g id="第七组1" serif:id="第七组">
        </g>
        <g id="第八组">
        </g>
        <g id="第八组1" serif:id="第八组">
        </g>
        <g id="第九组">
        </g>
        <g id="第九组1" serif:id="第九组">
        </g>
        <g id="第十组">
        </g>
        <g id="第十组1" serif:id="第十组">
        </g>
        <g id="第十一组">
        </g>
        <g id="第十一组1" serif:id="第十一组">
        </g>
        <g id="第十二组">
        </g>
        <g id="第十三组">
        </g>
        <g id="第十四组">
        </g>
        <g id="第十四组1" serif:id="第十四组">
        </g>
        <g id="第一组文案">
        </g>
        <g id="第一组文案1" serif:id="第一组文案">
        </g>
        <g id="第二组文案">
        </g>
        <g id="第二组文案1" serif:id="第二组文案">
        </g>
        <g id="第三组文案">
        </g>
        <g id="第三组文案1" serif:id="第三组文案">
        </g>
        <g id="第四组文案">
        </g>
        <g id="第四组文案1" serif:id="第四组文案">
        </g>
        <g id="第五组文案">
        </g>
        <g id="第五组文案1" serif:id="第五组文案">
        </g>
        <g id="第六组文案">
        </g>
        <g id="第六组文案1" serif:id="第六组文案">
        </g>
        <g id="第六组文案2" serif:id="第六组文案">
        </g>
        <g id="第六组文案3" serif:id="第六组文案">
        </g>
        <g id="第七组文案">
        </g>
        <g id="第七组文案1" serif:id="第七组文案">
        </g>
        <g id="第八组文案">
        </g>
        <g id="第八组文案1" serif:id="第八组文案">
        </g>
        <g id="第九组文案">
        </g>
        <g id="第九组文案1" serif:id="第九组文案">
        </g>
        <g id="第十组文案">
        </g>
        <g id="第十组文案1" serif:id="第十组文案">
        </g>
        <g id="第十一组文案">
        </g>
        <g id="第十一组文案1" serif:id="第十一组文案">
        </g>
        <g id="第十二组文案">
        </g>
        <g id="第十三组文案">
        </g>
        <g id="第十四组文案">
        </g>
        <g id="第十四组文案1" serif:id="第十四组文案">
        </g>
        <g id="二维码">
        </g>
        <g id="二维码1" serif:id="二维码">
        </g>
        <g id="排序">
        </g>
        <g id="线图">
        </g>
        <g transform="matrix(1,0,0,1,-0.0378418,145.096)">
            <g id="维度线图">
            </g>
        </g>
        <g id="维度柱图">
        </g>
        <g id="周期对比线图">
        </g>
        <g id="周期对比线图1" serif:id="周期对比线图">
        </g>
        <g id="成功">
        </g>
        <g id="成功1" serif:id="成功">
        </g>
        <g id="事件分析">
        </g>
        <g id="漏斗分析">
        </g>
        <g id="留存分析">
        </g>
        <g id="智能路径">
        </g>
        <g id="活跃用户分析">
        </g>
        <g id="留存魔法师">
        </g>
        <g id="分布分析">
        </g>
        <g id="活动分析">
        </g>
        <g id="转化页面流">
        </g>
        <g id="android">
        </g>
        <g id="ios">
        </g>
        <g id="pc">
        </g>
        <g id="事件变量">
        </g>
        <g id="页面变量">
        </g>
        <g id="用户变量">
        </g>
        <g id="用户来源" transform="matrix(1,0,0,1,83,901)">
            <g id="APP">
            </g>
        </g>
        <g id="地狱信息">
        </g>
        <g id="设备信息">
        </g>
        <g id="广告跟踪变量">
        </g>
        <g id="常用维度">
        </g>
        <g id="转化变量">
        </g>
        <g id="登陆用户变量">
        </g>
        <g id="访问用户变量">
        </g>
        <g id="事件变量1" serif:id="事件变量">
        </g>
        <g id="页面变量1" serif:id="页面变量">
        </g>
        <g id="转化变量1" serif:id="转化变量">
        </g>
        <g id="用户登陆变量">
        </g>
        <g id="用户访问变量">
        </g>
        <g id="页面浏览">
        </g>
        <g id="点击">
        </g>
        <g id="输入">
        </g>
        <g id="图层-1" serif:id="图层 1">
        </g>
        <g id="图层-11" serif:id="图层 1">
        </g>
        <g id="图层-12" serif:id="图层 1">
        </g>
        <g id="图层-13" serif:id="图层 1">
        </g>
        <g id="图层-14" serif:id="图层 1">
        </g>
        <g id="图层-15" serif:id="图层 1">
        </g>
        <g id="图层-16" serif:id="图层 1">
        </g>
        <g id="首页看板">
        </g>
        <path d="M261.856,194.677C261.857,194.779 261.934,194.865 262.036,194.875C264.813,195.18 267.022,197.384 267.336,200.16C267.346,200.261 267.432,200.338 267.534,200.338C267.629,200.339 267.752,200.339 267.874,200.339C268.006,200.339 268.134,200.392 268.227,200.485C268.321,200.579 268.374,200.706 268.374,200.839C268.374,200.971 268.321,201.099 268.227,201.192C268.134,201.286 268.006,201.339 267.874,201.339C267.752,201.339 267.629,201.339 267.534,201.339C267.432,201.339 267.346,201.417 267.336,201.518C267.023,204.293 264.814,206.497 262.036,206.803C261.935,206.813 261.857,206.899 261.857,207.001C261.856,207.096 261.856,207.218 261.856,207.339C261.856,207.471 261.804,207.599 261.71,207.692C261.616,207.786 261.489,207.839 261.356,207.839C261.08,207.839 260.856,207.615 260.856,207.339C260.856,207.216 260.856,207.093 260.856,206.997C260.856,206.895 260.779,206.81 260.678,206.799C257.917,206.479 255.724,204.282 255.412,201.518C255.401,201.417 255.316,201.34 255.214,201.34C255.118,201.339 254.996,201.339 254.874,201.339C254.741,201.339 254.614,201.286 254.52,201.192C254.427,201.099 254.374,200.971 254.374,200.839C254.374,200.706 254.427,200.579 254.52,200.485C254.614,200.392 254.741,200.339 254.874,200.339C254.996,200.339 255.118,200.339 255.214,200.339C255.316,200.338 255.401,200.261 255.412,200.16C255.724,197.396 257.916,195.199 260.678,194.879C260.779,194.868 260.856,194.783 260.856,194.681C260.856,194.585 260.856,194.461 260.856,194.339C260.856,194.063 261.08,193.839 261.356,193.839C261.489,193.839 261.616,193.892 261.71,193.985C261.804,194.079 261.856,194.206 261.856,194.339C261.856,194.46 261.856,194.582 261.856,194.677ZM261.374,195.839C264.133,195.839 266.374,198.079 266.374,200.839C266.374,203.598 264.133,205.839 261.374,205.839C258.614,205.839 256.374,203.598 256.374,200.839C256.374,198.079 258.614,195.839 261.374,195.839ZM261.374,199.339C262.202,199.339 262.874,200.011 262.874,200.839C262.874,201.667 262.202,202.339 261.374,202.339C260.546,202.339 259.874,201.667 259.874,200.839C259.874,200.011 260.546,199.339 261.374,199.339Z" style="fill:currentColor;"/>
        <clipPath id="_clip1">
            <path d="M261.856,194.677C261.857,194.779 261.934,194.865 262.036,194.875C264.813,195.18 267.022,197.384 267.336,200.16C267.346,200.261 267.432,200.338 267.534,200.338C267.629,200.339 267.752,200.339 267.874,200.339C268.006,200.339 268.134,200.392 268.227,200.485C268.321,200.579 268.374,200.706 268.374,200.839C268.374,200.971 268.321,201.099 268.227,201.192C268.134,201.286 268.006,201.339 267.874,201.339C267.752,201.339 267.629,201.339 267.534,201.339C267.432,201.339 267.346,201.417 267.336,201.518C267.023,204.293 264.814,206.497 262.036,206.803C261.935,206.813 261.857,206.899 261.857,207.001C261.856,207.096 261.856,207.218 261.856,207.339C261.856,207.471 261.804,207.599 261.71,207.692C261.616,207.786 261.489,207.839 261.356,207.839C261.08,207.839 260.856,207.615 260.856,207.339C260.856,207.216 260.856,207.093 260.856,206.997C260.856,206.895 260.779,206.81 260.678,206.799C257.917,206.479 255.724,204.282 255.412,201.518C255.401,201.417 255.316,201.34 255.214,201.34C255.118,201.339 254.996,201.339 254.874,201.339C254.741,201.339 254.614,201.286 254.52,201.192C254.427,201.099 254.374,200.971 254.374,200.839C254.374,200.706 254.427,200.579 254.52,200.485C254.614,200.392 254.741,200.339 254.874,200.339C254.996,200.339 255.118,200.339 255.214,200.339C255.316,200.338 255.401,200.261 255.412,200.16C255.724,197.396 257.916,195.199 260.678,194.879C260.779,194.868 260.856,194.783 260.856,194.681C260.856,194.585 260.856,194.461 260.856,194.339C260.856,194.063 261.08,193.839 261.356,193.839C261.489,193.839 261.616,193.892 261.71,193.985C261.804,194.079 261.856,194.206 261.856,194.339C261.856,194.46 261.856,194.582 261.856,194.677ZM261.374,195.839C264.133,195.839 266.374,198.079 266.374,200.839C266.374,203.598 264.133,205.839 261.374,205.839C258.614,205.839 256.374,203.598 256.374,200.839C256.374,198.079 258.614,195.839 261.374,195.839ZM261.374,199.339C262.202,199.339 262.874,200.011 262.874,200.839C262.874,201.667 262.202,202.339 261.374,202.339C260.546,202.339 259.874,201.667 259.874,200.839C259.874,200.011 260.546,199.339 261.374,199.339Z"/>
        </clipPath>
        <g clip-path="url(#_clip1)">
            <g transform="matrix(1.45086,0,0,1.45086,214.75,145.51)">
                <circle cx="32.135" cy="38.135" r="4.135" style="fill:rgb(51,51,51);"/>
            </g>
            <g transform="matrix(1.20905,0,0,1.20905,222.52,154.731)">
                <circle cx="32.135" cy="38.135" r="4.135" style="fill:rgb(51,51,51);"/>
            </g>
        </g>
    </g>
</svg>
