<svg xmlns="http://www.w3.org/2000/svg" viewBox="0 0 14 14"><defs><style>.cls-1{fill:none;}.cls-2{fill:#f1f3fa;}.cls-3{fill:#3c4c95;}</style></defs><title>classes</title><g id="图层_2" data-name="图层 2"><g id="图层_1-2" data-name="图层 1"><g id="classes"><polygon class="cls-2" points="1.5 12 1.5 2 5.79 2 7.79 4 12.5 4 12.5 12 1.5 12"/><path class="cls-3" d="M8,4.5a1.05,1.05,0,0,1-.71-.29L5.88,2.79a1,1,0,0,0-.71-.29h-3a.2.2,0,0,0-.2.2V5.8a.2.2,0,0,0,.2.2h9.6a.21.21,0,0,0,.2-.2V4.7a.21.21,0,0,0-.2-.2Zm3.8,7a.2.2,0,0,0,.2-.2V7.2a.2.2,0,0,0-.2-.2H2.2a.2.2,0,0,0-.2.2v4.1a.2.2,0,0,0,.2.2ZM5.59,1.5a1,1,0,0,1,.7.29L7.71,3.21a1,1,0,0,0,.7.29H12a1,1,0,0,1,1,1v7a1,1,0,0,1-1,1H2a1,1,0,0,1-1-1v-9a1,1,0,0,1,1-1Z"/></g></g></g></svg>