<?xml version="1.0" encoding="UTF-8" standalone="no"?>
<!DOCTYPE svg PUBLIC "-//W3C//DTD SVG 1.1//EN" "http://www.w3.org/Graphics/SVG/1.1/DTD/svg11.dtd">
<svg width="100%" height="100%" viewBox="0 0 78 78" version="1.1" xmlns="http://www.w3.org/2000/svg" xmlns:xlink="http://www.w3.org/1999/xlink" xml:space="preserve" xmlns:serif="http://www.serif.com/" style="fill-rule:evenodd;clip-rule:evenodd;stroke-linejoin:round;stroke-miterlimit:1.41421;">
    <g transform="matrix(5.55556,0,0,5.55556,-461.111,-5577.78)">
        <g id="图层-1" serif:id="图层 1" transform="matrix(1,0,0,1,83,945)">
            <g transform="matrix(1,0,0,1,7,72)">
                <circle cx="0" cy="-6" r="6" style="fill:rgb(242,244,252);"/>
            </g>
            <g transform="matrix(1,0,0,1,-83,-886)">
                <path d="M90,945C93.863,945 97,948.137 97,952C97,955.863 93.863,959 90,959C86.137,959 83,955.863 83,952C83,948.137 86.137,945 90,945ZM90.574,946.027C90.491,946.02 90.409,946.048 90.348,946.105C90.286,946.161 90.251,946.24 90.251,946.324C90.25,946.615 90.25,947 90.25,947C90.25,947.138 90.138,947.25 90,947.25C89.862,947.25 89.75,947.138 89.75,947C89.75,947 89.75,946.615 89.75,946.324C89.75,946.24 89.715,946.16 89.654,946.103C89.592,946.046 89.509,946.018 89.426,946.025C88.201,946.144 87.082,946.629 86.184,947.371C86.12,947.425 86.082,947.503 86.078,947.586C86.075,947.67 86.107,947.75 86.165,947.809C86.37,948.016 86.642,948.287 86.642,948.287C86.739,948.385 86.739,948.543 86.642,948.641C86.593,948.69 86.529,948.714 86.465,948.714C86.401,948.714 86.337,948.69 86.288,948.641C86.288,948.641 86.016,948.37 85.811,948.164C85.751,948.105 85.67,948.073 85.587,948.076C85.503,948.08 85.425,948.118 85.37,948.182C84.629,949.082 84.144,950.2 84.027,951.426C84.02,951.509 84.048,951.591 84.105,951.652C84.161,951.714 84.24,951.749 84.324,951.749C84.615,951.75 85,951.75 85,951.75C85.138,951.75 85.25,951.862 85.25,952C85.25,952.138 85.138,952.25 85,952.25C85,952.25 84.614,952.25 84.323,952.25C84.239,952.25 84.159,952.285 84.103,952.346C84.046,952.407 84.018,952.49 84.024,952.573C84.316,955.616 86.882,958 90,958C93.118,958 95.684,955.616 95.973,952.573C95.98,952.49 95.951,952.409 95.895,952.348C95.839,952.287 95.76,952.252 95.677,952.252C95.386,952.25 95,952.25 95,952.25C94.862,952.25 94.75,952.138 94.75,952C94.75,951.862 94.862,951.75 95,951.75C95,951.75 95.385,951.75 95.676,951.75C95.76,951.75 95.84,951.715 95.897,951.654C95.954,951.592 95.982,951.509 95.975,951.426C95.856,950.2 95.371,949.082 94.628,948.183C94.574,948.12 94.496,948.081 94.413,948.078C94.33,948.075 94.249,948.106 94.19,948.165C93.984,948.37 93.712,948.641 93.712,948.641C93.663,948.69 93.599,948.714 93.535,948.714C93.471,948.714 93.407,948.69 93.358,948.641C93.261,948.543 93.261,948.385 93.358,948.287C93.358,948.287 93.63,948.016 93.835,947.81C93.895,947.751 93.927,947.67 93.923,947.586C93.92,947.503 93.881,947.424 93.818,947.37C92.918,946.629 91.799,946.144 90.574,946.027ZM91.57,948.82L90.821,954.231C90.755,954.714 90.308,955.051 89.826,954.984C89.79,954.979 89.754,954.972 89.718,954.963C89.248,954.837 88.967,954.352 89.094,953.882C89.103,953.846 89.115,953.811 89.129,953.777L91.186,948.717C91.228,948.615 91.344,948.566 91.447,948.608C91.532,948.642 91.582,948.73 91.57,948.82Z" style="fill:rgb(63,79,159);"/>
            </g>
        </g>
    </g>
</svg>
