<svg xmlns="http://www.w3.org/2000/svg" viewBox="0 0 14 14"><defs><style>.cls-1{fill:none;}.cls-2{fill:#f1f3fa;}.cls-3{fill:#3c4c95;}</style></defs><title>tag-2</title><g id="图层_2" data-name="图层 2"><g id="图层_1-2" data-name="图层 1"><g id="tag-2"><polygon class="cls-2" points="2.5 6.79 2.5 2.5 6.79 2.5 13.29 9 9 13.29 2.5 6.79"/><path class="cls-3" d="M6.17,3a1,1,0,0,1,.71.29l5.35,5.36a.48.48,0,0,1,0,.7L9.35,12.23a.48.48,0,0,1-.7,0L3.29,6.88A1,1,0,0,1,3,6.17V3.5A.5.5,0,0,1,3.5,3Zm1.12-.71A1,1,0,0,0,6.59,2H3A1,1,0,0,0,2,3V6.59a1,1,0,0,0,.29.7l6,6a1,1,0,0,0,1.42,0l3.58-3.58a1,1,0,0,0,0-1.42Z"/><path class="cls-2" d="M6,6.75A.75.75,0,1,1,6.75,6,.76.76,0,0,1,6,6.75"/><path class="cls-3" d="M6,5.75A.25.25,0,1,1,5.75,6,.25.25,0,0,1,6,5.75m0-1A1.25,1.25,0,1,0,7.25,6,1.25,1.25,0,0,0,6,4.75"/></g></g></g></svg>