<svg xmlns="http://www.w3.org/2000/svg" xmlns:xlink="http://www.w3.org/1999/xlink" viewBox="0 0 8 7.36"><defs><style>.cls-1{fill:none;}.cls-2{clip-path:url(#clip-path);}.cls-3{fill-rule:evenodd;}</style><clipPath id="clip-path" transform="translate(-3.2 -3.32)"><rect class="cls-1" width="14" height="14" transform="translate(14 14) rotate(-180)"/></clipPath></defs><g id="图层_2" data-name="图层 2"><g id="图层_1-2" data-name="图层 1"><g class="cls-2"><path class="cls-3" d="M3.5,3.37a.52.52,0,0,1,.56.07L6.2,5.14V3.85a.55.55,0,0,1,.3-.48.52.52,0,0,1,.56.07L11,6.58a.54.54,0,0,1,0,.84L7.06,10.56a.52.52,0,0,1-.56.07.55.55,0,0,1-.3-.48V8.86l-2.14,1.7a.52.52,0,0,1-.56.07.55.55,0,0,1-.3-.48V3.85A.55.55,0,0,1,3.5,3.37Z" transform="translate(-3.2 -3.32)"/></g></g></g></svg>