<svg xmlns="http://www.w3.org/2000/svg" xmlns:xlink="http://www.w3.org/1999/xlink" viewBox="0 0 5 7.36"><defs><style>.cls-1{fill:#fff;}.cls-1,.cls-5{fill-rule:evenodd;}.cls-2{fill:none;}.cls-3{clip-path:url(#clip-path);}.cls-4{mask:url(#mask);}</style><clipPath id="clip-path" transform="translate(-4.5 -3.32)"><rect class="cls-2" width="14" height="14" transform="translate(14 14) rotate(-180)"/></clipPath><mask id="mask" x="-5.32" y="-3.77" width="14.89" height="14.89" maskUnits="userSpaceOnUse"><g transform="translate(-4.5 -3.32)"><g id="mask-3"><polygon id="path-2" class="cls-1" points="-0.82 -0.45 -0.82 14.45 14.07 14.45 14.07 -0.45 -0.82 -0.45"/></g></g></mask></defs><g id="图层_2" data-name="图层 2"><g id="图层_1-2" data-name="图层 1"><g class="cls-3"><g class="cls-4"><path id="down" class="cls-5" d="M5.36,10.56a.52.52,0,0,1-.56.07.55.55,0,0,1-.3-.48V3.85a.55.55,0,0,1,.3-.48.52.52,0,0,1,.56.07L9.3,6.58a.54.54,0,0,1,0,.84Z" transform="translate(-4.5 -3.32)"/></g></g></g></g></svg>