<svg xmlns="http://www.w3.org/2000/svg" xmlns:xlink="http://www.w3.org/1999/xlink" viewBox="0 0 5 7.36">
  <defs>
    <style />
    <clipPath id="clip-path" transform="translate(-4.5 -3.32)">
      <rect class="cls-2" width="14" height="14" />
    </clipPath>
    <mask id="mask" x="-4.58" y="-3.77" width="14.89" height="14.89" maskUnits="userSpaceOnUse">
      <g transform="translate(-4.5 -3.32)">
        <g id="mask-3">
          <polygon id="path-2" class="cls-1" points="-0.07 -0.45 -0.07 14.45 14.82 14.45 14.82 -0.45 -0.07 -0.45" />
        </g>
      </g>
    </mask>
  </defs>
  <g id="图层_2" data-name="图层 2">
    <g id="图层_1-2" data-name="图层 1">
      <g class="cls-3">
        <g class="cls-4">
          <path id="down" class="cls-5"
            d="M4.7,7.42a.54.54,0,0,1,0-.84L8.64,3.44a.52.52,0,0,1,.56-.07.55.55,0,0,1,.3.48v6.3a.55.55,0,0,1-.3.48.52.52,0,0,1-.56-.07Z"
            transform="translate(-4.5 -3.32)" />
        </g>
      </g>
    </g>
  </g>
</svg>