<svg xmlns="http://www.w3.org/2000/svg" xmlns:xlink="http://www.w3.org/1999/xlink" viewBox="0 0 8 7.36"><defs><style>.cls-1{fill:none;}.cls-2{clip-path:url(#clip-path);}.cls-3{fill-rule:evenodd;}</style><clipPath id="clip-path" transform="translate(-2.8 -3.32)"><rect class="cls-1" width="14" height="14"/></clipPath></defs><g id="图层_2" data-name="图层 2"><g id="图层_1-2" data-name="图层 1"><g class="cls-2"><path class="cls-3" d="M10.5,3.37a.52.52,0,0,0-.56.07L7.8,5.14V3.85a.55.55,0,0,0-.3-.48.52.52,0,0,0-.56.07L3,6.58a.54.54,0,0,0,0,.84l3.94,3.14a.52.52,0,0,0,.56.07.55.55,0,0,0,.3-.48V8.86l2.14,1.7a.52.52,0,0,0,.56.07.55.55,0,0,0,.3-.48V3.85A.55.55,0,0,0,10.5,3.37Z" transform="translate(-2.8 -3.32)"/></g></g></g></svg>