<svg xmlns="http://www.w3.org/2000/svg" viewBox="0 0 14.03 14"><defs><style>.cls-1{fill:none;}.cls-2{fill:#323333;fill-rule:evenodd;}</style></defs><title>full-screen</title><g id="图层_2" data-name="图层 2"><g id="图层_1-2" data-name="图层 1"><g id="full-screen"><path class="cls-2" d="M14,4.5a.51.51,0,0,1-.5.5.5.5,0,0,1-.5-.5V2.19A.2.2,0,0,0,12.88,2a.18.18,0,0,0-.22,0L9.39,5.31a.46.46,0,0,1-.68,0h0a.51.51,0,0,1,0-.72L12,1.34a.18.18,0,0,0,0-.22A.2.2,0,0,0,11.81,1H9.5A.5.5,0,0,1,9,.5.47.47,0,0,1,9.15.15.47.47,0,0,1,9.5,0h4a.47.47,0,0,1,.35.15A.47.47,0,0,1,14,.5ZM5,.5a.5.5,0,0,1-.5.5H2.19A.2.2,0,0,0,2,1.12a.18.18,0,0,0,0,.22L5.29,4.59a.51.51,0,0,1,0,.72h0a.46.46,0,0,1-.68,0L1.34,2.05a.18.18,0,0,0-.22,0A.2.2,0,0,0,1,2.19V4.5A.5.5,0,0,1,.5,5a.47.47,0,0,1-.35-.15A.47.47,0,0,1,0,4.5V.5A.47.47,0,0,1,.15.15.47.47,0,0,1,.5,0h4a.47.47,0,0,1,.35.15A.47.47,0,0,1,5,.5Zm9,13a.51.51,0,0,1-.5.5h-4a.51.51,0,0,1-.5-.5.5.5,0,0,1,.5-.5h2.31a.2.2,0,0,0,.18-.12.18.18,0,0,0,0-.22L8.69,9.39a.46.46,0,0,1,0-.68h0a.51.51,0,0,1,.72,0L12.66,12a.18.18,0,0,0,.22,0,.2.2,0,0,0,.12-.18V9.5a.5.5,0,0,1,.5-.5.51.51,0,0,1,.5.5ZM0,9.5a.47.47,0,0,1,.15-.35A.47.47,0,0,1,.5,9a.5.5,0,0,1,.5.5v2.31a.2.2,0,0,0,.12.18.18.18,0,0,0,.22,0L4.59,8.71a.51.51,0,0,1,.72,0h0a.46.46,0,0,1,0,.68L2.05,12.66a.18.18,0,0,0,0,.22.2.2,0,0,0,.18.12H4.5a.5.5,0,0,1,.5.5.51.51,0,0,1-.5.5H.5a.47.47,0,0,1-.35-.15A.47.47,0,0,1,0,13.5Z"/></g></g></g></svg>