<?xml version="1.0" encoding="UTF-8" standalone="no"?>
<!DOCTYPE svg PUBLIC "-//W3C//DTD SVG 1.1//EN" "http://www.w3.org/Graphics/SVG/1.1/DTD/svg11.dtd">
<svg width="100%" height="100%" viewBox="0 0 78 78" version="1.1" xmlns="http://www.w3.org/2000/svg" xmlns:xlink="http://www.w3.org/1999/xlink" xml:space="preserve" xmlns:serif="http://www.serif.com/" style="fill-rule:evenodd;clip-rule:evenodd;stroke-linejoin:round;stroke-miterlimit:1.41421;">
    <g transform="matrix(5.55556,0,0,5.55556,-594.444,-2744.44)">
        <g transform="matrix(1,0,0,1,7.10543e-15,458)">
            <g>
                <g transform="matrix(0.608696,0,0,0.608696,94.8261,26.8696)">
                    <rect x="20" y="15" width="23" height="23" style="fill:none;"/>
                </g>
                <g id="维度柱图" transform="matrix(1,0,0,1,-7.10543e-15,-332)">
                    <path d="M107.817,378.708L107.841,378.71L107.865,378.713L107.888,378.717L107.912,378.722L107.935,378.729L107.958,378.737L113.829,380.874L113.85,380.881L113.871,380.887L113.892,380.892L113.913,380.896L113.935,380.899L113.957,380.902L113.978,380.903L114,380.904L114.022,380.903L114.043,380.902L114.065,380.899L114.087,380.896L114.108,380.892L114.129,380.887L114.15,380.881L114.171,380.874L120.03,378.741L120.054,378.733L120.077,378.726L120.101,378.721L120.126,378.717L120.15,378.714L120.174,378.712L120.199,378.711L120.223,378.711L120.247,378.713L120.272,378.716L120.296,378.72L120.32,378.725L120.343,378.731L120.367,378.739L120.39,378.748L120.412,378.758L120.435,378.769L120.456,378.781L120.477,378.794L120.497,378.808L120.517,378.823L120.535,378.839L120.553,378.856L120.57,378.873L120.586,378.891L120.601,378.911L120.615,378.93L120.628,378.951L120.641,378.972L120.652,378.994L120.662,379.017L120.671,379.04C120.671,379.04 120.679,379.063 120.679,379.063L120.686,379.087L120.691,379.111L120.695,379.135L120.699,379.16L120.7,379.184L120.701,379.208L120.701,379.233L120.699,379.257L120.696,379.281L120.692,379.305L120.687,379.329L120.681,379.353L120.673,379.376L120.664,379.399L120.654,379.422L120.643,379.444L120.631,379.466L120.618,379.487L120.604,379.507L120.589,379.526L120.573,379.545L120.557,379.563L120.539,379.58L120.521,379.596L120.501,379.611L120.482,379.625L120.461,379.638L120.44,379.65L120.418,379.662L120.395,379.672L120.372,379.681L115.462,381.468L114.342,381.876L114.3,381.89L114.258,381.902L114.216,381.912L114.173,381.921L114.13,381.927L114.087,381.932L114.043,381.935L114,381.936L113.957,381.935L113.913,381.932L113.87,381.927L113.827,381.921L113.784,381.912L113.742,381.902L113.7,381.89L113.658,381.876L107.639,379.685L107.615,379.675L107.591,379.664L107.568,379.653L107.546,379.64L107.524,379.626L107.504,379.611L107.484,379.595L107.466,379.579L107.448,379.561L107.431,379.543L107.415,379.524L107.4,379.505L107.386,379.484L107.373,379.464L107.361,379.442L107.35,379.42L107.34,379.398L107.332,379.375L107.324,379.351L107.317,379.327L107.312,379.303L107.308,379.279L107.305,379.254L107.303,379.23L107.302,379.205L107.303,379.18L107.304,379.154L107.308,379.129L107.312,379.104L107.318,379.079L107.325,379.054L107.333,379.029L107.333,379.028L107.342,379.005L107.352,378.983L107.363,378.962L107.375,378.941L107.388,378.921L107.402,378.902L107.416,378.883L107.432,378.865L107.448,378.848L107.466,378.832L107.484,378.816L107.503,378.802L107.522,378.788L107.543,378.775L107.564,378.764L107.585,378.753L107.607,378.743L107.63,378.735L107.653,378.727L107.676,378.721L107.699,378.716L107.723,378.712L107.746,378.709L107.77,378.708L107.794,378.707L107.817,378.708ZM107.817,376.123L107.841,376.125L107.865,376.128L107.888,376.132L107.912,376.137L107.935,376.144L107.958,376.152L113.829,378.289L113.85,378.296L113.871,378.302L113.892,378.307L113.913,378.311L113.935,378.314L113.957,378.317L113.978,378.318L114,378.319L114.022,378.318L114.043,378.317L114.065,378.314L114.087,378.311L114.108,378.307L114.129,378.302L114.15,378.296L114.171,378.289L120.031,376.156L120.055,376.148L120.078,376.141L120.102,376.136L120.126,376.131L120.151,376.128L120.175,376.126L120.199,376.126L120.224,376.126L120.248,376.128L120.272,376.131L120.296,376.135L120.32,376.14L120.344,376.146L120.367,376.154L120.39,376.162L120.413,376.172L120.435,376.183L120.456,376.195L120.477,376.208L120.497,376.222L120.517,376.237L120.535,376.253L120.553,376.27L120.57,376.287L120.586,376.306L120.601,376.325L120.615,376.345L120.628,376.365L120.64,376.387L120.652,376.408L120.662,376.431L120.671,376.456L120.679,376.479L120.686,376.503L120.691,376.527L120.696,376.551L120.699,376.575L120.701,376.6L120.701,376.624L120.701,376.648L120.699,376.673L120.696,376.697L120.692,376.721L120.687,376.745L120.681,376.768L120.673,376.792L120.665,376.815L120.655,376.837L120.644,376.86L120.632,376.881L120.619,376.902L120.605,376.922L120.59,376.941L120.574,376.96L120.557,376.977L120.54,376.994L120.521,377.01L120.502,377.025L120.482,377.04L120.462,377.053L120.44,377.065L120.419,377.076L120.396,377.086L120.373,377.095L115.462,378.883L114.342,379.291L114.3,379.305L114.258,379.317L114.216,379.327L114.173,379.336L114.13,379.342L114.087,379.347L114.043,379.35L114,379.351L113.957,379.35L113.913,379.347L113.87,379.342L113.827,379.336L113.784,379.327L113.742,379.317L113.7,379.305L113.658,379.291L112.538,378.883L107.639,377.1L107.615,377.09L107.591,377.079L107.568,377.068L107.546,377.055L107.524,377.041L107.504,377.026L107.484,377.01L107.466,376.994L107.448,376.976L107.431,376.958L107.415,376.939L107.4,376.92L107.386,376.899L107.373,376.879L107.361,376.857L107.35,376.835L107.34,376.813L107.332,376.79L107.324,376.766L107.317,376.742L107.312,376.718L107.308,376.694L107.305,376.669L107.303,376.645L107.302,376.62L107.303,376.595L107.304,376.569L107.308,376.544L107.312,376.519L107.318,376.494L107.325,376.469L107.333,376.444L107.333,376.443L107.342,376.42L107.352,376.398L107.363,376.377L107.375,376.356L107.388,376.336L107.402,376.317L107.416,376.298L107.432,376.28L107.448,376.263L107.466,376.247L107.484,376.231L107.503,376.217L107.522,376.203L107.543,376.19L107.564,376.179L107.585,376.168L107.607,376.158L107.63,376.15L107.653,376.142L107.676,376.136L107.699,376.131L107.723,376.127L107.746,376.124L107.77,376.123L107.794,376.122L107.817,376.123ZM112.5,370.682L112.525,370.682L112.549,370.684L112.574,370.687L112.598,370.691L112.622,370.697L112.645,370.703L112.669,370.711L112.691,370.72L112.714,370.73L112.735,370.741L112.757,370.753L112.777,370.766L112.797,370.78L112.817,370.795L112.836,370.811L112.854,370.828L112.871,370.846L112.887,370.865L112.902,370.884L112.916,370.904L112.929,370.925L112.941,370.946L112.952,370.968L112.962,370.99L112.971,371.013L112.978,371.036L112.985,371.06L112.99,371.084L112.995,371.108L112.998,371.132L112.999,371.157L113,371.182L113,375.545L112.999,375.57L112.998,375.595L112.995,375.619L112.99,375.643L112.985,375.667L112.978,375.691L112.971,375.714L112.962,375.736L112.952,375.759L112.941,375.781L112.929,375.802L112.916,375.823L112.902,375.843L112.887,375.862L112.871,375.881L112.854,375.899L112.836,375.916L112.817,375.932L112.797,375.947L112.777,375.961L112.757,375.974L112.735,375.986L112.714,375.997L112.691,376.007L112.669,376.016L112.645,376.024L112.622,376.03L112.598,376.035L112.574,376.04L112.549,376.043L112.525,376.045L112.5,376.045C112.5,376.045 112.475,376.045 112.475,376.045L112.451,376.043L112.426,376.04L112.402,376.035L112.378,376.03L112.355,376.024L112.331,376.016L112.309,376.007L112.286,375.997L112.265,375.986L112.243,375.974L112.223,375.961L112.203,375.947L112.183,375.932L112.164,375.916L112.146,375.899L112.129,375.881L112.113,375.862L112.098,375.843L112.084,375.823L112.071,375.802L112.059,375.781L112.048,375.759L112.038,375.736L112.029,375.714L112.022,375.691L112.015,375.667L112.01,375.643L112.005,375.619L112.002,375.595L112.001,375.57L112,375.545L112,371.182L112.001,371.157L112.002,371.132L112.005,371.108L112.01,371.084L112.015,371.06L112.022,371.036L112.029,371.013L112.038,370.99L112.048,370.968L112.059,370.946L112.071,370.925L112.084,370.904L112.098,370.884L112.113,370.865L112.129,370.846L112.146,370.828L112.164,370.811L112.183,370.795L112.203,370.78L112.223,370.766L112.243,370.753L112.265,370.741L112.286,370.73L112.309,370.72L112.331,370.711L112.355,370.703L112.378,370.697L112.402,370.691L112.426,370.687L112.451,370.684L112.475,370.682L112.5,370.682L112.5,370.682ZM118.5,372.023L118.525,372.023L118.549,372.025L118.574,372.028L118.598,372.032L118.622,372.038L118.645,372.044L118.669,372.052L118.691,372.061L118.714,372.071L118.735,372.081L118.757,372.094L118.777,372.107L118.797,372.121L118.817,372.136L118.836,372.152L118.854,372.169L118.871,372.187L118.887,372.206L118.902,372.225L118.916,372.245L118.929,372.266L118.941,372.287L118.952,372.309L118.962,372.331L118.971,372.354L118.978,372.377L118.985,372.401L118.99,372.425L118.995,372.449L118.998,372.473L118.999,372.498L119,372.523L119,375.545L118.999,375.57L118.998,375.595L118.995,375.619L118.99,375.643L118.985,375.667L118.978,375.691L118.971,375.714L118.962,375.736L118.952,375.759L118.941,375.781L118.929,375.802L118.916,375.823L118.902,375.843L118.887,375.862L118.871,375.881L118.854,375.899L118.836,375.916L118.817,375.932L118.797,375.947L118.777,375.961L118.757,375.974L118.735,375.986L118.714,375.997L118.691,376.007L118.669,376.016L118.645,376.024L118.622,376.03L118.598,376.035L118.574,376.04L118.549,376.043L118.525,376.045L118.5,376.045C118.5,376.045 118.475,376.045 118.475,376.045L118.451,376.043L118.426,376.04L118.402,376.035L118.378,376.03L118.355,376.024L118.331,376.016L118.309,376.007L118.286,375.997L118.265,375.986L118.243,375.974L118.223,375.961L118.203,375.947L118.183,375.932L118.164,375.916L118.146,375.899L118.129,375.881L118.113,375.862L118.098,375.843L118.084,375.823L118.071,375.802L118.059,375.781L118.048,375.759L118.038,375.736L118.029,375.714L118.022,375.691L118.015,375.667L118.01,375.643L118.005,375.619L118.002,375.595L118.001,375.57L118,375.545L118,372.523L118.001,372.498L118.002,372.473L118.005,372.449L118.01,372.425L118.015,372.401L118.022,372.377L118.029,372.354L118.038,372.331L118.048,372.309L118.059,372.287L118.071,372.266L118.084,372.245L118.098,372.225L118.113,372.206L118.129,372.187L118.146,372.169L118.164,372.152L118.183,372.136L118.203,372.121L118.223,372.107L118.243,372.094L118.265,372.081L118.286,372.071L118.309,372.061L118.331,372.052L118.355,372.044L118.378,372.038L118.402,372.032L118.426,372.028L118.451,372.025L118.475,372.023L118.5,372.023L118.5,372.023ZM109.5,368L109.525,368.001L109.549,368.002L109.574,368.005L109.598,368.01L109.622,368.015L109.645,368.022L109.669,368.029L109.691,368.038L109.714,368.048L109.735,368.059L109.757,368.071L109.777,368.084L109.797,368.098L109.817,368.113L109.836,368.129L109.854,368.146L109.871,368.164L109.887,368.183L109.902,368.203L109.916,368.223L109.929,368.243L109.941,368.265L109.952,368.286L109.962,368.309L109.971,368.331L109.978,368.355L109.985,368.378L109.99,368.402L109.995,368.426L109.998,368.451L109.999,368.475L110,368.5L110,375.545L109.999,375.57L109.998,375.595L109.995,375.619L109.99,375.643L109.985,375.667L109.978,375.691L109.971,375.714L109.962,375.736L109.952,375.759L109.941,375.781L109.929,375.802L109.916,375.823L109.902,375.843L109.887,375.862L109.871,375.881L109.854,375.899L109.836,375.916L109.817,375.932L109.797,375.947L109.777,375.961L109.757,375.974L109.735,375.986L109.714,375.997L109.691,376.007L109.669,376.016L109.645,376.024L109.622,376.03L109.598,376.035L109.574,376.04L109.549,376.043L109.525,376.045L109.5,376.045C109.5,376.045 109.475,376.045 109.475,376.045L109.451,376.043L109.426,376.04L109.402,376.035L109.378,376.03L109.355,376.024L109.331,376.016L109.309,376.007L109.286,375.997L109.265,375.986L109.243,375.974L109.223,375.961L109.203,375.947L109.183,375.932L109.164,375.916L109.146,375.899L109.129,375.881L109.113,375.862L109.098,375.843L109.084,375.823L109.071,375.802L109.059,375.781L109.048,375.759L109.038,375.736L109.029,375.714L109.022,375.691L109.015,375.667L109.01,375.643L109.005,375.619L109.002,375.595L109.001,375.57L109,375.545L109,368.5L109.001,368.475L109.002,368.451L109.005,368.426L109.01,368.402L109.015,368.378L109.022,368.355L109.029,368.331L109.038,368.309L109.048,368.286L109.059,368.265L109.071,368.243L109.084,368.223L109.098,368.203L109.113,368.183L109.129,368.164L109.146,368.146L109.164,368.129L109.183,368.113L109.203,368.098L109.223,368.084L109.243,368.071L109.265,368.059L109.286,368.048L109.309,368.038L109.331,368.029L109.355,368.022L109.378,368.015L109.402,368.01L109.426,368.005L109.451,368.002L109.475,368.001L109.5,368L109.5,368ZM115.5,369.341L115.525,369.341L115.549,369.343L115.574,369.346L115.598,369.351L115.622,369.356L115.645,369.362L115.669,369.37L115.691,369.379L115.714,369.389L115.735,369.4L115.757,369.412L115.777,369.425L115.797,369.439L115.817,369.454L115.836,369.47L115.854,369.487L115.871,369.505L115.887,369.524L115.902,369.543L115.916,369.563L115.929,369.584L115.941,369.605L115.952,369.627L115.962,369.65L115.971,369.672L115.978,369.695L115.985,369.719L115.99,369.743L115.995,369.767L115.998,369.791L115.999,369.816L116,369.841L116,375.545L115.999,375.57L115.998,375.595L115.995,375.619L115.99,375.643L115.985,375.667L115.978,375.691L115.971,375.714L115.962,375.736L115.952,375.759L115.941,375.781L115.929,375.802L115.916,375.823L115.902,375.843L115.887,375.862L115.871,375.881L115.854,375.899L115.836,375.916L115.817,375.932L115.797,375.947L115.777,375.961L115.757,375.974L115.735,375.986L115.714,375.997L115.691,376.007L115.669,376.016L115.645,376.024L115.622,376.03L115.598,376.035L115.574,376.04L115.549,376.043L115.525,376.045L115.5,376.045C115.5,376.045 115.475,376.045 115.475,376.045L115.451,376.043L115.426,376.04L115.402,376.035L115.378,376.03L115.355,376.024L115.331,376.016L115.309,376.007L115.286,375.997L115.265,375.986L115.243,375.974L115.223,375.961L115.203,375.947L115.183,375.932L115.164,375.916L115.146,375.899L115.129,375.881L115.113,375.862L115.098,375.843L115.084,375.823L115.071,375.802L115.059,375.781L115.048,375.759L115.038,375.736L115.029,375.714L115.022,375.691L115.015,375.667L115.01,375.643L115.005,375.619L115.002,375.595L115.001,375.57L115,375.545L115,369.841L115.001,369.816L115.002,369.791L115.005,369.767L115.01,369.743L115.015,369.719L115.022,369.695L115.029,369.672L115.038,369.65L115.048,369.627L115.059,369.605L115.071,369.584L115.084,369.563L115.098,369.543L115.113,369.524L115.129,369.505L115.146,369.487L115.164,369.47L115.183,369.454L115.203,369.439L115.223,369.425L115.243,369.412L115.265,369.4L115.286,369.389L115.309,369.379L115.331,369.37L115.355,369.362L115.378,369.356L115.402,369.351L115.426,369.346L115.451,369.343L115.475,369.341L115.5,369.341L115.5,369.341Z" style="fill:rgb(51,51,51);"/>
                </g>
            </g>
        </g>
    </g>
</svg>
