<?xml version="1.0" encoding="UTF-8" standalone="no"?>
<!DOCTYPE svg PUBLIC "-//W3C//DTD SVG 1.1//EN" "http://www.w3.org/Graphics/SVG/1.1/DTD/svg11.dtd">
<svg width="100%" height="100%" viewBox="0 0 78 78" version="1.1" xmlns="http://www.w3.org/2000/svg" xmlns:xlink="http://www.w3.org/1999/xlink" xml:space="preserve" xmlns:serif="http://www.serif.com/" style="fill-rule:evenodd;clip-rule:evenodd;stroke-linejoin:round;stroke-miterlimit:1.41421;">
    <g transform="matrix(5.55556,0,0,5.55556,-1127.78,-2744.44)">
        <g transform="matrix(1,0,0,1,7.10543e-15,458)">
            <g>
                <g transform="matrix(0.608696,0,0,0.608696,190.826,26.8696)">
                    <rect x="20" y="15" width="23" height="23" style="fill:none;"/>
                </g>
                <g id="周期对比线图" transform="matrix(1,0,0,1,0.0216658,-304)">
                    <g transform="matrix(1,0,0,1,-0.0216658,-40)">
                        <path d="M213.569,383.251C213.683,383.105 213.707,382.908 213.631,382.739C213.558,382.591 213.522,382.424 213.522,382.248C213.522,381.558 214.082,380.998 214.772,380.998C215.462,380.998 216.022,381.558 216.022,382.248C216.022,382.938 215.462,383.498 214.772,383.498C214.748,383.498 214.725,383.498 214.702,383.496C214.54,383.489 214.384,383.561 214.285,383.689C213.827,384.276 213.356,384.853 212.888,385.432C212.837,385.496 212.83,385.584 212.87,385.656C212.967,385.832 213.022,386.035 213.022,386.25C213.022,386.94 212.462,387.5 211.772,387.5C211.082,387.5 210.522,386.94 210.522,386.25C210.522,386.142 210.535,386.038 210.561,385.938C210.58,385.864 210.556,385.786 210.497,385.736C210.191,385.474 209.263,384.686 208.957,384.426C208.899,384.376 208.817,384.365 208.746,384.397C208.594,384.463 208.426,384.5 208.25,384.5C208.165,384.5 208.082,384.492 208.002,384.475C207.927,384.46 207.85,384.489 207.803,384.55C207.559,384.87 206.819,385.843 206.47,386.302C206.363,386.443 206.339,386.63 206.406,386.794C206.469,386.933 206.5,387.087 206.5,387.249C206.5,387.939 205.94,388.499 205.25,388.499C204.56,388.499 204,387.939 204,387.249C204,386.559 204.56,385.999 205.25,385.999C205.287,385.999 205.324,386.001 205.36,386.004C205.53,386.017 205.695,385.943 205.798,385.807C206.239,385.226 206.692,384.653 207.142,384.078C207.192,384.014 207.198,383.925 207.158,383.855C207.057,383.676 207,383.47 207,383.25C207,382.56 207.56,382 208.25,382C208.94,382 209.5,382.56 209.5,383.25C209.5,383.381 209.48,383.507 209.443,383.625C209.418,383.702 209.442,383.786 209.503,383.838C209.808,384.099 210.689,384.848 210.994,385.107C211.056,385.159 211.143,385.169 211.215,385.132C211.383,385.047 211.572,385 211.772,385C211.86,385 211.947,385.009 212.03,385.027C212.105,385.043 212.182,385.015 212.229,384.955C212.473,384.645 213.21,383.707 213.569,383.251Z" style="fill:rgb(51,51,51);"/>
                    </g>
                    <path d="M216.5,354C216.224,354 216,353.776 216,353.5C216,353.378 216,353.256 216,353.163C216,353.119 215.983,353.078 215.952,353.047C215.922,353.017 215.88,353 215.837,353C214.51,353 205.49,353 204.163,353C204.12,353 204.078,353.017 204.048,353.047C204.017,353.078 204,353.119 204,353.163C204,353.256 204,353.378 204,353.5C204,353.776 203.776,354 203.5,354C203.367,354 203.24,353.947 203.146,353.854C203.053,353.76 203,353.633 203,353.5C203,352.542 203,350.458 203,349.5C203,349.367 203.053,349.24 203.146,349.146C203.24,349.053 203.367,349 203.5,349C203.633,349 203.76,349.053 203.854,349.146C203.947,349.24 204,349.367 204,349.5C204,350.055 204,350.945 204,351.5C204,351.632 204.053,351.759 204.146,351.853C204.24,351.947 204.367,352 204.5,352C206.452,352 213.548,352 215.5,352C215.633,352 215.76,351.947 215.854,351.853C215.947,351.759 216,351.632 216,351.5C216,350.945 216,350.055 216,349.5C216,349.367 216.053,349.24 216.146,349.146C216.24,349.053 216.367,349 216.5,349C216.633,349 216.76,349.053 216.854,349.146C216.947,349.24 217,349.367 217,349.5C217,350.458 217,352.542 217,353.5C217,353.633 216.947,353.76 216.854,353.854C216.76,353.947 216.633,354 216.5,354C216.5,354 216.5,354 216.5,354Z" style="fill:rgb(51,51,51);"/>
                </g>
            </g>
        </g>
    </g>
</svg>
