<?xml version="1.0" encoding="UTF-8" standalone="no"?>
<!DOCTYPE svg PUBLIC "-//W3C//DTD SVG 1.1//EN" "http://www.w3.org/Graphics/SVG/1.1/DTD/svg11.dtd">
<svg width="100%" height="100%" viewBox="0 0 78 78" version="1.1" xmlns="http://www.w3.org/2000/svg" xmlns:xlink="http://www.w3.org/1999/xlink" xml:space="preserve" xmlns:serif="http://www.serif.com/" style="fill-rule:evenodd;clip-rule:evenodd;stroke-linejoin:round;stroke-miterlimit:1.41421;">
    <g transform="matrix(5.55556,0,0,5.55556,-461.111,-2744.44)">
        <g transform="matrix(1,0,0,1,7.10543e-15,458)">
            <g>
                <g transform="matrix(0.608696,0,0,0.608696,70.8261,26.8696)">
                    <rect x="20" y="15" width="23" height="23" style="fill:none;"/>
                </g>
                <g id="维度线图" transform="matrix(1,0,0,1,-7.10543e-15,-332)">
                    <path d="M90.342,381.891C90.121,381.971 89.879,381.971 89.658,381.891C88.529,381.48 84.922,380.167 83.627,379.695C83.368,379.601 83.234,379.315 83.329,379.056C83.329,379.055 83.329,379.055 83.329,379.054C83.375,378.93 83.467,378.828 83.587,378.772C83.707,378.716 83.845,378.71 83.969,378.756C85.288,379.236 88.989,380.583 89.829,380.889C89.939,380.929 90.061,380.929 90.171,380.889C91.011,380.583 94.71,379.236 96.03,378.756C96.155,378.711 96.292,378.717 96.412,378.773C96.533,378.829 96.626,378.93 96.671,379.055C96.671,379.055 96.671,379.055 96.671,379.056C96.717,379.18 96.711,379.317 96.655,379.437C96.599,379.557 96.497,379.65 96.373,379.695C95.063,380.172 91.462,381.483 91.462,381.483C91.462,381.483 90.774,381.733 90.342,381.891ZM90.342,379.306C90.121,379.386 89.879,379.386 89.658,379.306C89.226,379.148 88.538,378.898 88.538,378.898C88.538,378.898 84.937,377.587 83.627,377.11C83.503,377.065 83.401,376.972 83.345,376.852C83.289,376.732 83.283,376.595 83.329,376.471C83.329,376.47 83.329,376.47 83.329,376.469C83.375,376.345 83.467,376.243 83.587,376.187C83.707,376.131 83.845,376.125 83.969,376.171C85.288,376.651 88.989,377.998 89.829,378.304C89.939,378.344 90.061,378.344 90.171,378.304C91.011,377.998 94.712,376.651 96.031,376.171C96.155,376.125 96.293,376.131 96.413,376.187C96.533,376.243 96.625,376.345 96.671,376.469C96.671,376.47 96.671,376.47 96.671,376.471C96.717,376.595 96.711,376.732 96.655,376.852C96.599,376.972 96.497,377.065 96.373,377.11C95.063,377.587 91.462,378.898 91.462,378.898C91.462,378.898 90.774,379.148 90.342,379.306ZM93.646,370.844C93.742,370.69 93.747,370.494 93.658,370.335C93.554,370.165 93.5,369.964 93.5,369.75C93.5,369.06 94.06,368.5 94.75,368.5C95.44,368.5 96,369.06 96,369.75C96,370.44 95.44,371 94.75,371C94.75,371 94.75,371 94.75,371C94.611,371 94.483,371.072 94.41,371.189C94.055,371.762 93.687,372.326 93.321,372.892C93.28,372.957 93.279,373.041 93.32,373.106C93.435,373.294 93.5,373.514 93.5,373.75C93.5,374.44 92.94,375 92.25,375C91.56,375 91,374.44 91,373.75C91,373.649 91.012,373.55 91.035,373.456C91.054,373.378 91.025,373.296 90.961,373.249C90.601,372.978 89.464,372.126 89.108,371.86C89.045,371.813 88.959,371.807 88.89,371.847C88.713,371.945 88.509,372 88.293,372C88.139,372 87.993,371.972 87.857,371.922C87.784,371.894 87.701,371.911 87.645,371.967C87.423,372.187 86.872,372.74 86.568,373.044C86.45,373.163 86.399,373.333 86.433,373.498C86.453,373.579 86.462,373.663 86.462,373.75C86.462,374.44 85.902,375 85.212,375C84.522,375 83.962,374.44 83.962,373.75C83.962,373.06 84.522,372.5 85.212,372.5C85.325,372.5 85.434,372.515 85.537,372.543C85.708,372.589 85.892,372.541 86.017,372.415C86.368,372.073 86.72,371.732 87.071,371.39C87.128,371.334 87.146,371.251 87.118,371.176C87.069,371.043 87.043,370.9 87.043,370.75C87.043,370.06 87.603,369.5 88.293,369.5C88.982,369.5 89.543,370.06 89.543,370.75C89.543,370.842 89.533,370.931 89.514,371.017C89.497,371.093 89.526,371.173 89.589,371.22C89.949,371.49 91.108,372.358 91.464,372.624C91.526,372.671 91.609,372.677 91.678,372.64C91.849,372.55 92.044,372.5 92.25,372.5C92.319,372.5 92.387,372.506 92.454,372.517C92.533,372.53 92.613,372.494 92.655,372.426C92.85,372.117 93.374,371.278 93.646,370.844Z" style="fill:rgb(51,51,51);fill-rule:nonzero;"/>
                </g>
            </g>
        </g>
    </g>
</svg>
