<svg xmlns="http://www.w3.org/2000/svg" viewBox="0 0 14 14.01"><defs><style>.cls-1{fill:none;}.cls-2{fill:#323333;fill-rule:evenodd;}</style></defs><title>help-document</title><g id="Layer_2" data-name="Layer 2"><g id="图层_1" data-name="图层 1"><g id="help-document"><rect class="cls-1" y="0.01" width="14" height="14"/><path class="cls-2" d="M12.87,2.67a.18.18,0,0,1,0,.21.19.19,0,0,1-.18.13H10.2a.21.21,0,0,1-.2-.2V.2A.22.22,0,0,1,10.12,0a.2.2,0,0,1,.22,0ZM10.5,6a.5.5,0,0,0,.5-.5.5.5,0,0,0-.5-.5h-7a.5.5,0,0,0-.5.5.5.5,0,0,0,.5.5Zm0,2.5A.5.5,0,0,0,11,8a.5.5,0,0,0-.5-.5h-7A.5.5,0,0,0,3,8a.5.5,0,0,0,.5.5ZM7.5,11a.51.51,0,0,0,.35-.15A.47.47,0,0,0,8,10.51a.49.49,0,0,0-.15-.36A.5.5,0,0,0,7.5,10h-4a.5.5,0,0,0-.35.14.49.49,0,0,0-.15.36.47.47,0,0,0,.15.35A.51.51,0,0,0,3.5,11Zm2-7.7a.2.2,0,0,0,.2.2h3.1a.2.2,0,0,1,.2.2V13a1,1,0,0,1-1,1H2a1,1,0,0,1-1-1V1A1,1,0,0,1,2,0H9.3a.2.2,0,0,1,.2.2Z"/></g></g></g></svg>