<svg xmlns="http://www.w3.org/2000/svg" viewBox="0 0 14 14"><defs><style>.cls-1{fill:none;}.cls-2,.cls-3{fill:#323333;}.cls-2{fill-rule:evenodd;}</style></defs><title>invitation</title><g id="图层_2" data-name="图层 2"><g id="图层_1-2" data-name="图层 1"><g id="invitation"><path class="cls-2" d="M5,5.83A2.92,2.92,0,1,1,7.88,2.92,2.91,2.91,0,0,1,5,5.83Z"/><path class="cls-3" d="M13.42,5.25h-1a.2.2,0,0,1-.2-.2v-1a.59.59,0,0,0-1.17,0v1a.2.2,0,0,1-.2.2h-1a.59.59,0,1,0,0,1.17h1a.2.2,0,0,1,.2.2v1a.59.59,0,1,0,1.17,0v-1a.2.2,0,0,1,.2-.2h1a.59.59,0,0,0,0-1.17Z"/><path class="cls-3" d="M7,7.06H2.92A3.24,3.24,0,0,0,0,10.54V13a1,1,0,0,0,.29.71A1,1,0,0,0,1,14H8.92a1,1,0,0,0,1-1V10.54A3.25,3.25,0,0,0,7,7.06Z"/></g></g></g></svg>