<svg id="图层_1" data-name="图层 1" xmlns="http://www.w3.org/2000/svg" viewBox="0 0 160 34.63"><defs><style>.cls-1{fill:#191140;}.cls-2{fill:#fc5f3a;}</style></defs><title>GrowingIO橘</title><g id="图层_1-2" data-name="图层 1"><path class="cls-1" d="M270.33,66.37a14.16,14.16,0,0,1-.46,3.6,12.73,12.73,0,0,1-12.14,9.74c-7,0-12.61-6-12.61-13.34S250.77,53,257.73,53a12.35,12.35,0,0,1,9.7,4.81v0a7.23,7.23,0,0,1-4.16,2.21,0,0,0,0,0,0,0,7.82,7.82,0,0,0-5.52-2.31c-4.49,0-8.12,3.91-8.12,8.7a8.42,8.42,0,0,0,8.12,8.69A8.1,8.1,0,0,0,265.16,70h-7.33a8.33,8.33,0,0,1,1.33-4.45h11.14C270.31,65.81,270.33,66.1,270.33,66.37Z" transform="translate(-245.11 -53.04)"/><path id="_复合路径_" data-name=" 复合路径 " class="cls-1" d="M298.29,67.25a8.84,8.84,0,0,0-1.81-2.86,8.31,8.31,0,0,0-2.69-1.91,7.87,7.87,0,0,0-6.58,0,8.57,8.57,0,0,0-2.71,1.91,9,9,0,0,0-1.81,2.86,9.47,9.47,0,0,0,0,7,8.9,8.9,0,0,0,1.81,2.86A8.61,8.61,0,0,0,287.21,79a8,8,0,0,0,6.58,0,8.34,8.34,0,0,0,2.69-1.92,8.74,8.74,0,0,0,1.81-2.85,9.35,9.35,0,0,0,0-7Zm-4.11,5.22a4.57,4.57,0,0,1-.86,1.42,3.75,3.75,0,0,1-1.27.94,3.48,3.48,0,0,1-1.55.35,3.55,3.55,0,0,1-1.56-.35,4,4,0,0,1-1.27-.94,5,5,0,0,1-.86-1.42,5,5,0,0,1-.31-1.72,5,5,0,0,1,.31-1.72,4.85,4.85,0,0,1,.86-1.42,4.11,4.11,0,0,1,1.27-.94,3.56,3.56,0,0,1,1.56-.36,3.49,3.49,0,0,1,1.55.36,3.89,3.89,0,0,1,1.27.94,4.46,4.46,0,0,1,.86,1.42,4.77,4.77,0,0,1,.32,1.72A4.83,4.83,0,0,1,294.18,72.46Z" transform="translate(-245.11 -53.04)"/><path id="_复合路径_2" data-name=" 复合路径 2" class="cls-2" d="M392.51,53.09c-7,0-12.61,6-12.61,13.33s5.66,13.33,12.61,13.33,12.6-6,12.6-13.33S399.47,53.09,392.51,53.09Zm0,22.11a8.72,8.72,0,0,1,0-17.4c4.5,0,8.12,3.91,8.12,8.71a8.42,8.42,0,0,1-8.12,8.69Z" transform="translate(-245.11 -53.04)"/><path id="_路径_" data-name=" 路径 " class="cls-2" d="M377.54,53.18V79.75h-4.47V54.48A7.36,7.36,0,0,1,377.54,53.18Z" transform="translate(-245.11 -53.04)"/><path class="cls-1" d="M365.79,78.88a4.68,4.68,0,0,1-.3,1.53,5,5,0,0,1-.87,1.43,4,4,0,0,1-1.27.94,3.54,3.54,0,0,1-1.54.34,3.69,3.69,0,0,1-1.56-.34,2.83,2.83,0,0,1-.64-.39s0,0-.05,0a7.41,7.41,0,0,0-4.32,2v0a6.6,6.6,0,0,0,.58.7A9,9,0,0,0,358.52,87a8,8,0,0,0,6.58,0c.25-.12.49-.23.72-.36a8.61,8.61,0,0,0,2-1.57,8.74,8.74,0,0,0,1.8-2.86,9.2,9.2,0,0,0,.68-3.49V62.57a7.34,7.34,0,0,0-4.46-1.26v1.51a7.22,7.22,0,0,0-.71-.35,7.78,7.78,0,0,0-6.59,0,8.57,8.57,0,0,0-2.69,1.9A9,9,0,0,0,354,67.24a9.23,9.23,0,0,0-.67,3.5,9.35,9.35,0,0,0,.67,3.5,4.05,4.05,0,0,0,.16.37,8.91,8.91,0,0,0,1.65,2.49,8.71,8.71,0,0,0,2,1.56,5.55,5.55,0,0,0,.69.35,7.87,7.87,0,0,0,6.59,0,6.13,6.13,0,0,0,.7-.35Zm-.31-6.42a4.47,4.47,0,0,1-.86,1.42,3.94,3.94,0,0,1-.86.74c-.13.07-.27.15-.41.21a3.55,3.55,0,0,1-3.11,0c-.14-.06-.27-.14-.4-.21a3.64,3.64,0,0,1-.87-.74,4.57,4.57,0,0,1-.86-1.42,5,5,0,0,1-.31-1.72,1.08,1.08,0,0,1,0-.18,4.7,4.7,0,0,1,.3-1.55,4.63,4.63,0,0,1,.86-1.42,4,4,0,0,1,1.27-.94,3.6,3.6,0,0,1,3.11,0,4,4,0,0,1,1.27.94,4.52,4.52,0,0,1,.86,1.42,4.84,4.84,0,0,1,.31,1.55,1.08,1.08,0,0,1,0,.18A4.92,4.92,0,0,1,365.48,72.45Z" transform="translate(-245.11 -53.04)"/><path class="cls-1" d="M351.47,68.66V79.73H347v-9a1.08,1.08,0,0,0,0-.18,5,5,0,0,0-.31-1.54,4.34,4.34,0,0,0-.86-1.42,3.89,3.89,0,0,0-1.27-.94,3.48,3.48,0,0,0-3,0l-.07,0a4.07,4.07,0,0,0-1.27.94,4.6,4.6,0,0,0-.86,1.42,4.69,4.69,0,0,0-.3,1.54,1.09,1.09,0,0,0,0,.18v9h-4.49V62.55A7.36,7.36,0,0,1,339,61.3v2.09a7.83,7.83,0,0,1,4.09-1.61c.23,0,.46,0,.7,0a7.84,7.84,0,0,1,3.2.68A7.42,7.42,0,0,1,351.47,68.66Z" transform="translate(-245.11 -53.04)"/><path class="cls-1" d="M282.12,62a7.34,7.34,0,0,1-.23,1.56,6.84,6.84,0,0,1-1.11,2.78,3.18,3.18,0,0,0-1.23.34,3.94,3.94,0,0,0-1.26.91,4.81,4.81,0,0,0-.87,1.43,4.94,4.94,0,0,0-.3,1.72v9h-4.47V62.55a8,8,0,0,1,3.74-1.25c.34,0,.6,0,.74,0v1.54a8.3,8.3,0,0,1,5-1A.54.54,0,0,1,282.12,62Z" transform="translate(-245.11 -53.04)"/><path id="_路径_2" data-name=" 路径 2" class="cls-1" d="M325.69,61.73l-6.4,17.8h0a11.54,11.54,0,0,1-2.38.25,9.74,9.74,0,0,1-2.2-.25h0l-2.82-9.77-2.82,9.7h0a11.45,11.45,0,0,1-2.35.25,12.42,12.42,0,0,1-2.2-.2h0l-6.4-17.76h4.75l3.89,10.89,2.9-10.54h4.48L317,72.63l3.92-10.87,4.78,0Z" transform="translate(-245.11 -53.04)"/><path class="cls-1" d="M331.69,54.67v4A8.43,8.43,0,0,0,327.21,60h0V56h0A8.43,8.43,0,0,1,331.69,54.67Z" transform="translate(-245.11 -53.04)"/><path class="cls-1" d="M327.22,79.73h4.47V61.3a8.42,8.42,0,0,0-4.48,1.33h0Z" transform="translate(-245.11 -53.04)"/></g></svg>