<svg xmlns="http://www.w3.org/2000/svg" viewBox="0 0 453.54 98.17"><defs><style>.cls-1{fill:#fff;}</style></defs><title>GrowingIO白</title><g id="图层_1" data-name="图层 1"><path class="cls-1" d="M805.43,528.91a40.14,40.14,0,0,1-1.31,10.2c-4.2,15.92-18,27.62-34.4,27.62C750,566.73,734,549.79,734,528.91s16-37.78,35.75-37.78a35,35,0,0,1,27.5,13.64.13.13,0,0,0,0,.08c-5.41,5.29-10.52,6.18-11.8,6.31a.09.09,0,0,0-.09-.08,22.18,22.18,0,0,0-15.65-6.58c-12.74,0-23,11.08-23,24.67s10.31,24.62,23,24.62a22.94,22.94,0,0,0,21.07-14.67H770a23.61,23.61,0,0,1,3.77-12.61h31.58v0C805.39,527.31,805.43,528.12,805.43,528.91Z" transform="translate(-733.96 -491.13)"/><path id="_复合路径_" data-name="&lt;复合路径&gt;" class="cls-1" d="M884.69,531.37a25.07,25.07,0,0,0-5.13-8.1,23.56,23.56,0,0,0-7.62-5.41,22.32,22.32,0,0,0-18.64,0,24.3,24.3,0,0,0-7.65,5.41,25.55,25.55,0,0,0-5.13,8.1,26.85,26.85,0,0,0,0,19.83,25.24,25.24,0,0,0,5.13,8.1,24.39,24.39,0,0,0,7.65,5.44,22.6,22.6,0,0,0,18.64,0,23.65,23.65,0,0,0,7.62-5.44,24.77,24.77,0,0,0,5.13-8.1,26.48,26.48,0,0,0,0-19.83ZM873,546.16a13,13,0,0,1-2.44,4,10.64,10.64,0,0,1-3.6,2.66,9.86,9.86,0,0,1-4.39,1,10.07,10.07,0,0,1-4.42-1,11.22,11.22,0,0,1-3.6-2.66,14.14,14.14,0,0,1-2.44-4,14.29,14.29,0,0,1-.88-4.9,14.13,14.13,0,0,1,.88-4.87,13.76,13.76,0,0,1,2.44-4,11.65,11.65,0,0,1,3.6-2.66,10.1,10.1,0,0,1,4.42-1,9.89,9.89,0,0,1,4.39,1,11,11,0,0,1,3.6,2.66,12.65,12.65,0,0,1,2.44,4,13.52,13.52,0,0,1,.91,4.87A13.68,13.68,0,0,1,873,546.16Z" transform="translate(-733.96 -491.13)"/><path id="_复合路径_2" data-name="&lt;复合路径&gt;" class="cls-1" d="M1151.78,491.22c-19.75,0-35.76,16.91-35.76,37.8s16,37.8,35.76,37.8,35.73-16.91,35.73-37.8S1171.5,491.22,1151.78,491.22Zm0,62.67c-12.75,0-23.06-11-23.06-24.65s10.31-24.68,23.06-24.68,23,11.08,23,24.68S1164.5,553.89,1151.78,553.89Z" transform="translate(-733.96 -491.13)"/><path id="_路径_" data-name="&lt;路径&gt;" class="cls-1" d="M1109.33,491.5v75.32h-12.66V495.18C1102.77,491.33,1107.75,491.33,1109.33,491.5Z" transform="translate(-733.96 -491.13)"/><path class="cls-1" d="M1076,564.34a13.27,13.27,0,0,1-.85,4.33,14.06,14.06,0,0,1-2.47,4,11.24,11.24,0,0,1-3.61,2.67,10,10,0,0,1-4.36,1,10.48,10.48,0,0,1-4.41-1,8,8,0,0,1-1.82-1.1c-.08,0-.11,0-.16-.11-1.5.07-6.6.72-12.26,5.61v0a18.71,18.71,0,0,0,1.65,2,25.38,25.38,0,0,0,7.65,5.46,22.56,22.56,0,0,0,18.65,0c.69-.32,1.38-.65,2-1a24.43,24.43,0,0,0,5.61-4.44,24.78,24.78,0,0,0,5.11-8.1,26.07,26.07,0,0,0,1.93-9.9V518.14c-6.22-3.85-11.24-3.72-12.65-3.57v4.27a20.46,20.46,0,0,0-2-1,22.06,22.06,0,0,0-18.68,0,24.29,24.29,0,0,0-7.62,5.39,25.62,25.62,0,0,0-5.13,8.12,26.16,26.16,0,0,0-1.89,9.92,26.48,26.48,0,0,0,1.89,9.92,11.49,11.49,0,0,0,.47,1.06,25.26,25.26,0,0,0,4.67,7.05,24.68,24.68,0,0,0,5.67,4.41,15.74,15.74,0,0,0,1.95,1,22.34,22.34,0,0,0,18.68,0,17.38,17.38,0,0,0,2-1Zm-.88-18.21a12.66,12.66,0,0,1-2.43,4,11.15,11.15,0,0,1-2.44,2.07c-.37.2-.76.42-1.16.59a10.07,10.07,0,0,1-8.82,0c-.39-.17-.76-.39-1.14-.59a10.32,10.32,0,0,1-2.45-2.07,13,13,0,0,1-2.44-4,14.23,14.23,0,0,1-.87-4.88,3.06,3.06,0,0,1,0-.51,13.32,13.32,0,0,1,.85-4.39,13.12,13.12,0,0,1,2.44-4,11.33,11.33,0,0,1,3.6-2.67,10.2,10.2,0,0,1,8.82,0,11.33,11.33,0,0,1,3.6,2.67,12.82,12.82,0,0,1,2.43,4,13.72,13.72,0,0,1,.89,4.39,3.06,3.06,0,0,1,0,.51A13.94,13.94,0,0,1,1075.16,546.13Z" transform="translate(-733.96 -491.13)"/><path class="cls-1" d="M1035.44,535.37v31.38h-12.67V541.31a3.06,3.06,0,0,0,0-.51,14.1,14.1,0,0,0-.87-4.36,12.3,12.3,0,0,0-2.44-4,11,11,0,0,0-3.6-2.67,9.87,9.87,0,0,0-8.6-.08l-.2.08a11.54,11.54,0,0,0-3.61,2.67,13,13,0,0,0-2.43,4,13.31,13.31,0,0,0-.86,4.36,3.08,3.08,0,0,0,0,.51v25.46H987.46V518.07c6.22-3.84,11.24-3.71,12.65-3.55v5.92a22.2,22.2,0,0,1,11.59-4.57c.65-.06,1.3-.08,2-.08a22.22,22.22,0,0,1,9.08,1.93C1029.15,520.58,1035,527.05,1035.44,535.37Z" transform="translate(-733.96 -491.13)"/><path class="cls-1" d="M838.85,516.53a20.8,20.8,0,0,1-.65,4.41,19.38,19.38,0,0,1-3.16,7.88,9,9,0,0,0-3.47,1,11.19,11.19,0,0,0-3.6,2.62,13.62,13.62,0,0,0-2.47,4,14,14,0,0,0-.86,4.85v25.4H812V518.07a22.7,22.7,0,0,1,10.59-3.55c1,0,1.71,0,2.06,0v4.37a23.54,23.54,0,0,1,14.16-2.79A1.53,1.53,0,0,1,838.85,516.53Z" transform="translate(-733.96 -491.13)"/><path id="_路径_2" data-name="&lt;路径&gt;" class="cls-1" d="M962.38,515.75l-18.13,50.44h0a32.73,32.73,0,0,1-6.75.68,27.62,27.62,0,0,1-6.23-.68h0l-8-27.69-8,27.48h0a32.46,32.46,0,0,1-6.65.68,35.22,35.22,0,0,1-6.23-.57h0l-18.13-50.34H897.7l11,30.86,8.21-29.87H929.6l8.1,29.87,11.12-30.8,13.56-.05Z" transform="translate(-733.96 -491.13)"/><path class="cls-1" d="M979.38,495.72V507a23.89,23.89,0,0,0-12.7,3.77h0V499.5h0A23.89,23.89,0,0,1,979.38,495.72Z" transform="translate(-733.96 -491.13)"/><path class="cls-1" d="M966.71,566.76h12.67V514.51a23.87,23.87,0,0,0-12.69,3.77h0Z" transform="translate(-733.96 -491.13)"/></g></svg>