<?xml version="1.0" encoding="UTF-8" standalone="no"?>
<!DOCTYPE svg PUBLIC "-//W3C//DTD SVG 1.1//EN" "http://www.w3.org/Graphics/SVG/1.1/DTD/svg11.dtd">
<svg width="100%" height="100%" viewBox="0 0 14 14" version="1.1" xmlns="http://www.w3.org/2000/svg" xmlns:xlink="http://www.w3.org/1999/xlink" xml:space="preserve" xmlns:serif="http://www.serif.com/" style="fill-rule:evenodd;clip-rule:evenodd;stroke-linejoin:round;stroke-miterlimit:2;">
    <g transform="matrix(1,0,0,1,-254.446,-722.188)">
        <g id="第一组">
        </g>
        <g id="第一组1" serif:id="第一组" transform="matrix(1,0,0,1,7.10543e-15,16)">
            <g id="upload">
            </g>
        </g>
        <g id="第二组">
        </g>
        <g id="第二组1" serif:id="第二组">
        </g>
        <g id="第三组">
        </g>
        <g id="第三组1" serif:id="第三组">
        </g>
        <g id="第四组">
        </g>
        <g id="第四组1" serif:id="第四组">
        </g>
        <g id="第五组">
        </g>
        <g id="第五组1" serif:id="第五组">
        </g>
        <g id="第六组">
        </g>
        <g id="第六组1" serif:id="第六组">
        </g>
        <g id="第六组2" serif:id="第六组">
        </g>
        <g id="第六组3" serif:id="第六组">
        </g>
        <g id="第七组">
        </g>
        <g id="第七组1" serif:id="第七组">
        </g>
        <g id="第八组">
        </g>
        <g id="第八组1" serif:id="第八组">
        </g>
        <g id="第九组">
        </g>
        <g id="第九组1" serif:id="第九组">
        </g>
        <g id="第十组">
        </g>
        <g id="第十组1" serif:id="第十组">
        </g>
        <g id="第十一组">
        </g>
        <g id="第十一组1" serif:id="第十一组">
        </g>
        <g id="第十二组">
        </g>
        <g id="第十三组">
        </g>
        <g id="第十四组">
        </g>
        <g id="第十四组1" serif:id="第十四组">
        </g>
        <g id="第一组文案">
        </g>
        <g id="第一组文案1" serif:id="第一组文案">
        </g>
        <g id="第二组文案">
        </g>
        <g id="第二组文案1" serif:id="第二组文案">
        </g>
        <g id="第三组文案">
        </g>
        <g id="第三组文案1" serif:id="第三组文案">
        </g>
        <g id="第四组文案">
        </g>
        <g id="第四组文案1" serif:id="第四组文案">
        </g>
        <g id="第五组文案">
        </g>
        <g id="第五组文案1" serif:id="第五组文案">
        </g>
        <g id="第六组文案">
        </g>
        <g id="第六组文案1" serif:id="第六组文案">
        </g>
        <g id="第六组文案2" serif:id="第六组文案">
        </g>
        <g id="第六组文案3" serif:id="第六组文案">
        </g>
        <g id="第七组文案">
        </g>
        <g id="第七组文案1" serif:id="第七组文案">
        </g>
        <g id="第八组文案">
        </g>
        <g id="第八组文案1" serif:id="第八组文案">
        </g>
        <g id="第九组文案">
        </g>
        <g id="第九组文案1" serif:id="第九组文案">
        </g>
        <g id="第十组文案">
        </g>
        <g id="第十组文案1" serif:id="第十组文案">
        </g>
        <g id="第十一组文案">
        </g>
        <g id="第十一组文案1" serif:id="第十一组文案">
        </g>
        <g id="第十二组文案">
        </g>
        <g id="第十三组文案">
        </g>
        <g id="第十四组文案">
        </g>
        <g id="第十四组文案1" serif:id="第十四组文案">
        </g>
        <g id="二维码">
        </g>
        <g id="二维码1" serif:id="二维码">
        </g>
        <g id="排序">
        </g>
        <g id="线图">
        </g>
        <g transform="matrix(1,0,0,1,-0.0378418,145.096)">
            <g id="维度线图">
            </g>
        </g>
        <g id="维度柱图">
        </g>
        <g id="周期对比线图">
        </g>
        <g id="周期对比线图1" serif:id="周期对比线图">
        </g>
        <g id="成功">
        </g>
        <g id="成功1" serif:id="成功">
        </g>
        <g id="事件分析">
        </g>
        <g id="漏斗分析">
        </g>
        <g id="留存分析">
        </g>
        <g id="智能路径">
        </g>
        <g id="活跃用户分析">
        </g>
        <g id="留存魔法师">
        </g>
        <g id="分布分析">
        </g>
        <g id="活动分析">
        </g>
        <g id="转化页面流">
        </g>
        <g id="android">
        </g>
        <g id="ios">
        </g>
        <g id="pc">
        </g>
        <g id="事件变量">
        </g>
        <g id="页面变量">
        </g>
        <g id="用户变量">
        </g>
        <g id="用户来源" transform="matrix(1,0,0,1,83,901)">
            <g id="APP">
            </g>
        </g>
        <g id="地狱信息">
        </g>
        <g id="设备信息">
        </g>
        <g id="广告跟踪变量">
        </g>
        <g id="常用维度">
        </g>
        <g id="转化变量">
        </g>
        <g id="登陆用户变量">
        </g>
        <g id="访问用户变量">
        </g>
        <g id="事件变量1" serif:id="事件变量">
        </g>
        <g id="页面变量1" serif:id="页面变量">
        </g>
        <g id="转化变量1" serif:id="转化变量">
        </g>
        <g id="用户登陆变量">
        </g>
        <g id="用户访问变量">
        </g>
        <g id="页面浏览">
        </g>
        <g id="点击">
        </g>
        <g id="输入">
        </g>
        <g id="图层-1" serif:id="图层 1">
        </g>
        <g id="图层-11" serif:id="图层 1">
        </g>
        <g id="图层-12" serif:id="图层 1">
        </g>
        <g id="图层-13" serif:id="图层 1">
        </g>
        <g id="图层-14" serif:id="图层 1">
        </g>
        <g id="图层-15" serif:id="图层 1">
        </g>
        <g id="图层-16" serif:id="图层 1">
        </g>
        <g id="首页看板">
        </g>
        <g transform="matrix(1,0,0,1,254.446,722.171)">
            <path d="M13.724,4.856C13.295,4.291 12.595,4.203 12.088,4.682L6.987,1.199C6.948,0.938 6.87,0.72 6.714,0.502C6.286,-0.064 5.584,-0.151 5.078,0.328C4.844,0.545 4.728,0.85 4.689,1.155L1.923,2.984C1.612,2.679 1.223,2.592 0.833,2.722C0.21,2.94 -0.14,3.637 0.054,4.334C0.171,4.856 0.599,5.205 1.028,5.248L1.69,8.513C1.378,8.731 1.145,9.167 1.145,9.602C1.145,10.342 1.651,10.908 2.313,10.908C2.585,10.908 2.859,10.778 3.053,10.603L5.818,12.432C5.818,12.519 5.78,12.606 5.78,12.693C5.78,13.433 6.286,14 6.948,14C7.61,14 8.116,13.433 8.116,12.693C8.116,12.475 8.078,12.257 7.999,12.084L12.323,6.903C12.711,7.077 13.179,7.033 13.53,6.728C14.075,6.25 14.153,5.422 13.724,4.856ZM6.247,11.753L3.481,9.863C3.503,9.716 3.503,9.348 3.442,9.211L4.883,7.904C5.117,8.122 5.429,8.253 5.779,8.253L6.418,11.612L6.247,11.753ZM11.698,6.423L7.417,11.611C7.3,11.569 7.221,11.525 7.105,11.525L6.518,8.121C6.986,7.86 7.337,7.337 7.376,6.685L11.698,6.423ZM2.469,8.339L1.807,5.073L4.338,6.292C4.338,6.38 4.299,6.467 4.299,6.554C4.299,6.815 4.338,7.032 4.416,7.25L2.975,8.513C2.82,8.426 2.663,8.339 2.469,8.339ZM6.791,2.07L11.698,5.423L11.698,5.552L7.259,5.858C7.064,5.379 6.675,5.03 6.246,4.9L6.246,2.592C6.363,2.549 6.479,2.462 6.597,2.375C6.675,2.288 6.753,2.2 6.791,2.07ZM2.312,3.724L4.882,2.07C4.921,2.113 4.921,2.157 4.96,2.2C5.117,2.374 5.272,2.505 5.466,2.592L5.466,4.9C5.117,4.987 4.843,5.204 4.649,5.509L2.312,4.377C2.312,4.16 2.351,3.942 2.312,3.724Z" style="fill:currentColor;"/>
        </g>
    </g>
</svg>
