<?xml version="1.0" encoding="UTF-8" standalone="no"?>
<!DOCTYPE svg PUBLIC "-//W3C//DTD SVG 1.1//EN" "http://www.w3.org/Graphics/SVG/1.1/DTD/svg11.dtd">
<svg width="100%" height="100%" viewBox="0 0 78 78" version="1.1" xmlns="http://www.w3.org/2000/svg" xmlns:xlink="http://www.w3.org/1999/xlink" xml:space="preserve" xmlns:serif="http://www.serif.com/" style="fill-rule:evenodd;clip-rule:evenodd;stroke-linejoin:round;stroke-miterlimit:1.41421;">
    <g transform="matrix(5.55556,0,0,5.55556,-727.778,-2744.44)">
        <g id="数值" transform="matrix(1,0,0,1,-1.1309e-10,154)">
            <path d="M145,353C145,353.552 144.552,354 144,354C141.423,354 134.577,354 132,354C131.448,354 131,353.552 131,353C131,350.423 131,343.577 131,341C131,340.448 131.448,340 132,340C134.577,340 141.423,340 144,340C144.552,340 145,340.448 145,341C145,343.577 145,350.423 145,353ZM144,344.5C144,344.224 143.776,344 143.5,344C141.548,344 134.452,344 132.5,344C132.224,344 132,344.224 132,344.5C132,346.066 132,350.869 132,352.472C132,352.612 132.056,352.746 132.155,352.845C132.254,352.944 132.388,353 132.528,353C134.509,353 141.491,353 143.472,353C143.612,353 143.746,352.944 143.845,352.845C143.944,352.746 144,352.612 144,352.472C144,350.869 144,346.066 144,344.5ZM136.031,351.572C136.031,351.68 135.994,351.771 135.921,351.845C135.848,351.918 135.738,351.955 135.591,351.955C135.444,351.955 135.336,351.918 135.267,351.845C135.197,351.771 135.162,351.68 135.162,351.572L135.162,345.574C135.162,345.465 135.19,345.376 135.245,345.305C135.3,345.235 135.4,345.2 135.547,345.2C135.664,345.2 135.756,345.229 135.822,345.286C135.888,345.344 135.954,345.408 136.02,345.478C136.02,345.478 138.64,348.815 139.612,350.053C139.664,350.12 139.754,350.146 139.834,350.119C139.915,350.091 139.969,350.015 139.969,349.93C139.969,348.626 139.969,345.574 139.969,345.574C139.969,345.465 140,345.376 140.063,345.305C140.125,345.235 140.237,345.2 140.398,345.2C140.559,345.2 140.673,345.232 140.739,345.296C140.805,345.36 140.838,345.452 140.838,345.574L140.838,351.581C140.838,351.69 140.811,351.779 140.756,351.85C140.701,351.92 140.6,351.955 140.453,351.955C140.35,351.955 140.261,351.928 140.184,351.874C140.107,351.819 140.035,351.751 139.969,351.668C139.969,351.668 137.357,348.388 136.387,347.171C136.334,347.104 136.245,347.079 136.165,347.107C136.085,347.135 136.031,347.211 136.031,347.296C136.031,348.578 136.031,351.572 136.031,351.572ZM144,341.5C144,341.367 143.947,341.24 143.854,341.146C143.76,341.053 143.633,341 143.5,341C141.548,341 134.452,341 132.5,341C132.367,341 132.24,341.053 132.146,341.146C132.053,341.24 132,341.367 132,341.5C132,341.805 132,342.195 132,342.5C132,342.633 132.053,342.76 132.146,342.854C132.24,342.947 132.367,343 132.5,343C134.452,343 141.548,343 143.5,343C143.633,343 143.76,342.947 143.854,342.854C143.947,342.76 144,342.633 144,342.5C144,342.195 144,341.805 144,341.5Z" style="fill:rgb(51,51,51);"/>
        </g>
    </g>
</svg>
