<svg xmlns="http://www.w3.org/2000/svg" viewBox="0 0 14 14"><defs><style>.cls-1{fill:none;}.cls-2{fill:#323333;fill-rule:evenodd;}</style></defs><title>table-chart</title><g id="图层_2" data-name="图层 2"><g id="图层_1-2" data-name="图层 1"><g id="table-chart"><path class="cls-2" d="M12.8,3a.21.21,0,0,0,.2-.2V1.5a.47.47,0,0,0-.15-.35A.47.47,0,0,0,12.5,1H1.5a.47.47,0,0,0-.35.15A.47.47,0,0,0,1,1.5V2.8a.21.21,0,0,0,.2.2ZM9.87,4a.17.17,0,0,0-.14.06.2.2,0,0,0-.06.14V6.13a.21.21,0,0,0,.2.2H12.8a.2.2,0,0,0,.14-.06A.17.17,0,0,0,13,6.13V4.2a.21.21,0,0,0-.2-.2ZM5.53,4a.21.21,0,0,0-.2.2V6.13a.17.17,0,0,0,.06.14.2.2,0,0,0,.14.06H8.47a.2.2,0,0,0,.14-.06.17.17,0,0,0,.06-.14V4.2a.21.21,0,0,0-.2-.2ZM1.2,4a.21.21,0,0,0-.2.2V6.13a.17.17,0,0,0,.06.14.2.2,0,0,0,.14.06H4.13a.21.21,0,0,0,.2-.2V4.2a.2.2,0,0,0-.06-.14A.17.17,0,0,0,4.13,4ZM9.87,7.33a.17.17,0,0,0-.14.06.2.2,0,0,0-.06.14V9.47a.2.2,0,0,0,.06.14.17.17,0,0,0,.14.06H12.8a.21.21,0,0,0,.2-.2V7.53a.21.21,0,0,0-.2-.2Zm-4.34,0a.21.21,0,0,0-.2.2V9.47a.21.21,0,0,0,.2.2H8.47a.21.21,0,0,0,.2-.2V7.53a.21.21,0,0,0-.2-.2Zm-4.33,0a.21.21,0,0,0-.2.2V9.47a.21.21,0,0,0,.2.2H4.13a.17.17,0,0,0,.14-.06.2.2,0,0,0,.06-.14V7.53a.2.2,0,0,0-.06-.14.17.17,0,0,0-.14-.06ZM13,10.87a.17.17,0,0,0-.06-.14.2.2,0,0,0-.14-.06H9.87a.21.21,0,0,0-.2.2V12.5a.5.5,0,0,0,.5.5H12.5a.5.5,0,0,0,.5-.5Zm-7.47-.2a.2.2,0,0,0-.14.06.17.17,0,0,0-.06.14V12.5a.5.5,0,0,0,.5.5H8.17a.5.5,0,0,0,.5-.5V10.87a.17.17,0,0,0-.06-.14.2.2,0,0,0-.14-.06ZM3.83,13a.5.5,0,0,0,.5-.5V10.87a.21.21,0,0,0-.2-.2H1.2a.2.2,0,0,0-.14.06.17.17,0,0,0-.06.14V12.5a.5.5,0,0,0,.5.5ZM14,4v9a1,1,0,0,1-1,1H1a1,1,0,0,1-1-1V1A1,1,0,0,1,1,0H13a1,1,0,0,1,1,1V4Z"/></g></g></g></svg>