<svg xmlns="http://www.w3.org/2000/svg" viewBox="0 0 14 14"><defs><style>.cls-1{fill:none;opacity:0;}.cls-2{fill:#f1f3fa;}.cls-3{fill:#3c4c95;}.cls-4{fill:#727fbd;}</style></defs><title>active-analyze</title><g id="图层_2" data-name="图层 2"><g id="图层_1-2" data-name="图层 1"><g id="active-analyze"><rect class="cls-2" x="1" y="4" width="12" height="8"/><path class="cls-3" d="M13,11.5a.5.5,0,0,1-.5.5H1.5a.5.5,0,0,1-.5-.5V4H13ZM13,1H1A1,1,0,0,0,0,2V12a1,1,0,0,0,1,1H13a1,1,0,0,0,1-1V2a1,1,0,0,0-1-1"/><path class="cls-2" d="M2.5,2.5A.5.5,0,1,1,2,2a.5.5,0,0,1,.5.5"/><path class="cls-2" d="M4.25,2.5a.5.5,0,1,1-.5-.5.5.5,0,0,1,.5.5"/><path class="cls-2" d="M6,2.5a.5.5,0,0,1-.5.5.5.5,0,0,1,0-1,.5.5,0,0,1,.5.5"/><path class="cls-4" d="M10.35,5a.46.46,0,0,1,.4.5v5a.46.46,0,0,1-.4.5H7.65a.46.46,0,0,1-.4-.5v-5a.46.46,0,0,1,.4-.5h2.7m0-.5H7.65a1,1,0,0,0-.9,1v5a1,1,0,0,0,.9,1h2.7a1,1,0,0,0,.9-1v-5a1,1,0,0,0-.9-1"/><circle class="cls-4" cx="9" cy="10.5" r="0.25"/><path class="cls-4" d="M5.25,10.5H2.75a.25.25,0,0,0,0,.5h2.5a.25.25,0,0,0,0-.5"/><path class="cls-4" d="M5.25,9.5H2.75a.25.25,0,0,0,0,.5h2.5a.25.25,0,0,0,0-.5"/><path class="cls-4" d="M2.75,9h2.5a.25.25,0,0,0,0-.5H2.75a.25.25,0,0,0,0,.5"/></g></g></g></svg>