<svg xmlns="http://www.w3.org/2000/svg" viewBox="0 0 18 18"><defs><style>.cls-1{fill:none;}.cls-2{fill:#c9cfe9;}.cls-2,.cls-3,.cls-5{fill-rule:evenodd;}.cls-3{fill:#3b4999;}.cls-4,.cls-5{fill:#f1f3fa;}</style></defs><title>active-user-analyze</title><g id="图层_2" data-name="图层 2"><g id="图层_1-2" data-name="图层 1"><g id="active-user-analyze"><rect class="cls-1" width="18" height="18"/><path class="cls-2" d="M17,12a4.06,4.06,0,0,0-1.3-1.55c-.25-.19-.72-.07-1.07-.11S14,9.87,14,9.79a1.75,1.75,0,0,1,0-.44A1.13,1.13,0,0,1,14,9.2a4.5,4.5,0,0,0,.53-1c.5-.66.05-1,.05-1a7.26,7.26,0,0,0,0-1.07A2,2,0,0,0,14.1,5a1.76,1.76,0,0,0-1.19-.53h-.64a1.78,1.78,0,0,0-1.2.53,1.94,1.94,0,0,0-.48,1.08,7.37,7.37,0,0,0,0,1.07s-.44.38.06,1a4.8,4.8,0,0,0,.52,1,.89.89,0,0,1,.07.16,1.35,1.35,0,0,1,0,.43c-.05.08-.3.52-.66.56s-.82-.08-1.07.11A3.9,3.9,0,0,0,8.19,12c-.16.63-.2,1.32.4,1.49h8c.6-.17.56-.86.41-1.49"/><path class="cls-2" d="M9.82,12a4,4,0,0,0-1.31-1.55c-.25-.19-.71-.07-1.07-.11s-.61-.48-.66-.56a1.39,1.39,0,0,1,0-.44,1.13,1.13,0,0,1,.07-.15,4.8,4.8,0,0,0,.52-1c.5-.66.06-1,.06-1a6.18,6.18,0,0,0,0-1.07A1.86,1.86,0,0,0,6.93,5,1.76,1.76,0,0,0,5.74,4.5H5.09A1.76,1.76,0,0,0,3.9,5a2,2,0,0,0-.49,1.08,7.26,7.26,0,0,0,0,1.07s-.44.38.06,1A4.8,4.8,0,0,0,4,9.2a.89.89,0,0,1,.07.16,1.72,1.72,0,0,1,0,.43c0,.08-.31.52-.66.56s-.83-.08-1.08.11A4.06,4.06,0,0,0,1,12c-.15.63-.19,1.32.41,1.49h8c.6-.17.56-.86.41-1.49"/><path class="cls-3" d="M3.63,15.25C3,15.09,2.44,14.56,2.85,13c.25-1,1.76-2.16,1.82-2.21a1.34,1.34,0,0,1,.82-.2h.74c.26,0,.53-.34.69-.62a2,2,0,0,0,0-.43l-.06-.11a6.14,6.14,0,0,1-.71-1.34,1.2,1.2,0,0,1-.11-1.56A11,11,0,0,1,6,5.1a2.92,2.92,0,0,1,.7-1.56,2.64,2.64,0,0,1,1.78-.79h.87a2.62,2.62,0,0,1,1.78.79A2.87,2.87,0,0,1,11.86,5a8.93,8.93,0,0,1,0,1.46,1.24,1.24,0,0,1-.14,1.62A5.5,5.5,0,0,1,11,9.43s0,.07,0,.09a3.07,3.07,0,0,0,0,.42c.15.26.42.58.69.61h.74a1.31,1.31,0,0,1,.81.2A5.72,5.72,0,0,1,15.07,13c.4,1.61-.17,2.14-.72,2.29H3.63Z"/><path class="cls-4" d="M9.39,3A2.34,2.34,0,0,1,11,3.7a2.54,2.54,0,0,1,.64,1.45,8.25,8.25,0,0,1,0,1.43s.59.51-.08,1.37a6.18,6.18,0,0,1-.7,1.32,1.14,1.14,0,0,0-.08.2,1.69,1.69,0,0,0,0,.58c.06.11.4.69.88.75h.77a1.08,1.08,0,0,1,.66.15A5.28,5.28,0,0,1,14.83,13c.21.83.25,1.75-.54,2H3.63c-.8-.22-.75-1.15-.54-2A5.26,5.26,0,0,1,4.82,11a1.1,1.1,0,0,1,.67-.15h.76c.48-.06.82-.64.88-.75a1.49,1.49,0,0,0,.06-.58,1,1,0,0,0-.09-.2A6.72,6.72,0,0,1,6.4,8c-.67-.87-.08-1.38-.08-1.38a10.88,10.88,0,0,1,0-1.43A2.61,2.61,0,0,1,6.93,3.7,2.42,2.42,0,0,1,8.53,3h.86m0-.5H8.53a2.87,2.87,0,0,0-2,.88A3,3,0,0,0,5.81,5v.06a8.9,8.9,0,0,0,0,1.36A1.48,1.48,0,0,0,6,8.2a6.61,6.61,0,0,0,.73,1.35v0a2.62,2.62,0,0,1,0,.28c-.15.24-.35.44-.48.45H5.49a1.54,1.54,0,0,0-1,.25A5.61,5.61,0,0,0,2.6,12.9c-.48,1.89.35,2.43.89,2.58l.14,0H14.29l.13,0c.54-.15,1.37-.69.89-2.59a5.56,5.56,0,0,0-1.92-2.34,1.54,1.54,0,0,0-1-.25h-.71a.93.93,0,0,1-.48-.45,2.46,2.46,0,0,1,0-.28v0A6,6,0,0,0,12,8.2a1.47,1.47,0,0,0,.16-1.78,8.9,8.9,0,0,0,0-1.36V5a3.15,3.15,0,0,0-.74-1.61,2.88,2.88,0,0,0-2-.88Z"/><path class="cls-5" d="M13.86,14.26c-.36.09-4.44.09-4.9.08s-4.55,0-4.9-.08-.23-.45-.15-1a3.65,3.65,0,0,1,1.3-1.57c.35-.22.46-.13,1.37-.26A1.8,1.8,0,0,0,8,10.18a2.25,2.25,0,0,0,0-1.13,5.08,5.08,0,0,1-.45-.78l-.2-.46c-.53-.64-.25-.95-.2-1s.06-.24.05-.65A5.1,5.1,0,0,1,7.2,4.72c.15-.83,1.45-1,1.45-1h.62s1.3.19,1.44,1a5.64,5.64,0,0,1,.1,1.46c0,.41,0,.62,0,.65s.34.34-.2,1c0,0-.16.37-.19.47a6.8,6.8,0,0,1-.46.77,2.25,2.25,0,0,0,0,1.13,1.81,1.81,0,0,0,1.38,1.29c.91.13,1,0,1.36.26A3.68,3.68,0,0,1,14,13.3c.08.51.22.87-.15,1"/><path class="cls-3" d="M9.09,11.23H8.83a.18.18,0,0,1-.15-.08l-.23-.38a.29.29,0,0,1,.32-.29h.38a.29.29,0,0,1,.32.29l-.23.38a.18.18,0,0,1-.15.08"/><path class="cls-3" d="M9.46,13.18l-.41.31a.15.15,0,0,1-.2,0l-.41-.31A.18.18,0,0,1,8.38,13l.29-1.53a.16.16,0,0,1,.16-.14h.26a.18.18,0,0,1,.17.14L9.53,13a.18.18,0,0,1-.07.17"/></g></g></g></svg>