<svg xmlns="http://www.w3.org/2000/svg" viewBox="0 0 14 14"><defs><style>.cls-1{fill:none;opacity:0;}.cls-2{fill:#f1f3fa;}.cls-3{fill:#3c4c95;}.cls-4{fill:#7481be;fill-rule:evenodd;}</style></defs><title>advertising-monitoring</title><g id="图层_2" data-name="图层 2"><g id="图层_1-2" data-name="图层 1"><g id="advertising-monitoring"><rect class="cls-2" x="1" y="4" width="12" height="8"/><path class="cls-3" d="M13,11.5a.5.5,0,0,1-.5.5H1.5a.5.5,0,0,1-.5-.5V4H13ZM13,1H1A1,1,0,0,0,0,2V12a1,1,0,0,0,1,1H13a1,1,0,0,0,1-1V2a1,1,0,0,0-1-1"/><path class="cls-2" d="M2.5,2.5A.5.5,0,1,1,2,2a.5.5,0,0,1,.5.5"/><path class="cls-2" d="M4.25,2.5a.5.5,0,1,1-.5-.5.5.5,0,0,1,.5.5"/><path class="cls-2" d="M6,2.5a.5.5,0,0,1-.5.5.5.5,0,0,1,0-1,.5.5,0,0,1,.5.5"/><path class="cls-4" d="M7,7.42a.64.64,0,0,1,.63.64A.63.63,0,0,1,7,8.69a.64.64,0,0,1-.64-.63A.64.64,0,0,1,7,7.42Zm0-.31a.95.95,0,1,1-1,1A.95.95,0,0,1,7,7.11Zm.2-.84v.06a.2.2,0,0,1-.4,0V6.27A1.79,1.79,0,0,0,5.2,7.86h.07a.2.2,0,0,1,.2.2h0a.2.2,0,0,1-.2.2H5.2A1.81,1.81,0,0,0,6.79,9.85V9.76a.2.2,0,0,1,.2-.2H7a.2.2,0,0,1,.2.2v.09A1.83,1.83,0,0,0,8.78,8.26H8.69a.2.2,0,0,1-.2-.2h0a.2.2,0,0,1,.2-.2h.09A1.81,1.81,0,0,0,7.19,6.27Zm-.4-.39V5.73a.2.2,0,0,1,.2-.2H7a.2.2,0,0,1,.2.2v.15a2.19,2.19,0,0,1,2,2h.12a.2.2,0,0,1,.2.2h0a.2.2,0,0,1-.2.2H9.17a2.2,2.2,0,0,1-2,2v.12a.2.2,0,0,1-.4,0v-.12a2.19,2.19,0,0,1-2-2H4.67a.2.2,0,0,1-.2-.2h0a.2.2,0,0,1,.2-.2h.14A2.18,2.18,0,0,1,6.79,5.88Z"/></g></g></g></svg>