<svg xmlns="http://www.w3.org/2000/svg" viewBox="0 0 14 14"><defs><style>.cls-1{fill:none;}.cls-2{fill:#5565ae;}</style></defs><title>android-2</title><g id="图层_2" data-name="图层 2"><g id="图层_1-2" data-name="图层 1"><g id="android-2"><path class="cls-2" d="M8.66,2.82a.42.42,0,0,1-.42-.42.42.42,0,0,1,.84,0,.42.42,0,0,1-.42.42m-3.26,0A.42.42,0,0,1,5,2.4a.42.42,0,0,1,.84,0,.42.42,0,0,1-.42.42m3.4-1.6.7-1a.12.12,0,0,0,0-.17.12.12,0,0,0-.17,0L8.58,1.13a4.39,4.39,0,0,0-3.15,0L4.7.07a.14.14,0,0,0-.17,0,.14.14,0,0,0,0,.15l.7,1a3.29,3.29,0,0,0-2,2.64h7.6a3.31,3.31,0,0,0-2-2.64ZM3.21,10.6a.67.67,0,0,0,.2.48.62.62,0,0,0,.47.18h.76v1.88a.86.86,0,1,0,1.71,0V11.26H7.68v1.88a.86.86,0,1,0,1.71,0V11.26h.76a.67.67,0,0,0,.67-.66V4.43H3.22V10.6Zm8.93-6.2a.92.92,0,0,0-.61.26.94.94,0,0,0-.24.61V8.64a.86.86,0,1,0,1.71,0V5.26a.94.94,0,0,0-.24-.61.92.92,0,0,0-.61-.26ZM1.85,4.4A.86.86,0,0,0,1,5.26V8.64a.9.9,0,0,0,.25.62.82.82,0,0,0,.6.25.82.82,0,0,0,.6-.25.86.86,0,0,0,.25-.62V5.26a.85.85,0,0,0-.25-.61.87.87,0,0,0-.6-.26Z"/></g></g></g></svg>