<svg xmlns="http://www.w3.org/2000/svg" viewBox="0 0 14 14"><defs><style>.cls-1{fill:none;opacity:0;}.cls-2{fill:#f1f3fa;}.cls-3{fill:#3c4c95;}.cls-4,.cls-5{fill:#727fbe;}.cls-5{fill-rule:evenodd;}</style></defs><title>资源 143</title><g id="图层_2" data-name="图层 2"><g id="图层_1-2" data-name="图层 1"><rect class="cls-2" x="1" y="4" width="12" height="8"/><path class="cls-3" d="M13,11.5a.5.5,0,0,1-.5.5H1.5a.5.5,0,0,1-.5-.5V4H13ZM13,1H1A1,1,0,0,0,0,2V12a1,1,0,0,0,1,1H13a1,1,0,0,0,1-1V2a1,1,0,0,0-1-1"/><path class="cls-2" d="M2.5,2.5A.5.5,0,1,1,2,2a.5.5,0,0,1,.5.5"/><path class="cls-2" d="M4.25,2.5a.5.5,0,1,1-.5-.5.5.5,0,0,1,.5.5"/><path class="cls-2" d="M6,2.5a.5.5,0,0,1-.5.5.5.5,0,0,1,0-1,.5.5,0,0,1,.5.5"/><rect class="cls-4" x="3.98" y="6.15" width="6" height="0.8" rx="0.4"/><path class="cls-5" d="M10,8.1a.41.41,0,0,0-.4-.4H7a.41.41,0,0,0-.4.4h0a.41.41,0,0,0,.4.4H9.58a.41.41,0,0,0,.4-.4Z"/><path class="cls-5" d="M6,8.1a.4.4,0,0,0-.4-.4H4.38a.4.4,0,0,0-.4.4H4a.36.36,0,0,0,.12.28.38.38,0,0,0,.28.12h1.2A.41.41,0,0,0,6,8.1Z"/><rect class="cls-4" x="3.98" y="9.25" width="6" height="0.8" rx="0.4"/><path class="cls-5" d="M8.1,5.83a.68.68,0,1,1-.68.68A.67.67,0,0,1,8.1,5.83Z"/><path class="cls-2" d="M8.1,7.29a.78.78,0,1,1,.78-.78A.78.78,0,0,1,8.1,7.29Zm0-1.36a.58.58,0,0,0,0,1.16.58.58,0,1,0,0-1.16Z"/><path class="cls-5" d="M5.56,8.9a.69.69,0,0,1,0,1.37.69.69,0,0,1,0-1.37Z"/><path class="cls-2" d="M5.56,10.37a.79.79,0,0,1-.78-.79.78.78,0,0,1,1.56,0A.79.79,0,0,1,5.56,10.37ZM5.56,9A.58.58,0,0,0,5,9.58a.58.58,0,1,0,1.16,0A.58.58,0,0,0,5.56,9Z"/></g></g></svg>