<?xml version="1.0" encoding="UTF-8" standalone="no"?>
<!DOCTYPE svg PUBLIC "-//W3C//DTD SVG 1.1//EN" "http://www.w3.org/Graphics/SVG/1.1/DTD/svg11.dtd">
<svg width="100%" height="100%" viewBox="0 0 78 78" version="1.1" xmlns="http://www.w3.org/2000/svg" xmlns:xlink="http://www.w3.org/1999/xlink" xml:space="preserve" xmlns:serif="http://www.serif.com/" style="fill-rule:evenodd;clip-rule:evenodd;stroke-linejoin:round;stroke-miterlimit:1.41421;">
    <g transform="matrix(5.55556,0,0,5.55556,-327.623,-309.865)">
        <g id="business-scene" transform="matrix(1,0,0,1,0,-33.6537)">
            <g transform="matrix(1.1411,0,0,1.1411,-8.08157,-13.0012)">
                <rect x="58.763" y="89.765" width="12.269" height="12.269" style="fill:white;fill-opacity:0;"/>
            </g>
            <g id="业务场景-曲线" transform="matrix(1,0,0,1,-0.0343226,0.112597)">
                <g transform="matrix(1.30105,0,0,1.98133,42.3301,-63.3304)">
                    <path d="M23.578,78.052C23.578,77.774 23.234,77.548 22.81,77.548C20.829,77.548 15.567,77.548 13.586,77.548C13.162,77.548 12.818,77.774 12.818,78.052C12.818,79.193 12.818,81.959 12.818,83.099C12.818,83.378 13.162,83.604 13.586,83.604C15.567,83.604 20.829,83.604 22.81,83.604C23.234,83.604 23.578,83.378 23.578,83.099C23.578,81.959 23.578,79.193 23.578,78.052Z" style="fill:rgb(61,77,165);"/>
                </g>
                <g transform="matrix(1.04445,0,0,1.21035,47.101,-1.45795)">
                    <path d="M23.828,78.342L12.339,78.342C12.339,78.342 12.339,83.092 12.339,84.539C12.339,84.767 12.553,84.952 12.817,84.952C14.686,84.952 21.48,84.952 23.349,84.952C23.614,84.952 23.828,84.767 23.828,84.539C23.828,83.092 23.828,78.342 23.828,78.342Z" style="fill:rgb(242,244,253);"/>
                </g>
                <g transform="matrix(0.80887,0,0,0.80887,49.997,30.1816)">
                    <circle cx="13.593" cy="76.257" r="0.618" style="fill:rgb(242,244,253);"/>
                </g>
                <g transform="matrix(0.80887,0,0,0.80887,51.7912,30.1816)">
                    <circle cx="13.593" cy="76.257" r="0.618" style="fill:rgb(242,244,253);"/>
                </g>
                <g transform="matrix(0.80887,0,0,0.80887,53.5895,30.1816)">
                    <circle cx="13.593" cy="76.257" r="0.618" style="fill:rgb(242,244,253);"/>
                </g>
                <g transform="matrix(1,0,0,1,0.0343226,-0.112597)">
                    <path d="M65.244,95.763C65.421,95.268 65.674,94.957 65.954,94.957C66.234,94.957 66.487,95.268 66.664,95.763C67.139,95.538 67.537,95.497 67.735,95.695C67.934,95.893 67.893,96.291 67.667,96.767C68.163,96.944 68.473,97.196 68.473,97.477C68.473,97.757 68.163,98.009 67.667,98.186C67.893,98.662 67.934,99.06 67.735,99.258C67.537,99.456 67.139,99.415 66.664,99.19C66.487,99.685 66.234,99.996 65.954,99.996C65.674,99.996 65.421,99.685 65.244,99.19C64.769,99.415 64.371,99.456 64.172,99.258C63.974,99.06 64.015,98.662 64.241,98.186C63.745,98.009 63.435,97.757 63.435,97.477C63.435,97.196 63.745,96.944 64.241,96.767C64.015,96.291 63.974,95.893 64.172,95.695C64.371,95.497 64.769,95.538 65.244,95.763ZM65.954,98.755C65.803,98.867 65.654,98.965 65.509,99.049C65.626,99.412 65.782,99.633 65.954,99.633C66.126,99.633 66.282,99.412 66.399,99.049C66.254,98.965 66.105,98.867 65.954,98.755ZM64.527,98.274C64.354,98.613 64.307,98.88 64.429,99.002C64.55,99.123 64.818,99.077 65.156,98.903C65.113,98.741 65.078,98.566 65.05,98.38C64.864,98.353 64.689,98.317 64.527,98.274ZM67.38,98.274C67.219,98.317 67.044,98.353 66.858,98.38C66.83,98.566 66.795,98.741 66.752,98.903C67.09,99.077 67.358,99.123 67.479,99.002C67.601,98.88 67.554,98.613 67.38,98.274ZM65.369,98.418C65.386,98.533 65.406,98.643 65.428,98.745C65.517,98.689 65.608,98.626 65.701,98.556C65.654,98.516 65.606,98.475 65.558,98.433C65.494,98.429 65.431,98.424 65.369,98.418ZM66.539,98.418C66.477,98.424 66.414,98.429 66.35,98.433C66.302,98.475 66.254,98.516 66.206,98.556C66.3,98.626 66.391,98.689 66.479,98.745C66.502,98.643 66.522,98.533 66.539,98.418ZM66.221,96.832C66.134,96.828 66.044,96.827 65.954,96.827C65.863,96.827 65.774,96.828 65.687,96.832C65.623,96.891 65.558,96.953 65.494,97.017C65.43,97.081 65.368,97.145 65.309,97.209C65.306,97.297 65.304,97.386 65.304,97.477C65.304,97.567 65.306,97.656 65.309,97.744C65.368,97.808 65.43,97.872 65.494,97.936C65.558,98 65.623,98.062 65.687,98.122C65.774,98.125 65.863,98.127 65.954,98.127C66.044,98.127 66.134,98.125 66.221,98.122C66.285,98.062 66.35,98 66.414,97.936C66.478,97.872 66.539,97.808 66.599,97.744C66.602,97.656 66.604,97.567 66.604,97.477C66.604,97.386 66.602,97.297 66.599,97.209C66.539,97.145 66.478,97.081 66.414,97.017C66.35,96.953 66.285,96.891 66.221,96.832ZM64.874,97.729C64.805,97.822 64.742,97.914 64.685,98.002C64.788,98.025 64.897,98.045 65.012,98.061C65.006,97.999 65.002,97.936 64.998,97.873C64.955,97.825 64.914,97.777 64.874,97.729ZM67.033,97.729C66.994,97.777 66.952,97.825 66.91,97.873C66.906,97.936 66.901,97.999 66.896,98.061C67.011,98.044 67.12,98.025 67.223,98.002C67.166,97.914 67.103,97.822 67.033,97.729ZM67.527,97.032C67.443,97.177 67.344,97.326 67.232,97.477C67.344,97.627 67.443,97.777 67.527,97.921C67.889,97.805 68.111,97.648 68.111,97.477C68.111,97.305 67.889,97.148 67.527,97.032ZM64.381,97.032C64.019,97.148 63.797,97.305 63.797,97.477C63.797,97.648 64.019,97.805 64.381,97.921C64.465,97.777 64.564,97.627 64.676,97.477C64.564,97.326 64.465,97.177 64.381,97.032ZM65.012,96.892C64.897,96.909 64.788,96.928 64.685,96.951C64.742,97.039 64.805,97.131 64.874,97.224C64.914,97.176 64.955,97.128 64.998,97.08C65.002,97.017 65.006,96.954 65.012,96.892ZM66.896,96.892C66.901,96.954 66.906,97.017 66.91,97.08C66.952,97.128 66.994,97.176 67.033,97.224C67.103,97.131 67.166,97.039 67.223,96.951C67.12,96.928 67.011,96.909 66.896,96.892ZM67.38,96.679C67.554,96.34 67.601,96.073 67.479,95.951C67.358,95.83 67.09,95.876 66.752,96.05C66.795,96.212 66.83,96.387 66.858,96.573C67.044,96.6 67.219,96.636 67.38,96.679ZM65.156,96.05C64.818,95.876 64.55,95.83 64.429,95.951C64.307,96.073 64.354,96.34 64.527,96.679C64.689,96.636 64.864,96.6 65.05,96.573C65.078,96.387 65.113,96.212 65.156,96.05ZM65.428,96.208C65.406,96.31 65.386,96.42 65.369,96.535C65.431,96.529 65.494,96.524 65.558,96.52C65.606,96.478 65.654,96.437 65.701,96.397C65.608,96.328 65.517,96.264 65.428,96.208ZM66.479,96.208C66.391,96.264 66.3,96.328 66.206,96.397C66.254,96.437 66.302,96.478 66.35,96.52C66.414,96.524 66.477,96.529 66.539,96.535C66.522,96.42 66.502,96.31 66.479,96.208ZM66.399,95.904C66.282,95.542 66.126,95.32 65.954,95.32C65.782,95.32 65.626,95.542 65.509,95.904C65.654,95.988 65.803,96.086 65.954,96.198C66.105,96.086 66.254,95.988 66.399,95.904Z" style="fill:rgb(121,135,209);"/>
                </g>
            </g>
        </g>
    </g>
</svg>
