<svg xmlns="http://www.w3.org/2000/svg" viewBox="0 0 14 14"><defs><style>.cls-1{fill:#fbfbfb;}.cls-2{fill:#5565ae;fill-rule:evenodd;}</style></defs><title>desktop-2</title><g id="图层_2" data-name="图层 2"><g id="图层_1-2" data-name="图层 1"><g id="desktop-2"><path class="cls-2" d="M2,3a.5.5,0,0,1,.5-.5h9A.5.5,0,0,1,12,3V9a.5.5,0,0,1-.5.5h-9A.5.5,0,0,1,2,9Zm10.5-.5A.5.5,0,0,0,12,2H2a.5.5,0,0,0-.5.5v7A.5.5,0,0,0,2,10H12a.5.5,0,0,0,.5-.5ZM4,12.5a.5.5,0,0,1,.5-.5H6.3a.21.21,0,0,0,.2-.2v-.6a.2.2,0,0,0-.2-.2H1.5a1,1,0,0,1-1-1V2a1,1,0,0,1,1-1h11a1,1,0,0,1,1,1v8a1,1,0,0,1-1,1H7.7a.2.2,0,0,0-.2.2v.6a.21.21,0,0,0,.2.2H9.5a.5.5,0,0,1,.5.5.51.51,0,0,1-.5.5h-5a.51.51,0,0,1-.5-.5Z"/></g></g></g></svg>