<?xml version="1.0" encoding="UTF-8" standalone="no"?>
<!DOCTYPE svg PUBLIC "-//W3C//DTD SVG 1.1//EN" "http://www.w3.org/Graphics/SVG/1.1/DTD/svg11.dtd">
<svg width="100%" height="100%" viewBox="0 0 78 78" version="1.1" xmlns="http://www.w3.org/2000/svg" xmlns:xlink="http://www.w3.org/1999/xlink" xml:space="preserve" xmlns:serif="http://www.serif.com/" style="fill-rule:evenodd;clip-rule:evenodd;stroke-linejoin:round;stroke-miterlimit:1.41421;">
    <g transform="matrix(5.55556,0,0,5.55556,-876.917,-308.244)">
        <g id="floor-page-analysis" transform="matrix(1,0,0,1,0,-33.6537)">
            <g transform="matrix(1,0,0,1,0.435903,-0.144574)">
                <rect x="157.411" y="89.282" width="13.996" height="13.996" style="fill:white;fill-opacity:0;"/>
            </g>
            <g id="落地页分析-曲线" transform="matrix(1,0,0,1,-0.0107815,-0.108637)">
                <g transform="matrix(1.30105,0,0,1.98133,141.179,-63.4029)">
                    <path d="M23.578,78.052C23.578,77.774 23.234,77.548 22.81,77.548C20.829,77.548 15.567,77.548 13.586,77.548C13.162,77.548 12.818,77.774 12.818,78.052C12.818,79.193 12.818,81.959 12.818,83.099C12.818,83.378 13.162,83.604 13.586,83.604C15.567,83.604 20.829,83.604 22.81,83.604C23.234,83.604 23.578,83.378 23.578,83.099C23.578,81.959 23.578,79.193 23.578,78.052Z" style="fill:rgb(61,77,165);"/>
                </g>
                <g transform="matrix(1.04445,0,0,1.21035,145.95,-1.53043)">
                    <path d="M23.828,78.342L12.339,78.342C12.339,78.342 12.339,83.092 12.339,84.539C12.339,84.767 12.553,84.952 12.817,84.952C14.686,84.952 21.48,84.952 23.349,84.952C23.614,84.952 23.828,84.767 23.828,84.539C23.828,83.092 23.828,78.342 23.828,78.342Z" style="fill:rgb(242,244,253);"/>
                </g>
                <g transform="matrix(0.495349,0,0,0.495349,167.065,94.7)">
                    <path d="M0,10.471C-0.352,10.56 -4.433,10.558 -4.899,10.547C-5.363,10.558 -9.446,10.56 -9.798,10.471C-10.171,10.376 -10.03,10.02 -9.949,9.509C-9.867,8.999 -8.993,8.169 -8.643,7.943C-8.292,7.718 -8.188,7.814 -7.278,7.683C-6.368,7.552 -6.006,6.698 -5.905,6.391C-5.805,6.081 -5.863,5.338 -5.945,5.258C-6.026,5.178 -6.365,4.582 -6.399,4.484C-6.435,4.386 -6.592,4.016 -6.592,4.016C-7.129,3.376 -6.842,3.074 -6.795,3.042C-6.749,3.011 -6.741,2.797 -6.749,2.386C-6.757,1.975 -6.804,1.762 -6.656,0.931C-6.507,0.101 -5.209,-0.089 -5.209,-0.089L-4.59,-0.089C-4.59,-0.089 -3.291,0.101 -3.143,0.931C-2.995,1.762 -3.042,1.975 -3.051,2.386C-3.058,2.797 -3.051,3.01 -3.003,3.042C-2.956,3.074 -2.67,3.375 -3.206,4.016C-3.206,4.016 -3.364,4.386 -3.399,4.485C-3.434,4.582 -3.772,5.178 -3.853,5.258C-3.935,5.338 -3.993,6.081 -3.893,6.391C-3.792,6.699 -3.431,7.552 -2.52,7.683C-1.609,7.814 -1.504,7.718 -1.154,7.943C-0.805,8.169 0.071,8.999 0.152,9.509C0.233,10.02 0.373,10.376 0,10.471" style="fill:rgb(119,133,208);"/>
                </g>
                <g transform="matrix(0.495349,0,0,0.495349,164.705,98.0152)">
                    <path d="M0,0.75L-0.267,0.75C-0.326,0.75 -0.382,0.719 -0.413,0.667L-0.64,0.291C-0.64,0.13 -0.526,0 -0.321,0L0.053,0C0.259,0 0.379,0.131 0.379,0.291L0.146,0.668C0.115,0.719 0.06,0.75 0,0.75" style="fill:rgb(242,244,253);"/>
                </g>
                <g transform="matrix(0.495349,0,0,0.495349,164.888,98.6167)">
                    <path d="M0,1.483L-0.41,1.793C-0.471,1.838 -0.556,1.838 -0.617,1.792L-1.018,1.484C-1.068,1.445 -1.093,1.38 -1.082,1.317L-0.796,-0.214C-0.781,-0.295 -0.71,-0.355 -0.628,-0.355L-0.373,-0.355C-0.29,-0.355 -0.219,-0.294 -0.204,-0.213L0.065,1.316C0.077,1.379 0.051,1.444 0,1.483" style="fill:rgb(242,244,253);"/>
                </g>
                <g transform="matrix(0.80887,0,0,0.80887,148.846,30.1091)">
                    <circle cx="13.593" cy="76.257" r="0.618" style="fill:rgb(242,244,253);"/>
                </g>
                <g transform="matrix(0.80887,0,0,0.80887,150.641,30.1091)">
                    <circle cx="13.593" cy="76.257" r="0.618" style="fill:rgb(242,244,253);"/>
                </g>
                <g transform="matrix(0.80887,0,0,0.80887,152.439,30.1091)">
                    <circle cx="13.593" cy="76.257" r="0.618" style="fill:rgb(242,244,253);"/>
                </g>
                <g transform="matrix(1,0,0,1,0.0107815,0.108637)">
                    <path d="M166.737,98.127C166.749,98.134 166.764,98.136 166.778,98.131C166.791,98.127 166.802,98.117 166.808,98.104C166.847,98.007 166.869,97.901 166.869,97.79C166.869,97.337 166.501,96.969 166.048,96.969C166.012,96.969 165.976,96.971 165.941,96.976C165.874,96.984 165.807,96.956 165.766,96.902C165.725,96.848 165.716,96.777 165.741,96.714C165.74,96.713 165.74,96.713 165.74,96.713C165.764,96.652 165.819,96.609 165.883,96.6C165.937,96.594 165.992,96.59 166.048,96.59C166.71,96.59 167.248,97.128 167.248,97.79C167.248,97.971 167.208,98.143 167.136,98.297C167.124,98.321 167.133,98.349 167.156,98.362C167.162,98.365 167.169,98.369 167.175,98.373C167.193,98.383 167.203,98.403 167.2,98.423C167.197,98.444 167.182,98.46 167.162,98.465C167.046,98.492 166.88,98.531 166.801,98.549C166.776,98.555 166.751,98.541 166.742,98.516C166.717,98.44 166.663,98.278 166.626,98.165C166.619,98.145 166.626,98.124 166.642,98.11C166.657,98.097 166.68,98.095 166.698,98.105C166.712,98.113 166.725,98.121 166.737,98.127Z" style="fill:rgb(119,133,208);"/>
                </g>
                <g transform="matrix(1,0,0,1,0.0107815,0.158473)">
                    <path d="M163.146,96.59C163.146,96.59 163.147,96.59 163.147,96.589C163.147,96.584 163.147,96.559 163.147,96.529C163.147,96.508 163.159,96.49 163.178,96.482C163.197,96.475 163.219,96.479 163.233,96.494C163.314,96.58 163.431,96.704 163.488,96.763C163.506,96.782 163.506,96.813 163.488,96.832C163.431,96.891 163.314,97.015 163.233,97.101C163.219,97.115 163.197,97.12 163.178,97.113C163.159,97.105 163.147,97.087 163.147,97.066C163.147,97.031 163.147,97 163.147,96.994C163.147,96.994 163.147,96.993 163.146,96.993C163.146,96.993 163.146,96.993 163.146,96.993C163.145,96.993 163.145,96.993 163.145,96.993C162.712,96.993 162.36,97.345 162.36,97.778C162.36,97.943 162.411,98.096 162.498,98.222C162.557,98.303 162.544,98.416 162.469,98.482C162.469,98.489 162.466,98.491 162.463,98.494C162.421,98.531 162.366,98.549 162.31,98.543C162.254,98.537 162.204,98.508 162.17,98.463C162.037,98.267 161.957,98.032 161.957,97.778C161.957,97.122 162.49,96.59 163.145,96.59C163.145,96.59 163.145,96.59 163.146,96.59Z" style="fill:rgb(119,133,208);"/>
                </g>
            </g>
        </g>
    </g>
</svg>
