<svg xmlns="http://www.w3.org/2000/svg" viewBox="0 0 14 14"><defs><style>.cls-1{fill:none;}.cls-2{fill:#5565ae;}</style></defs><title>ios-2</title><g id="图层_2" data-name="图层 2"><g id="图层_1-2" data-name="图层 1"><g id="ios-2"><path class="cls-2" d="M9,2.43v0a2.58,2.58,0,0,1-2,1A2.82,2.82,0,0,1,7.7,1.27a3,3,0,0,1,2-1A3,3,0,0,1,9,2.43m3.52,7.71a7.26,7.26,0,0,1-1,1.93c-.53.82-1.12,1.68-2,1.68s-1.2-.56-2.22-.56-1.38.56-2.23.56S3.49,12.86,2.92,12c-1.16-1.67-2-4.74-.86-6.76a3.33,3.33,0,0,1,2.8-1.7c.87,0,1.7.59,2.22.59s1.54-.73,2.59-.61A3.16,3.16,0,0,1,12.1,4.85a3.09,3.09,0,0,0-1.41,2.57,2.94,2.94,0,0,0,1.81,2.72"/></g></g></g></svg>