<svg xmlns="http://www.w3.org/2000/svg" viewBox="0 0 14 14"><defs><style>.cls-1{fill:none;opacity:0;}.cls-2{fill:#f1f3fa;}.cls-3{fill:#3c4c95;}.cls-4{fill:#aab3db;}.cls-5{fill:#727fbd;}</style></defs><title>资源 151</title><g id="图层_2" data-name="图层 2"><g id="图层_1-2" data-name="图层 1"><rect class="cls-2" x="1" y="4" width="12" height="8"/><path class="cls-3" d="M13,11.5a.5.5,0,0,1-.5.5H1.5a.5.5,0,0,1-.5-.5V4H13ZM13,1H1A1,1,0,0,0,0,2V12a1,1,0,0,0,1,1H13a1,1,0,0,0,1-1V2a1,1,0,0,0-1-1"/><path class="cls-2" d="M2.5,2.5A.5.5,0,1,1,2,2a.5.5,0,0,1,.5.5"/><path class="cls-2" d="M4.25,2.5a.5.5,0,1,1-.5-.5.5.5,0,0,1,.5.5"/><path class="cls-2" d="M6,2.5a.5.5,0,0,1-.5.5.5.5,0,0,1,0-1,.5.5,0,0,1,.5.5"/><path class="cls-4" d="M6.08,6.93H5.77a.23.23,0,0,1-.23-.23V5.62a.08.08,0,0,0-.08-.07H5V5.39h.46a.23.23,0,0,1,.23.23V6.7a.09.09,0,0,0,.08.08h.31Z"/><path class="cls-4" d="M10,8.46H9.64a.23.23,0,0,1-.23-.23V7.15a.08.08,0,0,0-.08-.07H8.87V6.92h.46a.23.23,0,0,1,.23.23V8.23a.09.09,0,0,0,.08.08H10Z"/><path class="cls-4" d="M7.08,10.54H6.77c-.13,0-.23-.07-.23-.16V9.6s0-.06-.08-.06H6V9.43h.46c.13,0,.23.07.23.16v.79s0,0,.08,0h.31Z"/><path class="cls-5" d="M4.53,6H2.47a.5.5,0,0,1,0-1H4.53a.5.5,0,0,1,0,1"/><path class="cls-5" d="M8.53,7.5H6.47a.5.5,0,0,1,0-1H8.53a.5.5,0,0,1,0,1"/><path class="cls-5" d="M11.53,9H9.47a.5.5,0,0,1,0-1h2.06a.5.5,0,0,1,0,1"/><path class="cls-5" d="M5.53,10H3.47a.5.5,0,0,1,0-1H5.53a.5.5,0,0,1,0,1"/><path class="cls-5" d="M9.53,11H7.47a.5.5,0,0,1,0-1H9.53a.5.5,0,0,1,0,1"/></g></g></svg>