<?xml version="1.0" encoding="UTF-8" standalone="no"?>
<!DOCTYPE svg PUBLIC "-//W3C//DTD SVG 1.1//EN" "http://www.w3.org/Graphics/SVG/1.1/DTD/svg11.dtd">
<svg width="100%" height="100%" viewBox="0 0 78 78" version="1.1" xmlns="http://www.w3.org/2000/svg" xmlns:xlink="http://www.w3.org/1999/xlink" xml:space="preserve" xmlns:serif="http://www.serif.com/" style="fill-rule:evenodd;clip-rule:evenodd;stroke-linejoin:round;stroke-miterlimit:1.41421;">
    <g transform="matrix(5.55556,0,0,5.55556,-327.778,-4755.56)">
        <g transform="matrix(1,0,0,1,0,204)">
            <g>
                <g transform="matrix(0.608696,0,0,0.608696,46.8261,642.87)">
                    <rect x="20" y="15" width="23" height="23" style="fill:none;"/>
                </g>
                <g id="留存分析" transform="matrix(1,0,0,1,59,648.155)">
                    <g transform="matrix(1,0,0,1,1,5.3452)">
                        <path d="M0,11C-0.276,11 -0.5,10.775 -0.5,10.5L-0.5,0.5C-0.5,0.225 -0.276,0 0,0L12,0C12.275,0 12.5,0.225 12.5,0.5L12.5,10.5C12.5,10.775 12.275,11 12,11L0,11Z" style="fill:rgb(242,244,253);fill-rule:nonzero;"/>
                    </g>
                    <g transform="matrix(1,0,0,1,13,16.8452)">
                        <path d="M0,-12L-12,-12C-12.552,-12 -13,-11.553 -13,-11L-13,-1C-13,-0.447 -12.552,0 -12,0L0,0C0.553,0 1,-0.447 1,-1L1,-11C1,-11.553 0.553,-12 0,-12M0,-1.5C0,-1.224 -0.224,-1 -0.5,-1C-2.452,-1 -9.548,-1 -11.5,-1C-11.776,-1 -12,-1.224 -12,-1.5C-12,-3.251 -12,-9 -12,-9L0,-9C0,-9 0,-3.251 0,-1.5Z" style="fill:rgb(61,77,165);fill-rule:nonzero;"/>
                    </g>
                    <g transform="matrix(1,0,0,1,14,4.8452)">
                        <path d="M0,3L-14,3L-14,1C-14,0.447 -13.552,0 -13,0L-1,0C-0.447,0 0,0.447 0,1L0,3Z" style="fill:rgb(61,77,165);fill-rule:nonzero;"/>
                    </g>
                    <g transform="matrix(1,0,0,1,2.5,6.3452)">
                        <path d="M0,0C0,0.276 -0.224,0.5 -0.5,0.5C-0.776,0.5 -1,0.276 -1,0C-1,-0.276 -0.776,-0.5 -0.5,-0.5C-0.224,-0.5 0,-0.276 0,0" style="fill:rgb(242,244,253);fill-rule:nonzero;"/>
                    </g>
                    <g transform="matrix(1,0,0,1,4.2998,6.3452)">
                        <path d="M0,0C0,0.276 -0.224,0.5 -0.5,0.5C-0.776,0.5 -1,0.276 -1,0C-1,-0.276 -0.776,-0.5 -0.5,-0.5C-0.224,-0.5 0,-0.276 0,0" style="fill:rgb(242,244,253);fill-rule:nonzero;"/>
                    </g>
                    <g transform="matrix(1,0,0,1,6.1001,6.3452)">
                        <path d="M0,0C0,0.276 -0.224,0.5 -0.5,0.5C-0.776,0.5 -1,0.276 -1,0C-1,-0.276 -0.776,-0.5 -0.5,-0.5C-0.224,-0.5 0,-0.276 0,0" style="fill:rgb(242,244,253);fill-rule:nonzero;"/>
                    </g>
                    <g transform="matrix(1,0,0,1,9.1445,8.8282)">
                        <path d="M0,6.058C-1.123,6.058 -2.67,5.976 -3.644,5.582C-6.461,4.444 -6.157,0.634 -6.143,0.473C-6.118,0.199 -5.889,0 -5.601,0.019C-5.326,0.043 -5.123,0.286 -5.146,0.56C-5.149,0.592 -5.397,3.795 -3.269,4.655C-1.847,5.231 1.291,5.02 1.32,5.018C1.648,4.995 1.835,5.207 1.854,5.482C1.873,5.758 1.666,5.996 1.391,6.016C1.334,6.02 0.766,6.058 0,6.058" style="fill:rgb(119,133,208);fill-rule:nonzero;"/>
                    </g>
                </g>
            </g>
        </g>
    </g>
</svg>
