<?xml version="1.0" encoding="UTF-8" standalone="no"?>
<!DOCTYPE svg PUBLIC "-//W3C//DTD SVG 1.1//EN" "http://www.w3.org/Graphics/SVG/1.1/DTD/svg11.dtd">
<svg width="100%" height="100%" viewBox="0 0 79 79" version="1.1" xmlns="http://www.w3.org/2000/svg" xmlns:xlink="http://www.w3.org/1999/xlink" xml:space="preserve" xmlns:serif="http://www.serif.com/" style="fill-rule:evenodd;clip-rule:evenodd;stroke-linejoin:round;stroke-miterlimit:1.41421;">
    <g transform="matrix(5.55556,0,0,5.55556,-593.804,-309.915)">
        <g id="user-scrutiny" transform="matrix(1,0,0,1,0,-33.6537)">
            <g transform="matrix(1,0,0,1,0.213799,-0.347505)">
                <rect x="106.671" y="89.786" width="14.042" height="14.042" style="fill:white;fill-opacity:0;"/>
            </g>
            <g id="用户细查-曲线" transform="matrix(1,0,0,1,0.000556461,0.0469034)">
                <g transform="matrix(1.30105,0,0,1.98133,90.2288,-63.2348)">
                    <path d="M23.578,78.052C23.578,77.774 23.234,77.548 22.81,77.548C20.829,77.548 15.567,77.548 13.586,77.548C13.162,77.548 12.818,77.774 12.818,78.052C12.818,79.193 12.818,81.959 12.818,83.099C12.818,83.378 13.162,83.604 13.586,83.604C15.567,83.604 20.829,83.604 22.81,83.604C23.234,83.604 23.578,83.378 23.578,83.099C23.578,81.959 23.578,79.193 23.578,78.052Z" style="fill:rgb(61,77,165);"/>
                </g>
                <g transform="matrix(1.04445,0,0,1.21035,94.9997,-1.36239)">
                    <path d="M23.828,78.342L12.339,78.342C12.339,78.342 12.339,83.092 12.339,84.539C12.339,84.767 12.553,84.952 12.817,84.952C14.686,84.952 21.48,84.952 23.349,84.952C23.614,84.952 23.828,84.767 23.828,84.539C23.828,83.092 23.828,78.342 23.828,78.342Z" style="fill:rgb(242,244,253);"/>
                </g>
                <g transform="matrix(1,0,0,1,23.845,-31.5601)">
                    <path d="M91.073,131.553C91.073,131.608 91.029,131.653 90.974,131.653C90.453,131.657 89.951,131.655 89.842,131.653C89.613,131.658 87.59,131.659 87.416,131.615C87.231,131.568 87.301,131.391 87.341,131.138C87.382,130.886 87.814,130.475 87.988,130.363C88.162,130.251 88.213,130.299 88.664,130.234C89.115,130.169 89.294,129.746 89.344,129.594C89.394,129.44 89.365,129.072 89.324,129.033C89.284,128.993 89.116,128.698 89.099,128.649C89.082,128.601 89.004,128.417 89.004,128.417C88.738,128.1 88.88,127.951 88.903,127.935C88.926,127.92 88.93,127.814 88.926,127.61C88.922,127.406 88.899,127.301 88.972,126.889C89.046,126.478 89.689,126.384 89.689,126.384L89.996,126.384C89.996,126.384 90.639,126.478 90.712,126.889C90.786,127.301 90.762,127.406 90.758,127.61C90.754,127.814 90.758,127.919 90.782,127.935C90.805,127.951 90.947,128.1 90.681,128.417C90.681,128.417 90.603,128.601 90.585,128.65C90.568,128.698 90.401,128.993 90.361,129.033C90.32,129.072 90.291,129.44 90.341,129.594C90.391,129.746 90.57,130.169 91.021,130.234C91.021,130.234 91.021,130.234 91.021,130.234C91.051,130.238 91.073,130.263 91.073,130.293C91.073,130.503 91.073,131.276 91.073,131.553Z" style="fill:rgb(119,133,208);"/>
                </g>
                <g transform="matrix(0.495349,0,0,0.495349,113.755,98.1832)">
                    <path d="M0,0.75L-0.267,0.75C-0.326,0.75 -0.382,0.719 -0.413,0.667L-0.64,0.291C-0.64,0.13 -0.526,0 -0.321,0L0.053,0C0.259,0 0.379,0.131 0.379,0.291L0.146,0.668C0.115,0.719 0.06,0.75 0,0.75" style="fill:rgb(242,244,253);"/>
                </g>
                <g transform="matrix(0.495349,0,0,0.495349,113.938,98.7847)">
                    <path d="M0,1.483L-0.41,1.793C-0.471,1.838 -0.556,1.838 -0.617,1.792L-1.018,1.484C-1.068,1.445 -1.093,1.38 -1.082,1.317L-0.796,-0.214C-0.781,-0.295 -0.71,-0.355 -0.628,-0.355L-0.373,-0.355C-0.29,-0.355 -0.219,-0.294 -0.204,-0.213L0.065,1.316C0.077,1.379 0.051,1.444 0,1.483" style="fill:rgb(242,244,253);"/>
                </g>
                <g transform="matrix(0.80887,0,0,0.80887,97.8957,30.2771)">
                    <circle cx="13.593" cy="76.257" r="0.618" style="fill:rgb(242,244,253);"/>
                </g>
                <g transform="matrix(0.80887,0,0,0.80887,99.6899,30.2771)">
                    <circle cx="13.593" cy="76.257" r="0.618" style="fill:rgb(242,244,253);"/>
                </g>
                <g transform="matrix(0.80887,0,0,0.80887,101.488,30.2771)">
                    <circle cx="13.593" cy="76.257" r="0.618" style="fill:rgb(242,244,253);"/>
                </g>
                <g transform="matrix(1,0,0,1,-0.000556461,-0.123509)">
                    <circle cx="115.677" cy="99.257" r="0.599" style="fill:rgb(121,135,209);"/>
                </g>
                <g transform="matrix(1,0,0,1,-0.165422,-0.291853)">
                    <circle cx="115.842" cy="99.425" r="0.382" style="fill:rgb(242,244,253);"/>
                </g>
                <g transform="matrix(0.729363,0.606893,-0.639618,0.768693,118.025,-57.1284)">
                    <path d="M104.836,121.647C104.836,121.583 104.781,121.531 104.713,121.531C104.526,121.531 104.171,121.531 103.984,121.531C103.917,121.531 103.862,121.583 103.862,121.647C103.862,121.647 103.862,121.648 103.862,121.649C103.862,121.713 103.917,121.765 103.984,121.765C104.171,121.765 104.526,121.765 104.713,121.765C104.781,121.765 104.836,121.713 104.836,121.649C104.836,121.648 104.836,121.647 104.836,121.647Z" style="fill:rgb(119,133,208);"/>
                </g>
            </g>
        </g>
    </g>
</svg>
