<?xml version="1.0" standalone="no"?><!DOCTYPE svg PUBLIC "-//W3C//DTD SVG 1.1//EN" "http://www.w3.org/Graphics/SVG/1.1/DTD/svg11.dtd"><svg t="1582620963796" class="icon" viewBox="0 0 1024 1024" version="1.1" xmlns="http://www.w3.org/2000/svg" p-id="10534" xmlns:xlink="http://www.w3.org/1999/xlink" width="64" height="64"><defs><style type="text/css"></style></defs><path d="M402.285897 0.002194a34.376971 34.376971 0 0 1 25.599872 10.971374A34.376971 34.376971 0 0 1 438.857143 36.57344v365.712457a37.302671 37.302671 0 0 1-36.571246 36.571246h-365.712457a34.376971 34.376971 0 0 1-25.599872-10.971374A34.376971 34.376971 0 0 1 0.002194 402.285897v-365.712457A34.376971 34.376971 0 0 1 10.973568 10.973568 34.376971 34.376971 0 0 1 36.57344 0.002194z m585.139932 0a34.376971 34.376971 0 0 1 25.599872 10.971374 34.376971 34.376971 0 0 1 10.971373 25.599872v365.712457a37.302671 37.302671 0 0 1-36.571245 36.571246h-365.712458a37.302671 37.302671 0 0 1-36.571245-36.571246v-365.712457a34.376971 34.376971 0 0 1 10.971373-25.599872A34.376971 34.376971 0 0 1 621.713371 0.002194z m0 585.139932a37.302671 37.302671 0 0 1 36.571245 36.571245v365.712458a37.302671 37.302671 0 0 1-36.571245 36.571245h-365.712458a37.302671 37.302671 0 0 1-36.571245-36.571245v-365.712458a37.302671 37.302671 0 0 1 36.571245-36.571245z m-585.139932 0a37.302671 37.302671 0 0 1 36.571246 36.571245v365.712458a37.302671 37.302671 0 0 1-36.571246 36.571245h-365.712457a34.376971 34.376971 0 0 1-25.599872-10.971373 34.376971 34.376971 0 0 1-10.971374-25.599872v-365.712458a34.376971 34.376971 0 0 1 10.971374-25.599872A34.376971 34.376971 0 0 1 36.57344 585.142126z" p-id="10535"></path></svg>