<svg xmlns="http://www.w3.org/2000/svg" viewBox="0 0 14 14"><defs><style>.cls-1{fill:none;}.cls-2{fill:#333332;}</style></defs><title>collect</title><g id="图层_2" data-name="图层 2"><g id="图层_1-2" data-name="图层 1"><g id="collect"><path class="cls-2" d="M10.9,13.69a.72.72,0,0,1-.32-.08L7.2,11.84a.43.43,0,0,0-.41,0L3.42,13.61a.68.68,0,0,1-.93-.29.7.7,0,0,1-.07-.43l.65-3.76a.46.46,0,0,0-.13-.39L.21,6.08A.69.69,0,0,1,0,5.59.7.7,0,0,1,.2,5.1a.78.78,0,0,1,.38-.2l3.78-.55a.45.45,0,0,0,.34-.24L6.38.69a.7.7,0,0,1,1.24,0L9.3,4.11a.45.45,0,0,0,.34.24l3.77.55a.69.69,0,0,1,.58.78.64.64,0,0,1-.2.4L11.06,8.74a.46.46,0,0,0-.13.39l.65,3.76a.67.67,0,0,1-.12.51.66.66,0,0,1-.44.28H10.9m2.19-8.33ZM.9,5.36h0Z"/></g></g></g></svg>