<?xml version="1.0" standalone="no"?><!DOCTYPE svg PUBLIC "-//W3C//DTD SVG 1.1//EN" "http://www.w3.org/Graphics/SVG/1.1/DTD/svg11.dtd"><svg t="1574252141544" class="icon" viewBox="0 0 1024 1024" version="1.1" xmlns="http://www.w3.org/2000/svg" p-id="10223" xmlns:xlink="http://www.w3.org/1999/xlink" width="200" height="200"><defs><style type="text/css"></style></defs><path d="M1011.694133 552.245228a14.160096 14.160096 0 0 1 0 15.650632 16.3959 16.3959 0 0 1-14.160096 8.943219h-76.017356a35.027605 35.027605 0 0 0-26.084387 11.179023 38.008678 38.008678 0 0 0-11.179023 26.084387v372.634101a37.26341 37.26341 0 0 1-37.263411 37.26341h-186.31705a37.26341 37.26341 0 0 1-37.26341-37.26341v-372.634101a37.26341 37.26341 0 0 0-10.433755-26.084387 36.518142 36.518142 0 0 0-26.829655-11.179023h-149.053641a35.027605 35.027605 0 0 0-26.084387 11.179023 38.008678 38.008678 0 0 0-11.179023 26.084387v372.634101a37.26341 37.26341 0 0 1-37.26341 37.26341h-186.31705a37.26341 37.26341 0 0 1-37.26341-37.26341v-372.634101a37.26341 37.26341 0 0 0-10.433755-26.084387 36.518142 36.518142 0 0 0-26.829656-11.179023H25.704302a14.905364 14.905364 0 0 1-14.905364-8.943219 14.905364 14.905364 0 0 1 0-15.650632L485.534782 12.67105A35.772874 35.772874 0 0 1 513.109706 0.001491a37.26341 37.26341 0 0 1 28.320192 12.669559z" p-id="10224"></path></svg>