<svg xmlns="http://www.w3.org/2000/svg" xmlns:xlink="http://www.w3.org/1999/xlink" viewBox="0 0 16 8"><defs><style>.cls-1{fill:none;}.cls-2{clip-path:url(#clip-path);}.cls-3{fill-rule:evenodd;}</style><clipPath id="clip-path" transform="translate(0 -4)"><rect class="cls-1" width="16" height="16"/></clipPath></defs><title>资源 10</title><g id="图层_2" data-name="图层 2"><g id="图层_1-2" data-name="图层 1"><g class="cls-2"><path class="cls-3" d="M1.5,4A1.5,1.5,0,1,0,3,5.5,1.5,1.5,0,0,0,1.5,4Zm0,5A1.5,1.5,0,1,0,3,10.5,1.5,1.5,0,0,0,1.5,9ZM8,4A1.5,1.5,0,1,0,9.5,5.5,1.5,1.5,0,0,0,8,4ZM8,9a1.5,1.5,0,1,0,1.5,1.5A1.5,1.5,0,0,0,8,9Zm6.5-2A1.5,1.5,0,1,0,13,5.5,1.5,1.5,0,0,0,14.5,7Zm0,2A1.5,1.5,0,1,0,16,10.5,1.5,1.5,0,0,0,14.5,9Z" transform="translate(0 -4)"/></g></g></g></svg>