<?xml version="1.0" standalone="no"?><!DOCTYPE svg PUBLIC "-//W3C//DTD SVG 1.1//EN" "http://www.w3.org/Graphics/SVG/1.1/DTD/svg11.dtd"><svg t="1582613707603" class="icon" viewBox="0 0 1024 1024" version="1.1" xmlns="http://www.w3.org/2000/svg" p-id="11011" xmlns:xlink="http://www.w3.org/1999/xlink" width="64" height="64"><defs><style type="text/css"></style></defs><path d="M876.063 769.024c5.12 34.816 34.82 29.696 39.94 45.056 0 9.723-5.12 45.056-19.967 49.664-14.848 0-34.816-5.12-49.664 0-9.723 5.12-19.963 9.728-25.083 19.968-9.728 25.083 9.723 45.05 0 54.779-14.848 9.728-45.061 25.088-54.784 14.848-14.848-14.848-14.848-34.821-45.056-34.821-39.941 0-39.941 39.94-59.904 39.94-19.968 0-54.784-14.847-54.784-29.7 5.12-19.963 14.848-34.811-5.12-54.78-25.088-19.967-54.784 0-65.024-9.727-14.843-9.728-19.963-34.816-14.843-49.659 5.12-14.848 39.936-14.848 39.936-54.79 0-29.69-34.816-34.81-39.936-54.778-5.12-14.848 5.12-39.941 19.963-45.061 25.088-9.723 39.936 9.728 65.024-9.723 14.848-14.843 9.728-49.664 9.728-59.904 5.12-14.848 25.083-19.968 39.936-19.968 29.696 0 19.963 34.821 59.904 39.941 39.936 0 34.816-14.848 54.779-39.941 25.088 0 45.061 9.728 49.664 19.968 9.728 19.968-9.723 49.664 19.968 69.632 25.083 14.848 49.664-5.12 65.024 0 9.723 5.12 14.843 19.968 19.963 39.941-9.723 29.174-54.784 24.054-49.664 69.115z m-179.707-99.84c-119.808 29.696-74.752 204.288 39.936 184.832 115.2-25.093 99.84-209.92-39.936-184.832zM492.068 494.597c-119.808 0-214.528-94.72-214.528-214.528S372.26 65.541 492.068 65.541c119.803 0 214.523 94.72 214.523 214.528 0.005 114.688-94.715 214.528-214.523 214.528z m174.592 49.659s-79.877 0-74.757 54.784c5.12 59.904-74.752 14.843-89.595 65.024-19.968 59.899 9.723 49.659 25.083 89.6 9.728 25.088-39.936 39.936-34.816 84.992 9.728 59.904 59.904 29.701 74.752 65.024 9.728 29.696-25.083 49.664-104.96 49.664-65.02 0-189.44 0-234.496-5.12 0 0-129.536-5.12-129.536-89.6 0 0-5.12-124.928 74.752-214.528 0 0 84.992-109.568 229.38-109.568l264.193 9.728z" p-id="11012"></path></svg>