<svg xmlns="http://www.w3.org/2000/svg" viewBox="0 0 14 14"><defs><style>.cls-1{fill:none;}.cls-2{fill:#323333;fill-rule:evenodd;}</style></defs><title>sequence-a-z</title><g id="图层_2" data-name="图层 2"><g id="图层_1-2" data-name="图层 1"><g id="sequence-a-z"><path class="cls-2" d="M14,.5a.5.5,0,0,1-.5.5H.5A.5.5,0,0,1,0,.5H0A.5.5,0,0,1,.5,0h13a.5.5,0,0,1,.5.5ZM7,7a.5.5,0,0,1-.5.5H.5a.5.5,0,0,1,0-1h6A.5.5,0,0,1,7,7ZM5,13.5a.51.51,0,0,1-.5.5H.5a.47.47,0,0,1-.35-.15.48.48,0,0,1,0-.7A.47.47,0,0,1,.5,13h4a.51.51,0,0,1,.5.5Zm5.33-1.76a.2.2,0,0,0,.22,0,.21.21,0,0,0,.12-.19V4a.51.51,0,0,1,.5-.5.5.5,0,0,1,.5.5V11.6a.21.21,0,0,0,.13.19.19.19,0,0,0,.21,0l.94-.93a.49.49,0,0,1,.69,0h0a.51.51,0,0,1,0,.72l-2.11,2.12a.54.54,0,0,1-.36.14.5.5,0,0,1-.35-.14L8.71,11.53a.51.51,0,0,1,0-.72h0a.48.48,0,0,1,.68,0Z"/></g></g></g></svg>