<svg xmlns="http://www.w3.org/2000/svg" xmlns:xlink="http://www.w3.org/1999/xlink" viewBox="0 0 16 16"><defs><style>.cls-1{fill:none;}.cls-2{clip-path:url(#clip-path);}.cls-3{fill:#1248e9;fill-rule:evenodd;}</style><clipPath id="clip-path" transform="translate(0 0)"><rect class="cls-1" width="16" height="16"/></clipPath></defs><title>transfer</title><g id="图层_2" data-name="图层 2"><g id="图层_1-2" data-name="图层 1"><g class="cls-2"><path class="cls-3" d="M8,0a8,8,0,1,0,8,8A8,8,0,0,0,8,0Zm4.34,11A5.26,5.26,0,0,1,2.77,8.51a.07.07,0,0,0-.07-.07H2.5a.16.16,0,0,1-.14-.08.16.16,0,0,1,0-.15L3,7.14a.14.14,0,0,1,.12-.07.17.17,0,0,1,.13.07c.17.28.48.78.67,1.07a.14.14,0,0,1,0,.15.16.16,0,0,1-.13.08H3.61a.06.06,0,0,0-.06,0,.08.08,0,0,0,0,0,4.5,4.5,0,0,0,8.18,2,.36.36,0,0,1,.49-.12h0a.38.38,0,0,1,.13.53Zm1.29-3.17L13,8.86a.14.14,0,0,1-.12.07.17.17,0,0,1-.13-.07c-.17-.28-.48-.78-.67-1.07a.14.14,0,0,1,0-.15.16.16,0,0,1,.13-.08h.22a.06.06,0,0,0,.06,0s0,0,0,0a4.5,4.5,0,0,0-8.18-2,.36.36,0,0,1-.49.12h0A.38.38,0,0,1,3.66,5a5.26,5.26,0,0,1,9.57,2.45.07.07,0,0,0,.07.07h.2a.16.16,0,0,1,.14.08A.16.16,0,0,1,13.63,7.79Z" transform="translate(0 0)"/></g></g></g></svg>