<?xml version="1.0" encoding="UTF-8" standalone="no"?>
<!DOCTYPE svg PUBLIC "-//W3C//DTD SVG 1.1//EN" "http://www.w3.org/Graphics/SVG/1.1/DTD/svg11.dtd">
<svg width="100%" height="100%" viewBox="0 0 78 78" version="1.1" xmlns="http://www.w3.org/2000/svg" xmlns:xlink="http://www.w3.org/1999/xlink" xml:space="preserve" xmlns:serif="http://www.serif.com/" style="fill-rule:evenodd;clip-rule:evenodd;stroke-linejoin:round;stroke-miterlimit:1.41421;">
    <g transform="matrix(5.55556,0,0,5.55556,-61.1111,-288.888)">
        <g transform="matrix(1,0,0,1,7.10543e-15,16)">
            <g>
                <g transform="matrix(0.608696,0,0,0.608696,-1.17391,26.8696)">
                    <rect x="20" y="15" width="23" height="23" style="fill:none;"/>
                </g>
                <g id="用户" transform="matrix(1,0,0,1,-0.0129084,-0.000137579)">
                    <path d="M23.98,49.567C23.978,49.552 23.976,49.536 23.975,49.521C23.736,46.433 21.163,44 18.013,44C14.859,44 12.258,46.438 12.018,49.531C12.001,49.793 11.782,50 11.516,50C11.238,50 11.013,49.775 11.013,49.497C11.013,49.481 11.014,49.465 11.015,49.449L11.015,49.446C11.224,46.857 12.839,44.661 15.096,43.63C15.239,43.569 15.341,43.44 15.366,43.286C15.392,43.133 15.338,42.977 15.223,42.873C14.468,42.148 14,41.128 14,40C14,37.792 15.792,36 18,36C20.208,36 22,37.792 22,40C22,41.128 21.532,42.148 20.779,42.876C20.666,42.979 20.612,43.134 20.638,43.285C20.664,43.437 20.765,43.565 20.906,43.625C23.157,44.66 24.77,46.849 24.977,49.433C24.98,49.454 24.981,49.475 24.981,49.497C24.981,49.775 24.756,50 24.478,50C24.224,50 24.014,49.812 23.98,49.567ZM23.979,49.563L23.979,49.563L23.979,49.562L23.979,49.563ZM23.979,49.558L23.979,49.558L23.979,49.558L23.979,49.558ZM23.978,49.554L23.978,49.554L23.978,49.553L23.978,49.554ZM23.978,49.55L23.978,49.55L23.978,49.549L23.978,49.55ZM23.977,49.541L23.977,49.541L23.977,49.54L23.977,49.541ZM23.977,49.537L23.977,49.537L23.977,49.536L23.977,49.537ZM23.976,49.532L23.976,49.532L23.976,49.532L23.976,49.532ZM23.976,49.528L23.976,49.528L23.976,49.527L23.976,49.528ZM23.976,49.523L23.976,49.524L23.976,49.523L23.976,49.523ZM23.976,49.519L23.976,49.519L23.975,49.518L23.976,49.519ZM12.019,49.518L12.019,49.519L12.019,49.518L12.019,49.518ZM23.975,49.515L23.975,49.515L23.975,49.514L23.975,49.515ZM12.019,49.514L12.019,49.515L12.019,49.514L12.019,49.514ZM23.975,49.51L23.975,49.511L23.975,49.51L23.975,49.51ZM12.019,49.51L12.019,49.51L12.019,49.51L12.019,49.51ZM23.975,49.506L23.975,49.506L23.975,49.505L23.975,49.506ZM12.019,49.505L12.019,49.506L12.019,49.506L12.019,49.505ZM23.975,49.501L23.975,49.502L23.975,49.501L23.975,49.501ZM12.019,49.501L12.019,49.502L12.019,49.501L12.019,49.501ZM12.018,49.455C12.019,49.469 12.019,49.482 12.019,49.496C12.019,49.482 12.019,49.469 12.018,49.455ZM12.017,49.447L12.017,49.452L12.017,49.449L12.017,49.448L12.017,49.447L12.017,49.447L12.017,49.446L12.016,49.442L12.017,49.447ZM11.016,49.443L11.016,49.444L11.016,49.443L11.016,49.443ZM11.016,49.44L11.016,49.441L11.016,49.44L11.016,49.44ZM12.016,49.439L12.016,49.436L12.015,49.435L12.015,49.434L12.015,49.433L12.015,49.432L12.015,49.431L12.016,49.439ZM11.016,49.437L11.016,49.438L11.016,49.437L11.016,49.437ZM11.017,49.434L11.017,49.435L11.017,49.434L11.017,49.434ZM11.017,49.431L11.017,49.432L11.017,49.431L11.017,49.431ZM24.977,49.43L24.977,49.431L24.977,49.43L24.977,49.43ZM11.018,49.429L11.018,49.429L11.018,49.428L11.018,49.429ZM24.977,49.427L24.977,49.428L24.977,49.427L24.977,49.427ZM11.018,49.426L11.018,49.426L11.018,49.425L11.018,49.426ZM24.976,49.424L24.976,49.425L24.976,49.424L24.976,49.424ZM12.014,49.425C12.014,49.423 12.014,49.421 12.013,49.42L12.013,49.42L12.013,49.42C12.013,49.418 12.013,49.416 12.013,49.415L12.013,49.415L12.013,49.415C12.012,49.413 12.012,49.411 12.012,49.41L12.012,49.41L12.012,49.41L12.011,49.407L12.011,49.405L12.011,49.405L12.011,49.405L12.014,49.425ZM11.018,49.423L11.018,49.423L11.018,49.423L11.018,49.423ZM24.976,49.421L24.976,49.422L24.976,49.422L24.976,49.421ZM24.975,49.418L24.975,49.419L24.975,49.419L24.975,49.418ZM24.975,49.415L24.975,49.416L24.975,49.416L24.975,49.415ZM24.974,49.412L24.974,49.413L24.974,49.413L24.974,49.412ZM24.974,49.409L24.974,49.41L24.974,49.41L24.974,49.409ZM24.973,49.406L24.973,49.408L24.973,49.407L24.973,49.406ZM24.973,49.403L24.973,49.405L24.973,49.404L24.973,49.403ZM24.972,49.4L24.972,49.402L24.972,49.401L24.972,49.4ZM24.971,49.396L24.972,49.398L24.971,49.396L24.971,49.396ZM11.023,49.396L11.023,49.397L11.023,49.396L11.023,49.396ZM12.002,49.365L12.008,49.392L12.009,49.396L12.008,49.393L12.008,49.392L12.008,49.392L12.008,49.39L12.008,49.389L12.007,49.388L12.007,49.388L12.007,49.387L12.007,49.385L12.007,49.384L12.006,49.384L12.006,49.383L12.006,49.381L12.006,49.38L12.006,49.38L12.005,49.379L12.005,49.378L12.005,49.377L12.005,49.376L12.004,49.375L12.004,49.374L12.004,49.373L12.004,49.372L12.003,49.371L12.003,49.37L12.003,49.369L12.003,49.368L12.002,49.367L12.002,49.366L12.002,49.365L12.002,49.364L12.001,49.364L12.001,49.363L12.001,49.361L12,49.36L12,49.36L12,49.359L12,49.357L11.999,49.356L11.999,49.356L11.999,49.355L11.998,49.354L11.998,49.353L11.998,49.352L11.998,49.352L11.997,49.35L11.997,49.349L11.997,49.349L11.997,49.348L11.996,49.346L11.996,49.345L11.996,49.345L11.996,49.344L11.995,49.342L11.995,49.341L11.995,49.341L11.994,49.341L11.994,49.338L11.993,49.337L11.993,49.337L12.002,49.365ZM23.986,49.393L23.985,49.394L23.986,49.393L23.986,49.391L23.986,49.393ZM24.971,49.393L24.971,49.394L24.971,49.393L24.971,49.393ZM11.024,49.394L11.024,49.394L11.024,49.393L11.024,49.394ZM24.97,49.39L24.97,49.391L24.97,49.39L24.97,49.39ZM11.024,49.391L11.024,49.391L11.024,49.391L11.024,49.391ZM24.969,49.387L24.97,49.388L24.969,49.387L24.969,49.387ZM11.025,49.388L11.025,49.388L11.025,49.388L11.025,49.388ZM24.969,49.384L24.969,49.385L24.969,49.385L24.969,49.384ZM11.025,49.385L11.025,49.385L11.025,49.385L11.025,49.385ZM23.988,49.383C23.988,49.381 23.989,49.379 23.989,49.377L23.989,49.38L23.988,49.383ZM24.968,49.381L24.968,49.383L24.968,49.382L24.968,49.381ZM11.026,49.382L11.026,49.382L11.026,49.382L11.026,49.382ZM24.967,49.378L24.968,49.38L24.967,49.379L24.967,49.378ZM11.027,49.379L11.027,49.379L11.027,49.379L11.027,49.379ZM24.966,49.375L24.967,49.377L24.967,49.376L24.966,49.375ZM11.027,49.376L11.027,49.377L11.028,49.376L11.027,49.376ZM24.966,49.372L24.966,49.374L24.966,49.373L24.966,49.372ZM11.028,49.374L11.028,49.374L11.028,49.374L11.028,49.374ZM24.965,49.369L24.965,49.371L24.965,49.371L24.965,49.369ZM24.964,49.366L24.965,49.368L24.965,49.368L24.964,49.366ZM24.963,49.363L24.964,49.365L24.964,49.365L24.963,49.363ZM24.962,49.359L24.963,49.362L24.962,49.36L24.962,49.359ZM24.961,49.357L24.962,49.358L24.962,49.357L24.961,49.357ZM24.961,49.354L24.961,49.355L24.961,49.354L24.961,49.354ZM11.034,49.354L11.034,49.354L11.034,49.354L11.034,49.354ZM24.96,49.351L24.96,49.352L24.96,49.351L24.96,49.351ZM11.034,49.351L11.034,49.351L11.034,49.351L11.034,49.351ZM23.999,49.344C23.998,49.346 23.997,49.348 23.997,49.35L23.998,49.347L23.999,49.344ZM24.959,49.348L24.959,49.35L24.959,49.349L24.959,49.348ZM11.035,49.348L11.035,49.349L11.035,49.348L11.035,49.348ZM24.958,49.345L24.958,49.347L24.958,49.346L24.958,49.345ZM11.036,49.346L11.036,49.346L11.036,49.345L11.036,49.346ZM24.957,49.342L24.958,49.344L24.957,49.343L24.957,49.342ZM11.037,49.343L11.037,49.343L11.037,49.343L11.037,49.343ZM24.956,49.339L24.957,49.341L24.956,49.34L24.956,49.339ZM11.038,49.34L11.038,49.34L11.038,49.34L11.038,49.34ZM24.955,49.337L24.956,49.338L24.956,49.338L24.955,49.337ZM11.039,49.337L11.039,49.338L11.039,49.337L11.039,49.337ZM24.954,49.334L24.955,49.335L24.955,49.335L24.954,49.334ZM11.04,49.335L11.04,49.335L11.04,49.334L11.04,49.335ZM24.953,49.331L24.954,49.333L24.954,49.332L24.953,49.331ZM11.041,49.332L11.041,49.332L11.041,49.332L11.041,49.332ZM24.952,49.327L24.953,49.33C24.953,49.329 24.952,49.328 24.952,49.327ZM11.042,49.329L11.042,49.329L11.042,49.329L11.042,49.329ZM24.951,49.324L24.952,49.327L24.951,49.324L24.951,49.324ZM11.981,49.305C11.984,49.312 11.987,49.318 11.989,49.325C11.987,49.318 11.984,49.312 11.981,49.305ZM24.95,49.321L24.95,49.323L24.95,49.322L24.95,49.321ZM24.949,49.319L24.949,49.32L24.949,49.319L24.949,49.319ZM24.948,49.316L24.948,49.317L24.948,49.316L24.948,49.316ZM24.947,49.313L24.947,49.315L24.947,49.314L24.947,49.313ZM24.946,49.31L24.946,49.312L24.946,49.311L24.946,49.31ZM11.049,49.31L11.049,49.31L11.049,49.31L11.049,49.31ZM24.944,49.308L24.945,49.309L24.945,49.308L24.944,49.308ZM11.05,49.308L11.05,49.308L11.05,49.307L11.05,49.308ZM24.943,49.305L24.944,49.306L24.944,49.306L24.943,49.305ZM11.051,49.305L11.051,49.305L11.051,49.305L11.051,49.305ZM24.942,49.302L24.943,49.304L24.943,49.303L24.942,49.302ZM11.052,49.302L11.052,49.303L11.052,49.302L11.052,49.302ZM11.974,49.289C11.976,49.293 11.978,49.298 11.98,49.302C11.978,49.298 11.976,49.293 11.974,49.289ZM24.941,49.299L24.942,49.301L24.942,49.301L24.941,49.299ZM11.053,49.3L11.053,49.3L11.053,49.299L11.053,49.3ZM24.94,49.296L24.941,49.298L24.94,49.298L24.94,49.296ZM11.054,49.297L11.054,49.297L11.054,49.297L11.054,49.297ZM24.938,49.293L24.939,49.296C24.939,49.295 24.939,49.294 24.938,49.293ZM11.055,49.294L11.055,49.295L11.056,49.294L11.055,49.294ZM24.937,49.29L24.938,49.292L24.937,49.29L24.937,49.29ZM11.057,49.292L11.057,49.292L11.057,49.291L11.057,49.292ZM11.058,49.289L11.058,49.289L11.058,49.289L11.058,49.289ZM24.936,49.287L24.937,49.289L24.936,49.288L24.936,49.287ZM11.059,49.286L11.059,49.287L11.059,49.286L11.059,49.286ZM24.934,49.285L24.935,49.286L24.935,49.285L24.934,49.285ZM11.06,49.284L11.06,49.284L11.06,49.284L11.06,49.284ZM24.933,49.282L24.934,49.284L24.933,49.283L24.933,49.282ZM24.932,49.279L24.933,49.281L24.932,49.28L24.932,49.279ZM11.967,49.274L11.97,49.279C11.969,49.278 11.968,49.276 11.968,49.275L11.968,49.275L11.967,49.274L11.967,49.273L11.966,49.271L11.967,49.274ZM24.931,49.277L24.931,49.278L24.931,49.278L24.931,49.277ZM24.929,49.274L24.93,49.276L24.93,49.275L24.929,49.274ZM24.928,49.271L24.929,49.273L24.929,49.272L24.928,49.271ZM24.041,49.248C24.037,49.255 24.032,49.263 24.028,49.271C24.032,49.263 24.037,49.255 24.041,49.248ZM24.927,49.269L24.927,49.27L24.927,49.27L24.927,49.269ZM11.068,49.268L11.068,49.269L11.068,49.268L11.068,49.268ZM11.963,49.265C11.963,49.266 11.964,49.267 11.964,49.268L11.963,49.265C11.962,49.264 11.962,49.263 11.961,49.263L11.963,49.265ZM24.925,49.266L24.926,49.268L24.926,49.267L24.925,49.266ZM11.069,49.266L11.069,49.266L11.069,49.266L11.069,49.266ZM24.924,49.263L24.925,49.265L24.925,49.265L24.924,49.263ZM11.07,49.263L11.07,49.264L11.07,49.263L11.07,49.263ZM24.922,49.26L24.923,49.263C24.923,49.262 24.923,49.261 24.922,49.26ZM11.072,49.261L11.071,49.261L11.072,49.261L11.072,49.261ZM24.921,49.257L24.922,49.259L24.921,49.258L24.921,49.257ZM11.073,49.258L11.073,49.259L11.073,49.258L11.073,49.258ZM24.919,49.255L24.92,49.256L24.919,49.255L24.919,49.255ZM11.074,49.256L11.074,49.256L11.075,49.255L11.074,49.256ZM11.955,49.251C11.956,49.252 11.957,49.254 11.958,49.256C11.957,49.254 11.956,49.252 11.955,49.251ZM24.918,49.252L24.919,49.254L24.918,49.253L24.918,49.252ZM11.076,49.253L11.076,49.254L11.076,49.253L11.076,49.253ZM24.916,49.25L24.917,49.251L24.917,49.25L24.916,49.25ZM11.077,49.251L11.077,49.251L11.077,49.25L11.077,49.251ZM24.915,49.247L24.916,49.249L24.915,49.248L24.915,49.247ZM11.079,49.248L11.078,49.249L11.079,49.248L11.079,49.248ZM11.08,49.246L11.08,49.246L11.08,49.245L11.08,49.246ZM24.913,49.245L24.914,49.246L24.914,49.245L24.913,49.245ZM11.939,49.224L11.951,49.244L11.951,49.244L11.951,49.244L11.95,49.242L11.949,49.241L11.949,49.241L11.949,49.241L11.948,49.239L11.947,49.238L11.947,49.238L11.947,49.237L11.946,49.235L11.945,49.234L11.945,49.234L11.945,49.234L11.944,49.232L11.943,49.231L11.943,49.231L11.943,49.23L11.942,49.229L11.941,49.228L11.941,49.227L11.941,49.227L11.94,49.226L11.939,49.225L11.939,49.224L11.939,49.224L11.938,49.223L11.937,49.221L11.939,49.224ZM11.081,49.243L11.081,49.244L11.082,49.243L11.081,49.243ZM24.912,49.242L24.913,49.243L24.912,49.243L24.912,49.242ZM11.083,49.241L11.083,49.241L11.083,49.241L11.083,49.241ZM24.91,49.239L24.911,49.241L24.911,49.24L24.91,49.239ZM24.909,49.237L24.91,49.238L24.91,49.238L24.909,49.237ZM24.907,49.234L24.908,49.236L24.908,49.236L24.907,49.234ZM24.069,49.204C24.062,49.214 24.055,49.224 24.049,49.234C24.055,49.224 24.062,49.214 24.069,49.204ZM24.905,49.231L24.907,49.233L24.907,49.233L24.905,49.231ZM24.904,49.228L24.905,49.231C24.905,49.23 24.904,49.229 24.904,49.228ZM11.09,49.229L11.09,49.229L11.09,49.229L11.09,49.229ZM24.902,49.226L24.903,49.228L24.902,49.226L24.902,49.226ZM11.092,49.226L11.092,49.227L11.092,49.226L11.092,49.226ZM24.901,49.224L24.902,49.225L24.901,49.224L24.901,49.224ZM11.093,49.224L11.093,49.225L11.094,49.224L11.093,49.224ZM24.899,49.221L24.9,49.223L24.899,49.221L24.899,49.221ZM11.095,49.222L11.095,49.222L11.095,49.221L11.095,49.222ZM24.897,49.219L24.898,49.22L24.898,49.219L24.897,49.219ZM11.097,49.219L11.096,49.22L11.097,49.219L11.097,49.219ZM24.896,49.216L24.897,49.218L24.896,49.217L24.896,49.216ZM11.098,49.217L11.098,49.217L11.098,49.217L11.098,49.217ZM24.894,49.214L24.895,49.215L24.895,49.215L24.894,49.214ZM11.1,49.215L11.099,49.215L11.1,49.214L11.1,49.215ZM24.892,49.211L24.893,49.213L24.893,49.212L24.892,49.211ZM11.101,49.212L11.101,49.213L11.102,49.212L11.101,49.212ZM24.891,49.209L24.892,49.21L24.891,49.21L24.891,49.209ZM11.103,49.21L11.103,49.21L11.103,49.209L11.103,49.21ZM11.899,49.17L11.916,49.191L11.929,49.21C11.928,49.209 11.928,49.208 11.927,49.207L11.927,49.207L11.927,49.207L11.926,49.205L11.925,49.204L11.925,49.204L11.925,49.204L11.924,49.202L11.923,49.202L11.923,49.202L11.923,49.201L11.922,49.2L11.921,49.199L11.921,49.199L11.921,49.199L11.92,49.197L11.92,49.196L11.919,49.196L11.919,49.196L11.918,49.194L11.918,49.194L11.917,49.194L11.917,49.193L11.916,49.192L11.916,49.191L11.915,49.191L11.915,49.191L11.914,49.189L11.914,49.189L11.913,49.188L11.913,49.188L11.912,49.187L11.912,49.186L11.911,49.186L11.911,49.185L11.91,49.185L11.909,49.183L11.909,49.183L11.909,49.183L11.908,49.182L11.907,49.181L11.907,49.18L11.907,49.18L11.906,49.18L11.905,49.178L11.905,49.178L11.905,49.178L11.904,49.177L11.903,49.176L11.903,49.175L11.903,49.175L11.902,49.175L11.901,49.173L11.901,49.173L11.901,49.173L11.9,49.172L11.899,49.171L11.899,49.17L11.899,49.17L11.898,49.17L11.896,49.168L11.899,49.17ZM24.889,49.206L24.89,49.208L24.89,49.208L24.889,49.206ZM11.105,49.208L11.104,49.208L11.105,49.207L11.105,49.208ZM24.887,49.204L24.888,49.206L24.888,49.205L24.887,49.204ZM11.106,49.205L11.106,49.205L11.107,49.205L11.106,49.205ZM24.885,49.201L24.887,49.203C24.885,49.202 24.884,49.2 24.883,49.198L24.885,49.201ZM11.108,49.203L11.108,49.203L11.108,49.203L11.108,49.203ZM24.881,49.196L24.883,49.198L24.882,49.196L24.881,49.196ZM24.88,49.194L24.881,49.195L24.88,49.194L24.88,49.194ZM24.077,49.194L24.077,49.194L24.077,49.194L24.078,49.192L24.077,49.194ZM24.878,49.191L24.879,49.193L24.878,49.192L24.878,49.191ZM11.116,49.192L11.116,49.192L11.116,49.191L11.116,49.192ZM24.876,49.189L24.877,49.191L24.877,49.19L24.876,49.189ZM11.118,49.189L11.118,49.19L11.118,49.189L11.118,49.189ZM24.874,49.187L24.875,49.188L24.875,49.187L24.874,49.187ZM11.12,49.187L11.119,49.188L11.12,49.187L11.12,49.187ZM24.086,49.182C24.085,49.183 24.083,49.185 24.082,49.187C24.083,49.185 24.085,49.183 24.086,49.182ZM24.873,49.185L24.874,49.186L24.873,49.185L24.873,49.185ZM11.122,49.185L11.121,49.185L11.122,49.185L11.122,49.185ZM24.871,49.182L24.872,49.184L24.871,49.183L24.871,49.182ZM11.123,49.183L11.123,49.183L11.124,49.182L11.123,49.183ZM24.869,49.18L24.87,49.181L24.87,49.181L24.869,49.18ZM11.125,49.18L11.125,49.181L11.125,49.18L11.125,49.18ZM24.867,49.178L24.868,49.179L24.868,49.179L24.867,49.178ZM11.127,49.178L11.127,49.179L11.127,49.178L11.127,49.178ZM24.865,49.175L24.866,49.177L24.866,49.177L24.865,49.175ZM11.129,49.176L11.128,49.176L11.129,49.176L11.129,49.176ZM24.863,49.172L24.864,49.175C24.863,49.173 24.862,49.172 24.861,49.17L24.863,49.172ZM11.13,49.174L11.13,49.174L11.131,49.173L11.13,49.174ZM24.104,49.161C24.1,49.165 24.097,49.169 24.094,49.172C24.097,49.169 24.1,49.165 24.104,49.161ZM11.132,49.172L11.132,49.172L11.133,49.171L11.132,49.172ZM11.134,49.17L11.134,49.17L11.135,49.169L11.134,49.17ZM24.859,49.168L24.86,49.17L24.859,49.168L24.859,49.168ZM11.136,49.167L11.136,49.167L11.137,49.167L11.136,49.167ZM24.857,49.166L24.858,49.167L24.857,49.166L24.857,49.166ZM11.138,49.165L11.138,49.165L11.138,49.165L11.138,49.165ZM24.855,49.164L24.856,49.165L24.855,49.164L24.855,49.164ZM24.853,49.161L24.854,49.163L24.853,49.162L24.853,49.161ZM11.879,49.149C11.883,49.153 11.887,49.157 11.891,49.161C11.887,49.157 11.883,49.153 11.879,49.149ZM24.851,49.159L24.852,49.16L24.852,49.16L24.851,49.159ZM11.144,49.159L11.144,49.159L11.144,49.159L11.144,49.159ZM24.187,49.087C24.157,49.108 24.13,49.132 24.106,49.159C24.129,49.133 24.156,49.109 24.185,49.088L24.187,49.087ZM24.849,49.157L24.85,49.158L24.85,49.158L24.849,49.157ZM11.145,49.157L11.145,49.157L11.146,49.157L11.145,49.157ZM24.847,49.155L24.848,49.156L24.848,49.156L24.847,49.155ZM11.147,49.155L11.147,49.155L11.147,49.155L11.147,49.155ZM24.845,49.153L24.846,49.154L24.846,49.154L24.845,49.153ZM11.149,49.153L11.149,49.153L11.149,49.152L11.149,49.153ZM24.843,49.15L24.844,49.152L24.844,49.152L24.843,49.15ZM11.151,49.151L11.151,49.151L11.152,49.15L11.151,49.151ZM24.841,49.148L24.842,49.15L24.842,49.15L24.841,49.148ZM11.153,49.149L11.153,49.149L11.154,49.148L11.153,49.149ZM24.838,49.146L24.84,49.148C24.839,49.146 24.837,49.145 24.836,49.143L24.838,49.146ZM11.155,49.147L11.155,49.147L11.156,49.146L11.155,49.147ZM11.874,49.143C11.875,49.144 11.876,49.145 11.876,49.146C11.875,49.144 11.873,49.143 11.872,49.141L11.874,49.143ZM11.157,49.144L11.157,49.145L11.158,49.144L11.157,49.144ZM24.834,49.141L24.836,49.143L24.834,49.142L24.834,49.141ZM11.159,49.142L11.159,49.143L11.16,49.142L11.159,49.142ZM11.161,49.14L11.161,49.141L11.162,49.14L11.161,49.14ZM24.832,49.139L24.833,49.141L24.832,49.14L24.832,49.139ZM11.163,49.138L11.163,49.139L11.164,49.138L11.163,49.138ZM24.83,49.137L24.831,49.139L24.83,49.138L24.83,49.137ZM11.165,49.136L11.165,49.137L11.166,49.136L11.165,49.136ZM24.828,49.135L24.829,49.136L24.828,49.136L24.828,49.135ZM11.167,49.135L11.167,49.135L11.168,49.134L11.167,49.135ZM24.826,49.133L24.827,49.134L24.826,49.134L24.826,49.133ZM11.169,49.133L11.169,49.133L11.17,49.132L11.169,49.133ZM24.824,49.131L24.825,49.132L24.824,49.132L24.824,49.131ZM11.171,49.131L11.171,49.131L11.172,49.13L11.171,49.131ZM24.821,49.129L24.823,49.13L24.822,49.13L24.821,49.129ZM24.819,49.127L24.821,49.128L24.82,49.128L24.819,49.127ZM11.175,49.127L11.175,49.127L11.175,49.127L11.175,49.127ZM24.817,49.125L24.818,49.126L24.818,49.126L24.817,49.125ZM11.178,49.125L11.177,49.125L11.178,49.125L11.178,49.125ZM24.815,49.123L24.816,49.124L24.816,49.124L24.815,49.123ZM11.18,49.123L11.179,49.124L11.18,49.123L11.18,49.123ZM24.812,49.121L24.814,49.123C24.813,49.122 24.813,49.121 24.812,49.121ZM11.182,49.121L11.181,49.122L11.182,49.121L11.182,49.121ZM24.81,49.119L24.812,49.12L24.81,49.119L24.81,49.119ZM11.184,49.119L11.183,49.12L11.184,49.119L11.184,49.119ZM24.808,49.117L24.809,49.118L24.808,49.117L24.808,49.117ZM11.186,49.117L11.185,49.118L11.186,49.117L11.186,49.117ZM24.805,49.115L24.807,49.116L24.806,49.115L24.805,49.115ZM11.188,49.115L11.188,49.116L11.189,49.115L11.188,49.115ZM24.803,49.113L24.804,49.114L24.804,49.113L24.803,49.113ZM11.19,49.114L11.19,49.114L11.191,49.113L11.19,49.114ZM24.801,49.111L24.802,49.112L24.801,49.112L24.801,49.111ZM11.192,49.112L11.192,49.112L11.193,49.111L11.192,49.112ZM11.195,49.11L11.194,49.11L11.195,49.109L11.195,49.11ZM24.799,49.109L24.8,49.11L24.799,49.11L24.799,49.109ZM11.197,49.108L11.197,49.108L11.198,49.108L11.197,49.108ZM24.796,49.107L24.798,49.108L24.797,49.108L24.796,49.107ZM11.199,49.106L11.199,49.107L11.2,49.106L11.199,49.106ZM24.794,49.105L24.795,49.107L24.795,49.106L24.794,49.105ZM24.792,49.104L24.793,49.105L24.793,49.104L24.792,49.104ZM11.201,49.105L11.201,49.105L11.202,49.104L11.201,49.105ZM24.789,49.102L24.791,49.103L24.791,49.103L24.789,49.102ZM11.203,49.103L11.203,49.103L11.204,49.102L11.203,49.103ZM24.787,49.1L24.789,49.101L24.788,49.101L24.787,49.1ZM11.206,49.101L11.206,49.101L11.207,49.1L11.206,49.101ZM24.784,49.098L24.786,49.099C24.786,49.099 24.785,49.098 24.784,49.098ZM11.21,49.098L11.209,49.098L11.21,49.098L11.21,49.098ZM24.782,49.096L24.784,49.097L24.782,49.096L24.782,49.096ZM11.212,49.096L11.211,49.097L11.213,49.096L11.212,49.096ZM24.779,49.094L24.781,49.095L24.78,49.094L24.779,49.094ZM11.215,49.094L11.214,49.095L11.215,49.094L11.215,49.094ZM24.777,49.092L24.778,49.093L24.777,49.093L24.777,49.092ZM11.217,49.092L11.216,49.093L11.217,49.092L11.217,49.092ZM24.775,49.091L24.776,49.092L24.775,49.091L24.775,49.091ZM11.219,49.091L11.218,49.091L11.22,49.091L11.219,49.091ZM24.772,49.089L24.774,49.09L24.773,49.089L24.772,49.089ZM11.222,49.089L11.221,49.09L11.222,49.089L11.222,49.089ZM24.77,49.087L24.771,49.088L24.771,49.088L24.77,49.087ZM11.224,49.087L11.223,49.088L11.224,49.087L11.224,49.087ZM24.768,49.085L24.769,49.086L24.768,49.086L24.768,49.085ZM11.226,49.086L11.226,49.086L11.227,49.085L11.226,49.086ZM24.765,49.084L24.767,49.085L24.766,49.084L24.765,49.084ZM11.229,49.084L11.228,49.085L11.229,49.084L11.229,49.084ZM24.763,49.082L24.764,49.083L24.764,49.083L24.763,49.082ZM11.231,49.083L11.23,49.083L11.232,49.082L11.231,49.083ZM11.8,49.081L11.802,49.083L11.8,49.081L11.799,49.081L11.8,49.081ZM24.76,49.08L24.762,49.081L24.761,49.081L24.76,49.08ZM11.233,49.081L11.233,49.081L11.234,49.08L11.233,49.081ZM24.757,49.078L24.759,49.08L24.759,49.08L24.757,49.078ZM11.236,49.079L11.235,49.08L11.236,49.079L11.236,49.079ZM24.754,49.076L24.757,49.078C24.756,49.078 24.755,49.077 24.754,49.076ZM24.265,49.041C24.242,49.052 24.22,49.064 24.2,49.078C24.22,49.064 24.242,49.052 24.265,49.041ZM11.238,49.078L11.238,49.078L11.239,49.077L11.238,49.078ZM11.24,49.076L11.24,49.076L11.241,49.075L11.24,49.076ZM24.752,49.075L24.754,49.076L24.752,49.075L24.752,49.075ZM11.243,49.075L11.243,49.075L11.244,49.074L11.243,49.075ZM24.75,49.073L24.751,49.074L24.75,49.073L24.75,49.073ZM24.747,49.072L24.749,49.073L24.747,49.072L24.747,49.072ZM24.745,49.07L24.746,49.071L24.745,49.07L24.745,49.07ZM11.25,49.07L11.249,49.071L11.25,49.07L11.25,49.07ZM24.742,49.069L24.744,49.069L24.743,49.069L24.742,49.069ZM11.252,49.069L11.251,49.069L11.252,49.068L11.252,49.069ZM24.74,49.067L24.741,49.068L24.74,49.068L24.74,49.067ZM11.255,49.067L11.254,49.068L11.255,49.067L11.255,49.067ZM24.737,49.066L24.739,49.066L24.738,49.066L24.737,49.066ZM11.257,49.066L11.256,49.066L11.257,49.065L11.257,49.066ZM24.735,49.064L24.736,49.065L24.736,49.065L24.735,49.064ZM11.26,49.064L11.259,49.065L11.26,49.064L11.26,49.064ZM24.732,49.062L24.734,49.063L24.733,49.063L24.732,49.062ZM11.262,49.063L11.261,49.063L11.263,49.062L11.262,49.063ZM24.729,49.061L24.731,49.062L24.731,49.062L24.729,49.061ZM11.264,49.061L11.264,49.062L11.265,49.061L11.264,49.061ZM24.726,49.059L24.728,49.06L24.728,49.06L24.726,49.059ZM11.267,49.06L11.266,49.06L11.268,49.059L11.267,49.06ZM24.723,49.058L24.726,49.059C24.725,49.059 24.724,49.058 24.723,49.058ZM11.269,49.058L11.269,49.059L11.27,49.058L11.269,49.058ZM11.272,49.057L11.271,49.057L11.273,49.057L11.272,49.057ZM24.721,49.056L24.723,49.057L24.721,49.056L24.721,49.056ZM11.274,49.056L11.274,49.056L11.275,49.055L11.274,49.056ZM24.718,49.055L24.72,49.056L24.719,49.055L24.718,49.055ZM11.277,49.054L11.277,49.054L11.278,49.054L11.277,49.054ZM24.716,49.053L24.717,49.054L24.716,49.054L24.716,49.053ZM11.279,49.053L11.279,49.053L11.281,49.052L11.279,49.053ZM24.713,49.052L24.715,49.053L24.714,49.052L24.713,49.052ZM11.282,49.052L11.282,49.052L11.283,49.051L11.282,49.052ZM24.71,49.051L24.712,49.051L24.711,49.051L24.71,49.051ZM24.708,49.049L24.709,49.05L24.709,49.05L24.708,49.049ZM24.705,49.048L24.707,49.049L24.706,49.048L24.705,49.048ZM11.29,49.048L11.288,49.049L11.29,49.048L11.29,49.048ZM24.703,49.047L24.704,49.047L24.704,49.047L24.703,49.047ZM11.292,49.046L11.291,49.047L11.292,49.046L11.292,49.046ZM24.7,49.045L24.701,49.046L24.701,49.046L24.7,49.045ZM11.295,49.045L11.294,49.046L11.295,49.045L11.295,49.045ZM24.697,49.044L24.699,49.045L24.699,49.045L24.697,49.044ZM11.297,49.044L11.296,49.044L11.298,49.044L11.297,49.044ZM24.693,49.042L24.696,49.043C24.694,49.043 24.693,49.042 24.691,49.041L24.693,49.042ZM11.3,49.043L11.299,49.043L11.3,49.042L11.3,49.043ZM11.302,49.041L11.302,49.042L11.303,49.041L11.302,49.041ZM24.688,49.04L24.69,49.04L24.688,49.04L24.688,49.04ZM11.305,49.04L11.304,49.04L11.306,49.04L11.305,49.04ZM11.308,49.039L11.307,49.039L11.308,49.039L11.308,49.039ZM24.685,49.038L24.687,49.039L24.686,49.039L24.685,49.038ZM11.31,49.038L11.31,49.038L11.311,49.037L11.31,49.038ZM24.683,49.037L24.684,49.038L24.683,49.037L24.683,49.037ZM11.716,49.035L11.72,49.037C11.719,49.036 11.718,49.036 11.717,49.035L11.716,49.035L11.716,49.035L11.715,49.035L11.712,49.033L11.716,49.035ZM11.313,49.037L11.312,49.037L11.314,49.036L11.313,49.037ZM24.68,49.036L24.682,49.037L24.681,49.036L24.68,49.036ZM11.316,49.035L11.315,49.036L11.317,49.035L11.316,49.035ZM24.677,49.035L24.679,49.036L24.678,49.035L24.677,49.035ZM11.318,49.034L11.318,49.034L11.319,49.034L11.318,49.034ZM24.675,49.034L24.676,49.034L24.675,49.034L24.675,49.034ZM24.332,49.016C24.315,49.021 24.298,49.027 24.282,49.033C24.297,49.027 24.313,49.021 24.329,49.016L24.332,49.016ZM11.321,49.033L11.321,49.033L11.322,49.033L11.321,49.033ZM24.672,49.033L24.673,49.033L24.673,49.033L24.672,49.033ZM11.323,49.032L11.323,49.032L11.325,49.031L11.323,49.032ZM24.669,49.031L24.671,49.032L24.67,49.032L24.669,49.031ZM11.326,49.031L11.326,49.031L11.328,49.03L11.326,49.031ZM24.666,49.03L24.668,49.031L24.668,49.031L24.666,49.03ZM11.331,49.029L11.329,49.03L11.332,49.029L11.331,49.029ZM24.663,49.029L24.665,49.03L24.665,49.03L24.663,49.029ZM24.66,49.028L24.663,49.029C24.662,49.028 24.661,49.028 24.66,49.028ZM11.334,49.028L11.333,49.028L11.334,49.028L11.334,49.028ZM24.657,49.027L24.659,49.028L24.657,49.027L24.657,49.027ZM11.337,49.027L11.335,49.027L11.337,49.027L11.337,49.027ZM24.654,49.026L24.656,49.026L24.654,49.026L24.654,49.026ZM11.34,49.026L11.338,49.026L11.34,49.026L11.34,49.026ZM24.651,49.024L24.653,49.025L24.652,49.025L24.651,49.024ZM11.342,49.025L11.341,49.025L11.343,49.025L11.342,49.025ZM24.649,49.023L24.65,49.024L24.649,49.024L24.649,49.023ZM11.345,49.024L11.344,49.024L11.346,49.024L11.345,49.024ZM24.646,49.022L24.647,49.023L24.646,49.023L24.646,49.022ZM11.348,49.023L11.347,49.023L11.348,49.022L11.348,49.023ZM24.643,49.021L24.645,49.022L24.644,49.022L24.643,49.021ZM11.35,49.022L11.35,49.022L11.351,49.022L11.35,49.022ZM24.64,49.021L24.642,49.021L24.641,49.021L24.64,49.021ZM11.353,49.021L11.352,49.021L11.354,49.021L11.353,49.021ZM24.637,49.02L24.639,49.02L24.638,49.02L24.637,49.02ZM11.356,49.02L11.355,49.02L11.357,49.02L11.356,49.02ZM24.635,49.019L24.636,49.019L24.636,49.019L24.635,49.019ZM11.359,49.019L11.358,49.019L11.36,49.019L11.359,49.019ZM24.632,49.018L24.633,49.018L24.633,49.018L24.632,49.018ZM11.361,49.018L11.361,49.018L11.363,49.018L11.361,49.018ZM24.628,49.017L24.631,49.017L24.63,49.017L24.628,49.017ZM11.364,49.017L11.364,49.017L11.366,49.017L11.364,49.017ZM24.625,49.016L24.628,49.016C24.627,49.016 24.626,49.016 24.625,49.016ZM11.367,49.016L11.367,49.016L11.369,49.016L11.367,49.016ZM11.652,49.012C11.656,49.013 11.659,49.015 11.663,49.016C11.659,49.015 11.656,49.013 11.652,49.012ZM11.37,49.015L11.37,49.016L11.372,49.015L11.37,49.015ZM24.622,49.015L24.624,49.015L24.622,49.015L24.622,49.015ZM24.619,49.014L24.621,49.014L24.619,49.014L24.619,49.014ZM11.378,49.013L11.376,49.014L11.378,49.013L11.378,49.013ZM24.616,49.013L24.618,49.014L24.617,49.013L24.616,49.013ZM24.613,49.012L24.615,49.013L24.614,49.012L24.613,49.012ZM11.381,49.012L11.379,49.013L11.381,49.012L11.381,49.012ZM24.342,49.012C24.344,49.012 24.345,49.012 24.346,49.011L24.343,49.012L24.342,49.012ZM24.61,49.011L24.612,49.012L24.611,49.012L24.61,49.011ZM11.384,49.011L11.382,49.012L11.384,49.011L11.384,49.011ZM11.643,49.01L11.648,49.011C11.646,49.011 11.645,49.011 11.644,49.01L11.643,49.01L11.643,49.01L11.642,49.01L11.639,49.009L11.643,49.01ZM24.608,49.011L24.609,49.011L24.608,49.011L24.608,49.011ZM11.387,49.011L11.385,49.011L11.387,49.011L11.387,49.011ZM24.605,49.01L24.606,49.01L24.606,49.01L24.605,49.01ZM11.389,49.01L11.388,49.01L11.39,49.01L11.389,49.01ZM24.602,49.009L24.603,49.01L24.603,49.009L24.602,49.009ZM11.392,49.009L11.391,49.009L11.393,49.009L11.392,49.009ZM11.627,49.006L11.639,49.009C11.638,49.009 11.636,49.008 11.635,49.008L11.635,49.008L11.634,49.008L11.633,49.007L11.632,49.007L11.631,49.007L11.631,49.007L11.63,49.007L11.628,49.006L11.627,49.006L11.627,49.006L11.627,49.006L11.624,49.005L11.627,49.006ZM24.599,49.008L24.6,49.009L24.6,49.009L24.599,49.008ZM11.395,49.009L11.394,49.009L11.396,49.008L11.395,49.009ZM24.596,49.008L24.598,49.008L24.597,49.008L24.596,49.008ZM11.398,49.008L11.397,49.008L11.399,49.008L11.398,49.008ZM24.592,49.007L24.595,49.007L24.594,49.007L24.592,49.007ZM11.401,49.007L11.4,49.007L11.402,49.007L11.401,49.007ZM24.589,49.006L24.592,49.007C24.591,49.006 24.59,49.006 24.589,49.006ZM11.404,49.006L11.403,49.007L11.405,49.006L11.404,49.006ZM11.406,49.006L11.406,49.006L11.408,49.006L11.406,49.006ZM24.586,49.005L24.588,49.006L24.586,49.005L24.586,49.005ZM11.409,49.005L11.409,49.005L11.411,49.005L11.409,49.005ZM24.583,49.005L24.585,49.005L24.583,49.005L24.583,49.005ZM11.609,49.002L11.62,49.005L11.617,49.004L11.617,49.004C11.616,49.004 11.614,49.003 11.613,49.003L11.613,49.003L11.613,49.003L11.609,49.002L11.609,49.002L11.608,49.002L11.605,49.002L11.609,49.002ZM11.412,49.005L11.412,49.005L11.414,49.004L11.412,49.005ZM24.58,49.004L24.582,49.004L24.58,49.004L24.58,49.004ZM11.415,49.004L11.415,49.004L11.417,49.004L11.415,49.004ZM24.577,49.004L24.579,49.004L24.578,49.004L24.577,49.004ZM24.574,49.003L24.576,49.003L24.575,49.003L24.574,49.003ZM24.571,49.002L24.573,49.003L24.572,49.003L24.571,49.002ZM11.424,49.002L11.422,49.003L11.424,49.002L11.424,49.002ZM24.568,49.002L24.57,49.002L24.569,49.002L24.568,49.002ZM11.427,49.002L11.425,49.002L11.427,49.002L11.427,49.002ZM24.433,48.996C24.418,48.997 24.403,48.999 24.389,49.002C24.404,48.999 24.42,48.997 24.436,48.996L24.433,48.996ZM24.565,49.001L24.567,49.002L24.566,49.001L24.565,49.001ZM11.429,49.001L11.428,49.001L11.43,49.001L11.429,49.001ZM24.562,49.001L24.564,49.001L24.563,49.001L24.562,49.001ZM11.432,49.001L11.431,49.001L11.433,49.001L11.432,49.001ZM24.559,49L24.561,49.001L24.56,49.001L24.559,49ZM11.435,49L11.434,49L11.436,49L11.435,49ZM11.574,48.997L11.574,48.997L11.571,48.997L11.596,49L11.593,49L11.593,49L11.59,48.999L11.588,48.999L11.588,48.999L11.587,48.999L11.586,48.999L11.583,48.998L11.583,48.998L11.583,48.998L11.58,48.998L11.579,48.998L11.579,48.998L11.578,48.998L11.577,48.997L11.574,48.997ZM24.555,49L24.558,49L24.558,49L24.555,49ZM11.438,49L11.437,49L11.439,49L11.438,49ZM24.552,48.999L24.555,49C24.554,48.999 24.553,48.999 24.552,48.999ZM11.441,48.999L11.44,48.999L11.442,48.999L11.441,48.999ZM11.444,48.999L11.443,48.999L11.445,48.999L11.444,48.999ZM24.549,48.999L24.551,48.999L24.549,48.999L24.549,48.999ZM11.447,48.999L11.446,48.999L11.448,48.998L11.447,48.999ZM24.546,48.998L24.548,48.999L24.546,48.998L24.546,48.998ZM11.45,48.998L11.449,48.998L11.451,48.998L11.45,48.998ZM24.543,48.998L24.544,48.998L24.543,48.998L24.543,48.998ZM11.453,48.998L11.452,48.998L11.454,48.998L11.453,48.998ZM24.54,48.998L24.541,48.998L24.54,48.998L24.54,48.998ZM11.456,48.997L11.456,48.997L11.457,48.997L11.456,48.997ZM24.537,48.997L24.538,48.997L24.537,48.997L24.537,48.997ZM11.459,48.997L11.459,48.997L11.46,48.997L11.459,48.997ZM24.534,48.997L24.535,48.997L24.534,48.997L24.534,48.997ZM11.462,48.997L11.462,48.997L11.464,48.997L11.462,48.997ZM24.53,48.996L24.532,48.997L24.531,48.997L24.53,48.996ZM24.527,48.996L24.529,48.996L24.529,48.996L24.527,48.996ZM24.524,48.996L24.526,48.996L24.526,48.996L24.524,48.996ZM11.471,48.996L11.468,48.996L11.471,48.996L11.471,48.996ZM24.521,48.996L24.523,48.996L24.523,48.996L24.521,48.996ZM11.474,48.996L11.472,48.996L11.474,48.996L11.474,48.996ZM24.517,48.995L24.52,48.996L24.52,48.996L24.517,48.995ZM11.477,48.995L11.475,48.995L11.477,48.995L11.477,48.995ZM24.514,48.995L24.517,48.995C24.516,48.995 24.515,48.995 24.514,48.995ZM11.48,48.995L11.478,48.995L11.48,48.995L11.48,48.995ZM24.511,48.995L24.513,48.995L24.511,48.995L24.511,48.995ZM24.465,48.994C24.458,48.994 24.451,48.994 24.444,48.995C24.45,48.995 24.456,48.994 24.462,48.994L24.465,48.994ZM11.483,48.995L11.482,48.995L11.483,48.995L11.483,48.995ZM11.486,48.995L11.485,48.995L11.486,48.995L11.486,48.995ZM24.508,48.995L24.51,48.995L24.508,48.995L24.508,48.995ZM11.489,48.995L11.488,48.995L11.49,48.995L11.489,48.995ZM24.505,48.994L24.506,48.995L24.505,48.995L24.505,48.994ZM11.492,48.994L11.491,48.994L11.493,48.994L11.492,48.994ZM24.501,48.994L24.503,48.994L24.502,48.994L24.501,48.994ZM11.495,48.994L11.494,48.994L11.496,48.994L11.495,48.994ZM24.498,48.994L24.5,48.994L24.499,48.994L24.498,48.994ZM11.498,48.994L11.497,48.994L11.499,48.994L11.498,48.994ZM24.495,48.994L24.497,48.994L24.496,48.994L24.495,48.994ZM11.501,48.994L11.5,48.994L11.502,48.994L11.501,48.994ZM24.492,48.994L24.494,48.994L24.493,48.994L24.492,48.994ZM11.529,48.994L11.529,48.994L11.526,48.994L11.529,48.994ZM11.504,48.994L11.503,48.994L11.505,48.994L11.504,48.994ZM24.489,48.994L24.491,48.994L24.49,48.994L24.489,48.994ZM11.507,48.994L11.507,48.994L11.509,48.994L11.507,48.994ZM24.486,48.994L24.488,48.994L24.487,48.994L24.486,48.994ZM11.51,48.994L11.51,48.994L11.512,48.994L11.51,48.994ZM24.482,48.994L24.484,48.994L24.484,48.994L24.482,48.994ZM24.481,48.994L24.481,48.994L24.478,48.994L24.481,48.994ZM18,37C19.656,37 21,38.344 21,40C21,41.656 19.656,43 18,43C16.344,43 15,41.656 15,40C15,38.344 16.344,37 18,37ZM23.991,49.371C23.991,49.37 23.991,49.369 23.992,49.368L23.992,49.365C23.992,49.368 23.991,49.371 23.99,49.374L23.991,49.371ZM24,49.339C24.005,49.324 24.011,49.31 24.017,49.297C24.01,49.311 24.005,49.326 24,49.342L24,49.339ZM24.472,48.994C24.473,48.994 24.474,48.994 24.475,48.994L24.478,48.994C24.475,48.994 24.472,48.994 24.468,48.994L24.472,48.994Z" style="fill:rgb(51,51,51);"/>
                </g>
            </g>
        </g>
    </g>
</svg>
