<svg xmlns="http://www.w3.org/2000/svg" viewBox="0 0 14 14"><defs><style>.cls-1{fill:none;}.cls-2{fill:#323333;fill-rule:evenodd;}</style></defs><title>warning-circle</title><g id="图层_2" data-name="图层 2"><g id="图层_1-2" data-name="图层 1"><g id="warning-circle"><path class="cls-2" d="M8,3.55a.56.56,0,0,0-.13-.39A.52.52,0,0,0,7.45,3h-.9a.52.52,0,0,0-.37.16.56.56,0,0,0-.13.39c.12,1.11.36,3.58.43,4.27a.2.2,0,0,0,.2.18h.64a.2.2,0,0,0,.2-.18C7.59,7.13,7.83,4.66,8,3.55ZM7,9a1,1,0,1,1-1,1A1,1,0,0,1,7,9ZM7,1A6,6,0,1,1,1,7,6,6,0,0,1,7,1ZM7,0A7,7,0,1,1,0,7,7,7,0,0,1,7,0Z"/></g></g></g></svg>