<svg xmlns="http://www.w3.org/2000/svg" viewBox="0 0 14 14"><defs><style>.cls-1{fill:none;}.cls-2{fill:#3c4c95;}.cls-2,.cls-3{fill-rule:evenodd;}.cls-3{fill:#f1f3fa;}</style></defs><title>latitude</title><g id="图层_2" data-name="图层 2"><g id="图层_1-2" data-name="图层 1"><g id="latitude"><path class="cls-2" d="M13.72,4.84a1.05,1.05,0,0,0-1.63-.18L7,1.18a1.52,1.52,0,0,0-.28-.7A1.05,1.05,0,0,0,5.08.31a1.32,1.32,0,0,0-.39.83L1.92,3A1,1,0,0,0,.83,2.7,1.32,1.32,0,0,0,.05,4.32a1.16,1.16,0,0,0,1,.91L1.69,8.5a1.37,1.37,0,0,0-.54,1.09,1.21,1.21,0,0,0,1.16,1.3,1.15,1.15,0,0,0,.74-.3l2.77,1.82c0,.09,0,.18,0,.27A1.22,1.22,0,0,0,7,14a1.22,1.22,0,0,0,1.17-1.3A1.48,1.48,0,0,0,8,12.07l4.32-5.18a1.13,1.13,0,0,0,1.21-.18,1.38,1.38,0,0,0,.19-1.87"/><path class="cls-3" d="M6.79,2.05,11.7,5.41v.12l-4.44.31a1.62,1.62,0,0,0-1-1V2.57a1.9,1.9,0,0,0,.35-.21.81.81,0,0,0,.19-.31"/><path class="cls-3" d="M2.31,3.71,4.88,2.05c0,.05,0,.09.08.13a1.48,1.48,0,0,0,.51.4v2.3a1.37,1.37,0,0,0-.82.61L2.31,4.36a3.53,3.53,0,0,0,0-.65"/><path class="cls-3" d="M2.47,8.32,1.81,5.06,4.34,6.28c0,.08,0,.17,0,.26a1.88,1.88,0,0,0,.12.69L3,8.5a1,1,0,0,0-.51-.18"/><path class="cls-3" d="M6.25,11.74,3.48,9.85a1.83,1.83,0,0,0,0-.66l1.44-1.3a1.36,1.36,0,0,0,.9.35l.64,3.35Z"/><path class="cls-3" d="M11.7,6.41,7.42,11.59a1,1,0,0,0-.31-.08L6.52,8.1a1.73,1.73,0,0,0,.86-1.43Z"/></g></g></g></svg>