<svg xmlns="http://www.w3.org/2000/svg" viewBox="0 0 14.02 14"><defs><style>.cls-1{fill:none;}.cls-2{fill:#f1f3fa;}.cls-3{fill:#3c4c95;}</style></defs><title>page-variable</title><g id="图层_2" data-name="图层 2"><g id="图层_1-2" data-name="图层 1"><g id="page-variable"><path class="cls-3" d="M13,11.5a.5.5,0,0,1-.5.5H1.5a.5.5,0,0,1-.5-.5V4H13ZM13,1H1A1,1,0,0,0,0,2V12a1,1,0,0,0,1,1H13a1,1,0,0,0,1-1V2a1,1,0,0,0-1-1"/><path class="cls-2" d="M2.5,2.5A.5.5,0,1,1,2,2a.5.5,0,0,1,.5.5"/><path class="cls-2" d="M4.25,2.5a.5.5,0,1,1-.5-.5.5.5,0,0,1,.5.5"/><path class="cls-2" d="M6,2.5a.5.5,0,0,1-.5.5.5.5,0,0,1,0-1,.5.5,0,0,1,.5.5"/></g></g></g></svg>