<svg xmlns="http://www.w3.org/2000/svg" viewBox="0 0 14 14"><defs><style>.cls-1{fill:none;}.cls-2{fill:#f1f3fa;}.cls-3,.cls-4{fill:#3c4c95;}.cls-4{fill-rule:evenodd;}</style></defs><title>translation-variale</title><g id="图层_2" data-name="图层 2"><g id="图层_1-2" data-name="图层 1"><g id="translation-variale"><rect class="cls-2" x="1" y="1" width="6" height="6"/><path class="cls-3" d="M6.5,1a.51.51,0,0,1,.5.5v5a.5.5,0,0,1-.5.5h-5A.5.5,0,0,1,1,6.5v-5A.51.51,0,0,1,1.5,1h5m0-1h-5A1.5,1.5,0,0,0,0,1.5v5A1.5,1.5,0,0,0,1.5,8h5A1.5,1.5,0,0,0,8,6.5v-5A1.5,1.5,0,0,0,6.5,0"/><rect class="cls-2" x="7" y="6" width="6" height="7"/><path class="cls-3" d="M12.5,6a.5.5,0,0,1,.5.5v6a.5.5,0,0,1-.5.5h-5a.51.51,0,0,1-.5-.5v-6A.5.5,0,0,1,7.5,6h5m0-1h-5A1.5,1.5,0,0,0,6,6.5v6A1.5,1.5,0,0,0,7.5,14h5A1.5,1.5,0,0,0,14,12.5v-6A1.5,1.5,0,0,0,12.5,5"/><path class="cls-4" d="M2.4,2.5A.4.4,0,1,1,2,2.1a.4.4,0,0,1,.4.4"/><path class="cls-4" d="M2.4,4A.4.4,0,1,1,2,3.6a.4.4,0,0,1,.4.4"/><path class="cls-3" d="M4,10.9H3A1.37,1.37,0,0,1,1.6,9.53v-4a.4.4,0,1,1,.8,0v4a.56.56,0,0,0,.56.56H4a.4.4,0,0,1,0,.8"/><path class="cls-3" d="M3.5,11.8a.3.3,0,0,1-.21-.51l.79-.79-.79-.79a.3.3,0,0,1,.42-.42l1,1a.29.29,0,0,1,0,.42l-1,1a.29.29,0,0,1-.21.09"/><path class="cls-3" d="M12,7.9a.4.4,0,0,1-.4-.4v-4A.57.57,0,0,0,11,2.91H10a.4.4,0,1,1,0-.8h1.05A1.37,1.37,0,0,1,12.4,3.47v4a.4.4,0,0,1-.4.4"/><path class="cls-3" d="M10.5,3.8a.29.29,0,0,1-.21-.09l-1-1a.29.29,0,0,1,0-.42l1-1a.3.3,0,0,1,.42.42l-.79.79.79.79a.3.3,0,0,1-.21.51"/><path class="cls-4" d="M12.4,9a.4.4,0,1,1-.4-.4.4.4,0,0,1,.4.4"/></g></g></g></svg>