<svg xmlns="http://www.w3.org/2000/svg" viewBox="0 0 14 14"><defs><style>.cls-1{fill:none;}.cls-2{fill:#f1f3fa;}.cls-3{fill:#3c4c95;}</style></defs><title>user-source</title><g id="图层_2" data-name="图层 2"><g id="图层_1-2" data-name="图层 1"><g id="user-source"><path class="cls-3" d="M7,1A6,6,0,1,1,1,7,6,6,0,0,1,7,1M7,0a7,7,0,1,0,7,7A7,7,0,0,0,7,0"/><path class="cls-3" d="M10.08,4.58l-1.95,3a.13.13,0,0,1-.17,0l0,0L6.44,5.92a.13.13,0,0,1,0-.18l0,0L9.77,4.21a.25.25,0,0,1,.31.37"/><path class="cls-3" d="M4.15,9.74a.28.28,0,0,1-.25,0,.26.26,0,0,1-.07-.35l2-3,0,0a.14.14,0,0,1,.18,0L7.47,8l0,0a.13.13,0,0,1-.06.17Z"/></g></g></g></svg>