<svg xmlns="http://www.w3.org/2000/svg" viewBox="0 0 14 14"><defs><style>.cls-1{fill:none;}.cls-2{fill:#323333;fill-rule:evenodd;}</style></defs><title>card</title><g id="图层_2" data-name="图层 2"><g id="图层_1-2" data-name="图层 1"><g id="card"><path class="cls-2" d="M5,1.2A.2.2,0,0,0,4.8,1H1.2a.2.2,0,0,0-.2.2V4.8a.2.2,0,0,0,.2.2H4.8A.2.2,0,0,0,5,4.8Zm8,.05A.25.25,0,0,0,12.75,1H9.25A.25.25,0,0,0,9,1.25v3.5A.25.25,0,0,0,9.25,5h3.5A.25.25,0,0,0,13,4.75ZM5.5,0a.47.47,0,0,1,.35.15A.47.47,0,0,1,6,.5v5a.51.51,0,0,1-.5.5H.5a.47.47,0,0,1-.35-.15A.47.47,0,0,1,0,5.5V.5A.47.47,0,0,1,.15.15.47.47,0,0,1,.5,0Zm8,0a.47.47,0,0,1,.35.15A.47.47,0,0,1,14,.5v5a.51.51,0,0,1-.5.5h-5A.51.51,0,0,1,8,5.5V.5A.47.47,0,0,1,8.15.15.47.47,0,0,1,8.5,0ZM13,9.2a.2.2,0,0,0-.2-.2H9.2a.2.2,0,0,0-.2.2v3.6a.2.2,0,0,0,.2.2h3.6a.2.2,0,0,0,.2-.2Zm-8,0A.2.2,0,0,0,4.8,9H1.2a.2.2,0,0,0-.2.2v3.6a.2.2,0,0,0,.2.2H4.8a.2.2,0,0,0,.2-.2ZM13.5,8a.51.51,0,0,1,.5.5v5a.51.51,0,0,1-.5.5h-5a.51.51,0,0,1-.5-.5v-5A.51.51,0,0,1,8.5,8Zm-8,0a.51.51,0,0,1,.5.5v5a.51.51,0,0,1-.5.5H.5a.47.47,0,0,1-.35-.15A.47.47,0,0,1,0,13.5v-5a.47.47,0,0,1,.15-.35A.47.47,0,0,1,.5,8Z"/></g></g></g></svg>