<svg xmlns="http://www.w3.org/2000/svg" viewBox="0 0 14 14"><defs><style>.cls-1{fill:none;}.cls-2{fill:#323333;fill-rule:evenodd;}</style></defs><title>chronograph</title><g id="图层_2" data-name="图层 2"><g id="图层_1-2" data-name="图层 1"><g id="chronograph"><path class="cls-2" d="M7,3A5,5,0,1,1,2,8,5,5,0,0,1,7,3ZM6.31,2a.2.2,0,0,0,.18-.2V1.2a.2.2,0,0,0-.2-.2h-.8A.5.5,0,0,1,5,.5a.5.5,0,0,1,.5-.5h3a.5.5,0,0,1,0,1h-.8a.2.2,0,0,0-.2.2v.64a.2.2,0,0,0,.18.2,6,6,0,0,1,3.11,1.31.2.2,0,0,0,.26,0l.19-.19a.1.1,0,0,0,0-.14h0a.5.5,0,0,1,.71-.71l.71.71a.5.5,0,0,1,0,.7.5.5,0,0,1-.71,0h0a.12.12,0,0,0-.14,0l-.19.19a.21.21,0,0,0,0,.27A5.94,5.94,0,0,1,13,8,6,6,0,1,1,2.37,4.17a.2.2,0,0,0,0-.27L2.2,3.75a.1.1,0,0,0-.14,0h0a.51.51,0,0,1-.71,0,.5.5,0,0,1,0-.71l.71-.71a.5.5,0,0,1,.7,0,.5.5,0,0,1,0,.71h0a.1.1,0,0,0,0,.14l.16.16a.2.2,0,0,0,.27,0A6,6,0,0,1,6.31,2Z"/></g></g></g></svg>