<svg xmlns="http://www.w3.org/2000/svg" viewBox="0 0 14 14"><defs><style>.cls-1{fill:none;}.cls-2{fill:#323333;fill-rule:evenodd;}</style></defs><title>close-circle</title><g id="图层_2" data-name="图层 2"><g id="图层_1-2" data-name="图层 1"><g id="close-circle"><path class="cls-2" d="M4.17,4.17a.5.5,0,0,1,.71,0l2,2a.19.19,0,0,0,.28,0l2-2a.5.5,0,0,1,.71,0h0a.5.5,0,0,1,0,.71l-2,2a.19.19,0,0,0,0,.28l2,2a.5.5,0,0,1,0,.71h0a.5.5,0,0,1-.71,0l-2-2a.19.19,0,0,0-.28,0l-2,2a.5.5,0,0,1-.71,0h0a.5.5,0,0,1,0-.71l2-2a.19.19,0,0,0,0-.28l-2-2a.5.5,0,0,1,0-.71ZM7,0A7,7,0,1,1,0,7,7,7,0,0,1,7,0Z"/></g></g></g></svg>