<svg xmlns="http://www.w3.org/2000/svg" viewBox="0 0 14 14"><defs><style>.cls-1{fill:none;}.cls-2{fill:#323333;}</style></defs><title>collect-o</title><g id="图层_2" data-name="图层 2"><g id="图层_1-2" data-name="图层 1"><g id="collect-o"><path class="cls-2" d="M3.1,13.69l-.21,0a.64.64,0,0,1-.4-.34.67.67,0,0,1-.07-.44l.65-3.75a.47.47,0,0,0-.13-.39L.21,6.08A.69.69,0,0,1,0,5.59.7.7,0,0,1,.59,4.9l3.77-.55a.42.42,0,0,0,.33-.24L6.38.69a.68.68,0,0,1,.4-.34.67.67,0,0,1,.52,0,.74.74,0,0,1,.32.31L9.3,4.11a.45.45,0,0,0,.34.24l3.77.55a.69.69,0,0,1,.58.78.72.72,0,0,1-.19.39L11.06,8.74a.43.43,0,0,0-.12.39l.64,3.76a.68.68,0,0,1-1,.72L7.21,11.84a.45.45,0,0,0-.42,0h0L3.42,13.61A.61.61,0,0,1,3.1,13.69Zm.31-.64h0ZM7,10.79a1.44,1.44,0,0,1,.67.16l2.82,1.48L10,9.3A1.44,1.44,0,0,1,10.36,8L12.64,5.8,9.49,5.34a1.43,1.43,0,0,1-1.08-.79L7,1.7,5.59,4.55a1.43,1.43,0,0,1-1.08.79L1.36,5.8,3.64,8A1.44,1.44,0,0,1,4.05,9.3l-.54,3.13L6.33,11A1.44,1.44,0,0,1,7,10.79Zm6.27-4.9Zm-6-4.76h0Z"/></g></g></g></svg>