<svg xmlns="http://www.w3.org/2000/svg" viewBox="0 0 14.01 14"><defs><style>.cls-1{fill:none;}.cls-2{fill:#323333;fill-rule:evenodd;}</style></defs><title>download</title><g id="图层_2" data-name="图层 2"><g id="图层_1-2" data-name="图层 1"><g id="download"><path class="cls-2" d="M6.16,8.28a.2.2,0,0,0,.34-.14V.5a.5.5,0,0,1,1,0V8.14a.2.2,0,0,0,.34.14l.93-.93a.5.5,0,0,1,.7,0h0a.49.49,0,0,1,.15.36.47.47,0,0,1-.15.35L7.35,10.18a.48.48,0,0,1-.7,0L4.53,8.06a.47.47,0,0,1-.15-.35.49.49,0,0,1,.15-.36.51.51,0,0,1,.7,0ZM14,13a1,1,0,0,1-1,1H1a1,1,0,0,1-1-1V10.5A.5.5,0,0,1,.5,10h0a.5.5,0,0,1,.5.5v2a.55.55,0,0,0,.54.54H12.46a.55.55,0,0,0,.54-.54v-2a.5.5,0,0,1,1,0Z"/></g></g></g></svg>