<?xml version="1.0" standalone="no"?><!DOCTYPE svg PUBLIC "-//W3C//DTD SVG 1.1//EN" "http://www.w3.org/Graphics/SVG/1.1/DTD/svg11.dtd"><svg t="1582613721034" class="icon" viewBox="0 0 1024 1024" version="1.1" xmlns="http://www.w3.org/2000/svg" p-id="11139" xmlns:xlink="http://www.w3.org/1999/xlink" width="64" height="64"><defs><style type="text/css"></style></defs><path d="M848.3 198.7c32.1 0 57.8 8.2 77 24.5 19.2 16.3 28.8 41.1 28.8 74.2v438.2c0 14.2-2.6 27.6-7.9 40.3-5.3 12.6-12.5 23.7-21.7 33.2-9.2 9.5-20 17-32.4 22.5-12.4 5.5-25.4 8.3-39.1 8.3H164.5c-13.7 0-26.6-2.6-38.7-7.9-12.1-5.3-22.6-12.2-31.6-20.9-8.9-8.7-16.1-18.8-21.3-30.4-5.2-11.7-7.9-24.1-7.9-37.2V295.8c0-28.4 8.7-51.7 26.1-69.9 17.4-18.2 41.8-27.2 73.4-27.2h683.8z m-561.4 146c-10 0-19.5 1.8-28.4 5.5-8.9 3.7-16.8 8.8-23.7 15.4-6.8 6.6-12.2 14.5-16.2 23.7s-5.9 19.1-5.9 29.6 2 20.3 5.9 29.2c3.9 8.9 9.3 16.8 16.2 23.7 6.8 6.8 14.7 12.2 23.7 16.2 8.9 3.9 18.4 5.9 28.4 5.9 11.1 0 21.2-2 30.4-5.9 9.2-4 17.1-9.3 23.7-16.2 6.6-6.8 11.8-14.7 15.8-23.7 3.9-8.9 5.9-18.7 5.9-29.2 0-21.6-7.1-39.3-21.3-53.3-14.2-13.9-32.4-20.9-54.5-20.9z m124 273.2c0-10-2-19.6-5.9-28.8-3.9-9.2-9.2-17.1-15.8-23.7-6.6-6.6-14.5-11.8-23.7-15.8-9.2-3.9-18.8-5.9-28.8-5.9H238c-20.5 0-37.9 7.2-52.1 21.7-14.2 14.5-21.3 32-21.3 52.5v74.3h246.3v-74.3z m366.3 78.2c10.5 0 18.3-2.6 23.3-7.9 5-5.3 7.5-11.6 7.5-18.9 0-7.4-2.9-13.8-8.7-19.3-5.8-5.5-13.9-8.3-24.5-8.3H539.5c-10.5 0-18.4 2.8-23.7 8.3-5.3 5.5-7.9 12-7.9 19.3 0 7.4 2.6 13.7 7.9 18.9 5.3 5.3 12.9 7.9 22.9 7.9h238.5z m0.8-101.9c10.5 0 18.2-2.6 22.9-7.9 4.7-5.3 7.1-11.6 7.1-18.9 0-7.9-2.2-14.5-6.7-19.7-4.5-5.3-12-7.9-22.5-7.9H537.2c-10.5 0-18.2 2.6-22.9 7.9-4.7 5.3-7.1 11.8-7.1 19.7 0 7.4 2.2 13.7 6.7 18.9 4.5 5.3 12 7.9 22.5 7.9H778z m0.8-100.2c7.9 0 14.7-2.6 20.5-7.9 5.8-5.3 8.7-11.6 8.7-18.9 0-7.4-2.9-13.3-8.7-17.8-5.8-4.5-12.6-6.7-20.5-6.7H618.5c-7.9 0-14.6 2.2-20.1 6.7-5.5 4.5-8.3 10.4-8.3 17.8s2.8 13.7 8.3 18.9c5.5 5.3 12.2 7.9 20.1 7.9h160.3z" p-id="11140"></path></svg>