<svg xmlns="http://www.w3.org/2000/svg" viewBox="0 0 14 14"><defs><style>.cls-1{fill:none;}.cls-2{fill:#323333;fill-rule:evenodd;}</style></defs><title>left-double</title><g id="图层_2" data-name="图层 2"><g id="图层_1-2" data-name="图层 1"><g id="left-double"><path class="cls-2" d="M6.66,6.29,7,6.65a.48.48,0,0,1,0,.7l-.35.36L2.06,12.3a.5.5,0,0,1-.71,0h0a.5.5,0,0,1,0-.7L5.81,7.14a.19.19,0,0,0,0-.28L1.34,2.39a.48.48,0,0,1,0-.68h0a.51.51,0,0,1,.72,0Zm5.63,0,.36.36a.51.51,0,0,1,0,.7l-.36.36L7.7,12.3a.5.5,0,0,1-.71,0H7a.48.48,0,0,1,0-.7l4.45-4.46a.19.19,0,0,0,0-.28L7,2.39a.48.48,0,0,1,0-.68H7a.52.52,0,0,1,.73,0Z"/></g></g></g></svg>