<svg xmlns="http://www.w3.org/2000/svg" viewBox="0 0 14 14"><defs><style>.cls-1{fill:none;}.cls-2{fill:#323333;fill-rule:evenodd;}</style></defs><title>link</title><g id="图层_2" data-name="图层 2"><g id="图层_1-2" data-name="图层 1"><g id="link"><path class="cls-2" d="M4.75,5.13a3,3,0,0,1,.47-.6c.89-.9,1.93-1.94,2.83-2.83a3,3,0,0,1,4.24,0h0a3,3,0,0,1,0,4.24L11.21,7a.4.4,0,0,1-.43.11.44.44,0,0,1-.29-.34h0a.43.43,0,0,1,.12-.37l1-1a2.14,2.14,0,0,0,0-3h0a2.16,2.16,0,0,0-1.52-.63,2.13,2.13,0,0,0-1.51.63L5.86,5.09a2.15,2.15,0,0,0-.63,1.52A2.16,2.16,0,0,0,5.73,8a.2.2,0,0,1,0,.27l-.36.36a.22.22,0,0,1-.15.06.18.18,0,0,1-.15-.07,3,3,0,0,1-.42-3.25ZM8.69,7.82a1.54,1.54,0,0,0,.05-.43A2.21,2.21,0,0,0,8.25,6a.19.19,0,0,1,0-.27l.36-.36a.2.2,0,0,1,.15-.06.17.17,0,0,1,.14.07,3,3,0,0,1,.43,3.24,2.82,2.82,0,0,1-.58.83L5.93,12.3a3,3,0,0,1-4.24,0h0a3,3,0,0,1,0-4.24L2.76,7a.43.43,0,0,1,.72.24h0a.4.4,0,0,1-.12.37l-1,1a2.14,2.14,0,0,0,0,3h0a2.13,2.13,0,0,0,1.51.63,2.18,2.18,0,0,0,1.52-.63L8.11,8.9A2.06,2.06,0,0,0,8.66,8Z"/></g></g></g></svg>