<svg xmlns="http://www.w3.org/2000/svg" viewBox="0 0 14 14"><defs><style>.cls-1{fill:#fbfbfb;}.cls-2{fill:#323333;fill-rule:evenodd;}</style></defs><title>qrcode</title><g id="图层_2" data-name="图层 2"><g id="图层_1-2" data-name="图层 1"><g id="qrcode"><path class="cls-2" d="M3.8,2a.2.2,0,0,1,.2.2V3.8a.2.2,0,0,1-.2.2H2.2A.2.2,0,0,1,2,3.8V2.2A.2.2,0,0,1,2.2,2ZM5,1.2A.2.2,0,0,0,4.8,1H1.2a.2.2,0,0,0-.2.2V4.8a.2.2,0,0,0,.2.2H4.8A.2.2,0,0,0,5,4.8ZM6,5.5a.51.51,0,0,1-.5.5H.5a.47.47,0,0,1-.35-.15A.47.47,0,0,1,0,5.5V.5A.47.47,0,0,1,.15.15.47.47,0,0,1,.5,0h5a.47.47,0,0,1,.35.15A.47.47,0,0,1,6,.5Z"/><path class="cls-2" d="M3.8,10a.2.2,0,0,1,.2.2v1.6a.2.2,0,0,1-.2.2H2.2a.2.2,0,0,1-.2-.2V10.2a.2.2,0,0,1,.2-.2ZM5,9.2A.2.2,0,0,0,4.8,9H1.2a.2.2,0,0,0-.2.2v3.6a.2.2,0,0,0,.2.2H4.8a.2.2,0,0,0,.2-.2Zm1,4.3a.51.51,0,0,1-.5.5H.5a.47.47,0,0,1-.35-.15A.47.47,0,0,1,0,13.5v-5a.47.47,0,0,1,.15-.35A.47.47,0,0,1,.5,8h5a.51.51,0,0,1,.5.5Z"/><path class="cls-2" d="M11.8,2a.2.2,0,0,1,.2.2V3.8a.2.2,0,0,1-.2.2H10.2a.2.2,0,0,1-.2-.2V2.2a.2.2,0,0,1,.2-.2ZM13,1.2a.2.2,0,0,0-.2-.2H9.2a.2.2,0,0,0-.2.2V4.8a.2.2,0,0,0,.2.2h3.6a.2.2,0,0,0,.2-.2Zm1,4.3a.51.51,0,0,1-.5.5h-5A.51.51,0,0,1,8,5.5V.5A.47.47,0,0,1,8.15.15.47.47,0,0,1,8.5,0h5a.47.47,0,0,1,.35.15A.47.47,0,0,1,14,.5Z"/><path class="cls-2" d="M13,8.2a.2.2,0,0,1,.2-.2h.3a.5.5,0,0,1,.5.5v.3a.2.2,0,0,1-.2.2h-.6a.2.2,0,0,1-.2-.2ZM11.8,8a.2.2,0,0,1,.2.2v3.6a.2.2,0,0,1-.2.2h-.6a.2.2,0,0,1-.2-.2V9.2a.2.2,0,0,0-.2-.2h-.6a.2.2,0,0,0-.2.2v.6a.2.2,0,0,1-.2.2H8.2A.2.2,0,0,1,8,9.8V8.5A.51.51,0,0,1,8.5,8ZM8,11.2a.2.2,0,0,1,.2-.2h.6a.2.2,0,0,1,.2.2v.6a.2.2,0,0,1-.2.2H8.2a.2.2,0,0,1-.2-.2Zm5-1a.2.2,0,0,1,.2-.2h.6a.2.2,0,0,1,.2.2v3.3a.51.51,0,0,1-.5.5h-.3a.2.2,0,0,1-.2-.2Zm-5,3a.2.2,0,0,1,.2-.2H9.8a.2.2,0,0,1,.2.2v.6a.2.2,0,0,1-.2.2H8.5a.51.51,0,0,1-.5-.5Zm3,0a.2.2,0,0,1,.2-.2h.6a.2.2,0,0,1,.2.2v.6a.2.2,0,0,1-.2.2h-.6a.2.2,0,0,1-.2-.2Z"/></g></g></g></svg>