<?xml version="1.0" encoding="UTF-8" standalone="no"?>
<!DOCTYPE svg PUBLIC "-//W3C//DTD SVG 1.1//EN" "http://www.w3.org/Graphics/SVG/1.1/DTD/svg11.dtd">
<svg width="100%" height="100%" viewBox="0 0 78 78" version="1.1" xmlns="http://www.w3.org/2000/svg" xmlns:xlink="http://www.w3.org/1999/xlink" xml:space="preserve" xmlns:serif="http://www.serif.com/" style="fill-rule:evenodd;clip-rule:evenodd;stroke-linejoin:round;stroke-miterlimit:1.41421;">
    <g transform="matrix(5.55556,0,0,5.55556,-861.111,-288.889)">
        <g transform="matrix(1,0,0,1,7.10543e-15,16)">
            <g>
                <g transform="matrix(0.608696,0,0,0.608696,142.826,26.8696)">
                    <rect x="20" y="15" width="23" height="23" style="fill:none;"/>
                </g>
                <g id="刷新" transform="matrix(1,0,0,1,-0.0129084,24.2463)">
                    <path d="M160.797,13.207C160.89,13.188 160.957,13.106 160.957,13.011C160.958,12.88 160.958,12.699 160.958,12.572C160.958,12.542 160.974,12.514 161.001,12.499C161.027,12.485 161.059,12.486 161.085,12.502C161.448,12.728 162.488,13.379 162.84,13.599C162.865,13.615 162.881,13.642 162.881,13.672C162.881,13.702 162.865,13.73 162.84,13.746C162.488,13.966 161.448,14.616 161.085,14.843C161.059,14.859 161.027,14.86 161.001,14.845C160.974,14.831 160.958,14.803 160.958,14.773C160.958,14.679 160.958,14.556 160.958,14.448C160.958,14.386 160.93,14.328 160.881,14.29C160.832,14.252 160.769,14.238 160.709,14.254C158.537,14.836 157,16.806 157,19.085C157,21.844 159.24,24.085 162,24.085C164.76,24.085 167,21.844 167,19.085C167,18.215 166.773,17.364 166.344,16.609C166.212,16.385 166.274,16.096 166.488,15.947C166.486,15.944 166.486,15.944 166.486,15.944C166.601,15.863 166.744,15.834 166.882,15.863C167.019,15.893 167.138,15.978 167.21,16.099C167.725,17.007 168,18.035 168,19.085C168,22.396 165.311,25.085 162,25.085C158.689,25.085 156,22.396 156,19.085C156,16.228 158.012,13.777 160.797,13.207Z" style="fill:rgb(51,51,51);"/>
                </g>
            </g>
        </g>
    </g>
</svg>
