<svg xmlns="http://www.w3.org/2000/svg" viewBox="0 0 14 14"><defs><style>.cls-1{fill:none;}.cls-2{fill:#323333;fill-rule:evenodd;}</style></defs><title>sequence-z-a</title><g id="图层_2" data-name="图层 2"><g id="图层_1-2" data-name="图层 1"><g id="sequence-z-a"><path class="cls-2" d="M14,.5a.5.5,0,0,1-.5.5H.5A.5.5,0,0,1,0,.5H0A.5.5,0,0,1,.5,0h13a.5.5,0,0,1,.5.5ZM7,7a.5.5,0,0,1-.5.5H.5a.5.5,0,0,1,0-1h6A.5.5,0,0,1,7,7Zm3.33-1.28a.2.2,0,0,1,.34.14V13.5a.5.5,0,0,0,.5.5.5.5,0,0,0,.5-.5V5.86a.19.19,0,0,1,.13-.18.18.18,0,0,1,.21,0l.93.93a.5.5,0,0,0,.35.14.48.48,0,0,0,.5-.5.5.5,0,0,0-.14-.35L11.53,3.82a.51.51,0,0,0-.36-.15.47.47,0,0,0-.35.15L8.7,5.94a.47.47,0,0,0-.15.35.49.49,0,0,0,.15.36h0a.5.5,0,0,0,.7,0ZM5,13.5a.51.51,0,0,1-.5.5H.5a.47.47,0,0,1-.35-.15.48.48,0,0,1,0-.7A.47.47,0,0,1,.5,13h4a.51.51,0,0,1,.5.5Z"/></g></g></g></svg>