<svg xmlns="http://www.w3.org/2000/svg" viewBox="0 0 14.03 14"><defs><style>.cls-1{fill:none;}.cls-2{fill:#323333;fill-rule:evenodd;}</style></defs><title>share</title><g id="图层_2" data-name="图层 2"><g id="图层_1-2" data-name="图层 1"><g id="share"><path class="cls-2" d="M11.51,1A1.5,1.5,0,1,1,10,2.5,1.5,1.5,0,0,1,11.51,1Zm-9,4.5A1.5,1.5,0,1,1,1,7,1.5,1.5,0,0,1,2.5,5.5Zm9,4.5A1.5,1.5,0,1,1,10,11.5,1.5,1.5,0,0,1,11.51,10ZM8.79,3.4A.52.52,0,0,0,9,2.87,2.22,2.22,0,0,1,9,2.5a2.5,2.5,0,1,1,.84,1.87.48.48,0,0,0-.6-.07c-.89.5-3.27,1.87-4,2.31A.47.47,0,0,0,5,7H5a.47.47,0,0,0,.22.39l4,2.32a.5.5,0,0,0,.6-.07A2.45,2.45,0,0,1,11.51,9,2.5,2.5,0,1,1,9,11.5a2.22,2.22,0,0,1,0-.37.51.51,0,0,0-.25-.52L5.05,8.44a.48.48,0,0,0-.62.13A2.45,2.45,0,0,1,2.5,9.5,2.5,2.5,0,1,1,4.44,5.43a.48.48,0,0,0,.6.12C5.9,5.07,8,3.86,8.79,3.4Z"/></g></g></g></svg>