<svg xmlns="http://www.w3.org/2000/svg" xmlns:xlink="http://www.w3.org/1999/xlink" viewBox="0 0 16 18"><defs><style>.cls-1,.cls-2{fill:none;}.cls-1{clip-rule:evenodd;}.cls-3{clip-path:url(#clip-path);}.cls-4{fill:#323333;}.cls-5{clip-path:url(#clip-path-2);}</style><clipPath id="clip-path"><path class="cls-1" d="M8.41,16l2.5-3.62a.5.5,0,0,0-.12-.69.52.52,0,0,0-.29-.09h-5a.5.5,0,0,0-.5.5.47.47,0,0,0,.09.28L7.59,16a.5.5,0,0,0,.7.13A.37.37,0,0,0,8.41,16Z"/></clipPath><clipPath id="clip-path-2"><path class="cls-1" d="M7.59,5.22,5.09,8.84a.49.49,0,0,0,.13.69.47.47,0,0,0,.28.09h5a.5.5,0,0,0,.5-.5.47.47,0,0,0-.09-.28L8.41,5.22a.49.49,0,0,0-.69-.13A.4.4,0,0,0,7.59,5.22Z"/></clipPath></defs><title>sort</title><g id="图层_2" data-name="图层 2"><g id="图层_1-2" data-name="图层 1"><g id="sort"><g class="cls-3"><rect class="cls-4" y="6.62" width="16" height="14.62"/></g><g class="cls-5"><rect class="cls-4" width="16" height="14.62"/></g></g></g></g></svg>