<svg xmlns="http://www.w3.org/2000/svg" viewBox="0 0 14 14"><defs><style>.cls-1{fill:none;}.cls-2{fill:#323333;fill-rule:evenodd;}</style></defs><title>tag</title><g id="图层_2" data-name="图层 2"><g id="图层_1-2" data-name="图层 1"><g id="tag"><path class="cls-2" d="M4,3.5a.5.5,0,1,1-.5.5A.5.5,0,0,1,4,3.5ZM4,3A1,1,0,1,1,3,4,1,1,0,0,1,4,3ZM2,5.33a.47.47,0,0,0,.15.35L9,12.56l3.19-3.18A.52.52,0,0,0,12.35,9a.5.5,0,0,0-.14-.35L5.68,2.15A.47.47,0,0,0,5.33,2H2.2a.2.2,0,0,0-.2.2Zm4.23-4L13.3,8.35a1,1,0,0,1,0,1.42L9.77,13.3a1,1,0,0,1-.71.3,1,1,0,0,1-.71-.3L2,7,1.15,6.1A.49.49,0,0,1,1,5.74V1.5a.47.47,0,0,1,.15-.35A.47.47,0,0,1,1.5,1H5.74a.49.49,0,0,1,.36.15Z"/></g></g></g></svg>