<svg xmlns="http://www.w3.org/2000/svg" viewBox="0 0 14 14"><defs><style>.cls-1{fill:none;}.cls-2{fill:#323333;fill-rule:evenodd;}</style></defs><title>add single chart</title><g id="图层_2" data-name="图层 2"><g id="图层_1-2" data-name="图层 1"><g id="add_single_chart" data-name="add single chart"><path class="cls-2" d="M11.5,2a.5.5,0,0,0,.5.5h1.5a.5.5,0,0,1,0,1H12a.5.5,0,0,0-.5.5V5.5a.5.5,0,0,1-1,0V4a.5.5,0,0,0-.5-.5H8.5a.5.5,0,0,1,0-1H10a.5.5,0,0,0,.5-.5V.5a.5.5,0,0,1,1,0ZM6,.5a.47.47,0,0,1-.15.35A.47.47,0,0,1,5.5,1h-4a.47.47,0,0,0-.35.15A.47.47,0,0,0,1,1.5v11a.47.47,0,0,0,.15.35A.47.47,0,0,0,1.5,13h11a.51.51,0,0,0,.5-.5v-4a.5.5,0,0,1,1,0V13a1,1,0,0,1-1,1H1a1,1,0,0,1-1-1V1A1,1,0,0,1,1,0H5.5a.47.47,0,0,1,.35.15A.47.47,0,0,1,6,.5Z"/></g></g></g></svg>