<svg xmlns="http://www.w3.org/2000/svg" viewBox="0 0 14 14"><defs><style>.cls-1{fill:none;}.cls-2{fill:#323333;fill-rule:evenodd;}</style></defs><title>pin-o</title><g id="图层_2" data-name="图层 2"><g id="图层_1-2" data-name="图层 1"><g id="pin-o"><path class="cls-2" d="M12.09,4a.51.51,0,0,0,0-.7c-.4-.39-1-1-1.42-1.42a.51.51,0,0,0-.7,0L7.49,4.36a.51.51,0,0,0,0,.71l.57.57.14.13.13.14.57.57a.5.5,0,0,0,.71,0ZM5,9.65l2.65,2.64a.15.15,0,0,0,.15.06A.19.19,0,0,0,8,12.27,4.5,4.5,0,0,0,1.7,6a.19.19,0,0,0-.08.15.17.17,0,0,0,.06.15Zm4.72-1.9a.5.5,0,0,0-.13.49,5.46,5.46,0,0,1-1.42,5.3v0a.5.5,0,0,1-.69,0l-.38-.37h0L4.68,10.71a.55.55,0,0,0-.36-.15.51.51,0,0,0-.35.15L1.13,13.55a.48.48,0,0,1-.34.14.5.5,0,0,1-.35-.14h0a.52.52,0,0,1,0-.73L3.26,10a.51.51,0,0,0,.15-.35.55.55,0,0,0-.15-.36L.81,6.84h0L.43,6.47a.48.48,0,0,1,0-.7h0a5.49,5.49,0,0,1,5.3-1.43.49.49,0,0,0,.48-.12L9.62.82a1,1,0,0,1,.71-.3,1,1,0,0,1,.7.3l2.12,2.12a1,1,0,0,1,.3.7,1,1,0,0,1-.3.71C12.15,5.36,10.36,7.15,9.75,7.75Z"/></g></g></g></svg>