<svg xmlns="http://www.w3.org/2000/svg" viewBox="0 0 14 14"><defs><style>.cls-1{fill:none;}.cls-2{fill:#323333;fill-rule:evenodd;}</style></defs><title>pin</title><g id="图层_2" data-name="图层 2"><g id="图层_1-2" data-name="图层 1"><g id="pin"><path class="cls-2" d="M5.73,4.34a.5.5,0,0,0,.49-.13L9.62.82A1,1,0,0,1,11,.82l2.12,2.12a1,1,0,0,1,0,1.41l-3.4,3.4a.52.52,0,0,0-.12.49,5.47,5.47,0,0,1-1.43,5.3h0a.48.48,0,0,1-.7,0L4.67,10.72a.5.5,0,0,0-.71,0L1.13,13.55a.48.48,0,0,1-.34.14.5.5,0,0,1-.35-.14h0a.51.51,0,0,1-.15-.37.51.51,0,0,1,.15-.36L3.25,10a.5.5,0,0,0,0-.71L.43,6.47a.48.48,0,0,1,0-.7h0A5.47,5.47,0,0,1,5.73,4.34Z"/></g></g></g></svg>