<svg xmlns="http://www.w3.org/2000/svg" viewBox="0 0 16 16"><defs><style>.cls-1{fill:none;}.cls-2{fill:#323333;fill-rule:evenodd;}</style></defs><title>quit</title><g id="图层_2" data-name="图层 2"><g id="图层_1-2" data-name="图层 1"><g id="quit"><path class="cls-2" d="M8.58,6.2a.58.58,0,1,1-1.15,0V1.59a.58.58,0,1,1,1.15,0Zm2.11-2.46a.58.58,0,0,1-.31-.48.56.56,0,0,1,.27-.51.53.53,0,0,1,.57,0,7,7,0,1,1-10,7.91A7,7,0,0,1,4.79,2.72a.57.57,0,0,1,.53,1,5.87,5.87,0,1,0,8.37,6.62A5.91,5.91,0,0,0,10.69,3.74Z"/></g></g></g></svg>