<svg xmlns="http://www.w3.org/2000/svg" viewBox="0 0 14 14">
  <defs>
    <style>.cls-1{fill:none;}.cls-2{fill:#f1f3fa;}.cls-3,.cls-4{fill:#3c4c95;}.cls-4{fill-rule:evenodd;}</style>
  </defs>
  <title>recents</title>
  <g id="图层_2" data-name="图层 2">
    <g id="图层_1-2" data-name="图层 1">
      <g id="recents">
        <path class="cls-3" d="M7,1A6,6,0,1,1,1,7,6,6,0,0,1,7,1M7,0a7,7,0,1,0,7,7A7,7,0,0,0,7,0"/>
        <path class="cls-4" d="M8,8a.51.51,0,0,1-.5.5H4A.5.5,0,0,1,3.5,8h0A.5.5,0,0,1,4,7.5H6.8A.2.2,0,0,0,7,7.3V4a.5.5,0,0,1,.5-.5h0A.51.51,0,0,1,8,4Z"/>
      </g>
    </g>
  </g>
</svg>