<svg xmlns="http://www.w3.org/2000/svg" viewBox="0 0 14 14"><defs><style>.cls-1{fill:none;}.cls-2{fill:#323333;fill-rule:evenodd;}</style></defs><title>copy</title><g id="图层_2" data-name="图层 2"><g id="图层_1-2" data-name="图层 1"><g id="copy"><path class="cls-2" d="M10,2.5a.5.5,0,0,1-.5.5h0A.5.5,0,0,1,9,2.5v-1a.47.47,0,0,0-.15-.35A.47.47,0,0,0,8.5,1h-7a.5.5,0,0,0-.5.5v7a.47.47,0,0,0,.15.35A.47.47,0,0,0,1.5,9h1a.5.5,0,0,1,0,1H1A1,1,0,0,1,0,9V1A1,1,0,0,1,1,0H9a1,1,0,0,1,1,1Zm3,3a.5.5,0,0,0-.5-.5h-7a.5.5,0,0,0-.5.5v7a.5.5,0,0,0,.5.5h7a.5.5,0,0,0,.5-.5ZM14,13a1,1,0,0,1-1,1H5a1,1,0,0,1-1-1V5A1,1,0,0,1,5,4h8a1,1,0,0,1,1,1Z"/></g></g></g></svg>