<svg xmlns="http://www.w3.org/2000/svg" viewBox="0 0 14 14"><defs><style>.cls-1{fill:none;}.cls-2{fill:#323333;}</style></defs><title>pay</title><g id="图层_2" data-name="图层 2"><g id="图层_1-2" data-name="图层 1"><g id="pay"><path class="cls-2" d="M9.85,3.15a.48.48,0,0,0-.7,0L7.35,4.94a.5.5,0,0,1-.7,0L4.85,3.15a.49.49,0,0,0-.7.7L6,5.66A.2.2,0,0,1,5.81,6H4.5a.5.5,0,0,0,0,1H6.3a.2.2,0,0,1,.2.2v.6a.2.2,0,0,1-.2.2H4.5a.5.5,0,0,0,0,1H6.3a.2.2,0,0,1,.2.2v1.3a.5.5,0,0,0,1,0V9.2A.2.2,0,0,1,7.7,9H9.5a.5.5,0,0,0,0-1H7.7a.2.2,0,0,1-.2-.2V7.2A.2.2,0,0,1,7.7,7H9.5a.5.5,0,0,0,0-1H8.19a.2.2,0,0,1-.14-.34l1.8-1.81a.48.48,0,0,0,0-.7ZM7,13a6,6,0,1,1,4.24-1.76A6,6,0,0,1,7,13ZM7,0A7,7,0,1,0,12,2.05,7,7,0,0,0,7,0Z"/></g></g></g></svg>