<svg xmlns="http://www.w3.org/2000/svg" viewBox="0 0 14 14"><defs><style>.cls-1{fill:none;opacity:0;}.cls-2{fill:#f1f3fa;}.cls-3{fill:#3c4c95;}.cls-4{fill:#727fbe;}</style></defs><title>analytical-laboratory</title><g id="图层_2" data-name="图层 2"><g id="图层_1-2" data-name="图层 1"><g id="analytical-laboratory"><rect class="cls-2" x="1" y="4" width="12" height="8"/><path class="cls-3" d="M13,11.5a.5.5,0,0,1-.5.5H1.5a.5.5,0,0,1-.5-.5V4H13ZM13,1H1A1,1,0,0,0,0,2V12a1,1,0,0,0,1,1H13a1,1,0,0,0,1-1V2a1,1,0,0,0-1-1"/><path class="cls-2" d="M2.5,2.5A.5.5,0,1,1,2,2a.5.5,0,0,1,.5.5"/><path class="cls-2" d="M4.25,2.5a.5.5,0,1,1-.5-.5.5.5,0,0,1,.5.5"/><path class="cls-2" d="M6,2.5a.5.5,0,0,1-.5.5.5.5,0,0,1,0-1,.5.5,0,0,1,.5.5"/><path class="cls-4" d="M3.21,9.53a.21.21,0,0,1-.2-.2V6.8a.2.2,0,0,1,.2-.2h.2a.2.2,0,0,1,.2.2v2a.2.2,0,0,0,.2.2H4.89a.2.2,0,0,1,.2.2v.1A.25.25,0,0,1,5,9.47a.2.2,0,0,1-.14.06Z"/><path class="cls-4" d="M6.78,8.36A.2.2,0,0,0,7,8.27a.19.19,0,0,0,0-.18l-.12-.31a.18.18,0,0,0-.18-.13.2.2,0,0,0-.19.13l-.11.31a.19.19,0,0,0,0,.19.21.21,0,0,0,.16.08Zm1.28.89a.25.25,0,0,1,0,.19.22.22,0,0,1-.17.09H7.66a.2.2,0,0,1-.19-.13L7.31,9a.19.19,0,0,0-.18-.13H6.22A.19.19,0,0,0,6,9c0,.12-.11.29-.15.4a.2.2,0,0,1-.19.14H5.5a.2.2,0,0,1-.16-.09.19.19,0,0,1,0-.19l1-2.54a.19.19,0,0,1,.18-.13h.36A.21.21,0,0,1,7,6.7C7.21,7.15,7.81,8.63,8.06,9.25Z"/><path class="cls-4" d="M9.28,8.24a.2.2,0,0,0-.2.2v.39a.21.21,0,0,0,.2.2h.35A2.89,2.89,0,0,0,10,9a.28.28,0,0,0,.21-.12.33.33,0,0,0,.09-.25.34.34,0,0,0-.07-.22.37.37,0,0,0-.18-.14,2.56,2.56,0,0,0-.53,0Zm0-1.17a.2.2,0,0,0-.2.2v.28a.2.2,0,0,0,.2.2H9.9a.44.44,0,0,0,.24-.1.32.32,0,0,0,.09-.23.34.34,0,0,0-.08-.23.35.35,0,0,0-.22-.1H9.28Zm-.8-.29a.2.2,0,0,1,.2-.2h1a3.19,3.19,0,0,1,.52,0,.77.77,0,0,1,.31.12.7.7,0,0,1,.23.25.64.64,0,0,1,.09.34.7.7,0,0,1-.11.38l-.07.09a.19.19,0,0,0-.05.16.16.16,0,0,0,.08.13.54.54,0,0,1,.15.15.66.66,0,0,1,.14.44.86.86,0,0,1-.09.39.79.79,0,0,1-.26.31.9.9,0,0,1-.39.14l-.72,0H8.68a.2.2,0,0,1-.2-.2Z"/></g></g></g></svg>