<svg xmlns="http://www.w3.org/2000/svg" viewBox="0 0 14 13.95"><defs><style>.cls-1{fill:none;opacity:0;}.cls-2{fill:#f1f3fa;}.cls-3{fill:#3c4c95;}.cls-4,.cls-5{fill:#727fbe;}.cls-4{fill-rule:evenodd;}</style></defs><title>board-list</title><g id="图层_2" data-name="图层 2"><g id="图层_1-2" data-name="图层 1"><g id="board-list"><rect class="cls-1" x="0.02" width="13.95" height="13.95"/><rect class="cls-2" x="1" y="3.98" width="12" height="8"/><path class="cls-3" d="M13,11.48a.5.5,0,0,1-.5.5H1.5a.5.5,0,0,1-.5-.5V4H13ZM13,1H1A1,1,0,0,0,0,2V12a1,1,0,0,0,1,1H13a1,1,0,0,0,1-1V2a1,1,0,0,0-1-1"/><path class="cls-2" d="M2.5,2.48a.5.5,0,1,1-1,0,.5.5,0,0,1,1,0"/><path class="cls-2" d="M4.25,2.48a.5.5,0,1,1-1,0,.5.5,0,0,1,1,0"/><path class="cls-2" d="M6,2.48a.5.5,0,0,1-.5.5.51.51,0,0,1-.5-.5A.5.5,0,0,1,5.5,2a.5.5,0,0,1,.5.5"/><path class="cls-4" d="M6.3,6.14a.21.21,0,0,0-.2-.2H4.65A.17.17,0,0,0,4.51,6a.18.18,0,0,0-.06.14V7.59a.21.21,0,0,0,.2.2H6.1a.18.18,0,0,0,.14-.06.17.17,0,0,0,.06-.14Z"/><path class="cls-4" d="M6.3,8.46a.2.2,0,0,0-.06-.15.22.22,0,0,0-.14-.05H4.65a.2.2,0,0,0-.14.05.2.2,0,0,0-.06.15V9.91a.2.2,0,0,0,.06.14.17.17,0,0,0,.14.06H6.1a.18.18,0,0,0,.14-.06.2.2,0,0,0,.06-.14Z"/><path class="cls-5" d="M7.11,6.18H9.25a.26.26,0,0,1,.26.26v0a.26.26,0,0,1-.26.26H7.11a.27.27,0,0,1-.27-.27v0A.26.26,0,0,1,7.11,6.18Z"/><path class="cls-5" d="M7.11,8.5H9.25a.26.26,0,0,1,.26.26v0A.27.27,0,0,1,9.25,9H7.11a.27.27,0,0,1-.27-.27v0A.26.26,0,0,1,7.11,8.5Z"/><path class="cls-5" d="M7.11,7H9.25a.26.26,0,0,1,.26.26v0a.26.26,0,0,1-.26.26H7.11a.27.27,0,0,1-.27-.27v0A.26.26,0,0,1,7.11,7Z"/><path class="cls-5" d="M7.11,9.34H9.25a.26.26,0,0,1,.26.26v0a.26.26,0,0,1-.26.26H7.11a.27.27,0,0,1-.27-.27v0A.26.26,0,0,1,7.11,9.34Z"/></g></g></g></svg>