<svg xmlns="http://www.w3.org/2000/svg" viewBox="0 0 14 13.97"><defs><style>.cls-1,.cls-5{fill:none;}.cls-1{opacity:0;}.cls-2{fill:#f1f3fa;}.cls-3{fill:#3c4c95;}.cls-4{fill:#727fbe;fill-rule:evenodd;}.cls-5{stroke:#f1f3fa;stroke-linecap:round;stroke-linejoin:round;stroke-width:0.2px;}</style></defs><title>board-kpi</title><g id="图层_2" data-name="图层 2"><g id="图层_1-2" data-name="图层 1"><g id="board-kpi"><rect class="cls-1" x="0.02" width="13.97" height="13.97"/><rect class="cls-2" x="1" y="3.98" width="12" height="8"/><path class="cls-3" d="M13,11.48a.5.5,0,0,1-.5.5H1.5a.5.5,0,0,1-.5-.5V4H13ZM13,1H1A1,1,0,0,0,0,2V12a1,1,0,0,0,1,1H13a1,1,0,0,0,1-1V2a1,1,0,0,0-1-1"/><path class="cls-2" d="M2.5,2.48a.5.5,0,1,1-1,0,.5.5,0,0,1,1,0"/><path class="cls-2" d="M4.25,2.48a.5.5,0,1,1-1,0,.5.5,0,0,1,1,0"/><path class="cls-2" d="M6,2.48a.5.5,0,0,1-.5.5.5.5,0,0,1-.5-.5A.51.51,0,0,1,5.5,2a.5.5,0,0,1,.5.5"/><path class="cls-4" d="M3.29,8.06a.1.1,0,0,0-.1-.1H2.8a.11.11,0,0,1-.11-.07.13.13,0,0,1,0-.12L4.33,6.1a.22.22,0,0,1,.32,0L6.26,7.77a.11.11,0,0,1,0,.12.1.1,0,0,1-.1.07H5.8a.09.09,0,0,0-.07,0,.11.11,0,0,0,0,.07V9.39a.2.2,0,0,1-.06.15.21.21,0,0,1-.16.07h-2a.2.2,0,0,1-.16-.07.2.2,0,0,1-.06-.15Z"/><path class="cls-4" d="M11.18,6.35a.2.2,0,0,0-.06-.14A.17.17,0,0,0,11,6.15H8a.17.17,0,0,0-.14.06.2.2,0,0,0-.06.14v3a.2.2,0,0,0,.06.14A.17.17,0,0,0,8,9.52h3a.17.17,0,0,0,.14-.06.2.2,0,0,0,.06-.14Z"/><polyline class="cls-5" points="8.28 8.28 9.04 7.53 9.88 8.26 10.72 7.39"/></g></g></g></svg>