<svg xmlns="http://www.w3.org/2000/svg" viewBox="0 0 14 14"><defs><style>.cls-1{fill:#fff;opacity:0;}.cls-2{fill:none;}.cls-3{fill:#3b4999;}.cls-4{fill:#f1f3fa;}</style></defs><title>distribution-analysis</title><g id="图层_2" data-name="图层 2"><g id="图层_1-2" data-name="图层 1"><g id="distribution-analysis"><rect class="cls-3" x="2.42" y="10.9" width="0.25" height="0.25"/><rect class="cls-3" x="2.42" y="10.39" width="0.25" height="0.25"/><rect class="cls-3" x="2.42" y="9.89" width="0.25" height="0.25"/><rect class="cls-3" x="2.42" y="9.37" width="0.25" height="0.26"/><rect class="cls-3" x="2.42" y="8.87" width="0.25" height="0.25"/><rect class="cls-3" x="10.37" y="7.85" width="0.25" height="0.25"/><rect class="cls-3" x="9.87" y="7.85" width="0.25" height="0.25"/><rect class="cls-3" x="9.37" y="7.85" width="0.25" height="0.25"/><rect class="cls-3" x="8.88" y="7.85" width="0.25" height="0.25"/><rect class="cls-3" x="8.38" y="7.85" width="0.25" height="0.25"/><rect class="cls-3" x="7.88" y="7.85" width="0.25" height="0.25"/><rect class="cls-3" x="7.39" y="7.85" width="0.25" height="0.25"/><rect class="cls-3" x="6.39" y="7.85" width="0.25" height="0.25"/><rect class="cls-3" x="5.89" y="7.85" width="0.25" height="0.25"/><rect class="cls-3" x="5.39" y="7.85" width="0.25" height="0.25"/><rect class="cls-3" x="4.9" y="7.85" width="0.25" height="0.25"/><rect class="cls-3" x="4.4" y="7.85" width="0.25" height="0.25"/><rect class="cls-3" x="3.9" y="7.85" width="0.25" height="0.25"/><rect class="cls-3" x="3.41" y="7.85" width="0.25" height="0.25"/><rect class="cls-3" x="11.36" y="10.39" width="0.25" height="0.25"/><rect class="cls-3" x="11.36" y="9.89" width="0.25" height="0.25"/><rect class="cls-3" x="11.36" y="9.37" width="0.25" height="0.26"/><rect class="cls-3" x="11.36" y="8.87" width="0.25" height="0.25"/><rect class="cls-3" x="6.75" y="3.2" width="0.5" height="8"/><path class="cls-4" d="M9.25,2.88C9.25,4.09,7,5.7,7,5.7S4.75,4.09,4.75,2.88a2.25,2.25,0,0,1,4.5,0"/><path class="cls-3" d="M7,6.19,6.77,6c-.25-.18-2.42-1.78-2.42-3.15a2.65,2.65,0,0,1,5.3,0c0,1.37-2.17,3-2.42,3.15ZM7,1.1A1.82,1.82,0,0,0,5.15,2.88c0,.66,1,1.7,1.85,2.32.8-.62,1.85-1.66,1.85-2.32A1.82,1.82,0,0,0,7,1.1"/><path class="cls-3" d="M4,13.7H1v-3H4Zm-2.5-.5h2v-2h-2Z"/><rect class="cls-3" x="2" y="11.7" width="1" height="1"/><path class="cls-3" d="M8.51,13.7h-3v-3h3ZM6,13.2H8v-2H6Z"/><rect class="cls-3" x="6.51" y="11.7" width="1" height="1"/><path class="cls-3" d="M13,13.7H10v-3h3Zm-2.5-.5h2v-2h-2Z"/><rect class="cls-3" x="11" y="11.7" width="1" height="1"/><rect class="cls-4" x="11" y="7.7" width="1" height="1"/><path class="cls-3" d="M12.15,8.85h-1.3V7.55h1.3Zm-1-.3h.7v-.7h-.7Z"/><rect class="cls-4" x="2" y="7.7" width="1" height="1"/><path class="cls-3" d="M3.15,8.85H1.85V7.55h1.3Zm-1-.3h.7v-.7h-.7Z"/></g></g></g></svg>