<svg xmlns="http://www.w3.org/2000/svg" viewBox="0 0 14 14"><defs><style>.cls-1{fill:none;opacity:0;}.cls-2{fill:#f1f3fa;}.cls-3{fill:#3c4c95;}.cls-4{fill:#727fbd;}</style></defs><title>event-analyze</title><g id="图层_2" data-name="图层 2"><g id="图层_1-2" data-name="图层 1"><g id="event-analyze"><rect class="cls-2" x="1" y="4" width="12" height="8"/><path class="cls-3" d="M13,11.5a.5.5,0,0,1-.5.5H1.5a.5.5,0,0,1-.5-.5V4H13ZM13,1H1A1,1,0,0,0,0,2V12a1,1,0,0,0,1,1H13a1,1,0,0,0,1-1V2a1,1,0,0,0-1-1"/><path class="cls-2" d="M2.5,2.5A.5.5,0,1,1,2,2a.5.5,0,0,1,.5.5"/><path class="cls-2" d="M4.25,2.5a.5.5,0,1,1-.5-.5.5.5,0,0,1,.5.5"/><path class="cls-2" d="M6,2.5a.5.5,0,0,1-.5.5.5.5,0,0,1,0-1,.5.5,0,0,1,.5.5"/><path class="cls-4" d="M4.72,7.94a.27.27,0,0,1-.27-.27V6A1.93,1.93,0,0,0,2.5,7.94a2,2,0,0,0,2,2.06A2,2,0,0,0,6.5,8.15a.2.2,0,0,0-.2-.21Z"/><path class="cls-4" d="M8,9.25A.25.25,0,0,1,7.75,9V7a.25.25,0,0,1,.5,0V9A.25.25,0,0,1,8,9.25"/><path class="cls-4" d="M9,9.25A.25.25,0,0,1,8.75,9V8a.25.25,0,0,1,.5,0V9A.25.25,0,0,1,9,9.25"/><path class="cls-4" d="M10,9.25A.25.25,0,0,1,9.75,9V8.5a.25.25,0,0,1,.5,0V9a.25.25,0,0,1-.25.25"/><path class="cls-4" d="M11,9.25A.25.25,0,0,1,10.75,9V6a.25.25,0,0,1,.5,0V9a.25.25,0,0,1-.25.25"/><path class="cls-4" d="M7.5,9.75a.25.25,0,0,1,.25-.25h3.5a.25.25,0,0,1,0,.5H7.75a.25.25,0,0,1-.25-.25"/></g></g></g></svg>