<svg xmlns="http://www.w3.org/2000/svg" viewBox="0 0 14 14"><defs><style>.cls-1{fill:none;opacity:0;}.cls-2{fill:#f1f3fa;}.cls-3{fill:#3c4c95;}.cls-4{fill:#727fbd;}</style></defs><title>资源 154</title><g id="图层_2" data-name="图层 2"><g id="图层_1-2" data-name="图层 1"><rect class="cls-2" x="1" y="4" width="12" height="8"/><path class="cls-3" d="M13,11.5a.5.5,0,0,1-.5.5H1.5a.5.5,0,0,1-.5-.5V4H13ZM13,1H1A1,1,0,0,0,0,2V12a1,1,0,0,0,1,1H13a1,1,0,0,0,1-1V2a1,1,0,0,0-1-1"/><path class="cls-2" d="M2.5,2.5A.5.5,0,1,1,2,2a.5.5,0,0,1,.5.5"/><path class="cls-2" d="M4.25,2.5a.5.5,0,1,1-.5-.5.5.5,0,0,1,.5.5"/><path class="cls-2" d="M6,2.5a.5.5,0,0,1-.5.5.5.5,0,0,1,0-1,.5.5,0,0,1,.5.5"/><path class="cls-4" d="M9.24,7H4.77a.46.46,0,0,1-.4-.22L4,6.14C4,6.08,4,6,4.11,6H9.89c.08,0,.14.08.1.14l-.36.64A.45.45,0,0,1,9.24,7"/><path class="cls-4" d="M8.29,8.5H5.71a.42.42,0,0,1-.37-.22L5,7.64A.1.1,0,0,1,5.1,7.5H8.9A.1.1,0,0,1,9,7.64l-.33.64a.42.42,0,0,1-.37.22"/><path class="cls-4" d="M7.1,10H6.9A.9.9,0,0,1,6,9.1.11.11,0,0,1,6.1,9H7.9a.1.1,0,0,1,.1.1.9.9,0,0,1-.9.9"/></g></g></svg>