<?xml version="1.0" encoding="UTF-8" standalone="no"?>
<!DOCTYPE svg PUBLIC "-//W3C//DTD SVG 1.1//EN" "http://www.w3.org/Graphics/SVG/1.1/DTD/svg11.dtd">
<svg width="100%" height="100%" viewBox="0 0 78 78" version="1.1" xmlns="http://www.w3.org/2000/svg" xmlns:xlink="http://www.w3.org/1999/xlink" xml:space="preserve" xmlns:serif="http://www.serif.com/" style="fill-rule:evenodd;clip-rule:evenodd;stroke-linejoin:round;stroke-miterlimit:1.41421;">
    <g transform="matrix(5.55556,0,0,5.55556,-1277.41,-311.252)">
        <g id="nbp-event-definition" transform="matrix(1,0,0,1,0,-33.6537)">
            <g transform="matrix(1,0,0,1,-0.012735,0)">
                <rect x="229.947" y="89.679" width="14.009" height="14.009" style="fill:white;fill-opacity:0;"/>
            </g>
            <g id="无埋点事件定义-曲线" transform="matrix(1,0,0,1,0.0170355,-0.0064915)">
                <g transform="matrix(1.30105,0,0,1.98133,213.245,-62.9574)">
                    <path d="M23.578,78.052C23.578,77.774 23.234,77.548 22.81,77.548C20.829,77.548 15.567,77.548 13.586,77.548C13.162,77.548 12.818,77.774 12.818,78.052C12.818,79.193 12.818,81.959 12.818,83.099C12.818,83.378 13.162,83.604 13.586,83.604C15.567,83.604 20.829,83.604 22.81,83.604C23.234,83.604 23.578,83.378 23.578,83.099C23.578,81.959 23.578,79.193 23.578,78.052Z" style="fill:rgb(61,77,165);"/>
                </g>
                <g transform="matrix(1.04445,0,0,1.21035,218.011,-1.08677)">
                    <path d="M23.828,78.342L12.339,78.342C12.339,78.342 12.339,83.092 12.339,84.539C12.339,84.767 12.553,84.952 12.817,84.952C14.686,84.952 21.48,84.952 23.349,84.952C23.614,84.952 23.828,84.767 23.828,84.539C23.828,83.092 23.828,78.342 23.828,78.342Z" style="fill:rgb(242,244,253);"/>
                </g>
                <g transform="matrix(0.836078,0,0,1.10261,26.5258,8.57971)">
                    <path d="M251.805,79.109C251.805,78.984 251.671,78.882 251.506,78.882C251.341,78.882 251.207,78.984 251.207,79.109C251.207,79.693 251.207,81.246 251.207,81.83C251.207,81.955 251.341,82.057 251.506,82.057C251.671,82.057 251.805,81.955 251.805,81.83C251.805,81.246 251.805,79.693 251.805,79.109Z" style="fill:rgb(121,135,209);"/>
                </g>
                <g transform="matrix(0.836078,0,0,0.315031,25.5258,73.2057)">
                    <path d="M251.805,79.676C251.805,79.466 251.774,79.264 251.717,79.115C251.661,78.966 251.585,78.882 251.506,78.882C251.427,78.882 251.351,78.966 251.295,79.115C251.239,79.264 251.207,79.466 251.207,79.676C251.207,80.161 251.207,80.778 251.207,81.263C251.207,81.474 251.239,81.675 251.295,81.824C251.351,81.973 251.427,82.057 251.506,82.057C251.585,82.057 251.661,81.973 251.717,81.824C251.774,81.675 251.805,81.474 251.805,81.263C251.805,80.778 251.805,80.161 251.805,79.676Z" style="fill:rgb(121,135,209);"/>
                </g>
                <g transform="matrix(0.836078,0,0,0.472547,24.5258,60.2805)">
                    <path d="M251.805,79.411C251.805,79.271 251.774,79.137 251.717,79.037C251.661,78.938 251.585,78.882 251.506,78.882C251.427,78.882 251.351,78.938 251.295,79.037C251.239,79.137 251.207,79.271 251.207,79.411C251.207,79.999 251.207,80.94 251.207,81.528C251.207,81.668 251.239,81.803 251.295,81.902C251.351,82.001 251.427,82.057 251.506,82.057C251.585,82.057 251.661,82.001 251.717,81.902C251.774,81.803 251.805,81.668 251.805,81.528C251.805,80.94 251.805,79.999 251.805,79.411Z" style="fill:rgb(121,135,209);"/>
                </g>
                <g transform="matrix(0.836078,0,0,0.787578,23.5258,34.4301)">
                    <path d="M251.805,79.2C251.805,79.116 251.774,79.035 251.717,78.975C251.661,78.916 251.585,78.882 251.506,78.882C251.427,78.882 251.351,78.916 251.295,78.975C251.239,79.035 251.207,79.116 251.207,79.2C251.207,79.808 251.207,81.131 251.207,81.739C251.207,81.823 251.239,81.904 251.295,81.964C251.351,82.023 251.427,82.057 251.506,82.057C251.585,82.057 251.661,82.023 251.717,81.964C251.774,81.904 251.805,81.823 251.805,81.739C251.805,81.131 251.805,79.808 251.805,79.2Z" style="fill:rgb(121,135,209);"/>
                </g>
                <g transform="matrix(5.1195e-17,0.836078,-1.26012,7.71603e-17,336.706,-110.611)">
                    <path d="M251.805,79.081C251.805,78.971 251.671,78.882 251.506,78.882C251.341,78.882 251.207,78.971 251.207,79.081C251.207,79.651 251.207,81.288 251.207,81.858C251.207,81.968 251.341,82.057 251.506,82.057C251.671,82.057 251.805,81.968 251.805,81.858C251.805,81.288 251.805,79.651 251.805,79.081Z" style="fill:rgb(121,135,209);"/>
                </g>
                <g transform="matrix(0.80887,0,0,0.80887,220.912,30.5545)">
                    <circle cx="13.593" cy="76.257" r="0.618" style="fill:rgb(242,244,253);"/>
                </g>
                <g transform="matrix(0.80887,0,0,0.80887,222.707,30.5545)">
                    <circle cx="13.593" cy="76.257" r="0.618" style="fill:rgb(242,244,253);"/>
                </g>
                <g transform="matrix(0.80887,0,0,0.80887,224.505,30.5545)">
                    <circle cx="13.593" cy="76.257" r="0.618" style="fill:rgb(242,244,253);"/>
                </g>
                <g transform="matrix(0.707107,0.707107,-0.707107,0.707107,139.742,-140.436)">
                    <path d="M238.989,99.635C238.99,99.635 238.991,99.634 238.992,99.634C238.993,99.633 238.993,99.632 238.993,99.631C238.993,99.52 238.993,97.147 238.993,96.435C238.993,96.382 239.014,96.331 239.052,96.294C239.089,96.256 239.14,96.235 239.193,96.235C239.302,96.235 239.437,96.235 239.545,96.235C239.598,96.235 239.649,96.256 239.687,96.294C239.724,96.331 239.745,96.382 239.745,96.435C239.745,97.152 239.745,99.554 239.745,99.633C239.745,99.633 239.746,99.634 239.746,99.634C239.746,99.635 239.747,99.635 239.747,99.635C239.748,99.635 239.749,99.635 239.749,99.635C239.749,99.635 239.558,99.884 239.446,100.031C239.427,100.055 239.398,100.07 239.367,100.07C239.335,100.07 239.306,100.055 239.287,100.031C239.183,99.894 239.01,99.668 238.987,99.638C238.987,99.637 238.986,99.637 238.987,99.636C238.987,99.635 238.988,99.635 238.989,99.635C238.989,99.635 238.989,99.635 238.989,99.635Z" style="fill:rgb(121,135,209);"/>
                </g>
            </g>
        </g>
    </g>
</svg>
