<svg xmlns="http://www.w3.org/2000/svg" viewBox="0 0 14 14"><defs><style>.cls-1{fill:none;}.cls-2{fill:#3c4c95;}.cls-3{fill:#f1f3fa;fill-rule:evenodd;}.cls-4{fill:#cad0e9;}</style></defs><title>advertisement-variab</title><g id="图层_2" data-name="图层 2"><g id="图层_1-2" data-name="图层 1"><g id="advertisement-variab"><rect class="cls-2" y="6.5" width="14" height="1"/><rect class="cls-2" x="6.5" width="1" height="14"/><path class="cls-3" d="M7,12a5,5,0,1,1,5-5,5,5,0,0,1-5,5"/><path class="cls-2" d="M7,2A5,5,0,1,1,2,7,5,5,0,0,1,7,2M7,1a6,6,0,1,0,6,6A6,6,0,0,0,7,1"/><path class="cls-4" d="M7,9A2,2,0,1,1,9,7,2,2,0,0,1,7,9"/><path class="cls-2" d="M7,5A2,2,0,1,1,5,7,2,2,0,0,1,7,5m0-.5A2.5,2.5,0,1,0,9.5,7,2.5,2.5,0,0,0,7,4.5"/><path class="cls-2" d="M10.75,6.75H3.25a.25.25,0,0,0,0,.5h7.5a.25.25,0,0,0,0-.5"/><path class="cls-2" d="M7,3a.25.25,0,0,0-.25.25v7.5a.25.25,0,0,0,.5,0V3.25A.25.25,0,0,0,7,3"/></g></g></g></svg>