<svg xmlns="http://www.w3.org/2000/svg" viewBox="0 0 14 14"><defs><style>.cls-1{fill:none;}.cls-2{fill:#f1f3fa;}.cls-3{fill:#3c4c95;}</style></defs><title>equipment</title><g id="图层_2" data-name="图层 2"><g id="图层_1-2" data-name="图层 1"><g id="equipment"><rect class="cls-2" x="3" y="1" width="8" height="12" rx="1"/><path class="cls-3" d="M10,1a1,1,0,0,1,1,1V12a1,1,0,0,1-1,1H4a1,1,0,0,1-1-1V2A1,1,0,0,1,4,1h6m0-1H4A2,2,0,0,0,2,2V12a2,2,0,0,0,2,2h6a2,2,0,0,0,2-2V2a2,2,0,0,0-2-2"/><path class="cls-3" d="M8.5,11h-3a.5.5,0,0,0,0,1h3a.5.5,0,0,0,0-1"/><path class="cls-3" d="M8.5,1h-3l.36.72A.51.51,0,0,0,6.31,2H7.69a.51.51,0,0,0,.45-.28Z"/></g></g></g></svg>