<svg xmlns="http://www.w3.org/2000/svg" viewBox="0 0 14 14"><defs><style>.cls-1{fill:none;}.cls-2{fill:#f1f3fa;}.cls-3{fill:#3c4c95;}</style></defs><title>event-variable</title><g id="图层_2" data-name="图层 2"><g id="图层_1-2" data-name="图层 1"><g id="event-variable"><path class="cls-2" d="M10,13H2V2.5A1.5,1.5,0,0,1,3.5,1h5A1.5,1.5,0,0,1,10,2.5Z"/><path class="cls-3" d="M11.5,4H10.24A.24.24,0,0,1,10,3.76V2.5A1.5,1.5,0,0,0,8.5,1h-6A1.5,1.5,0,0,0,1,2.5v9A1.5,1.5,0,0,0,2.5,13h9A1.5,1.5,0,0,0,13,11.5v-6A1.5,1.5,0,0,0,11.5,4M2.6,12a.6.6,0,0,1-.6-.6V2.6A.6.6,0,0,1,2.6,2H8.4a.6.6,0,0,1,.6.6v8.61a1.77,1.77,0,0,0,.19.79H2.6Z"/><path class="cls-2" d="M11.36,12h-.72a.64.64,0,0,1-.64-.64V5.65A.65.65,0,0,1,10.64,5h.72a.65.65,0,0,1,.64.65v5.71a.64.64,0,0,1-.64.64"/><path class="cls-3" d="M7.2,5.7H3.8V4.3H7.2Zm.3-2.2h-4A.5.5,0,0,0,3,4V6a.5.5,0,0,0,.5.5h4A.5.5,0,0,0,8,6V4a.5.5,0,0,0-.5-.5"/><path class="cls-3" d="M7.5,7.5h-4a.5.5,0,0,0,0,1h4a.5.5,0,0,0,0-1"/><path class="cls-3" d="M7.5,9.5h-4a.5.5,0,0,0,0,1h4a.5.5,0,0,0,0-1"/></g></g></g></svg>