<?xml version="1.0" encoding="UTF-8" standalone="no"?>
<!DOCTYPE svg PUBLIC "-//W3C//DTD SVG 1.1//EN" "http://www.w3.org/Graphics/SVG/1.1/DTD/svg11.dtd">
<svg width="100%" height="100%" viewBox="0 0 78 78" version="1.1" xmlns="http://www.w3.org/2000/svg" xmlns:xlink="http://www.w3.org/1999/xlink" xml:space="preserve" xmlns:serif="http://www.serif.com/" style="fill-rule:evenodd;clip-rule:evenodd;stroke-linejoin:round;stroke-miterlimit:1.41421;">
    <g transform="matrix(5.55556,0,0,5.55556,-1261.11,-5027.78)">
        <g transform="matrix(1,0,0,1,0,253)">
            <g>
                <g transform="matrix(0.608696,0,0,0.608696,214.826,642.87)">
                    <rect x="20" y="15" width="23" height="23" style="fill:none;"/>
                </g>
                <g id="登陆用户变量" transform="matrix(1,0,0,1,227,649)">
                    <g transform="matrix(1,0,0,1,1,4.5)">
                        <path d="M0,11C-0.275,11 -0.5,10.775 -0.5,10.5L-0.5,0.5C-0.5,0.225 -0.275,0 0,0L12,0C12.275,0 12.5,0.225 12.5,0.5L12.5,10.5C12.5,10.775 12.275,11 12,11L0,11Z" style="fill:rgb(242,244,252);fill-rule:nonzero;"/>
                    </g>
                    <g transform="matrix(1,0,0,1,0,4)">
                        <path d="M13,12L1,12C0.447,12 0,11.553 0,11L0,1C0,0.448 0.446,0.001 1,0L13,0C13.346,0.001 13.65,0.175 13.829,0.441C13.847,0.467 13.864,0.495 13.879,0.523L13.922,0.61C13.952,0.683 13.974,0.759 13.986,0.84C13.996,0.892 14,0.946 14,1L14,11C14,11.552 13.555,11.998 13,12ZM13,10.5C13,10.776 12.776,11 12.5,11C10.548,11 3.452,11 1.5,11C1.224,11 1,10.776 1,10.5C1,8.749 1,3 1,3L13,3C13,3 13,8.749 13,10.5ZM8.918,5.191C8.666,4.951 8.365,4.796 8.05,4.722L8.056,4.99C8.304,5.059 8.539,5.188 8.738,5.378C9.387,5.998 9.41,7.024 8.792,7.671C8.315,8.17 7.598,8.297 6.997,8.048L6.766,7.915L5.837,8.887L6.025,9.066C6.077,9.116 6.079,9.198 6.029,9.25C5.98,9.301 5.897,9.303 5.846,9.253L5.658,9.075L5.3,9.45C5.3,9.45 5.022,9.476 4.933,9.392C4.834,9.297 4.83,9.002 4.83,9.002L6.289,7.474L6.152,7.242C5.876,6.653 5.97,5.93 6.445,5.431C6.612,5.257 6.809,5.129 7.02,5.046L7.013,4.772C6.734,4.866 6.475,5.026 6.258,5.253C5.682,5.856 5.587,6.744 5.962,7.441L4.5,8.974C4.5,8.974 4.537,9.463 4.725,9.643C4.912,9.822 5.32,9.756 5.32,9.756L5.666,9.442C5.822,9.59 6.068,9.585 6.217,9.429C6.365,9.273 6.359,9.027 6.204,8.879L6.807,8.248C7.521,8.59 8.402,8.455 8.98,7.851C9.697,7.099 9.669,5.909 8.918,5.191ZM7.036,7.162C7.373,7.483 7.907,7.472 8.228,7.135C8.551,6.798 8.538,6.264 8.201,5.942C7.864,5.62 7.33,5.633 7.009,5.97C6.687,6.307 6.699,6.841 7.036,7.162ZM8.041,6.955C7.818,7.188 7.449,7.197 7.216,6.975C7.119,6.883 7.07,6.764 7.052,6.642C7.08,6.705 7.12,6.765 7.174,6.816C7.399,7.032 7.757,7.023 7.973,6.798C8.122,6.642 8.156,6.425 8.094,6.233C8.242,6.455 8.233,6.754 8.041,6.955Z" style="fill:rgb(63,79,159);"/>
                    </g>
                    <g transform="matrix(1,0,0,1,2.5,5.5)">
                        <path d="M0,0C0,0.276 -0.224,0.5 -0.5,0.5C-0.776,0.5 -1,0.276 -1,0C-1,-0.276 -0.776,-0.5 -0.5,-0.5C-0.224,-0.5 0,-0.276 0,0" style="fill:rgb(242,244,252);fill-rule:nonzero;"/>
                    </g>
                    <g transform="matrix(1,0,0,1,4.2998,5.5)">
                        <path d="M0,0C0,0.276 -0.224,0.5 -0.5,0.5C-0.776,0.5 -1,0.276 -1,0C-1,-0.276 -0.776,-0.5 -0.5,-0.5C-0.224,-0.5 0,-0.276 0,0" style="fill:rgb(242,244,252);fill-rule:nonzero;"/>
                    </g>
                    <g transform="matrix(1,0,0,1,6.0996,5.5)">
                        <path d="M0,0C0,0.276 -0.224,0.5 -0.5,0.5C-0.775,0.5 -1,0.276 -1,0C-1,-0.276 -0.775,-0.5 -0.5,-0.5C-0.224,-0.5 0,-0.276 0,0" style="fill:rgb(242,244,252);fill-rule:nonzero;"/>
                    </g>
                </g>
            </g>
        </g>
    </g>
</svg>
