<svg xmlns="http://www.w3.org/2000/svg" viewBox="0 0 14 14"><defs><style>.cls-1{fill:none;}.cls-2{fill:#f1f3fa;}.cls-3{fill:#3c4c95;fill-rule:evenodd;}</style></defs><title>territory</title><g id="图层_2" data-name="图层 2"><g id="图层_1-2" data-name="图层 1"><g id="territory"><circle class="cls-2" cx="7" cy="7" r="7"/><path class="cls-3" d="M11.73,10.76a6.23,6.23,0,0,0-1.52-1,7.82,7.82,0,0,0,.46-2.43h2.38a6,6,0,0,1-1.32,3.45M8.07,12.94A8,8,0,0,0,10,10.36a5.81,5.81,0,0,1,1.33.89,6.11,6.11,0,0,1-3.23,1.69m-.75-.22v-3a6.78,6.78,0,0,1,2,.4,7.55,7.55,0,0,1-2,2.62m0-5.41H10A7.21,7.21,0,0,1,9.6,9.49a7.39,7.39,0,0,0-2.28-.44Zm0-2.38A7.39,7.39,0,0,0,9.6,4.49,7.2,7.2,0,0,1,10,6.66H7.32Zm0-3.68a7.71,7.71,0,0,1,2,2.63,6.71,6.71,0,0,1-2,.39Zm4,1.48A5.81,5.81,0,0,1,10,3.62,8.19,8.19,0,0,0,8.07,1a6.12,6.12,0,0,1,3.23,1.7m1.75,3.93H10.68a8.51,8.51,0,0,0-.46-2.43,6.07,6.07,0,0,0,1.52-1,6,6,0,0,1,1.31,3.45M6.67,4.27a6.83,6.83,0,0,1-2-.39,7.71,7.71,0,0,1,2-2.63Zm0,2.39H4a7.2,7.2,0,0,1,.42-2.17,7.44,7.44,0,0,0,2.28.44Zm0,2.39a7.44,7.44,0,0,0-2.28.44A7.21,7.21,0,0,1,4,7.31h2.7Zm0,3.67a7.67,7.67,0,0,1-2-2.62,6.84,6.84,0,0,1,2-.4Zm-4-1.47A5.59,5.59,0,0,1,4,10.36a7.86,7.86,0,0,0,1.89,2.58A6.08,6.08,0,0,1,2.7,11.25M.94,7.31H3.32a8.12,8.12,0,0,0,.46,2.43,6.68,6.68,0,0,0-1.52,1A6,6,0,0,1,.94,7.31m1.32-4.1a6.07,6.07,0,0,0,1.52,1,8.24,8.24,0,0,0-.46,2.43H.94A6,6,0,0,1,2.26,3.21M5.92,1A8,8,0,0,0,4,3.62,5.59,5.59,0,0,1,2.7,2.73,6.09,6.09,0,0,1,5.92,1M7,0a7,7,0,1,0,7,7A7,7,0,0,0,7,0"/></g></g></g></svg>