<svg xmlns="http://www.w3.org/2000/svg" viewBox="0 0 14 14"><defs><style>.cls-1{fill:none;}.cls-2{fill:#f1f3fa;}.cls-3{fill:#3c4c95;}</style></defs><title>visitor</title><g id="图层_2" data-name="图层 2"><g id="图层_1-2" data-name="图层 1"><g id="visitor"><rect class="cls-2" x="1" y="4" width="12" height="8"/><path class="cls-3" d="M13,11.5a.5.5,0,0,1-.5.5H1.5a.5.5,0,0,1-.5-.5V4H13ZM13,1H1A1,1,0,0,0,0,2V12a1,1,0,0,0,1,1H13a1,1,0,0,0,1-1V2a1,1,0,0,0-1-1"/><path class="cls-2" d="M2.5,2.5A.5.5,0,1,1,2,2a.5.5,0,0,1,.5.5"/><path class="cls-2" d="M4.25,2.5a.5.5,0,1,1-.5-.5.5.5,0,0,1,.5.5"/><path class="cls-2" d="M6,2.5a.5.5,0,0,1-.5.5.5.5,0,0,1,0-1,.5.5,0,0,1,.5.5"/><path class="cls-3" d="M10,7.91A3.24,3.24,0,0,0,7,6.23,3.26,3.26,0,0,0,4,7.91L4,8l0,.08a3.28,3.28,0,0,0,3,1.7,3.26,3.26,0,0,0,3-1.7L10,8ZM7,9.4A3,3,0,0,1,4.41,8,2.94,2.94,0,0,1,7,6.6,2.93,2.93,0,0,1,9.58,8,2.92,2.92,0,0,1,7,9.4"/><path class="cls-3" d="M7.75,8A.75.75,0,1,1,7,7.25.76.76,0,0,1,7.75,8"/></g></g></g></svg>