<svg xmlns="http://www.w3.org/2000/svg" viewBox="0 0 14 14"><defs><style>.cls-1{fill:none;}.cls-2{fill:#323333;fill-rule:evenodd;}</style></defs><title>disable</title><g id="图层_2" data-name="图层 2"><g id="图层_1-2" data-name="图层 1"><g id="disable"><path class="cls-2" d="M11.42,10.72a.18.18,0,0,0,.16,0,.19.19,0,0,0,.14-.07A6,6,0,0,0,3.3,2.28a.21.21,0,0,0-.07.15.17.17,0,0,0,0,.15C4.34,3.63,10.37,9.66,11.42,10.72ZM2.58,3.28a.18.18,0,0,0-.16,0,.21.21,0,0,0-.14.07,6,6,0,0,0,8.42,8.42.21.21,0,0,0,.07-.15.17.17,0,0,0,0-.15C9.66,10.37,3.63,4.34,2.58,3.28ZM7,0A7,7,0,1,1,0,7,7,7,0,0,1,7,0Z"/></g></g></g></svg>