<svg xmlns="http://www.w3.org/2000/svg" viewBox="0 0 14 14"><defs><style>.cls-1{fill:none;}.cls-2{fill:#323333;}</style></defs><title>alipay</title><g id="图层_2" data-name="图层 2"><g id="图层_1-2" data-name="图层 1"><g id="alipay"><path class="cls-2" d="M13.44,9.74a7,7,0,1,0-.77,1.36L8.26,8.92a5.35,5.35,0,0,1-2.42,1.62,3.6,3.6,0,0,1-1.74.14A2.28,2.28,0,0,1,2.87,10a2,2,0,0,1-.37-.51.1.1,0,0,1,0,0,1,1,0,0,1-.1-.27A1,1,0,0,1,2.36,9V8.86a1.22,1.22,0,0,1,0-.33,1.74,1.74,0,0,1,.48-.9,2.81,2.81,0,0,1,2-.69,10.35,10.35,0,0,1,2.89.66A10.71,10.71,0,0,0,8.37,6H4.17V5.49H6.33V4.58H3.72V4.13H6.33V3.22c0-.12,0-.22.22-.22h1V4.13h2.84v.45H7.57v.91H9.84A9,9,0,0,1,8.9,8C10.48,8.58,12.7,9.45,13.44,9.74ZM3.15,7.88a1,1,0,0,0-.39.58,1.18,1.18,0,0,0,.31,1.09,2.07,2.07,0,0,0,1.25.53,3.34,3.34,0,0,0,2-.7,4.34,4.34,0,0,0,1-1,6,6,0,0,0-2.91-.84A2.9,2.9,0,0,0,3.15,7.88Z"/></g></g></g></svg>