<svg xmlns="http://www.w3.org/2000/svg" viewBox="0 0 14 14"><defs><style>.cls-1{fill:none;}.cls-2{fill:#323333;fill-rule:evenodd;}</style></defs><title>android-o</title><g id="图层_2" data-name="图层 2"><g id="图层_1-2" data-name="图层 1"><g id="android-o"><path class="cls-2" d="M8.8,1.22Zm-.42.71A.4.4,0,1,1,8,2.32.39.39,0,0,1,8.38,1.93Zm-2.76,0a.4.4,0,1,1,0,.79.4.4,0,0,1,0-.79ZM9.76,3.19a.09.09,0,0,0,.08,0,.1.1,0,0,0,0-.09A3,3,0,0,0,7,1.43,3,3,0,0,0,4.15,3.06a.1.1,0,0,0,0,.09.09.09,0,0,0,.08,0Zm1,.44a.19.19,0,0,1-.19.23H3.43a.16.16,0,0,1-.15-.07.18.18,0,0,1,0-.16,3.29,3.29,0,0,1,2-2.41l-.7-1a.14.14,0,0,1,0-.15.14.14,0,0,1,.17,0l.73,1.06a4.39,4.39,0,0,1,3.15,0L9.33.05a.12.12,0,0,1,.17,0,.12.12,0,0,1,0,.17l-.7,1A3.29,3.29,0,0,1,10.76,3.63ZM2,5.22a.21.21,0,0,0-.2-.2h0a.2.2,0,0,0-.15.06.2.2,0,0,0-.06.14v3.5a.2.2,0,0,0,.06.14.2.2,0,0,0,.15.06h0a.21.21,0,0,0,.2-.2Zm10.33,0a.2.2,0,0,0-.06-.14A.2.2,0,0,0,12.16,5h0a.21.21,0,0,0-.2.2v3.5a.21.21,0,0,0,.2.2h0a.2.2,0,0,0,.15-.06.2.2,0,0,0,.06-.14Zm-.23-.82a.92.92,0,0,0-.61.26.94.94,0,0,0-.24.61V8.64a.86.86,0,1,0,1.71,0V5.26a.94.94,0,0,0-.24-.61.92.92,0,0,0-.61-.26ZM1.85,4.4A.86.86,0,0,0,1,5.26V8.64a.9.9,0,0,0,.25.62.82.82,0,0,0,.6.25.82.82,0,0,0,.6-.25.86.86,0,0,0,.25-.62V5.26a.85.85,0,0,0-.25-.61.87.87,0,0,0-.6-.26Zm8.32.88a.19.19,0,0,0-.2-.2H4.1a.19.19,0,0,0-.2.2v5.09a.2.2,0,0,0,.2.2H5a.2.2,0,0,1,.2.2V13.2a.29.29,0,0,0,.07.18.26.26,0,0,0,.18.07h0a.22.22,0,0,0,.17-.07.25.25,0,0,0,.08-.18V10.77a.2.2,0,0,1,.2-.2H8.07a.2.2,0,0,1,.2.2V13.2a.25.25,0,0,0,.08.18.22.22,0,0,0,.17.07h0a.22.22,0,0,0,.17-.07.25.25,0,0,0,.08-.18V10.77a.2.2,0,0,1,.2-.2h1a.2.2,0,0,0,.2-.2Zm-3.82,6v1.88a.86.86,0,1,1-1.71,0V11.26H3.88a.62.62,0,0,1-.47-.18.67.67,0,0,1-.2-.48h0v-6a.19.19,0,0,1,.2-.19h7.2a.19.19,0,0,1,.2.19v6a.67.67,0,0,1-.67.66H9.39v1.88a.86.86,0,1,1-1.71,0V11.26Z"/></g></g></g></svg>