<svg xmlns="http://www.w3.org/2000/svg" viewBox="0 0 14 14"><defs><style>.cls-1{fill:none;}.cls-2{fill:#323333;fill-rule:evenodd;}</style></defs><title>mobile</title><g id="图层_2" data-name="图层 2"><g id="图层_1-2" data-name="图层 1"><g id="mobile"><path class="cls-2" d="M10.5,12a.5.5,0,0,1-.5.5H4a.5.5,0,0,1-.5-.5V2a.47.47,0,0,1,.15-.35A.47.47,0,0,1,4,1.5H5.78a.18.18,0,0,1,.15.08l.26.34A.21.21,0,0,0,6.35,2h1.3a.21.21,0,0,0,.16-.08l.25-.34a.21.21,0,0,1,.17-.08H10a.47.47,0,0,1,.35.15A.47.47,0,0,1,10.5,2ZM11,1.5a.5.5,0,0,0-.5-.5h-7a.5.5,0,0,0-.5.5v11a.5.5,0,0,0,.5.5h7a.5.5,0,0,0,.5-.5ZM12,13a1,1,0,0,1-1,1H3a1,1,0,0,1-1-1V1A1,1,0,0,1,3,0h8a1,1,0,0,1,1,1Z"/></g></g></g></svg>