<svg xmlns="http://www.w3.org/2000/svg" viewBox="0 0 14 14"><defs><style>.cls-1{fill:none;}.cls-2{fill:#323333;fill-rule:evenodd;}</style></defs><title>tablet-o</title><g id="图层_2" data-name="图层 2"><g id="图层_1-2" data-name="图层 1"><g id="tablet-o"><path class="cls-2" d="M13,6.5a.5.5,0,1,1-.5.5A.5.5,0,0,1,13,6.5ZM12,3.2A.2.2,0,0,0,12,3.06.18.18,0,0,0,11.83,3H1.2a.21.21,0,0,0-.2.2v7.6a.21.21,0,0,0,.2.2H11.83a.18.18,0,0,0,.14-.06A.2.2,0,0,0,12,10.8ZM14,11a1,1,0,0,1-1,1H1a1,1,0,0,1-1-1V3A1,1,0,0,1,1,2H13a1,1,0,0,1,1,1Z"/></g></g></g></svg>