<svg xmlns="http://www.w3.org/2000/svg" viewBox="0 0 14 14"><defs><style>.cls-1{fill:none;}.cls-2{fill:#323333;}</style></defs><title>wechat</title><g id="图层_2" data-name="图层 2"><g id="图层_1-2" data-name="图层 1"><g id="wechat"><path class="cls-2" d="M11.15,8a.54.54,0,0,1-.49-.5.53.53,0,0,1,.49-.5.58.58,0,0,1,.62.5A.56.56,0,0,1,11.15,8ZM8.42,8a.54.54,0,0,1-.49-.5A.55.55,0,0,1,8.42,7a.57.57,0,0,1,.58.5A.55.55,0,0,1,8.42,8ZM14,8.61c0-2-2-3.6-4.21-3.6S5.58,6.62,5.58,8.61s1.85,3.6,4.21,3.6A6.88,6.88,0,0,0,11.28,12l1.36.75-.38-1.25A3.72,3.72,0,0,0,14,8.61Zm-10.66-4a.71.71,0,0,1-.5-.17A.68.68,0,0,1,2.6,4a.69.69,0,0,1,.74-.61A.58.58,0,0,1,4,4a.6.6,0,0,1-.17.49A.62.62,0,0,1,3.34,4.64ZM6.81,3.4a.52.52,0,0,1,.44.16A.55.55,0,0,1,7.43,4a.6.6,0,0,1-.17.46.54.54,0,0,1-.45.16A.69.69,0,0,1,6.07,4,.69.69,0,0,1,6.81,3.4ZM9.48,4.74H10c-.42-2-2.56-3.47-5-3.47C2.23,1.3,0,3.15,0,5.51A4.09,4.09,0,0,0,2,8.86l-.49,1.49,1.73-.88A8.12,8.12,0,0,0,5,9.72h.47a3.73,3.73,0,0,1-.16-1A4,4,0,0,1,6.57,5.87,4.09,4.09,0,0,1,9.48,4.74Z"/></g></g></g></svg>