<?xml version="1.0" standalone="no"?><!DOCTYPE svg PUBLIC "-//W3C//DTD SVG 1.1//EN" "http://www.w3.org/Graphics/SVG/1.1/DTD/svg11.dtd"><svg t="1583737978619" class="icon" viewBox="0 0 1024 1024" version="1.1" xmlns="http://www.w3.org/2000/svg" p-id="10849" xmlns:xlink="http://www.w3.org/1999/xlink" width="64" height="64"><defs><style type="text/css"></style></defs><path d="M0 77.531429m73.142857 0l877.714286 0q73.142857 0 73.142857 73.142857l0 731.428571q0 73.142857-73.142857 73.142857l-877.714286 0q-73.142857 0-73.142857-73.142857l0-731.428571q0-73.142857 73.142857-73.142857Z" fill="#3D4DA5" p-id="10850"></path><path d="M950.857143 300.617143H73.142857v548.571428a37.302857 37.302857 0 0 0 36.571429 36.571429h804.571428a36.571429 36.571429 0 0 0 36.571429-36.571429z" fill="#F2F4FD" p-id="10851"></path><path d="M145.554286 190.902857m-36.571429 0a36.571429 36.571429 0 1 0 73.142857 0 36.571429 36.571429 0 1 0-73.142857 0Z" fill="#F2F4FD" p-id="10852"></path><path d="M276.48 190.902857m-36.571429 0a36.571429 36.571429 0 1 0 73.142858 0 36.571429 36.571429 0 1 0-73.142858 0Z" fill="#F2F4FD" p-id="10853"></path><path d="M408.137143 190.902857m-36.571429 0a36.571429 36.571429 0 1 0 73.142857 0 36.571429 36.571429 0 1 0-73.142857 0Z" fill="#F2F4FD" p-id="10854"></path><path d="M642.194286 574.902857a59.245714 59.245714 0 0 0 30.72-51.931428 57.782857 57.782857 0 0 0-45.348572-57.051429 8.777143 8.777143 0 0 1-7.314285-8.045714 11.702857 11.702857 0 0 1 0-10.24 14.628571 14.628571 0 0 1 10.971428 0 81.92 81.92 0 0 1 63.634286 75.337143 79.725714 79.725714 0 0 1-25.6 62.171428 129.462857 129.462857 0 0 1 73.142857 117.76 117.76 117.76 0 0 1 0 32.182857 13.897143 13.897143 0 0 1-13.897143 10.971429 13.165714 13.165714 0 0 1-10.971428-5.851429 13.165714 13.165714 0 0 1 0-12.434285 92.891429 92.891429 0 0 0 0-24.868572 98.742857 98.742857 0 0 0-73.142858-95.085714 13.897143 13.897143 0 0 1-10.971428-13.897143 10.971429 10.971429 0 0 1 0-5.12 7.314286 7.314286 0 0 1 0-5.12 15.36 15.36 0 0 1 8.777143-8.777143zM378.88 574.902857a59.245714 59.245714 0 0 1 15.36-108.982857 9.508571 9.508571 0 0 0 7.314286-8.045714 11.702857 11.702857 0 0 0-4.388572-10.24 12.434286 12.434286 0 0 0-10.24 0 81.92 81.92 0 0 0-59.977143 78.262857 79.725714 79.725714 0 0 0 25.6 59.245714 130.194286 130.194286 0 0 0-73.142857 117.76 117.76 117.76 0 0 0 4.388572 32.182857 13.897143 13.897143 0 0 0 13.897143 10.971429 13.165714 13.165714 0 0 0 10.971428-5.851429 15.36 15.36 0 0 0 0-12.434285 92.891429 92.891429 0 0 1 0-24.868572 98.742857 98.742857 0 0 1 73.142857-95.085714 13.897143 13.897143 0 0 0 10.971429-13.897143 10.971429 10.971429 0 0 0 0-5.12 7.314286 7.314286 0 0 0 0-5.12 15.36 15.36 0 0 0-13.897143-8.777143z" fill="#7987D1" p-id="10855"></path><path d="M540.525714 605.622857a101.668571 101.668571 0 1 0-59.977143 0 153.6 153.6 0 0 0-123.611428 150.674286v15.36a8.045714 8.045714 0 0 0 7.314286 6.582857H658.285714a7.314286 7.314286 0 0 0 7.314286-6.582857v-15.36a154.331429 154.331429 0 0 0-125.074286-150.674286zM438.857143 512a73.142857 73.142857 0 0 1 146.285714 0 73.142857 73.142857 0 0 1-146.285714 0z m-52.662857 239.908571a125.805714 125.805714 0 0 1 250.148571 0z" fill="#7987D1" p-id="10856"></path></svg>