<svg xmlns="http://www.w3.org/2000/svg" viewBox="0 0 14 14"><defs><style>.cls-1{fill:none;}.cls-2{fill:#323333;fill-rule:evenodd;}</style></defs><title>alipay-o</title><g id="图层_2" data-name="图层 2"><g id="图层_1-2" data-name="图层 1"><g id="alipay-o"><path fill-rule="evenodd" class="cls-2" d="M7.51,8.32a3.38,3.38,0,0,1-4,1.32,1.16,1.16,0,0,1-.06-2.11,5.4,5.4,0,0,1,4.15.59A.57.57,0,0,1,7.51,8.32ZM13,8.84a6.24,6.24,0,1,0-.74,1.58c-1-.48-2.88-1.35-3.4-1.64L8.65,8.7a4.72,4.72,0,0,1-5,1.73,2,2,0,0,1-.19-3.49c.26-.13,1.25-.93,4.61.39a13.12,13.12,0,0,0,.66-1.78H4.21V5.16H6.45V4.23H3.82V3.84H6.45V2.45H7.77V3.84h2.91v.39H7.77v.93h2.45a10.75,10.75,0,0,1-1,2.57A28.87,28.87,0,0,0,13,8.84Zm-.06,1.9A7,7,0,1,1,14,7a7,7,0,0,1-1.09,3.74Z"/></g></g></g></svg>