<svg xmlns="http://www.w3.org/2000/svg" viewBox="0 0 14 14"><defs><style>.cls-1{fill:none;}.cls-2{fill:#323333;}</style></defs><title>android</title><g id="图层_2" data-name="图层 2"><g id="图层_1-2" data-name="图层 1"><g id="android"><path class="cls-2" d="M8.66,2.81a.42.42,0,1,1,.42-.42.42.42,0,0,1-.42.42m-3.26,0a.42.42,0,1,1,.42-.42.42.42,0,0,1-.42.42m3.4-1.6.7-1A.13.13,0,0,0,9.5,0a.14.14,0,0,0-.17,0L8.58,1.12a4.39,4.39,0,0,0-3.15,0L4.7.06a.14.14,0,0,0-.17,0A.12.12,0,0,0,4.5.2l.7,1a3.31,3.31,0,0,0-2,2.65h7.6a3.31,3.31,0,0,0-2-2.65ZM3.21,10.59a.63.63,0,0,0,.2.47.63.63,0,0,0,.47.19h.76v1.88a.86.86,0,1,0,1.71,0V11.25H7.68v1.88a.86.86,0,1,0,1.71,0V11.25h.76a.67.67,0,0,0,.67-.66V4.41H3.22v6.18Zm8.93-6.2a.87.87,0,0,0-.61.26.9.9,0,0,0-.24.61V8.63a.86.86,0,1,0,1.71,0V5.25a.9.9,0,0,0-.24-.61.87.87,0,0,0-.61-.26Zm-10.29,0A.86.86,0,0,0,1,5.25V8.63a.86.86,0,0,0,.25.61.79.79,0,0,0,.6.26.79.79,0,0,0,.6-.26.82.82,0,0,0,.25-.61V5.25a.82.82,0,0,0-.25-.61.83.83,0,0,0-.6-.26Z"/></g></g></g></svg>