<?xml version="1.0" standalone="no"?><!DOCTYPE svg PUBLIC "-//W3C//DTD SVG 1.1//EN" "http://www.w3.org/Graphics/SVG/1.1/DTD/svg11.dtd"><svg t="1574411948807" class="icon" viewBox="0 0 1024 1024" version="1.1" xmlns="http://www.w3.org/2000/svg" p-id="11384" xmlns:xlink="http://www.w3.org/1999/xlink" width="64" height="64"><defs><style type="text/css"></style></defs><path d="M374.959083 593.085685l218.163171-218.163171 51.926199 51.926199-218.163171 218.163171z" p-id="11385"></path><path d="M166.08412 321.972418l52.365012 52.291877-72.404136 72.550407a213.482499 213.482499 0 0 0 0 301.830173l129.230413 129.376684a213.701906 213.701906 0 0 0 301.903308 0l72.404137-72.550407 52.438147 52.438147-88.493945 88.347674a265.408698 265.408698 0 0 1-375.111935 0l-160.75181-160.75181a265.408698 265.408698 0 0 1 0-375.185071l88.347674-88.347674zM321.862717 166.047551L410.356661 77.699877a265.408698 265.408698 0 0 1 375.185071 0l160.678674 160.75181a265.408698 265.408698 0 0 1 0 375.185071L857.945868 701.984432l-52.365011-52.438148 72.477272-72.404136a213.555635 213.555635 0 0 0 0-301.903308l-129.44982-129.303549a213.482499 213.482499 0 0 0-301.757038 0l-72.477271 72.404136L321.862717 166.120686z" p-id="11386"></path></svg>