<svg xmlns="http://www.w3.org/2000/svg" viewBox="0 0 14 14"><defs><style>.cls-1{fill:none;}.cls-2{fill:#323333;fill-rule:evenodd;}</style></defs><title>desktop-o</title><g id="图层_2" data-name="图层 2"><g id="图层_1-2" data-name="图层 1"><g id="desktop-o"><path class="cls-2" d="M13,2.5a.5.5,0,0,0-.5-.5H1.5a.5.5,0,0,0-.5.5v7a.5.5,0,0,0,.5.5h11a.5.5,0,0,0,.5-.5ZM4,12.2a.21.21,0,0,1,.2-.2H6.3a.21.21,0,0,0,.2-.2v-.6a.21.21,0,0,0-.2-.2H1a1,1,0,0,1-1-1V2A1,1,0,0,1,1,1H13a1,1,0,0,1,1,1v8a1,1,0,0,1-1,1H7.7a.21.21,0,0,0-.2.2v.6a.21.21,0,0,0,.2.2H9.8a.21.21,0,0,1,.2.2v.6a.2.2,0,0,1-.2.2H4.2a.2.2,0,0,1-.2-.2Z"/></g></g></g></svg>