<?xml version="1.0" encoding="UTF-8" standalone="no"?>
<!DOCTYPE svg PUBLIC "-//W3C//DTD SVG 1.1//EN" "http://www.w3.org/Graphics/SVG/1.1/DTD/svg11.dtd">
<svg width="100%" height="100%" viewBox="0 0 78 78" version="1.1" xmlns="http://www.w3.org/2000/svg" xmlns:xlink="http://www.w3.org/1999/xlink" xml:space="preserve" xmlns:serif="http://www.serif.com/" style="fill-rule:evenodd;clip-rule:evenodd;stroke-linejoin:round;stroke-miterlimit:1.41421;">
    <g transform="matrix(5.55556,0,0,5.55556,-461.111,-2294.44)">
        <g transform="matrix(1,0,0,1,7.10543e-15,377)">
            <g>
                <g transform="matrix(0.608696,0,0,0.608696,70.8261,26.8696)">
                    <rect x="20" y="15" width="23" height="23" style="fill:none;"/>
                </g>
                <g id="iOS" transform="matrix(0.018766,0,0,0.018766,84.1971,36.2385)">
                    <path d="M402.621,52.06C400.77,73.068 389.332,90.072 383.684,97.314C372.875,111.181 356.605,121.396 340.703,124.865C342.195,103.752 355.559,85.767 360.262,80.052C370.66,67.49 386.938,56.986 402.621,52.06ZM444.918,215.904C477.137,215.904 500.238,223.08 527.367,248.927C484.031,282.041 466.203,340.345 470.141,396.33C474.203,454.427 503.906,514.611 553.426,541.396C543.496,562.556 538.676,570.873 523.887,593.302C498.121,632.662 469.004,672.72 432.316,673.095L431.676,673.095C416.969,673.095 407.574,668.779 394.566,662.826C377.789,655.134 356.879,645.552 321.672,645.552L320.605,645.552C285.191,645.763 263.914,655.236 246.816,662.853C233.434,668.822 223.758,673.134 208.891,673.134L207.98,673.134C170.242,672.849 137.523,630.33 113.234,593.306C36.383,476.287 36.508,349.002 75.625,288.677C104.844,243.806 150.566,215.951 194.938,215.951C218.012,215.951 236.738,222.623 256.582,229.693C276.172,236.666 296.426,243.888 320.129,243.888C342.617,243.888 360.723,237.045 378.227,230.427C397.102,223.287 416.645,215.904 444.922,215.904L444.918,215.904ZM444.926,0.615C406.324,3.232 361.285,27.826 334.906,59.724C310.98,88.802 291.23,131.861 298.977,173.709C300,173.744 301,173.752 302.012,173.752C343.098,173.752 385.18,149.084 409.875,117.4C433.547,87.076 451.445,44.357 444.926,0.615ZM459.203,169.033C394.18,169.033 366.766,199.884 321.625,199.884C275.227,199.884 239.871,169.084 183.609,169.084C128.382,169.084 69.75,202.604 32.433,259.92C-19.832,340.521 -10.973,492.119 73.941,621.416C104.223,667.576 144.832,719.588 197.82,720.002L198.996,720.002C245.25,720.002 258.84,689.963 322.293,689.584L323.332,689.584C385.977,689.584 398.441,719.951 444.605,719.951L445.52,719.951C498.551,719.4 541.352,661.869 571.586,615.681C593.414,582.599 601.523,565.853 618.445,528.392C495.703,482.002 475.898,308.584 597.41,241.986C560.371,195.759 508.332,169.033 459.207,169.033L459.203,169.033Z" style="fill:rgb(51,51,51);fill-rule:nonzero;"/>
                </g>
            </g>
        </g>
    </g>
</svg>
