<?xml version="1.0" encoding="UTF-8" standalone="no"?>
<!DOCTYPE svg PUBLIC "-//W3C//DTD SVG 1.1//EN" "http://www.w3.org/Graphics/SVG/1.1/DTD/svg11.dtd">
<svg width="100%" height="100%" viewBox="0 0 78 78" version="1.1" xmlns="http://www.w3.org/2000/svg" xmlns:xlink="http://www.w3.org/1999/xlink" xml:space="preserve" xmlns:serif="http://www.serif.com/" style="fill-rule:evenodd;clip-rule:evenodd;stroke-linejoin:round;stroke-miterlimit:1.41421;">
    <g transform="matrix(5.55556,0,0,5.55556,-994.444,-2294.44)">
        <g transform="matrix(1,0,0,1,0,28)">
            <path d="M186,385C189.863,385 193,388.137 193,392C193,395.863 189.863,399 186,399C182.137,399 179,395.863 179,392C179,388.137 182.137,385 186,385ZM187.688,388.5C188.816,388.5 189.733,389.348 189.733,390.398C189.733,390.724 189.64,391.043 189.469,391.331C189.212,391.751 188.8,392.062 188.302,392.21C188.17,392.249 188.069,392.264 187.976,392.264C187.758,392.264 187.587,392.093 187.587,391.876C187.587,391.658 187.758,391.487 187.976,391.487C187.991,391.487 188.022,391.487 188.061,391.471C188.396,391.378 188.66,391.183 188.808,390.927C188.909,390.763 188.956,390.584 188.956,390.398C188.956,389.783 188.388,389.278 187.696,389.278C187.454,389.278 187.221,389.34 187.011,389.457C186.646,389.667 186.428,390.017 186.428,390.398L186.428,393.657C186.428,394.318 186.062,394.924 185.456,395.267C185.129,395.453 184.763,395.547 184.39,395.547C183.262,395.547 182.344,394.699 182.344,393.649C182.344,393.322 182.438,393.003 182.609,392.716C182.866,392.296 183.278,391.984 183.776,391.837C183.916,391.798 184.009,391.782 184.102,391.782C184.32,391.782 184.491,391.953 184.491,392.171C184.491,392.389 184.32,392.56 184.102,392.56C184.087,392.56 184.056,392.56 184.017,392.576C183.682,392.677 183.418,392.871 183.27,393.12C183.169,393.283 183.122,393.462 183.122,393.649C183.122,394.263 183.69,394.769 184.39,394.769C184.631,394.769 184.864,394.707 185.074,394.59C185.44,394.38 185.658,394.03 185.658,393.649L185.658,390.398C185.658,389.737 186.023,389.13 186.63,388.788C186.949,388.593 187.314,388.5 187.688,388.5Z" style="fill:rgb(51,51,51);"/>
        </g>
    </g>
</svg>
