<svg xmlns="http://www.w3.org/2000/svg" viewBox="0 0 14 14"><defs><style>.cls-1{fill:none;}.cls-2{fill:#323333;}</style></defs><title>mini-game</title><g id="图层_2" data-name="图层 2"><g id="图层_1-2" data-name="图层 1"><g id="mini-game"><path class="cls-2" d="M12.07,6.32a.35.35,0,0,1-.1.24.36.36,0,0,1-.25.11h-.59a.5.5,0,0,0-.5.5v.58a.34.34,0,0,1-.35.35h0A.35.35,0,0,1,10,8a.37.37,0,0,1-.1-.25V7.17a.5.5,0,0,0-.5-.5H8.85a.33.33,0,0,1-.25-.11.31.31,0,0,1-.1-.24h0A.34.34,0,0,1,8.85,6h.58a.5.5,0,0,0,.5-.5V4.92a.36.36,0,0,1,.1-.25.35.35,0,0,1,.25-.1h0a.33.33,0,0,1,.25.1.32.32,0,0,1,.1.25v.55a.51.51,0,0,0,.5.5h.59a.35.35,0,0,1,.25.1.36.36,0,0,1,.1.25ZM3.91,8.14a1.82,1.82,0,0,1,0-3.64A1.81,1.81,0,0,1,5.73,6.32,1.83,1.83,0,0,1,3.91,8.14Zm10,.35c-.46-4-1.27-6.8-3.82-6.8C8.81,1.69,8.15,3,7,3.13,5.8,3,5.17,1.69,3.87,1.69,1.32,1.69.51,4.53.09,8.45c-.25,2.1,0,3.86,1.26,3.86,1.82,0,1.89-1.65,3.19-2.42A7.67,7.67,0,0,1,7,9.5a7.66,7.66,0,0,1,2.48.39c1.3.77,1.37,2.42,3.19,2.42C14,12.34,14.14,10.59,13.93,8.49Z"/><path class="cls-2" d="M2.86,6.32a1,1,0,0,0,.31.73,1.1,1.1,0,0,0,.74.32,1,1,0,0,0,.73-.32A1.05,1.05,0,0,0,5,6.32a1,1,0,0,0-.32-.74,1.09,1.09,0,0,0-.73-.31,1,1,0,0,0-.74.31A1,1,0,0,0,2.86,6.32Z"/></g></g></g></svg>