<?xml version="1.0" encoding="UTF-8" standalone="no"?>
<!DOCTYPE svg PUBLIC "-//W3C//DTD SVG 1.1//EN" "http://www.w3.org/Graphics/SVG/1.1/DTD/svg11.dtd">
<svg width="100%" height="100%" viewBox="0 0 78 78" version="1.1" xmlns="http://www.w3.org/2000/svg" xmlns:xlink="http://www.w3.org/1999/xlink" xml:space="preserve" xmlns:serif="http://www.serif.com/" style="fill-rule:evenodd;clip-rule:evenodd;stroke-linejoin:round;stroke-miterlimit:1.41421;">
    <g transform="matrix(5.55556,0,0,5.55556,-1127.78,-2294.44)">
        <g transform="matrix(1,0,0,1,7.10543e-15,377)">
            <g>
                <g transform="matrix(0.608696,0,0,0.608696,190.826,26.8696)">
                    <rect x="20" y="15" width="23" height="23" style="fill:none;"/>
                </g>
                <g transform="matrix(0.0171027,0,0,0.0171027,203.001,37.686)">
                    <path d="M594.43,0.456L597.878,0.547L601.289,0.698L604.664,0.909L608.001,1.179L611.302,1.509L614.568,1.898L617.797,2.346L620.991,2.851L624.149,3.416L627.272,4.038L630.361,4.717L633.414,5.454L636.433,6.248L639.418,7.099L642.369,8.006L645.286,8.969L648.17,9.988L651.02,11.063L653.838,12.193L656.622,13.378L659.374,14.618L662.094,15.912L664.781,17.26L667.437,18.663L670.061,20.118L672.653,21.627L675.215,23.189L677.745,24.804L680.245,26.471L682.714,28.191L685.153,29.962L687.562,31.784L689.942,33.658L692.291,35.583L694.612,37.559L696.903,39.585L699.166,41.661L701.4,43.788L703.605,45.963L705.783,48.188L707.933,50.462L710.055,52.784L712.149,55.155L714.216,57.574L716.257,60.041L718.27,62.556L720.258,65.117L722.219,67.726L724.154,70.382L726.063,73.083L727.946,75.831L729.805,78.625L731.638,81.464L733.446,84.348L735.23,87.278L738.725,93.27L742.123,99.439L745.429,105.782L748.642,112.297L751.765,118.982L754.801,125.833L757.75,132.85L760.614,140.029L763.396,147.368L766.098,154.865L768.721,162.519L771.267,170.325L773.737,178.283L776.135,186.389L778.462,194.642L780.719,203.04L782.908,211.579L785.032,220.258L787.093,229.074L789.091,238.025L791.029,247.109L792.91,256.324L794.734,265.666L796.503,275.135L798.22,284.727L799.887,294.44L801.505,304.272L803.076,314.221L804.601,324.285L806.084,334.46L807.526,344.745L808.928,355.138L810.292,365.636L811.621,376.237L812.917,386.938L814.18,397.738L815.264,409.195L816.209,420.517L817.008,431.689L817.651,442.694L818.133,453.517L818.445,464.144L818.535,469.379L818.58,474.559L818.579,479.682L818.531,484.746L818.434,489.749L818.289,494.69L818.094,499.566L817.848,504.375L817.551,509.117L817.201,513.787L816.797,518.386L816.338,522.91L815.825,527.358L815.254,531.728L814.626,536.018L813.94,540.227L813.195,544.351L812.39,548.39L811.523,552.341L810.595,556.202L809.603,559.972L808.547,563.649L807.427,567.23L806.241,570.714L804.988,574.099L803.667,577.382L802.278,580.563L800.819,583.638L799.289,586.607L797.689,589.467L796.015,592.216L794.269,594.853L792.448,597.375L790.552,599.78L788.58,602.068L786.531,604.234L784.404,606.279L782.198,608.199L779.912,609.993L777.545,611.66L775.097,613.196L772.566,614.6L769.951,615.871L767.252,617.006L764.467,618.003L761.595,618.861L758.637,619.577L755.59,620.15L752.454,620.578L749.227,620.858L745.91,620.989L742.5,620.969L737.582,620.899L732.811,620.692L728.181,620.35L723.689,619.877L719.332,619.277L715.105,618.553L711.003,617.707L707.024,616.745L703.163,615.669L699.416,614.482L695.779,613.187L692.248,611.789L688.82,610.291L685.49,608.695L682.254,607.005L679.108,605.225L676.048,603.358L673.071,601.408L670.172,599.377L667.347,597.269L664.593,595.088L661.904,592.837L659.279,590.519L656.711,588.137L654.198,585.696L651.736,583.198L649.319,580.647L646.946,578.046L644.61,575.398L642.309,572.707L640.039,569.977L637.795,567.21L633.37,561.58L629.004,555.846L620.318,544.17L615.935,538.282L611.483,532.398L606.929,526.543L602.242,520.745L599.839,517.876L597.39,515.032L594.892,512.215L592.341,509.429L589.733,506.678L587.064,503.965L584.329,501.292L581.525,498.665L578.649,496.085L575.695,493.557L572.66,491.084L569.54,488.669L566.331,486.315L563.028,484.026L559.629,481.805L556.129,479.656L553.34,478.336L550.356,477.063L547.184,475.837L543.833,474.656L540.311,473.521L536.626,472.429L532.787,471.382L528.801,470.377L524.677,469.414L520.424,468.492L516.049,467.611L511.561,466.769L506.968,465.967L502.278,465.202L497.5,464.476L492.641,463.786L482.716,462.513L472.569,461.378L462.267,460.375L451.874,459.498L441.457,458.741L431.082,458.098L420.816,457.562L410.723,457.129L400.63,457.562L390.362,458.098L379.987,458.741L369.57,459.498L359.177,460.375L348.874,461.378L338.728,462.513L328.803,463.786L323.944,464.476L319.166,465.202L314.476,465.967L309.883,466.769L305.395,467.611L301.02,468.492L296.767,469.414L292.644,470.377L288.658,471.382L284.819,472.429L281.134,473.521L277.612,474.656L274.261,475.837L271.089,477.063L268.105,478.336L265.316,479.656L261.816,481.805L258.417,484.026L255.114,486.315L251.905,488.669L248.785,491.084L245.75,493.557L242.796,496.085L239.92,498.665L237.116,501.292L234.381,503.965L231.712,506.678L229.104,509.429L226.553,512.215L224.055,515.032L221.606,517.876L219.203,520.745L214.516,526.543L209.962,532.398L205.51,538.282L201.127,544.17L192.441,555.846L188.075,561.58L183.65,567.21L181.406,569.977L179.136,572.707L176.835,575.398L174.499,578.046L172.126,580.647L169.709,583.198L167.247,585.696L164.734,588.137L162.166,590.519L159.541,592.837L156.852,595.088L154.098,597.269L151.273,599.377L148.374,601.408L145.397,603.358L142.337,605.225L139.191,607.005L135.955,608.695L132.625,610.291L129.197,611.789L125.666,613.187L122.029,614.482L118.282,615.669L114.421,616.745L110.442,617.707L106.34,618.553L102.113,619.277L97.756,619.877L93.264,620.35L88.634,620.692L83.863,620.899L78.945,620.969L75.439,620.894L72.026,620.672L68.704,620.302L65.473,619.789L62.331,619.133L59.277,618.337L56.312,617.401L53.434,616.329L50.642,615.122L47.936,613.782L45.314,612.31L42.775,610.709L40.32,608.981L37.947,607.127L35.654,605.149L33.443,603.049L31.31,600.83L29.257,598.492L27.281,596.038L25.382,593.469L23.559,590.788L21.812,587.997L20.138,585.097L18.539,582.089L17.012,578.977L15.557,575.762L14.174,572.445L12.86,569.029L11.616,565.516L10.44,561.907L9.332,558.204L8.291,554.41L7.316,550.525L6.406,546.552L5.56,542.493L4.778,538.35L4.059,534.124L3.401,529.817L2.804,525.432L2.267,520.97L1.79,516.433L1.371,511.823L1.009,507.141L0.704,502.39L0.455,497.572L0.261,492.688L0.122,487.74L0.035,482.73L0.001,477.661L0.019,472.533L0.088,467.349L0.206,462.11L0.374,456.82L0.59,451.478L0.853,446.088L1.163,440.651L1.919,429.643L2.852,418.471L3.954,407.148L5.219,395.691L6.388,384.986L7.591,374.376L8.831,363.864L10.11,353.451L11.429,343.142L12.79,332.937L14.195,322.839L15.646,312.85L17.145,302.973L18.693,293.211L20.292,283.564L21.945,274.037L23.652,264.63L25.416,255.348L27.239,246.19L29.122,237.162L31.067,228.263L33.077,219.498L35.152,210.867L37.295,202.374L39.508,194.022L41.792,185.811L44.149,177.745L46.582,169.825L49.091,162.055L51.679,154.437L54.347,146.973L57.098,139.664L59.933,132.515L62.854,125.526L65.863,118.701L68.962,112.041L72.152,105.55L75.435,99.229L78.814,93.08L82.289,87.106L84.064,84.186L85.864,81.31L87.688,78.479L89.539,75.694L91.414,72.954L93.316,70.26L95.244,67.611L97.198,65.01L99.178,62.454L101.186,59.946L103.22,57.485L105.281,55.072L107.37,52.707L109.487,50.39L111.632,48.121L113.804,45.901L116.005,43.73L118.235,41.608L120.493,39.536L122.781,37.514L125.098,35.542L127.444,33.62L129.82,31.749L132.226,29.93L134.662,28.162L137.129,26.445L139.626,24.78L142.154,23.168L144.713,21.608L147.304,20.101L149.926,18.647L152.579,17.247L155.265,15.9L157.983,14.607L160.734,13.369L163.517,12.185L166.333,11.056L169.183,9.983L172.066,8.964L174.982,8.002L177.932,7.096L180.916,6.245L183.935,5.452L186.988,4.716L190.076,4.036L193.199,3.415L196.357,2.851L199.55,2.345L202.78,1.898L206.045,1.509L209.346,1.179L212.684,0.909L216.058,0.698L219.469,0.547L222.917,0.456L226.402,0.426L229.926,0.482L233.394,0.649L236.809,0.924L240.172,1.302L243.484,1.78L246.748,2.355L249.964,3.023L253.135,3.782L256.262,4.627L259.346,5.556L262.39,6.564L265.395,7.649L268.363,8.806L271.295,10.033L274.193,11.326L277.059,12.682L279.894,14.097L282.7,15.568L285.478,17.091L288.231,18.664L290.959,20.281L293.665,21.941L299.015,25.374L304.295,28.934L309.518,32.595L314.696,36.328L319.843,40.106L330.097,47.69L335.229,51.44L340.383,55.126L345.572,58.721L350.808,62.197L353.448,63.882L356.105,65.526L358.78,67.128L361.476,68.682L364.193,70.187L366.933,71.637L369.699,73.031L372.491,74.364L375.312,75.633L378.162,76.835L381.044,77.966L383.96,79.023L386.91,80.002L389.897,80.9L392.922,81.714L395.986,82.439L399.092,83.074L402.242,83.613L405.436,84.055L408.676,84.395L411.823,84.055L414.93,83.613L417.997,83.074L421.028,82.439L424.022,81.714L426.982,80.9L429.908,80.002L432.803,79.023L435.669,77.966L438.505,76.835L441.315,75.633L444.099,74.364L446.859,73.031L449.597,71.637L452.314,70.187L455.011,68.682L457.69,67.128L460.353,65.526L465.635,62.197L470.869,58.721L476.067,55.126L481.241,51.44L486.403,47.69L496.739,40.106L501.937,36.328L507.171,32.595L512.453,28.934L517.795,25.374L523.209,21.941L525.946,20.281L528.707,18.664L531.491,17.091L534.301,15.568L537.137,14.097L540.002,12.682L542.898,11.326L545.824,10.033L548.784,8.806L551.778,7.649L554.808,6.564L557.876,5.556L560.983,4.627L564.13,3.782L567.319,3.023L570.552,2.355L573.829,1.78L577.154,1.302L580.526,0.924L583.947,0.649L587.42,0.482L590.945,0.426L594.43,0.456ZM589.307,58.93L587.7,59.008L586.098,59.136L584.559,59.307L583.053,59.524L581.546,59.789L580.01,60.107L578.482,60.47L576.93,60.887L575.378,61.35L573.812,61.866L572.166,62.455L570.522,63.09L568.837,63.789L567.104,64.554L565.345,65.378L563.54,66.269L561.702,67.222L559.821,68.243L557.871,69.345L555.881,70.51L554.023,71.636L549.671,74.396L545.316,77.299L540.798,80.428L536.108,83.775L531.22,87.327L520.878,94.914L515.396,98.897L509.668,102.981L503.674,107.125L497.399,111.293L491.006,115.321L487.439,117.466L483.933,119.502L480.323,121.515L476.633,123.485L472.838,125.417L468.941,127.299L464.946,129.12L460.833,130.88L456.611,132.563L452.292,134.155L447.856,135.656L443.308,137.051L438.666,138.327L433.915,139.48L429.058,140.497L424.099,141.37L419.067,142.082L414.959,142.526L410.833,142.825L406.696,142.831L402.569,142.545L398.391,142.106L393.313,141.407L388.301,140.548L383.388,139.544L378.583,138.405L373.884,137.142L369.277,135.757L364.782,134.264L360.405,132.678L356.12,130.997L351.955,129.24L347.904,127.418L343.941,125.526L340.096,123.588L336.355,121.608L332.699,119.584L329.152,117.537L325.7,115.471L322.339,113.391L318.918,111.209L312.753,107.116L306.718,102.936L300.965,98.818L295.468,94.802L285.161,87.18L280.292,83.606L275.644,80.253L271.176,77.124L266.876,74.225L262.582,71.469L260.767,70.355L258.822,69.203L256.903,68.106L255.054,67.092L253.264,66.153L251.5,65.273L249.784,64.461L248.1,63.711L246.455,63.022L244.855,62.398L243.253,61.82L241.724,61.313L240.21,60.858L238.7,60.449L237.207,60.093L235.703,59.779L234.225,59.519L232.742,59.304L231.223,59.135L229.635,59.007L228.037,58.929L226.193,58.9L223.955,58.92L221.542,58.984L219.164,59.089L216.865,59.232L214.621,59.415L212.388,59.638L210.23,59.893L208.145,60.182L206.066,60.512L204.06,60.869L202.076,61.266L200.114,61.697L198.222,62.153L196.349,62.645L194.536,63.161L192.74,63.714L190.96,64.301L189.237,64.909L187.524,65.556L185.838,66.231L184.182,66.936L182.533,67.678L180.932,68.439L179.331,69.243L177.752,70.075L176.196,70.939L174.617,71.857L173.094,72.784L171.565,73.761L170.033,74.78L168.551,75.812L167.043,76.908L165.532,78.05L164.049,79.217L162.578,80.422L161.104,81.676L159.632,82.978L158.151,84.338L156.685,85.732L155.24,87.157L153.78,88.65L152.322,90.192L150.867,91.785L149.426,93.416L147.992,95.095L146.542,96.85L145.109,98.639L143.685,100.476L142.256,102.379L140.843,104.319L139.432,106.32L138.018,108.386L136.608,110.508L135.22,112.66L133.836,114.873L132.546,116.995L129.713,121.864L127.008,126.788L124.341,131.921L121.712,137.273L119.125,142.831L116.585,148.595L114.089,154.565L111.641,160.739L109.242,167.114L106.893,173.685L104.595,180.446L102.352,187.394L100.161,194.526L98.022,201.849L95.936,209.344L93.904,217.016L91.925,224.858L90,232.863L88.126,241.038L86.303,249.379L84.531,257.87L82.811,266.512L81.139,275.31L79.515,284.256L77.939,293.341L76.41,302.567L74.925,311.938L73.483,321.44L72.084,331.07L70.725,340.832L69.407,350.719L68.126,360.724L66.883,370.852L65.674,381.097L64.499,391.455L63.34,402.074L62.112,413.188L61.087,423.734L60.223,434.081L59.519,444.318L59.242,449.177L59.002,454.088L58.806,458.927L58.655,463.699L58.549,468.395L58.488,473.018L58.472,477.571L58.502,482.031L58.578,486.408L58.699,490.701L58.866,494.898L59.078,499.009L59.335,503.02L59.637,506.928L59.982,510.725L60.371,514.417L60.802,518.001L61.273,521.46L61.783,524.803L62.331,528.018L62.914,531.11L63.528,534.058L64.175,536.878L64.847,539.559L65.539,542.08L66.252,544.462L66.983,546.705L67.718,548.782L68.452,550.69L69.184,552.447L69.906,554.041L70.611,555.478L71.29,556.754L71.933,557.87L72.533,558.827L73.082,559.636L73.573,560.3L74.007,560.839L74.382,561.265L74.684,561.58L74.906,561.79L75.064,561.927L75.162,562.003L75.213,562.039L75.233,562.052L75.238,562.054L75.256,562.062L75.332,562.09L75.463,562.132L75.696,562.192L76.038,562.264L76.523,562.341L77.175,562.414L77.961,562.465L79.153,562.49L82.184,562.447L85.207,562.316L88.04,562.106L90.712,561.825L93.181,561.486L95.493,561.088L97.677,560.639L99.692,560.152L101.593,559.621L103.392,559.052L105.086,558.449L106.724,557.8L108.285,557.118L109.773,556.405L111.247,555.635L112.716,554.803L114.141,553.935L115.561,553.004L117.011,551.988L118.466,550.902L119.934,549.741L121.408,548.506L122.931,547.161L124.479,545.726L126.05,544.199L127.655,542.571L129.292,540.842L130.976,538.996L132.697,537.045L134.437,535.012L136.213,532.875L137.958,530.723L141.826,525.804L145.72,520.687L154.219,509.264L158.745,503.183L163.571,496.805L168.702,490.21L174.05,483.594L177.035,480.029L180.022,476.56L183.114,473.072L186.321,469.572L189.652,466.056L193.107,462.546L196.685,459.049L200.411,455.557L204.262,452.105L208.261,448.681L212.415,445.295L216.715,441.967L221.163,438.705L225.764,435.515L230.525,432.405L234.729,429.824L237.473,428.241L240.298,426.808L244.108,425.005L249.068,422.887L254.016,420.975L258.932,419.246L263.851,417.659L268.805,416.191L273.82,414.821L278.852,413.555L283.922,412.369L289.051,411.259L294.224,410.215L299.474,409.231L304.75,408.311L310.066,407.444L315.435,406.628L320.972,405.84L331.761,404.458L342.79,403.224L353.885,402.144L364.991,401.206L376.062,400.402L387.029,399.723L397.851,399.157L410.724,398.605L423.594,399.157L434.415,399.723L445.383,400.402L456.453,401.206L467.558,402.144L478.653,403.224L489.684,404.458L500.47,405.84L506.009,406.627L511.38,407.444L516.694,408.311L521.97,409.23L527.22,410.215L532.394,411.259L537.523,412.369L542.593,413.555L547.624,414.821L552.64,416.191L557.593,417.659L562.513,419.246L567.428,420.975L572.376,422.887L577.337,425.005L581.146,426.808L583.972,428.241L586.716,429.824L590.916,432.402L595.683,435.515L600.286,438.708L604.725,441.963L609.026,445.292L613.19,448.685L617.187,452.109L621.034,455.557L624.76,459.049L628.337,462.546L631.792,466.056L635.124,469.572L638.325,473.067L641.424,476.56L644.414,480.035L647.392,483.591L652.744,490.21L657.876,496.809L662.7,503.183L667.226,509.264L675.722,520.684L679.618,525.8L683.493,530.73L685.237,532.882L687.007,535.012L688.748,537.045L690.468,538.996L692.152,540.842L693.784,542.566L695.396,544.199L696.966,545.726L698.509,547.156L700.043,548.511L701.511,549.741L702.979,550.902L704.439,551.992L705.879,553.001L707.3,553.932L708.734,554.806L710.202,555.637L711.671,556.405L713.156,557.116L714.722,557.8L716.362,558.45L718.052,559.052L719.849,559.621L721.752,560.151L723.771,560.639L725.952,561.088L728.265,561.486L730.733,561.825L733.404,562.106L736.239,562.316L739.261,562.447L743.086,562.501L744.936,562.512L745.495,562.49L745.767,562.146L746.17,561.587L746.649,560.864L747.182,559.987L747.775,558.928L748.404,557.709L749.06,556.326L749.738,554.772L750.435,553.038L751.139,551.137L751.84,549.078L752.54,546.841L753.224,544.461L753.889,541.929L754.537,539.236L755.158,536.408L755.75,533.438L756.312,530.325L756.841,527.082L757.335,523.708L757.79,520.217L758.207,516.61L758.585,512.881L758.922,509.04L759.218,505.104L759.471,501.05L759.684,496.902L759.853,492.662L759.981,488.327L760.066,483.913L760.108,479.401L760.109,474.805L760.069,470.132L759.99,465.502L759.701,455.677L759.257,445.702L758.659,435.479L757.913,425.034L757.024,414.384L756.03,403.888L754.856,393.847L753.59,383.389L752.293,373.042L750.963,362.815L749.601,352.71L748.203,342.736L746.767,332.888L745.292,323.163L743.779,313.577L742.224,304.129L740.628,294.821L738.988,285.661L737.301,276.641L735.57,267.769L733.791,259.053L731.966,250.497L730.09,242.096L728.166,233.858L726.191,225.795L724.165,217.893L722.088,210.165L719.959,202.613L717.78,195.243L715.548,188.058L713.267,181.06L710.935,174.257L708.551,167.642L706.12,161.226L703.642,155.018L701.115,149.006L698.544,143.204L695.929,137.607L693.274,132.223L690.586,127.063L687.857,122.113L684.997,117.206L683.701,115.077L682.313,112.864L680.899,110.676L679.481,108.541L678.077,106.494L676.652,104.478L675.218,102.51L673.783,100.601L672.352,98.756L670.911,96.958L669.458,95.201L668.007,93.502L666.558,91.862L665.101,90.268L663.636,88.718L662.176,87.225L660.719,85.789L659.241,84.383L657.767,83.029L656.297,81.73L654.804,80.459L653.321,79.243L651.834,78.073L650.334,76.937L648.832,75.847L647.312,74.789L645.794,73.777L644.261,72.798L642.71,71.852L641.166,70.953L639.606,70.088L638.02,69.251L636.422,68.449L634.792,67.673L633.158,66.937L631.505,66.233L629.821,65.558L628.122,64.917L626.374,64.3L624.614,63.718L622.817,63.167L620.981,62.643L619.129,62.156L617.212,61.694L615.273,61.267L613.29,60.872L611.282,60.512L609.226,60.188L607.096,59.893L604.937,59.636L602.726,59.415L600.482,59.232L598.182,59.089L595.806,58.984L593.393,58.92L591.154,58.9L589.307,58.93Z" style="fill:rgb(51,51,51);"/>
                    <path d="M251.624,165.798C306.639,165.798 351.304,210.463 351.304,265.478C351.304,320.492 306.639,365.157 251.624,365.157C196.61,365.157 151.945,320.492 151.945,265.478C151.945,210.463 196.61,165.798 251.624,165.798ZM251.624,207.128C283.828,207.128 309.974,233.274 309.974,265.478C309.974,297.682 283.828,323.827 251.624,323.827C219.421,323.827 193.275,297.682 193.275,265.478C193.275,233.274 219.421,207.128 251.624,207.128Z" style="fill:rgb(51,51,51);"/>
                    <g transform="matrix(20.0776,0,0,20.0776,-3919.97,-7604.32)">
                        <circle cx="207.773" cy="391.968" r="1.799" style="fill:rgb(51,51,51);"/>
                    </g>
                    <path d="M451.675,266.113C451.675,253.196 462.146,242.725 475.063,242.725C489.502,242.725 507.405,242.725 518.916,242.725C522.018,242.725 524.992,241.493 527.185,239.3C529.378,237.107 530.61,234.132 530.61,231.031C530.61,219.519 530.61,201.617 530.61,187.178C530.611,174.261 541.082,163.79 553.999,163.79C553.999,163.79 553.999,163.79 553.999,163.79C566.915,163.79 577.386,174.261 577.387,187.178C577.387,201.617 577.387,219.519 577.387,231.031C577.387,234.132 578.619,237.107 580.812,239.3C583.005,241.493 585.979,242.725 589.081,242.725C600.592,242.725 618.495,242.725 632.934,242.725C645.851,242.725 656.322,253.196 656.322,266.113C656.322,266.113 656.322,266.113 656.322,266.113C656.322,279.03 645.851,289.501 632.934,289.501C618.495,289.501 600.592,289.501 589.081,289.501C585.979,289.501 583.005,290.733 580.812,292.926C578.619,295.119 577.387,298.094 577.387,301.196C577.387,312.707 577.387,330.609 577.387,345.048C577.386,357.965 566.915,368.436 553.999,368.436C553.999,368.436 553.999,368.436 553.999,368.436C541.082,368.436 530.611,357.965 530.61,345.048C530.61,330.609 530.61,312.707 530.61,301.196C530.61,298.094 529.378,295.119 527.185,292.926C524.992,290.733 522.018,289.501 518.916,289.501C507.405,289.501 489.502,289.501 475.063,289.501C462.146,289.501 451.675,279.03 451.675,266.113C451.675,266.113 451.675,266.113 451.675,266.113Z" style="fill:rgb(51,51,51);"/>
                </g>
            </g>
        </g>
    </g>
</svg>
