<?xml version="1.0" encoding="UTF-8" standalone="no"?>
<!DOCTYPE svg PUBLIC "-//W3C//DTD SVG 1.1//EN" "http://www.w3.org/Graphics/SVG/1.1/DTD/svg11.dtd">
<svg width="100%" height="100%" viewBox="0 0 78 78" version="1.1" xmlns="http://www.w3.org/2000/svg" xmlns:xlink="http://www.w3.org/1999/xlink" xml:space="preserve" xmlns:serif="http://www.serif.com/" style="fill-rule:evenodd;clip-rule:evenodd;stroke-linejoin:round;stroke-miterlimit:1.41421;">
    <g transform="matrix(5.55556,0,0,5.55556,-994.444,-1983.33)">
        <g transform="matrix(1,0,0,1,7.10543e-15,321)">
            <g>
                <g transform="matrix(0.608696,0,0,0.608696,166.826,26.8696)">
                    <rect x="20" y="15" width="23" height="23" style="fill:none;"/>
                </g>
                <g transform="matrix(0.0189887,0,0,0.0189887,179.017,35.9863)">
                    <path d="M457.523,185.04C516.914,185.04 565.246,229.685 565.246,284.982C565.246,302.185 560.332,318.978 551.32,334.134C537.805,356.251 516.098,372.638 489.883,380.419C482.918,382.466 477.594,383.286 472.68,383.286C461.211,383.286 452.199,374.275 452.199,362.806C452.199,351.337 461.211,342.325 472.68,342.325C473.496,342.325 475.137,342.325 477.184,341.509C494.797,336.591 508.723,326.353 516.504,312.833C521.831,304.232 524.289,294.814 524.289,284.982C524.289,252.622 494.387,226.001 457.934,226.001C445.234,226.001 432.945,229.279 421.887,235.419C402.637,246.482 391.168,264.911 391.168,284.982L391.168,456.607C391.168,491.419 371.918,523.368 339.969,541.392C322.766,551.224 303.512,556.138 283.852,556.138C224.461,556.138 176.129,511.49 176.129,456.197C176.129,438.993 181.043,422.197 190.055,407.044C203.57,384.923 225.281,368.54 251.496,360.759C258.867,358.712 263.781,357.892 268.699,357.892C280.168,357.892 289.176,366.904 289.176,378.372C289.176,389.841 280.168,398.853 268.699,398.853C267.879,398.853 266.238,398.853 264.191,399.669C246.578,404.993 232.652,415.236 224.871,428.341C219.547,436.943 217.09,446.365 217.09,456.197C217.09,488.552 246.988,515.177 283.852,515.177C296.551,515.177 308.84,511.9 319.898,505.755C339.148,494.697 350.617,476.267 350.617,456.197L350.617,284.982C350.617,250.165 369.867,218.216 401.816,200.197C418.609,189.954 437.863,185.04 457.523,185.04ZM40.961,369.361C40.961,550.404 187.598,697.04 368.641,697.04C549.684,697.04 696.32,550.404 696.32,369.361C696.32,188.318 549.684,41.681 368.641,41.681C187.598,41.681 40.961,188.318 40.961,369.361ZM0,369.361C0,165.79 165.07,0.72 368.641,0.72C572.211,0.72 737.281,165.79 737.281,369.361C737.281,572.931 572.211,738.001 368.641,738.001C165.07,738.001 0,572.931 0,369.361Z" style="fill:rgb(51,51,51);fill-rule:nonzero;"/>
                </g>
            </g>
        </g>
    </g>
</svg>
