<svg xmlns="http://www.w3.org/2000/svg" viewBox="0 0 14 14"><defs><style>.cls-1{fill:none;}.cls-2{fill:#323333;fill-rule:evenodd;}</style></defs><title>mobile-o</title><g id="图层_2" data-name="图层 2"><g id="图层_1-2" data-name="图层 1"><g id="mobile-o"><path class="cls-2" d="M8.5,11a.5.5,0,0,1,0,1h-3a.5.5,0,0,1,0-1ZM8.14,1.72A.51.51,0,0,1,7.69,2H6.31a.51.51,0,0,1-.45-.28l-.22-.44A.51.51,0,0,0,5.19,1H3.5a.5.5,0,0,0-.5.5v11a.5.5,0,0,0,.5.5h7a.5.5,0,0,0,.5-.5V1.5a.5.5,0,0,0-.5-.5H8.81a.51.51,0,0,0-.45.28ZM12,13a1,1,0,0,1-1,1H3a1,1,0,0,1-1-1V1A1,1,0,0,1,3,0h8a1,1,0,0,1,1,1Z"/></g></g></g></svg>