<?xml version="1.0" standalone="no"?><!DOCTYPE svg PUBLIC "-//W3C//DTD SVG 1.1//EN" "http://www.w3.org/Graphics/SVG/1.1/DTD/svg11.dtd"><svg t="1574411955528" class="icon" viewBox="0 0 1024 1024" version="1.1" xmlns="http://www.w3.org/2000/svg" p-id="11503" xmlns:xlink="http://www.w3.org/1999/xlink" width="64" height="64"><defs><style type="text/css"></style></defs><path d="M96.532991 276.971425l-35.252238-23.769663a137.352082 137.352082 0 0 1-36.568712-192.936525 142.837389 142.837389 0 0 1 196.373983-35.837337l92.518842 62.313085a488.046031 488.046031 0 0 1 198.202419-41.688332c266.87846 0 483.511511 212.976179 483.51151 475.173844a466.324216 466.324216 0 0 1-61.142886 231.333673l28.450458 19.162005a137.42522 137.42522 0 0 1 36.495574 192.936525 142.764252 142.764252 0 0 1-196.300846 35.983612l-77.964494-52.658945a488.777405 488.777405 0 0 1-212.976179 48.56325c-266.951598 0-483.584648-212.976179-483.584648-475.32012 0-88.788833 24.866724-172.092359 68.237217-243.255072z m795.588899 536.682418c-27.572809 34.447727-59.972688 65.092307-95.9563 90.909818l48.855799 32.984978a65.969957 65.969957 0 0 0 90.836681-16.602195 63.483284 63.483284 0 0 0-16.894745-89.15452l-26.841435-18.138081zM159.723725 319.610543a392.455418 392.455418 0 0 0-54.926205 200.615954c0 220.875021 182.404736 400.06171 407.082902 400.06171 127.990492 0 242.377423-58.21739 317.050734-149.200345L159.723725 319.610543z m711.115175 389.237371a392.528555 392.528555 0 0 0 48.124425-188.621417c0-220.801883-182.477873-400.06171-407.082903-400.061709A409.057613 409.057613 0 0 0 203.825592 258.906481l667.013308 450.014571zM239.736067 127.47853l-60.923474-41.103232a66.043094 66.043094 0 0 0-90.690406 16.602195 63.556422 63.556422 0 0 0 16.821608 89.227657l35.47165 23.915938c28.743008-33.862627 62.16681-63.702696 99.320622-88.642558z" p-id="11504"></path></svg>