<?xml version="1.0" standalone="no"?><!DOCTYPE svg PUBLIC "-//W3C//DTD SVG 1.1//EN" "http://www.w3.org/Graphics/SVG/1.1/DTD/svg11.dtd"><svg t="1574411931635" class="icon" viewBox="0 0 1024 1024" version="1.1" xmlns="http://www.w3.org/2000/svg" p-id="11264" xmlns:xlink="http://www.w3.org/1999/xlink" width="64" height="64"><defs><style type="text/css"></style></defs><path d="M715.995429 927.305143a36.425143 36.425143 0 0 1-11.629715 59.538286A515.657143 515.657143 0 0 1 512 1024c-282.550857 0-512-229.449143-512-512 0-282.624 229.449143-512 512-512a512.219429 512.219429 0 0 1 474.624 704.292571 36.352 36.352 0 0 1-59.172571 11.556572c-0.219429 0.073143-0.365714-0.073143-0.438858-0.146286a36.498286 36.498286 0 0 1-7.899428-39.862857A439.003429 439.003429 0 0 0 512 73.142857C269.824 73.142857 73.142857 269.750857 73.142857 512a439.076571 439.076571 0 0 0 602.770286 407.186286 36.425143 36.425143 0 0 1 40.082286 8.118857z" p-id="11265"></path><path d="M817.576229 820.791625m-47.65857 0a47.658569 47.658569 0 1 0 95.317139 0 47.658569 47.658569 0 1 0-95.317139 0Z" p-id="11266"></path><path d="M959.657399 959.57202m-64.288596 0a64.288595 64.288595 0 1 0 128.577191 0 64.288595 64.288595 0 1 0-128.577191 0Z" p-id="11267"></path></svg>