<svg xmlns="http://www.w3.org/2000/svg" viewBox="0 0 14 14"><defs><style>.cls-1{fill:#fbfbfb;}.cls-2{fill:#323333;fill-rule:evenodd;}</style></defs><title>tablet</title><g id="图层_2" data-name="图层 2"><g id="图层_1-2" data-name="图层 1"><g id="tablet"><path class="cls-2" d="M13,6.5a.5.5,0,1,1-.5.5A.5.5,0,0,1,13,6.5ZM11.53,10a.5.5,0,0,1-.14.35.51.51,0,0,1-.36.15H2a.47.47,0,0,1-.35-.15A.47.47,0,0,1,1.5,10V4a.47.47,0,0,1,.15-.35A.47.47,0,0,1,2,3.5h9a.51.51,0,0,1,.36.15.5.5,0,0,1,.14.35ZM12,3.5a.5.5,0,0,0-.5-.5H1.5a.5.5,0,0,0-.5.5v7a.5.5,0,0,0,.5.5h10a.5.5,0,0,0,.5-.5ZM14,11a1,1,0,0,1-1,1H1a1,1,0,0,1-1-1V3A1,1,0,0,1,1,2H13a1,1,0,0,1,1,1Z"/></g></g></g></svg>