<svg xmlns="http://www.w3.org/2000/svg" xmlns:xlink="http://www.w3.org/1999/xlink" viewBox="0 0 14 14"><defs><style>.cls-1,.cls-2{fill:none;}.cls-1{clip-rule:evenodd;}.cls-3,.cls-5{fill:#323333;}.cls-3{fill-rule:evenodd;}.cls-4{clip-path:url(#clip-path);}</style><clipPath id="clip-path"><path class="cls-1" d="M6.88,4.78a.37.37,0,0,1,.28.1.34.34,0,0,1,.1.27.37.37,0,0,1-.1.28.35.35,0,0,1-.28.1.42.42,0,0,1-.45-.38A.42.42,0,0,1,6.88,4.78Zm-2.13.76a.38.38,0,0,1-.31-.1.41.41,0,0,1-.15-.29.42.42,0,0,1,.46-.38A.35.35,0,0,1,5,4.86a.36.36,0,0,1,.11.29.34.34,0,0,1-.1.3A.36.36,0,0,1,4.75,5.54ZM7.87,7.61a.31.31,0,0,1,0-.61.34.34,0,0,1,.36.3A.34.34,0,0,1,7.87,7.61Zm1.69,0a.33.33,0,0,1-.31-.31A.32.32,0,0,1,9.56,7a.35.35,0,0,1,.38.3A.35.35,0,0,1,9.56,7.61Zm-1-2a1.4,1.4,0,0,1,.29,0A3,3,0,0,0,5.74,3.47,2.87,2.87,0,0,0,2.69,6.08,2.5,2.5,0,0,0,3.92,8.14l-.3.92,1.06-.54a5.73,5.73,0,0,0,1.09.16h.29A2.17,2.17,0,0,1,6,8.06,2.49,2.49,0,0,1,8.53,5.61ZM11.31,8A2.47,2.47,0,0,0,8.72,5.77,2.48,2.48,0,0,0,6.13,8a2.41,2.41,0,0,0,2.59,2.22,4.74,4.74,0,0,0,.92-.13l.83.45-.23-.76A2.29,2.29,0,0,0,11.31,8ZM7,.75A6.25,6.25,0,1,1,.75,7,6.25,6.25,0,0,1,7,.75ZM7,0A7,7,0,1,1,0,7,7,7,0,0,1,7,0Z"/></clipPath></defs><title>wechat-o</title><g id="图层_2" data-name="图层 2"><g id="图层_1-2" data-name="图层 1"><g id="wechat-o"><path class="cls-3" d="M6.88,4.78a.37.37,0,0,1,.28.1.34.34,0,0,1,.1.27.37.37,0,0,1-.1.28.35.35,0,0,1-.28.1.42.42,0,0,1-.45-.38A.42.42,0,0,1,6.88,4.78Zm-2.13.76a.38.38,0,0,1-.31-.1.41.41,0,0,1-.15-.29.42.42,0,0,1,.46-.38A.35.35,0,0,1,5,4.86a.36.36,0,0,1,.11.29.34.34,0,0,1-.1.3A.36.36,0,0,1,4.75,5.54ZM7.87,7.61a.31.31,0,0,1,0-.61.34.34,0,0,1,.36.3A.34.34,0,0,1,7.87,7.61Zm1.69,0a.33.33,0,0,1-.31-.31A.32.32,0,0,1,9.56,7a.35.35,0,0,1,.38.3A.35.35,0,0,1,9.56,7.61Zm-1-2a1.4,1.4,0,0,1,.29,0A3,3,0,0,0,5.74,3.47,2.87,2.87,0,0,0,2.69,6.08,2.5,2.5,0,0,0,3.92,8.14l-.3.92,1.06-.54a5.73,5.73,0,0,0,1.09.16h.29A2.17,2.17,0,0,1,6,8.06,2.49,2.49,0,0,1,8.53,5.61ZM11.31,8A2.47,2.47,0,0,0,8.72,5.77,2.48,2.48,0,0,0,6.13,8a2.41,2.41,0,0,0,2.59,2.22,4.74,4.74,0,0,0,.92-.13l.83.45-.23-.76A2.29,2.29,0,0,0,11.31,8ZM7,.75A6.25,6.25,0,1,1,.75,7,6.25,6.25,0,0,1,7,.75ZM7,0A7,7,0,1,1,0,7,7,7,0,0,1,7,0Z"/><g class="cls-4"><circle class="cls-5" cx="7" cy="7" r="7"/><circle class="cls-5" cx="7" cy="7" r="6.25"/></g></g></g></g></svg>