<?xml version="1.0" encoding="utf-8"?>
<!-- Generator: Adobe Illustrator 16.0.0, SVG Export Plug-In . SVG Version: 6.00 Build 0)  -->
<!DOCTYPE svg PUBLIC "-//W3C//DTD SVG 1.1//EN" "http://www.w3.org/Graphics/SVG/1.1/DTD/svg11.dtd">
<svg version="1.1" id="Layer_1" xmlns="http://www.w3.org/2000/svg" xmlns:xlink="http://www.w3.org/1999/xlink" x="0px" y="0px"
	 width="512px" height="512px" viewBox="0 0 512 512" enable-background="new 0 0 512 512" xml:space="preserve">
<g>
	<path d="M512,106.676c0,11.662-9.691,21.341-21.342,21.341H21.328C9.666,128.017,0,118.337,0,106.676V64.008
		c0-11.661,9.666-21.327,21.328-21.327H490.66c11.648,0,21.34,9.666,21.34,21.327V106.676L512,106.676z M512,277.357
		c0,11.676-9.691,21.291-21.342,21.291H21.328C9.666,298.648,0,289.033,0,277.357v-42.68c0-11.662,9.666-21.326,21.328-21.326
		H490.66c11.648,0,21.34,9.666,21.34,21.326V277.357L512,277.357z M512,448.03c0,11.674-9.691,21.289-21.342,21.289H21.328
		C9.666,469.319,0,459.704,0,448.03v-42.656c0-11.673,9.666-21.39,21.328-21.39H490.66c11.648,0,21.34,9.717,21.34,21.39V448.03
		L512,448.03z"/>
</g>
</svg>
