<?xml version="1.0" encoding="utf-8"?>
<!-- Generator: Adobe Illustrator 18.0.0, SVG Export Plug-In . SVG Version: 6.00 Build 0)  -->
<!DOCTYPE svg PUBLIC "-//W3C//DTD SVG 1.1//EN" "http://www.w3.org/Graphics/SVG/1.1/DTD/svg11.dtd">
<svg version="1.1" id="Layer_1" xmlns="http://www.w3.org/2000/svg" xmlns:xlink="http://www.w3.org/1999/xlink" x="0px" y="0px"
	 viewBox="0 0 93.169 82.767" enable-background="new 0 0 93.169 82.767" xml:space="preserve">
<path fill-rule="evenodd" clip-rule="evenodd" fill="#020202" d="M3.97,74.939l3.057-3.577c-0.867-1.539-8.272-17.653-6.844-23.213
	C14.918,24.228,36.806,6.801,64.12,0c8.47,2.976,14.725,7.868,20.044,13.569l4.338-1.824l4.666,11.104l-31.05,13.066l-4.677-11.104
	l2.142-0.894c-1.549-1.018-3.429-1.563-5.957-1.178c-13.647,6.98-17.593,11.718-28.597,22.307c-1.129,2.292-1.184,4.25-0.687,6.033
	l1.498-1.766l9.163,7.823L13.14,82.767L3.97,74.939z"/>
</svg>
