<?xml version="1.0" encoding="utf-8"?>
<!-- Generator: Adobe Illustrator 16.0.0, SVG Export Plug-In . SVG Version: 6.00 Build 0)  -->
<!DOCTYPE svg PUBLIC "-//W3C//DTD SVG 1.1//EN" "http://www.w3.org/Graphics/SVG/1.1/DTD/svg11.dtd">
<svg version="1.1" id="Layer_1" xmlns="http://www.w3.org/2000/svg" xmlns:xlink="http://www.w3.org/1999/xlink" x="0px" y="0px"
	 width="512px" height="512px" viewBox="0 0 512 512" enable-background="new 0 0 512 512" xml:space="preserve">
<path d="M441.739,78.127c0,0-54.865,7.851-100.363-0.993c-41.384-8.06-85.342-37.434-85.365-37.401
	c-0.049-0.033-44,29.342-85.382,37.401c-45.491,8.844-100.371,0.993-100.371,0.993s-11.188,162.913,48.1,267.25
	c54.062,95.109,137.621,126.891,137.653,126.891c0.015,0,83.565-31.781,137.628-126.891
	C452.942,241.041,441.739,78.127,441.739,78.127z M158.253,319.711c-41.581-94.626-33.725-205.882-33.725-205.882
	s14.631-0.289,30.427-1.8c16.398-1.588,31.142-6.116,31.142-6.116s-4.142,101.481,17.777,204.1
	c19.993,93.551,50.875,124.805,50.875,124.789C254.734,434.818,196.161,405.99,158.253,319.711z"/>
</svg>
