<?xml version="1.0" encoding="utf-8"?>
<!-- Generator: Adobe Illustrator 16.0.0, SVG Export Plug-In . SVG Version: 6.00 Build 0)  -->
<!DOCTYPE svg PUBLIC "-//W3C//DTD SVG 1.1//EN" "http://www.w3.org/Graphics/SVG/1.1/DTD/svg11.dtd">
<svg version="1.1" id="Layer_1" xmlns="http://www.w3.org/2000/svg" xmlns:xlink="http://www.w3.org/1999/xlink" x="0px" y="0px"
	 width="512px" height="512px" viewBox="0 0 512 512" enable-background="new 0 0 512 512" xml:space="preserve">
<g>
	<path d="M501.248,275.318C449.736,360.146,355.387,417.26,256,417.26S62.267,359.865,10.751,275.318
		c-3.358-5.881-5.599-12.319-5.599-19.317c0-7,2.24-13.438,5.599-19.318C62.267,152.133,156.613,94.74,256,94.74
		c99.386,0,193.736,57.393,245.248,141.941c3.359,5.88,5.6,12.318,5.6,19.318C506.848,262.998,504.607,269.438,501.248,275.318z
		 M364.346,157.172c11.199,19.038,17.078,40.875,17.078,62.992c0,69.152-56.272,125.424-125.423,125.424
		s-125.423-56.271-125.423-125.424c0-22.118,5.878-43.954,17.077-62.992C103.98,179.57,67.585,214.845,40.988,256
		C88.862,329.91,166.132,381.424,256,381.424c89.869,0,167.138-51.514,215.011-125.424
		C444.414,214.845,408.02,179.57,364.346,157.172z M256,135.056c-46.754,0-85.107,38.354-85.107,85.108
		c0,7.279,6.158,13.438,13.438,13.438s13.438-6.159,13.438-13.438c0-31.916,26.316-58.232,58.232-58.232
		c7.278,0,13.437-6.159,13.437-13.438C269.438,141.214,263.279,135.056,256,135.056z"/>
</g>
</svg>
