<?xml version="1.0" encoding="utf-8"?>
<!-- Generator: Adobe Illustrator 18.0.0, SVG Export Plug-In . SVG Version: 6.00 Build 0)  -->
<!DOCTYPE svg PUBLIC "-//W3C//DTD SVG 1.1//EN" "http://www.w3.org/Graphics/SVG/1.1/DTD/svg11.dtd">
<svg version="1.1" id="Layer_1" xmlns="http://www.w3.org/2000/svg" xmlns:xlink="http://www.w3.org/1999/xlink" x="0px" y="0px"
	 viewBox="0 0 181.57 181.571" enable-background="new 0 0 181.57 181.571" xml:space="preserve">
<path fill-rule="evenodd" clip-rule="evenodd" fill="#231F20" d="M90.785,181.571c-15.72,0-31.169-4.084-44.789-11.825
	L2.433,181.419l11.389-42.5C4.774,124.484,0,107.883,0,90.788C0,40.726,40.725,0,90.785,0c50.06,0,90.785,40.726,90.785,90.788
	C181.57,140.846,140.845,181.571,90.785,181.571z M90.785,7.825c-45.743,0-82.957,37.214-82.957,82.962
	c0,16.156,4.667,31.836,13.497,45.332l0.958,1.465l-8.781,32.766l33.631-9.017l1.419,0.85c12.755,7.555,27.361,11.559,42.233,11.559
	c45.742,0,82.956-37.211,82.956-82.955C173.741,45.04,136.527,7.825,90.785,7.825z M86.888,118.384h7.828v11.866h-7.828V118.384z
	 M86.888,47.402h7.828v59.113h-7.828V47.402z"/>
</svg>
