<?xml version="1.0" encoding="utf-8"?>
<!-- Generator: Adobe Illustrator 16.0.0, SVG Export Plug-In . SVG Version: 6.00 Build 0)  -->
<!DOCTYPE svg PUBLIC "-//W3C//DTD SVG 1.1//EN" "http://www.w3.org/Graphics/SVG/1.1/DTD/svg11.dtd">
<svg version="1.1" id="Layer_1" xmlns="http://www.w3.org/2000/svg" xmlns:xlink="http://www.w3.org/1999/xlink" x="0px" y="0px"
	 width="512px" height="512px" viewBox="0 0 512 512" enable-background="new 0 0 512 512" xml:space="preserve">
<g>
	<path d="M156.367,419.42H86.956V197.334h69.411V419.42z M119.888,169.544h-0.505c-25.118,0-41.392-16.969-41.392-38.484
		c0-21.938,16.768-38.563,42.379-38.563c25.595,0,41.352,16.59,41.846,38.506C162.216,152.513,145.965,169.544,119.888,169.544
		 M434.008,419.42h-78.689V304.492c0-30.087-12.287-50.614-39.363-50.614c-20.723,0-32.215,13.86-37.582,27.215
		c-2,4.781-1.689,11.446-1.689,18.159V419.42h-77.955c0,0,1.01-203.583,0-222.086h77.955v34.845
		c4.607-15.237,29.502-36.995,69.277-36.995c49.305,0,88.047,31.962,88.047,100.734V419.42z"/>
</g>
</svg>
