<?xml version="1.0" encoding="utf-8"?>
<!-- Generator: Adobe Illustrator 16.0.0, SVG Export Plug-In . SVG Version: 6.00 Build 0)  -->
<!DOCTYPE svg PUBLIC "-//W3C//DTD SVG 1.1//EN" "http://www.w3.org/Graphics/SVG/1.1/DTD/svg11.dtd">
<svg version="1.1" id="Layer_1" xmlns="http://www.w3.org/2000/svg" xmlns:xlink="http://www.w3.org/1999/xlink" x="0px" y="0px"
	 width="512px" height="512px" viewBox="0 0 512 512" enable-background="new 0 0 512 512" xml:space="preserve">
<g>
	<path d="M484.854,143.099c-0.283-1.809-0.642-3.59-1.141-5.305c-0.203-0.812-0.47-1.624-0.734-2.436
		c-6.04-17.919-22.976-30.859-42.957-30.875h3.123c0,0-80.308-12.121-187.152-12.612C149.147,92.362,68.84,104.483,68.84,104.483
		h3.13c-19.997,0.016-36.909,12.955-42.965,30.875c-0.257,0.812-0.508,1.624-0.734,2.436c-0.476,1.715-0.842,3.497-1.1,5.305
		c-2.927,20.823-7.735,62.406-8.171,112.23c0.437,49.855,5.245,91.407,8.171,112.262c0.258,1.811,0.625,3.559,1.1,5.289
		c0.226,0.828,0.477,1.61,0.734,2.421c6.056,17.95,22.968,30.905,42.965,30.905h-3.13c0,0,80.308,12.113,187.152,12.612
		c106.845-0.499,187.152-12.612,187.152-12.612h-3.123c19.981,0,36.917-12.955,42.957-30.905c0.265-0.811,0.531-1.593,0.734-2.421
		c0.499-1.73,0.857-3.479,1.141-5.289c2.886-20.854,7.71-62.406,8.146-112.262C492.563,205.505,487.739,163.922,484.854,143.099
		 M326.186,265.491l-95.683,69.508c-1.998,1.466-4.403,2.2-6.775,2.2c-1.779,0-3.59-0.423-5.245-1.249
		c-3.839-1.967-6.274-5.946-6.274-10.271V186.681c0-4.34,2.435-8.305,6.274-10.287c3.871-1.966,8.492-1.577,12.02,0.953
		l95.683,69.49c2.998,2.171,4.746,5.637,4.746,9.336C330.932,259.856,329.199,263.307,326.186,265.491"/>
</g>
</svg>
