<?xml version="1.0" encoding="utf-8"?>
<!-- Generator: Adobe Illustrator 18.0.0, SVG Export Plug-In . SVG Version: 6.00 Build 0)  -->
<!DOCTYPE svg PUBLIC "-//W3C//DTD SVG 1.1//EN" "http://www.w3.org/Graphics/SVG/1.1/DTD/svg11.dtd">
<svg version="1.1" id="Layer_1" xmlns="http://www.w3.org/2000/svg" xmlns:xlink="http://www.w3.org/1999/xlink" x="0px" y="0px"
	 viewBox="0 0 247.55 367.204" enable-background="new 0 0 247.55 367.204" xml:space="preserve">
<g>
	<g>
		<path fill="#231F20" d="M0,0v363.195l30.883-26.306l27.855,24.222l23.721-23.592l24.024,23.91l23.943-23.89l23.882,23.936
			l23.571-23.836l23.349,24.049l21.972-23.505l24.349,29.021V0H0z M233.797,329.474l-10.032-11.962l-22.724,24.309l-23.067-23.757
			l-23.705,23.963l-23.823-23.864l-23.976,23.917l-24.004-23.902l-24.359,24.222l-27.129-23.586l-17.225,14.67V13.661h220.044
			V329.474z M41.258,47.74H27.506v13.449h13.753V47.74z M68.764,47.74H55.011v13.449h13.752V47.74z M96.269,47.74H82.517v13.449
			h13.753V47.74z M123.775,47.74h-13.753v13.449h13.753V47.74z M151.281,47.74h-13.753v13.449h13.753V47.74z M178.786,47.74h-13.753
			v13.449h13.753V47.74z M206.291,47.74h-13.753v13.449h13.753V47.74z M226.921,47.74h-6.876v13.449h6.876V47.74z M34.382,108.789
			c0,3.756,3.079,6.797,6.876,6.797H75.64c3.797,0,6.877-3.041,6.877-6.797c0-3.751-3.079-6.798-6.877-6.798H41.258
			C37.461,101.992,34.382,105.038,34.382,108.789z M34.382,142.783c0,3.75,3.079,6.803,6.876,6.803h96.269
			c3.801,0,6.876-3.053,6.876-6.803c0-3.751-3.075-6.798-6.876-6.798H41.258C37.461,135.985,34.382,139.031,34.382,142.783z
			 M171.909,149.586h34.382c3.801,0,6.877-3.053,6.877-6.803c0-3.751-3.076-6.798-6.877-6.798h-34.382
			c-3.8,0-6.876,3.047-6.876,6.798C165.033,146.533,168.109,149.586,171.909,149.586z M137.527,169.971H41.258
			c-3.797,0-6.876,3.047-6.876,6.811c0,3.75,3.079,6.79,6.876,6.79h96.269c3.801,0,6.876-3.04,6.876-6.79
			C144.404,173.017,141.328,169.971,137.527,169.971z M171.909,183.572h34.382c3.801,0,6.877-3.04,6.877-6.79
			c0-3.764-3.076-6.811-6.877-6.811h-34.382c-3.8,0-6.876,3.047-6.876,6.811C165.033,180.532,168.109,183.572,171.909,183.572z
			 M137.527,203.97H41.258c-3.797,0-6.876,3.034-6.876,6.805c0,3.756,3.079,6.79,6.876,6.79h96.269c3.801,0,6.876-3.034,6.876-6.79
			C144.404,207.004,141.328,203.97,137.527,203.97z M171.909,217.565h34.382c3.801,0,6.877-3.034,6.877-6.79
			c0-3.771-3.076-6.805-6.877-6.805h-34.382c-3.8,0-6.876,3.034-6.876,6.805C165.033,214.531,168.109,217.565,171.909,217.565z
			 M137.527,237.963H41.258c-3.797,0-6.876,3.047-6.876,6.797c0,3.757,3.079,6.811,6.876,6.811h96.269
			c3.801,0,6.876-3.054,6.876-6.811C144.404,241.01,141.328,237.963,137.527,237.963z M171.909,251.572h34.382
			c3.801,0,6.877-3.054,6.877-6.811c0-3.751-3.076-6.797-6.877-6.797h-34.382c-3.8,0-6.876,3.047-6.876,6.797
			C165.033,248.517,168.109,251.572,171.909,251.572z M137.527,271.963H41.258c-3.797,0-6.876,3.04-6.876,6.798
			c0,3.757,3.079,6.797,6.876,6.797h96.269c3.801,0,6.876-3.04,6.876-6.797C144.404,275.003,141.328,271.963,137.527,271.963z
			 M171.909,285.558h34.382c3.801,0,6.877-3.04,6.877-6.797c0-3.757-3.076-6.798-6.877-6.798h-34.382c-3.8,0-6.876,3.04-6.876,6.798
			C165.033,282.517,168.109,285.558,171.909,285.558z"/>
	</g>
</g>
</svg>
