<?xml version="1.0" encoding="utf-8"?>
<!-- Generator: Adobe Illustrator 16.0.0, SVG Export Plug-In . SVG Version: 6.00 Build 0)  -->
<!DOCTYPE svg PUBLIC "-//W3C//DTD SVG 1.1//EN" "http://www.w3.org/Graphics/SVG/1.1/DTD/svg11.dtd">
<svg version="1.1" id="Layer_1" xmlns="http://www.w3.org/2000/svg" xmlns:xlink="http://www.w3.org/1999/xlink" x="0px" y="0px"
	 width="512px" height="512px" viewBox="0 0 512 512" enable-background="new 0 0 512 512" xml:space="preserve">
<g>
	<path d="M442.896,130.755c-13.818,6.68-28.529,11.008-44.111,13c15.879-10.224,28.061-26.314,33.83-45.6
		c-14.848,9.411-31.287,16.142-48.793,20.07c-13.943-16.109-33.945-26.166-55.938-26.166c-42.359,0-76.683,36.926-76.683,82.577
		c0,6.412,0.654,12.755,1.924,18.719c-63.608-3.274-120.204-36.279-158.047-86.138c-6.578,12.169-10.337,26.314-10.337,41.501
		c0,28.586,13.516,54.001,34.14,68.586c-12.606-0.502-24.432-4.019-34.747-10.257v1.122c0,39.932,26.424,73.247,61.495,80.963
		c-6.423,1.866-13.212,2.726-20.258,2.726c-4.923,0-9.599-0.344-14.334-1.466c9.715,32.914,38.066,56.83,71.612,57.312
		c-26.247,22.268-59.304,35.342-95.235,35.342c-6.2,0-12.336-0.366-18.312-1.156c33.929,23.525,74.163,37.241,117.553,37.241
		c141.045,0,218.221-125.841,218.221-234.936c0-3.479-0.08-7.029-0.254-10.555C419.6,161.832,432.615,147.275,442.896,130.755"/>
</g>
</svg>
