<?xml version="1.0" encoding="utf-8"?>
<!-- Generator: Adobe Illustrator 16.0.0, SVG Export Plug-In . SVG Version: 6.00 Build 0)  -->
<!DOCTYPE svg PUBLIC "-//W3C//DTD SVG 1.1//EN" "http://www.w3.org/Graphics/SVG/1.1/DTD/svg11.dtd">
<svg version="1.1" id="Layer_1" xmlns="http://www.w3.org/2000/svg" xmlns:xlink="http://www.w3.org/1999/xlink" x="0px" y="0px"
	 width="512px" height="512px" viewBox="0 0 512 512" enable-background="new 0 0 512 512" xml:space="preserve">
<g>
	<path d="M266.192,280.238c-9.13-6.461-26.581-22.175-26.581-31.427c0-10.837,3.089-16.154,19.385-28.893
		c16.704-13.065,28.534-31.406,28.534-52.738c0-25.421-11.317-50.168-32.562-58.355h32.02l22.605-16.333h-101.02
		c-45.261,0-87.893,34.309-87.893,74.039c0,40.608,30.875,73.396,76.952,73.396c3.211,0,6.309-0.071,9.355-0.276
		c-2.985,5.704-5.143,12.166-5.143,18.831c0,11.309,6.083,20.469,13.761,27.932c-5.808,0-11.41,0.163-17.502,0.163
		c-56.098,0-99.271,35.721-99.271,72.771c0,36.488,47.331,59.298,103.411,59.298c63.948,0,99.271-36.274,99.271-72.762
		C301.516,316.623,292.887,299.101,266.192,280.238 M212.232,229.631c-26.009-0.787-50.754-29.116-55.243-63.29
		c-4.492-34.172,12.97-60.323,38.979-59.556c26.018,0.788,50.76,28.191,55.258,62.375
		C255.703,203.337,238.262,230.408,212.232,229.631 M202.051,402.513c-38.779,0-66.785-24.527-66.785-54.022
		c0-28.891,34.738-52.947,73.512-52.528c9.048,0.102,17.481,1.555,25.14,4.029c21.029,14.639,36.13,22.899,40.383,39.596
		c0.809,3.372,1.248,6.838,1.248,10.407C275.548,379.489,256.563,402.513,202.051,402.513"/>
	<polygon points="373.826,232.597 373.826,193.287 342.186,193.287 342.186,232.597 302.865,232.597 302.865,264.248 
		342.186,264.248 342.186,303.579 373.826,303.579 373.826,264.248 413.167,264.248 413.167,232.597 	"/>
</g>
</svg>
