<?xml version="1.0" encoding="utf-8"?>
<!-- Generator: Adobe Illustrator 18.0.0, SVG Export Plug-In . SVG Version: 6.00 Build 0)  -->
<!DOCTYPE svg PUBLIC "-//W3C//DTD SVG 1.1//EN" "http://www.w3.org/Graphics/SVG/1.1/DTD/svg11.dtd">
<svg version="1.1" id="Layer_1" xmlns="http://www.w3.org/2000/svg" xmlns:xlink="http://www.w3.org/1999/xlink" x="0px" y="0px"
	 viewBox="0 0 49 48" enable-background="new 0 0 49 48" xml:space="preserve">
<g>
	<g>
		<path d="M46,5H36V0.999C36,0.447,35.553,0,35,0c-0.553,0-1,0.447-1,0.999V5h-9V0.999C25,0.447,24.553,0,24,0
			c-0.553,0-1,0.447-1,0.999V5h-9V0.999C14,0.447,13.552,0,13,0c-0.553,0-1,0.447-1,0.999V5H3C1.346,5,0,6.345,0,8v37
			c0,1.653,1.346,3,3,3h43c1.654,0,3-1.347,3-3V8C49,6.345,47.654,5,46,5z M47,45c0,0.552-0.448,0.999-1,0.999H3
			c-0.552,0-1-0.447-1-0.999V8c0-0.552,0.448-1,1-1h9v3c0,0.552,0.447,1,1,1c0.552,0,1-0.448,1-1V7h9v3c0,0.552,0.447,1,1,1
			c0.553,0,1-0.448,1-1V7h9v3c0,0.552,0.447,1,1,1c0.553,0,1-0.448,1-1V7h10c0.552,0,1,0.448,1,1V45z M6,21h6v-6H6V21z M8,17h2
			v1.999H8V17z M16,21h6v-6h-6V21z M18,17h2v1.999h-2V17z M26,21h6v-6h-6V21z M28,17h2v1.999h-2V17z M36,21h6v-6h-6V21z M38,17h2
			v1.999h-2V17z M6,31h6v-6H6V31z M8,27h2v1.999H8V27z M16,31h6v-6h-6V31z M18,27h2v1.999h-2V27z M26,31h6v-6h-6V31z M28,27h2v1.999
			h-2V27z M36,31h6v-6h-6V31z M38,27h2v1.999h-2V27z M6,41h6v-6H6V41z M8,36.999h2v2H8V36.999z M16,41h6v-6h-6V41z M18,36.999h2v2
			h-2V36.999z M26,41h6v-6h-6V41z M28,36.999h2v2h-2V36.999z M36,41h6v-6h-6V41z M38,36.999h2v2h-2V36.999z"/>
	</g>
</g>
</svg>
