<?xml version="1.0" encoding="utf-8"?>
<!-- Generator: Adobe Illustrator 18.0.0, SVG Export Plug-In . SVG Version: 6.00 Build 0)  -->
<!DOCTYPE svg PUBLIC "-//W3C//DTD SVG 1.1//EN" "http://www.w3.org/Graphics/SVG/1.1/DTD/svg11.dtd">
<svg version="1.1" id="Layer_1" xmlns="http://www.w3.org/2000/svg" xmlns:xlink="http://www.w3.org/1999/xlink" x="0px" y="0px"
	 viewBox="0 0 226.177 266.821" enable-background="new 0 0 226.177 266.821" xml:space="preserve">
<path fill-rule="evenodd" clip-rule="evenodd" fill="#231F20" d="M205.424,266.821H20.753C9.309,266.821,0,257.605,0,246.28v-135.35
	c0.23,0.288,0.525,0.513,0.782,0.773c-0.504-1.601-0.175-3.408,1.109-4.676l16.957-16.782V23.524h65.968l23.636-21.941
	c2.089-2.082,6.784-2.138,8.934,0l23.974,21.941h65.969v67.063l16.616,16.441c0.847,0.84,1.26,1.921,1.325,3.014
	c0.138-0.076,0.263-0.124,0.401-0.209c0.188-0.112,0.326-0.248,0.506-0.365V246.28C226.177,257.605,216.868,266.821,205.424,266.821
	z M20.753,257.497h184.671c0.23,0,0.446-0.057,0.672-0.072l-60.157-59.528l-28.553,28.255c-0.92,0.913-2.126,1.365-3.331,1.365
	c-0.387,0-0.76-0.128-1.137-0.212c-0.375,0.084-0.748,0.212-1.135,0.212c-1.205,0-2.412-0.452-3.331-1.365l-28.482-28.187
	l-60.07,59.444C20.19,257.429,20.464,257.497,20.753,257.497z M9.424,246.28c0,2.35,0.741,4.527,1.995,6.337l61.889-61.242
	L9.424,128.153V246.28z M18.849,103.428l-9.95,9.608l0.516-0.088c0,0,0.005,0,0.009,0v2.018l9.425,9.328V103.428z M112.919,10.341
	L98.953,23.524h28.272L112.919,10.341z M197.905,32.88H28.273v100.737l84.646,83.772l84.986-84.108V32.88z M216.754,113.1
	l-9.424-9.328v20.185l9.424-9.332V113.1z M216.754,127.817l-64.151,63.487l62.067,61.422c1.302-1.826,2.084-4.044,2.084-6.445
	V127.817z M65.969,154.926c0-2.574,2.11-5.1,4.712-5.1h84.817c2.605,0,4.712,2.117,4.712,4.74c0,2.61-2.107,4.731-4.712,4.731H70.68
	C68.079,159.297,65.969,157.505,65.969,154.926z M56.545,121.832c0-2.571,2.109-4.66,4.712-4.66h103.664
	c2.605,0,4.713,2.089,4.713,4.66c0,2.578-2.108,4.668-4.713,4.668H61.257C58.654,126.5,56.545,124.409,56.545,121.832z
	 M164.921,93.704H61.257c-2.602,0-4.712-2.089-4.712-4.659c0-2.574,2.109-4.664,4.712-4.664h103.664c2.605,0,4.713,2.09,4.713,4.664
	C169.634,91.615,167.526,93.704,164.921,93.704z M131.937,60.922H94.241c-2.602,0-4.713-2.09-4.713-4.664
	c0-2.574,2.11-4.663,4.713-4.663h37.696c2.604,0,4.712,2.089,4.712,4.663C136.649,58.832,134.541,60.922,131.937,60.922z"/>
</svg>
