<?xml version="1.0" encoding="utf-8"?>
<!-- Generator: Adobe Illustrator 18.0.0, SVG Export Plug-In . SVG Version: 6.00 Build 0)  -->
<!DOCTYPE svg PUBLIC "-//W3C//DTD SVG 1.1//EN" "http://www.w3.org/Graphics/SVG/1.1/DTD/svg11.dtd">
<svg version="1.1" id="Layer_1" xmlns="http://www.w3.org/2000/svg" xmlns:xlink="http://www.w3.org/1999/xlink" x="0px" y="0px"
	 viewBox="0 0 36.4 36.207" enable-background="new 0 0 36.4 36.207" xml:space="preserve">
<path fill-rule="evenodd" clip-rule="evenodd" d="M24.4,0H12C5.4,0,0,5.4,0,12v12.207c0,6.6,5.4,12,12,12h12.4c6.6,0,12-5.4,12-12
	V12C36.4,5.4,31,0,24.4,0z M26.771,23.033c0.692,0.696,0.689,1.83-0.007,2.522l-1.158,1.152c-0.695,0.692-1.83,0.689-2.521-0.007
	l-4.894-4.92l-4.92,4.895c-0.696,0.691-1.83,0.688-2.522-0.007L9.596,25.51c-0.692-0.696-0.689-1.83,0.007-2.522l4.92-4.894
	l-4.894-4.92c-0.691-0.696-0.688-1.83,0.007-2.522l1.158-1.152c0.696-0.692,1.83-0.689,2.522,0.007l4.894,4.92l4.92-4.894
	c0.696-0.692,1.83-0.689,2.522,0.007l1.152,1.158c0.692,0.695,0.689,1.83-0.007,2.521l-4.92,4.894L26.771,23.033z"/>
<rect fill="none" width="36.4" height="36.207"/>
</svg>
