<?xml version="1.0" encoding="utf-8"?>
<!-- Generator: Adobe Illustrator 18.0.0, SVG Export Plug-In . SVG Version: 6.00 Build 0)  -->
<!DOCTYPE svg PUBLIC "-//W3C//DTD SVG 1.1//EN" "http://www.w3.org/Graphics/SVG/1.1/DTD/svg11.dtd">
<svg version="1.1" id="Layer_1" xmlns="http://www.w3.org/2000/svg" xmlns:xlink="http://www.w3.org/1999/xlink" x="0px" y="0px"
	 viewBox="0 0 282.268 389.798" enable-background="new 0 0 282.268 389.798" xml:space="preserve">
<g>
	<g>
		<path fill="#231F20" d="M230.271,0H51.996C23.322,0,0,23.542,0,52.472v284.853c0,28.938,23.322,52.473,51.996,52.473h178.275
			c28.668,0,51.997-23.535,51.997-52.473V52.472C282.268,23.542,258.939,0,230.271,0z M267.412,337.325
			c0,20.673-16.663,37.474-37.141,37.474H51.996c-20.477,0-37.14-16.801-37.14-37.474V52.472c0-20.658,16.663-37.48,37.14-37.48
			h178.275c20.478,0,37.141,16.821,37.141,37.48V337.325z M29.713,112.449h222.843V44.976H29.713V112.449z M44.568,59.969H237.7
			v37.48H44.568V59.969z M59.425,134.93c-16.387,0-29.713,13.455-29.713,29.992c0,16.522,13.325,29.977,29.713,29.977
			c16.38,0,29.712-13.455,29.712-29.977C89.138,148.385,75.805,134.93,59.425,134.93z M59.425,179.914
			c-8.197,0-14.857-6.736-14.857-14.992c0-8.265,6.66-14.992,14.857-14.992s14.856,6.727,14.856,14.992
			C74.281,173.178,67.622,179.914,59.425,179.914z M141.134,134.93c-16.38,0-29.713,13.455-29.713,29.992
			c0,16.522,13.333,29.977,29.713,29.977c16.379,0,29.712-13.455,29.712-29.977C170.846,148.385,157.514,134.93,141.134,134.93z
			 M141.134,179.914c-8.197,0-14.857-6.736-14.857-14.992c0-8.265,6.659-14.992,14.857-14.992c8.196,0,14.856,6.727,14.856,14.992
			C155.99,173.178,149.331,179.914,141.134,179.914z M222.843,134.93c-16.38,0-29.713,13.455-29.713,29.992
			c0,16.522,13.333,29.977,29.713,29.977c16.38,0,29.713-13.455,29.713-29.977C252.555,148.385,239.223,134.93,222.843,134.93z
			 M222.843,179.914c-8.197,0-14.856-6.736-14.856-14.992c0-8.265,6.659-14.992,14.856-14.992c8.19,0,14.857,6.727,14.857,14.992
			C237.7,173.178,231.033,179.914,222.843,179.914z M59.425,217.395c-16.387,0-29.713,13.44-29.713,29.984
			c0,16.522,13.325,29.984,29.713,29.984c16.38,0,29.712-13.462,29.712-29.984C89.138,230.835,75.805,217.395,59.425,217.395z
			 M59.425,262.364c-8.197,0-14.857-6.72-14.857-14.984c0-8.265,6.66-15,14.857-15s14.856,6.734,14.856,15
			C74.281,255.643,67.622,262.364,59.425,262.364z M141.134,217.395c-16.38,0-29.713,13.44-29.713,29.984
			c0,16.522,13.333,29.984,29.713,29.984c16.379,0,29.712-13.462,29.712-29.984C170.846,230.835,157.514,217.395,141.134,217.395z
			 M141.134,262.364c-8.197,0-14.857-6.72-14.857-14.984c0-8.265,6.659-15,14.857-15c8.196,0,14.856,6.734,14.856,15
			C155.99,255.643,149.331,262.364,141.134,262.364z M222.843,217.395c-16.38,0-29.713,13.44-29.713,29.984
			c0,16.522,13.333,29.984,29.713,29.984c16.38,0,29.713-13.462,29.713-29.984C252.555,230.835,239.223,217.395,222.843,217.395z
			 M222.843,262.364c-8.197,0-14.856-6.72-14.856-14.984c0-8.265,6.659-15,14.856-15c8.19,0,14.857,6.734,14.857,15
			C237.7,255.643,231.033,262.364,222.843,262.364z M59.425,299.852c-16.387,0-29.713,13.447-29.713,29.984
			c0,16.53,13.325,29.978,29.713,29.978c16.38,0,29.712-13.448,29.712-29.978C89.138,313.3,75.805,299.852,59.425,299.852z
			 M59.425,344.814c-8.197,0-14.857-6.72-14.857-14.978c0-8.272,6.66-15,14.857-15s14.856,6.728,14.856,15
			C74.281,338.094,67.622,344.814,59.425,344.814z M141.134,299.852c-16.38,0-29.713,13.447-29.713,29.984
			c0,16.53,13.333,29.978,29.713,29.978c16.379,0,29.712-13.448,29.712-29.978C170.846,313.3,157.514,299.852,141.134,299.852z
			 M141.134,344.814c-8.197,0-14.857-6.72-14.857-14.978c0-8.272,6.659-15,14.857-15c8.196,0,14.856,6.728,14.856,15
			C155.99,338.094,149.331,344.814,141.134,344.814z M222.843,299.852c-16.38,0-29.713,13.447-29.713,29.984
			c0,16.53,13.333,29.978,29.713,29.978c16.38,0,29.713-13.448,29.713-29.978C252.555,313.3,239.223,299.852,222.843,299.852z
			 M222.843,344.814c-8.197,0-14.856-6.72-14.856-14.978c0-8.272,6.659-15,14.856-15c8.19,0,14.857,6.728,14.857,15
			C237.7,338.094,231.033,344.814,222.843,344.814z"/>
	</g>
</g>
</svg>
