<?xml version="1.0" encoding="utf-8"?>
<!-- Generator: Adobe Illustrator 18.0.0, SVG Export Plug-In . SVG Version: 6.00 Build 0)  -->
<!DOCTYPE svg PUBLIC "-//W3C//DTD SVG 1.1//EN" "http://www.w3.org/Graphics/SVG/1.1/DTD/svg11.dtd">
<svg version="1.1" id="Layer_1" xmlns="http://www.w3.org/2000/svg" xmlns:xlink="http://www.w3.org/1999/xlink" x="0px" y="0px"
	 viewBox="0 0 245.42 179.235" enable-background="new 0 0 245.42 179.235" xml:space="preserve">
<path fill-rule="evenodd" clip-rule="evenodd" fill="#231F20" d="M190.896,179.235l-41.002-46.096l6.949-6.175l33.359,37.507
	l47.721-65.035l7.498,5.496L190.896,179.235z M223.069,15.073l-70.383,51.991l17.914,17.897l-6.572,6.573l-18.9-18.887
	l-28.939,21.377L87.249,72.648l-69.833,69.786h121.502v9.185H13.88C6.191,151.62,0,147.027,0,139.339V13.935
	C0,6.25,6.254,0,13.942,0h204.491c7.688,0,13.107,6.16,13.107,13.845v73.478h-9.262L223.069,15.073z M9.295,15.063v122.359
	l70.397-70.357L9.295,15.063z M17.125,9.295l99.063,73.172l99.063-73.172H17.125z"/>
</svg>
