<?xml version="1.0" encoding="utf-8"?>
<!-- Generator: Adobe Illustrator 18.0.0, SVG Export Plug-In . SVG Version: 6.00 Build 0)  -->
<!DOCTYPE svg PUBLIC "-//W3C//DTD SVG 1.1//EN" "http://www.w3.org/Graphics/SVG/1.1/DTD/svg11.dtd">
<svg version="1.1" id="Layer_1" xmlns="http://www.w3.org/2000/svg" xmlns:xlink="http://www.w3.org/1999/xlink" x="0px" y="0px"
	 viewBox="0 0 244.002 167.748" enable-background="new 0 0 244.002 167.748" xml:space="preserve">
<path fill-rule="evenodd" clip-rule="evenodd" fill="#231F20" d="M237.834,156.484L171.37,83.873l66.465-72.614
	c3.822,4.673,6.167,10.41,6.167,16.695v111.836C244.002,146.075,241.656,151.815,237.834,156.484z M148.619,97.851l-26.617,29.078
	L95.383,97.851l0,0L82.756,84.059l0.166-0.185l-2.09-1.915L64.193,63.78L11.516,6.233C16.738,2.39,23.283,0,30.502,0h45.749h91.499
	h45.751c7.217,0,13.762,2.39,18.984,6.233L148.619,97.851L148.619,97.851z M72.543,83.775l-0.104,0.098l0.067,0.136l-66.34,72.475
	C2.345,151.815,0,146.075,0,139.791V27.955C0,21.67,2.345,15.932,6.166,11.26l6.031,6.593L72.543,83.775z M76.251,91.3l1.575-1.755
	l7.602,8.305l35.279,38.541l1.295-0.995l0.013,0.011l-1.444,1.324l1.431,1.748l1.43-1.748h0.474l0.707-1.783l33.96-37.098
	l7.864-8.593l1.313,1.605l0.021-0.046l64.714,70.696c-5.222,3.84-11.767,6.234-18.984,6.234H30.502
	c-7.219,0-13.764-2.394-18.985-6.234l64.569-70.539L76.251,91.3z"/>
</svg>
