<?xml version="1.0" encoding="utf-8"?>
<!-- Generator: Adobe Illustrator 16.0.0, SVG Export Plug-In . SVG Version: 6.00 Build 0)  -->
<!DOCTYPE svg PUBLIC "-//W3C//DTD SVG 1.1//EN" "http://www.w3.org/Graphics/SVG/1.1/DTD/svg11.dtd">
<svg version="1.1" id="Layer_1" xmlns="http://www.w3.org/2000/svg" xmlns:xlink="http://www.w3.org/1999/xlink" x="0px" y="0px"
	 width="512px" height="512px" viewBox="0 0 512 512" enable-background="new 0 0 512 512" xml:space="preserve">
<g display="none">
	<path display="inline" d="M331.39,102.389c-1.006,0-1.996,0.055-3.002,0.079c-33.911-32.872-80.021-53.201-130.871-53.201
		c-103.811,0-188.28,84.468-188.28,188.282c0,103.812,84.471,188.29,188.28,188.29c0.981,0,1.944-0.05,2.918-0.062
		c33.923,32.879,80.092,53.176,130.954,53.176c103.813,0,188.274-84.459,188.274-188.272
		C519.666,186.857,435.203,102.389,331.39,102.389 M47.483,237.551c0-82.728,67.312-150.036,150.034-150.036
		c29.188,0,56.431,8.432,79.504,22.916c-77.384,23.387-133.909,95.326-133.909,180.249c0,34.205,9.217,66.286,25.232,93.963
		C99.542,371.032,47.483,310.286,47.483,237.551 M331.39,440.705c-82.724,0-150.037-67.292-150.037-150.026
		c0-82.733,67.313-150.034,150.037-150.034c82.722,0,150.039,67.301,150.039,150.034C481.429,373.413,414.11,440.705,331.39,440.705
		"/>
	<path display="inline" d="M331.39,157.403c-73.479,0-133.271,59.788-133.271,133.274c0,73.49,59.792,133.275,133.271,133.275
		c73.481,0,133.279-59.785,133.279-133.275C464.669,217.19,404.871,157.403,331.39,157.403 M331.39,411.628
		c-66.687,0-120.953-54.265-120.953-120.949c0-66.691,54.268-120.938,120.953-120.938c66.688,0,120.951,54.248,120.951,120.938
		C452.341,357.363,398.076,411.628,331.39,411.628"/>
	<path display="inline" d="M356.525,347.75c-4.861,2.716-10.856,4.091-18.015,4.091c-8.702,0-15.729-2.332-21.095-7.026
		c-5.366-4.695-9.333-11.211-11.896-19.562h40.913l7.41-23.014h-52.155c-0.168-0.846-0.24-1.692-0.24-2.555v-2.559v-5.363
		c0-2.046,0.031-4.009,0.111-5.879c0.082-1.884,0.209-3.752,0.385-5.637h57.784l7.656-23.52h-60.075
		c3.744-8.681,8.863-14.954,15.338-18.787c6.478-3.824,14.067-5.75,22.767-5.75c5.957,0,11.466,0.639,16.479,1.925
		c5.03,1.277,8.815,2.761,11.387,4.472l11.753-33.239c-1.697-1.03-4.177-1.996-7.407-2.938c-3.233-0.935-6.771-1.7-10.61-2.299
		c-3.842-0.599-7.673-1.11-11.506-1.534c-3.842-0.431-7.211-0.639-10.093-0.639c-20.635,0-37.576,4.895-50.877,14.7
		c-13.287,9.806-22.501,24.495-27.611,44.09h-13.299l-7.924,23.52h17.383c-0.168,2.045-0.296,4.089-0.384,6.132
		c-0.08,2.062-0.12,4.2-0.12,6.403v4.854v2.301c0,0.687,0.089,1.453,0.257,2.299h-10.741l-7.153,23.013h20.705
		c3.912,19.608,11.676,34.479,23.26,44.618c11.586,10.142,26.934,15.201,46.017,15.201c11.417,0,22.076-2.045,31.962-6.131
		c9.885-4.104,17.637-9.471,23.259-16.112l-20.949-25.808C365.597,341.441,361.396,345.02,356.525,347.75"/>
</g>
<polygon points="315.257,291.529 429.237,177.55 369.979,118.293 256,232.272 142.021,118.293 82.764,177.55 196.743,291.529 
	71.823,416.45 131.08,475.707 256,350.786 380.92,475.707 440.177,416.45 "/>
</svg>
