<?xml version="1.0" encoding="utf-8"?>
<!-- Generator: Adobe Illustrator 18.0.0, SVG Export Plug-In . SVG Version: 6.00 Build 0)  -->
<!DOCTYPE svg PUBLIC "-//W3C//DTD SVG 1.1//EN" "http://www.w3.org/Graphics/SVG/1.1/DTD/svg11.dtd">
<svg version="1.1" id="Layer_1" xmlns="http://www.w3.org/2000/svg" xmlns:xlink="http://www.w3.org/1999/xlink" x="0px" y="0px"
	 viewBox="0 0 356.873 267.416" enable-background="new 0 0 356.873 267.416" xml:space="preserve">
<path fill-rule="evenodd" clip-rule="evenodd" fill="#231F20" d="M327.133,267.416h-53.218c-16.398,0-29.739-13.257-29.739-29.541
	v-20.211H196.56l3.947,37.309h18.625c3.46,0,6.26,2.781,6.26,6.218c0,3.436-2.8,6.224-6.26,6.224h-17.309h-71.821h-17.306
	c-3.457,0-6.261-2.788-6.261-6.224c0-3.437,2.804-6.218,6.261-6.218h18.624l3.948-37.309H29.739C13.341,217.665,0,204.407,0,188.117
	V29.541C0,13.257,13.341,0,29.739,0H302.09c16.397,0,29.739,13.257,29.739,29.541v33.121c14.16,2.255,25.044,14.377,25.044,29.07
	v146.143C356.873,254.159,343.531,267.416,327.133,267.416z M187.919,254.974l-3.949-37.309h-36.111l-3.947,37.309H187.919z
	 M12.522,188.117c0,9.439,7.722,17.11,17.217,17.11h106.846h58.659h48.932V186.57H12.522V188.117z M319.307,29.541
	c0-9.437-7.722-17.104-17.217-17.104H29.739c-9.495,0-17.217,7.667-17.217,17.104v144.584h231.654V91.732
	c0-16.29,13.341-29.541,29.739-29.541h45.392V29.541z M344.351,91.732c0-9.439-7.722-17.104-17.218-17.104h-53.218
	c-9.495,0-17.217,7.666-17.217,17.104v125.933v20.211c0,9.432,7.723,17.099,17.217,17.099h53.218
	c9.496,0,17.218-7.666,17.218-17.099V91.732z M301.307,242.535h-1.565c-6.482,0-11.739-5.219-11.739-11.656v-1.553
	c0-6.438,5.258-11.661,11.739-11.661h1.565c6.481,0,11.74,5.223,11.74,11.661v1.553
	C313.047,237.316,307.788,242.535,301.307,242.535z M306.785,99.504h-12.522c-3.46,0-6.26-2.789-6.26-6.215
	c0-3.436,2.801-6.229,6.26-6.229h12.522c3.46,0,6.261,2.793,6.261,6.229C313.047,96.715,310.246,99.504,306.785,99.504z"/>
</svg>
