<?xml version="1.0" encoding="utf-8"?>
<!-- Generator: Adobe Illustrator 18.0.0, SVG Export Plug-In . SVG Version: 6.00 Build 0)  -->
<!DOCTYPE svg PUBLIC "-//W3C//DTD SVG 1.1//EN" "http://www.w3.org/Graphics/SVG/1.1/DTD/svg11.dtd">
<svg version="1.1" id="Layer_1" xmlns="http://www.w3.org/2000/svg" xmlns:xlink="http://www.w3.org/1999/xlink" x="0px" y="0px"
	 viewBox="0 0 345.373 338.324" enable-background="new 0 0 345.373 338.324" xml:space="preserve">
<g>
	<g>
		<path fill="#231F20" d="M327.124,125.047h-22.537l19.832-19.807L226.73,7.66l-16.778,16.765L170.423,0L93.012,125.047H18.25
			C8.186,125.047,0,133.233,0,143.28V320.09c0,10.059,8.186,18.234,18.25,18.234h308.874c10.063,0,18.249-8.175,18.249-18.234
			V143.28C345.373,133.233,337.186,125.047,327.124,125.047z M226.73,25.403l79.929,79.837l-19.832,19.807H126.975L226.73,25.403z
			 M174.507,17.278l26.008,16.067l-91.792,91.701h-0.937L174.507,17.278z M332.814,250.51h-94.193c-3.465,0-6.28-2.815-6.28-6.278
			v-37.636c0-3.463,2.815-6.278,6.28-6.278h94.193V250.51z M332.814,187.775h-94.193c-10.388,0-18.838,8.443-18.838,18.821v37.636
			c0,10.378,8.45,18.821,18.838,18.821h94.193v57.038c0,3.132-2.55,5.69-5.69,5.69H18.25c-3.134,0-5.691-2.558-5.691-5.69V143.28
			c0-3.133,2.557-5.691,5.691-5.691h308.874c3.14,0,5.69,2.558,5.69,5.691V187.775z M249.874,235.598
			c12.148,0,12.148-18.815,0-18.815C237.726,216.783,237.726,235.598,249.874,235.598z"/>
	</g>
</g>
</svg>
