<?xml version="1.0" encoding="utf-8"?>
<!-- Generator: Adobe Illustrator 18.0.0, SVG Export Plug-In . SVG Version: 6.00 Build 0)  -->
<!DOCTYPE svg PUBLIC "-//W3C//DTD SVG 1.1//EN" "http://www.w3.org/Graphics/SVG/1.1/DTD/svg11.dtd">
<svg version="1.1" id="Layer_1" xmlns="http://www.w3.org/2000/svg" xmlns:xlink="http://www.w3.org/1999/xlink" x="0px" y="0px"
	 viewBox="0 0 1041.115 463.883" enable-background="new 0 0 1041.115 463.883" xml:space="preserve">
<path fill-rule="evenodd" clip-rule="evenodd" fill="#231F20" d="M156.923,231.94l118.282-118.277
	c26.003-26.027,26.003-68.165,0-94.151c-25.986-26.015-68.148-26.015-94.151,0L24.129,176.43C8.978,191.581,0,208.462,0,231.943
	s8.978,40.365,24.129,55.516l156.925,156.931c26.003,25.992,68.165,25.992,94.151,0c26.003-25.986,26.003-68.148,0-94.163
	L156.923,231.94z"/>
<path fill-rule="evenodd" clip-rule="evenodd" fill="#231F20" d="M884.192,231.94L765.91,113.663
	c-26.003-26.027-26.003-68.165,0-94.151c25.986-26.015,68.148-26.015,94.151,0l156.925,156.919
	c15.151,15.151,24.129,32.032,24.129,55.513s-8.978,40.365-24.129,55.516L860.061,444.389c-26.003,25.992-68.165,25.992-94.151,0
	c-26.003-25.986-26.003-68.148,0-94.163L884.192,231.94z"/>
</svg>
