<?xml version="1.0" encoding="utf-8"?>
<!-- Generator: Adobe Illustrator 18.0.0, SVG Export Plug-In . SVG Version: 6.00 Build 0)  -->
<!DOCTYPE svg PUBLIC "-//W3C//DTD SVG 1.1//EN" "http://www.w3.org/Graphics/SVG/1.1/DTD/svg11.dtd">
<svg version="1.1" id="Layer_1" xmlns="http://www.w3.org/2000/svg" xmlns:xlink="http://www.w3.org/1999/xlink" x="0px" y="0px"
	 viewBox="0 0 49 40" enable-background="new 0 0 49 40" xml:space="preserve">
<g>
	<g>
		<path d="M39,6V4H6v2H39z M44,18.001v-4.316c0-2.758-1.915-4.684-4.657-4.684H5c-1.149,0-2.174,0.339-3,0.905V5
			c0-1.654,1.346-3,3-3h34.343C40.858,2,42,2.737,42,3.715V6h2V3.715C44,1.597,41.998,0,39.343,0H5C2.243,0,0,2.243,0,5v29.999
			C0,37.757,2.243,40,5,40h34.343C41.998,40,44,37.851,44,34.999v-7h5v-9.998H44z M42,34.999c0,1.492-0.912,3-2.657,3H5
			c-1.654,0-3-1.345-3-3V13.685C2,11.924,3.51,11,5,11h34.343C40.982,11,42,12.029,42,13.685v4.316h-9v9.998h9V34.999z M47,26.001
			H35V20h12V26.001z"/>
	</g>
</g>
</svg>
