<?xml version="1.0" encoding="utf-8"?>
<!-- Generator: Adobe Illustrator 18.0.0, SVG Export Plug-In . SVG Version: 6.00 Build 0)  -->
<!DOCTYPE svg PUBLIC "-//W3C//DTD SVG 1.1//EN" "http://www.w3.org/Graphics/SVG/1.1/DTD/svg11.dtd">
<svg version="1.1" id="Layer_1" xmlns="http://www.w3.org/2000/svg" xmlns:xlink="http://www.w3.org/1999/xlink" x="0px" y="0px"
	 viewBox="0 0 52.74 53.91" enable-background="new 0 0 52.74 53.91" xml:space="preserve">
<g>
	<g>
		<path d="M26.379,2.996c-13.182,0-23.906,10.75-23.906,23.962c0,13.212,10.724,23.962,23.906,23.962
			c13.182,0,23.907-10.75,23.907-23.962C50.286,13.745,39.561,2.996,26.379,2.996z M26.379,48.921
			c-12.083,0-21.914-9.853-21.914-21.964c0-12.112,9.831-21.965,21.914-21.965c12.084,0,21.915,9.853,21.915,21.965
			C48.293,39.068,38.463,48.921,26.379,48.921z M26.882,27.501V12.921c0-0.551-0.448-1.001-0.999-1.001
			c-0.552,0-0.999,0.449-0.999,1.001v15.408l8.287,8.29c0.195,0.196,0.451,0.294,0.707,0.294c0.255,0,0.511-0.097,0.706-0.294
			c0.39-0.39,0.39-1.023,0-1.412L26.882,27.501z M9.737,48.216l-3.977,3.99c-0.389,0.391-0.389,1.023,0,1.411
			c0.194,0.196,0.449,0.293,0.704,0.293s0.51-0.096,0.705-0.293l3.977-3.99c0.389-0.388,0.389-1.021,0-1.411
			C10.756,47.825,10.126,47.825,9.737,48.216z M43.021,48.216c-0.389-0.391-1.019-0.391-1.409,0c-0.389,0.39-0.389,1.022,0,1.411
			l3.977,3.99c0.194,0.196,0.449,0.293,0.704,0.293c0.255,0,0.51-0.096,0.705-0.293c0.389-0.389,0.389-1.021,0-1.411L43.021,48.216z
			 M16.596,1.978c0.539-0.109,0.887-0.635,0.779-1.176c-0.108-0.541-0.63-0.893-1.171-0.782C15.728,0.117,4.477,2.495,0.065,14.09
			c-0.196,0.516,0.062,1.093,0.576,1.288c0.117,0.045,0.237,0.065,0.355,0.065c0.401,0,0.779-0.243,0.931-0.643
			C5.937,4.26,16.49,2,16.596,1.978z M52.674,14.09C48.263,2.495,37.013,0.117,36.536,0.02c-0.54-0.109-1.063,0.242-1.171,0.782
			c-0.108,0.541,0.24,1.066,0.779,1.176C36.25,2,46.802,4.26,50.812,14.801c0.152,0.399,0.53,0.643,0.931,0.643
			c0.118,0,0.238-0.021,0.355-0.065C52.612,15.183,52.87,14.605,52.674,14.09z"/>
	</g>
</g>
</svg>
