<?xml version="1.0" encoding="utf-8"?>
<!-- Generator: Adobe Illustrator 18.0.0, SVG Export Plug-In . SVG Version: 6.00 Build 0)  -->
<!DOCTYPE svg PUBLIC "-//W3C//DTD SVG 1.1//EN" "http://www.w3.org/Graphics/SVG/1.1/DTD/svg11.dtd">
<svg version="1.1" id="Layer_1" xmlns="http://www.w3.org/2000/svg" xmlns:xlink="http://www.w3.org/1999/xlink" x="0px" y="0px"
	 viewBox="0 0 53 46" enable-background="new 0 0 53 46" xml:space="preserve">
<g>
	<g>
		<path d="M48,0H5C2.243,0,0,2.242,0,4.999v18C0,25.757,2.243,28,5,28c1.13,0,2.162-0.391,3-1.026v18.015L8.01,46h35.98L45,45.99
			V26.974C45.838,27.609,46.87,28,48,28c2.757,0,5-2.243,5-5.001v-18C53,2.242,50.757,0,48,0z M43,44H10V14.999
			C10,13.346,11.346,12,13,12h27c1.654,0,3,1.346,3,2.999V44z M51,22.999c0,1.655-1.346,2.999-3,2.999s-3-1.344-3-2.999V12h2V9.999
			H6V12h2v10.999c0,1.655-1.346,2.999-3,2.999c-1.654,0-3-1.344-3-2.999v-18c0-1.653,1.346-3,3-3h43c1.654,0,3,1.347,3,3V22.999z
			 M28,15.999H13V18h15V15.999z M13,24.999h20v-2H13V24.999z M13,31.999h20v-2H13V31.999z"/>
	</g>
</g>
</svg>
