<?xml version="1.0" encoding="utf-8"?>
<!-- Generator: Adobe Illustrator 18.0.0, SVG Export Plug-In . SVG Version: 6.00 Build 0)  -->
<!DOCTYPE svg PUBLIC "-//W3C//DTD SVG 1.1//EN" "http://www.w3.org/Graphics/SVG/1.1/DTD/svg11.dtd">
<svg version="1.1" id="Layer_1" xmlns="http://www.w3.org/2000/svg" xmlns:xlink="http://www.w3.org/1999/xlink" x="0px" y="0px"
	 viewBox="0 0 150.593 198.785" enable-background="new 0 0 150.593 198.785" xml:space="preserve">
<path fill-rule="evenodd" clip-rule="evenodd" fill="#231F20" d="M150.554,137.933c-0.001,1.054-0.376,2.092-1.154,2.866
	l-56.981,56.796c-0.779,0.774-1.818,1.19-2.878,1.19H12.21c-6.733,0-12.21-5.462-12.21-12.171V12.174C0,5.462,5.477,0,12.21,0
	h126.172c6.733,0,12.21,5.462,12.21,12.174v125.759H150.554z M93.612,184.931l43.085-42.942H93.612V184.931z M142.453,12.174
	c0-2.242-1.826-4.057-4.07-4.057H12.21c-2.244,0-4.07,1.815-4.07,4.057v174.441c0,2.235,1.826,4.053,4.07,4.053h73.261v-52.735
	c0-2.242,1.822-4.057,4.07-4.057h52.911V12.174z M48.841,34.137v51.057h-8.14V34.137L23.228,51.552l-5.755-5.736l24.42-24.345
	c1.59-1.579,4.166-1.579,5.756,0l24.42,24.345l-5.755,5.736L48.841,34.137z"/>
</svg>
