<!-- Generator: Adobe Illustrator 18.0.0, SVG Export Plug-In . SVG Version: 6.00 Build 0)  -->
<!DOCTYPE svg PUBLIC "-//W3C//DTD SVG 1.1//EN" "http://www.w3.org/Graphics/SVG/1.1/DTD/svg11.dtd">
<svg version="1.1" id="Layer_1" xmlns="http://www.w3.org/2000/svg" xmlns:xlink="http://www.w3.org/1999/xlink" x="0px" y="0px"
	 viewBox="0 0 56 54" enable-background="new 0 0 56 54" xml:space="preserve">
<g>
	<g>
    <path d="M50.815,43.616 L5.185,43.616 C2.326,43.616 -0.000,41.287 -0.000,38.424 L-0.000,5.193 C-0.000,2.330 2.326,0.001 5.185,0.001 L50.815,0.001 C53.674,0.001 56.000,2.330 56.000,5.193 L56.000,38.424 C56.000,41.287 53.674,43.616 50.815,43.616 ZM53.926,5.193 C53.926,3.475 52.530,2.078 50.815,2.078 L5.185,2.078 C3.470,2.078 2.074,3.475 2.074,5.193 L2.074,34.269 L53.926,34.269 L53.926,5.193 ZM53.926,36.347 L2.074,36.347 L2.074,38.424 C2.074,40.141 3.470,41.540 5.185,41.540 L50.815,41.540 C52.530,41.540 53.926,40.141 53.926,38.424 L53.926,36.347 ZM8.989,5.107 C9.394,4.702 10.050,4.702 10.455,5.107 C10.861,5.513 10.861,6.171 10.455,6.576 L6.567,10.470 C6.364,10.672 6.099,10.774 5.833,10.774 C5.568,10.774 5.303,10.672 5.100,10.470 C4.695,10.065 4.695,9.407 5.100,9.001 L8.989,5.107 ZM17.415,4.978 C17.820,4.572 18.476,4.572 18.881,4.978 C19.287,5.383 19.287,6.041 18.881,6.446 L6.567,18.779 C6.364,18.981 6.099,19.082 5.833,19.082 C5.568,19.082 5.303,18.981 5.100,18.779 C4.695,18.372 4.695,17.714 5.100,17.309 L17.415,4.978 ZM19.704,51.924 L23.852,51.924 L23.852,46.731 C23.852,46.157 24.316,45.694 24.889,45.694 C25.462,45.694 25.926,46.157 25.926,46.731 L25.926,51.924 L30.074,51.924 L30.074,46.731 C30.074,46.157 30.538,45.694 31.111,45.694 C31.684,45.694 32.148,46.157 32.148,46.731 L32.148,51.924 L37.333,51.924 C37.907,51.924 38.370,52.387 38.370,52.962 C38.370,53.536 37.907,54.001 37.333,54.001 L19.704,54.001 C19.131,54.001 18.667,53.536 18.667,52.962 C18.667,52.387 19.131,51.924 19.704,51.924 Z" class="cls-1"/>
	</g>
</g>
</svg>
