<?xml version="1.0" encoding="utf-8"?>
<!-- Generator: Adobe Illustrator 18.0.0, SVG Export Plug-In . SVG Version: 6.00 Build 0)  -->
<!DOCTYPE svg PUBLIC "-//W3C//DTD SVG 1.1//EN" "http://www.w3.org/Graphics/SVG/1.1/DTD/svg11.dtd">
<svg version="1.1" id="Layer_1" xmlns="http://www.w3.org/2000/svg" xmlns:xlink="http://www.w3.org/1999/xlink" x="0px" y="0px"
	 viewBox="0 0 75.019 75.021" enable-background="new 0 0 75.019 75.021" xml:space="preserve">
<path fill-rule="evenodd" clip-rule="evenodd" d="M37.509,75.021c-6.495,0-12.878-1.688-18.505-4.886L1.005,74.958l4.706-17.561
	C1.972,51.436,0,44.573,0,37.509C0,16.828,16.826,0,37.509,0c20.683,0,37.51,16.828,37.51,37.509
	C75.019,58.194,58.193,75.021,37.509,75.021z M37.509,3.237C18.61,3.237,3.234,18.61,3.234,37.509
	c0,6.678,1.928,13.154,5.577,18.731l0.396,0.605L5.579,70.385l13.895-3.722l0.586,0.344c5.27,3.126,11.305,4.78,17.449,4.78
	c18.899,0,34.275-15.379,34.275-34.277C71.784,18.61,56.409,3.237,37.509,3.237z M39.134,50.543h-3.234V39.118H24.477v-3.233h11.423
	V24.462h3.234v11.423h11.423v3.233H39.134V50.543z"/>
</svg>
