<?xml version="1.0" encoding="utf-8"?>
<!-- Generator: Adobe Illustrator 18.0.0, SVG Export Plug-In . SVG Version: 6.00 Build 0)  -->
<!DOCTYPE svg PUBLIC "-//W3C//DTD SVG 1.1//EN" "http://www.w3.org/Graphics/SVG/1.1/DTD/svg11.dtd">
<svg version="1.1" id="Layer_1" xmlns="http://www.w3.org/2000/svg" xmlns:xlink="http://www.w3.org/1999/xlink" x="0px" y="0px"
	 viewBox="0 0 109.352 104.267" enable-background="new 0 0 109.352 104.267" xml:space="preserve">
<path fill-rule="evenodd" clip-rule="evenodd" d="M104.547,86.807H34.071c-2.653,0-4.805-2.112-4.805-4.718V50.906
	c0-2.607,2.152-4.719,4.805-4.719h70.476c2.653,0,4.805,2.112,4.805,4.719v31.182C109.352,84.695,107.2,86.807,104.547,86.807z
	 M57.152,60.438c-0.272-0.82-0.706-1.546-1.298-2.18c-0.594-0.633-1.365-1.142-2.313-1.527c-0.945-0.386-2.093-0.58-3.443-0.58
	h-9.727v21.183h4.742v-7.595h4.985c1.35,0,2.498-0.193,3.443-0.578c0.948-0.386,1.719-0.896,2.313-1.528
	c0.592-0.633,1.026-1.354,1.298-2.164c0.273-0.811,0.406-1.652,0.406-2.523C57.558,62.095,57.425,61.26,57.152,60.438z
	 M78.874,62.026c-0.494-1.306-1.179-2.393-2.054-3.263c-0.878-0.87-1.915-1.523-3.113-1.959c-1.198-0.435-2.492-0.653-3.882-0.653
	H60.52v21.183h9.306c1.651,0,3.085-0.272,4.304-0.817c1.221-0.543,2.237-1.29,3.053-2.239c0.816-0.949,1.424-2.077,1.828-3.382
	c0.402-1.305,0.603-2.73,0.603-4.272C79.614,64.864,79.368,63.332,78.874,62.026z M98.075,56.151H82.908v21.183h4.742v-8.752h9.036
	v-3.619H87.65v-4.896h10.425V56.151z M73.209,72.009c-0.503,0.503-1.077,0.864-1.723,1.081c-0.645,0.218-1.31,0.327-1.994,0.327
	h-4.23v-13.35h3.386c1.167,0,2.15,0.163,2.945,0.49c0.796,0.326,1.434,0.796,1.917,1.409s0.832,1.349,1.044,2.21
	c0.209,0.86,0.317,1.825,0.317,2.893c0,1.167-0.152,2.157-0.454,2.966C74.116,70.847,73.712,71.505,73.209,72.009z M51.699,65.542
	c-0.385,0.228-0.827,0.38-1.33,0.46c-0.505,0.08-1.028,0.119-1.571,0.119h-3.687v-6.349h3.687c0.543,0,1.067,0.039,1.571,0.118
	c0.502,0.08,0.945,0.233,1.33,0.46c0.382,0.228,0.688,0.55,0.921,0.964c0.23,0.416,0.346,0.96,0.346,1.631
	c0,0.673-0.117,1.217-0.346,1.631C52.388,64.992,52.081,65.314,51.699,65.542z M74.646,31.929l-0.174-0.184H52.978
	c-0.896,0-1.623-0.712-1.623-1.592V7.173L50.948,6.74h-40.4c-2.031,0-3.683,1.621-3.683,3.616V93.91
	c0,1.993,1.652,3.616,3.683,3.616h60.415c2.031,0,3.683-1.623,3.683-3.616v-4.856h6.865v4.856c0,5.71-4.731,10.357-10.548,10.357
	H10.548C4.731,104.267,0,99.62,0,93.91V10.356C0,4.645,4.731,0,10.548,0H52.45c0.957,0,1.87,0.393,2.521,1.083L80.6,28.323
	c0.585,0.624,0.911,1.44,0.911,2.288V43.94h-6.865V31.929z M54.6,10.623v17.939h16.877L54.6,10.623z"/>
</svg>
