<?xml version="1.0" encoding="utf-8"?>
<!-- Generator: Adobe Illustrator 16.0.0, SVG Export Plug-In . SVG Version: 6.00 Build 0)  -->
<!DOCTYPE svg PUBLIC "-//W3C//DTD SVG 1.1//EN" "http://www.w3.org/Graphics/SVG/1.1/DTD/svg11.dtd">
<svg version="1.1" id="Layer_1" xmlns="http://www.w3.org/2000/svg" xmlns:xlink="http://www.w3.org/1999/xlink" x="0px" y="0px"
	 width="512px" height="512px" viewBox="0 0 512 512" enable-background="new 0 0 512 512" xml:space="preserve">
<path fill-rule="evenodd" clip-rule="evenodd" d="M256.055,0C112.675-0.14,1.121,113.334,0.155,254.207
	C-0.809,394.784,109.733,510.179,255.491,512c143.837-1.111,255.883-113.964,256.36-255.411
	C512.321,116.504,402.006,0.143,256.055,0z M300.332,421.156c-0.041,7.814-4.673,12.171-12.568,12.186
	c-21.125,0.038-42.251,0.033-63.379,0.002c-8.161-0.012-12.69-4.356-12.723-12.489c-0.086-21.278-0.093-42.555,0.002-63.834
	c0.038-8.158,4.529-12.386,12.79-12.414c10.564-0.039,21.128-0.01,31.692-0.01c10.562,0,21.125-0.038,31.69,0.014
	c7.85,0.036,12.463,4.419,12.501,12.26C300.439,378.297,300.441,399.727,300.332,421.156z M319.646,145.959
	c-8.355,43.516-16.738,87.026-25.114,130.54c-2.796,14.523-13.854,23.663-28.701,23.715c-3.319,0.013-6.643,0.003-9.961,0.003
	c-3.171,0-6.339,0.007-9.51,0c-15.122-0.041-26.097-9.199-28.93-23.979c-8.283-43.222-16.597-86.438-24.94-129.649
	c-2.853-14.775,4.491-23.867,19.504-23.882c29.433-0.028,58.868-0.027,88.301,0C314.741,122.721,322.352,131.872,319.646,145.959z"
	/>
</svg>
