<?xml version="1.0" encoding="UTF-8" standalone="no"?>
<!DOCTYPE svg PUBLIC "-//W3C//DTD SVG 1.1//EN" "http://www.w3.org/Graphics/SVG/1.1/DTD/svg11.dtd">
<svg width="100%" height="100%" viewBox="0 0 78 78" version="1.1" xmlns="http://www.w3.org/2000/svg" xmlns:xlink="http://www.w3.org/1999/xlink" xml:space="preserve" xmlns:serif="http://www.serif.com/" style="fill-rule:evenodd;clip-rule:evenodd;stroke-linejoin:round;stroke-miterlimit:1.41421;">
    <g transform="matrix(5.55556,0,0,5.55556,-194.444,-2744.44)">
        <g transform="matrix(1,0,0,1,7.10543e-15,458)">
            <g>
                <g transform="matrix(0.608696,0,0,0.608696,22.8261,26.8696)">
                    <rect x="20" y="15" width="23" height="23" style="fill:none;"/>
                </g>
                <g id="柱图" transform="matrix(1,0,0,1,-7.10543e-15,-304)">
                    <path d="M48.526,353.001L48.551,353.003L48.576,353.006L48.601,353.01L48.625,353.016L48.649,353.022L48.672,353.03L48.695,353.039L48.717,353.049L48.738,353.06L48.759,353.072L48.78,353.085L48.799,353.099L48.818,353.114L48.836,353.13L48.854,353.146L48.87,353.164L48.886,353.182L48.901,353.201L48.915,353.22L48.928,353.241L48.94,353.262L48.951,353.283L48.961,353.305L48.97,353.328L48.978,353.351L48.984,353.375L48.99,353.399L48.994,353.424L48.997,353.449L48.999,353.474L49,353.5C49,353.5 48.999,353.526 48.999,353.526L48.997,353.551L48.994,353.576L48.99,353.601L48.984,353.625L48.978,353.649L48.97,353.672L48.961,353.695L48.951,353.717L48.94,353.738L48.928,353.759L48.915,353.78L48.901,353.799L48.886,353.818L48.87,353.836L48.854,353.854L48.836,353.87L48.818,353.886L48.799,353.901L48.78,353.915L48.759,353.928L48.738,353.94L48.717,353.951L48.695,353.961L48.672,353.97L48.649,353.978L48.625,353.984L48.601,353.99L48.576,353.994L48.551,353.997L48.526,353.999L48.5,354L35.5,354L35.474,353.999L35.449,353.997L35.424,353.994L35.399,353.99L35.375,353.984L35.351,353.978L35.328,353.97L35.305,353.961L35.283,353.951L35.262,353.94L35.241,353.928L35.22,353.915L35.201,353.901L35.182,353.886L35.164,353.87L35.146,353.854L35.13,353.836L35.114,353.818L35.099,353.799L35.085,353.78L35.072,353.759L35.06,353.738L35.049,353.717L35.039,353.695L35.03,353.672L35.022,353.649L35.016,353.625L35.01,353.601L35.006,353.576L35.003,353.551L35.001,353.526L35,353.5C35,353.5 35.001,353.474 35.001,353.474L35.003,353.449L35.006,353.424L35.01,353.399L35.016,353.375L35.022,353.351L35.03,353.328L35.039,353.305L35.049,353.283L35.06,353.262L35.072,353.241L35.085,353.22L35.099,353.201L35.114,353.182L35.13,353.164L35.146,353.146L35.164,353.13L35.182,353.114L35.201,353.099L35.22,353.085L35.241,353.072L35.262,353.06L35.283,353.049L35.305,353.039L35.328,353.03L35.351,353.022L35.375,353.016L35.399,353.01L35.424,353.006L35.449,353.003L35.474,353.001L35.5,353L48.5,353L48.526,353.001ZM40.5,344L40.526,344.001L40.551,344.003L40.576,344.006L40.601,344.01L40.625,344.016L40.649,344.022L40.672,344.03L40.695,344.039L40.717,344.049L40.738,344.06L40.759,344.072L40.78,344.085L40.799,344.099L40.818,344.114L40.836,344.13L40.854,344.146L40.87,344.164L40.886,344.182L40.901,344.201L40.915,344.22L40.928,344.241L40.94,344.262L40.951,344.283L40.961,344.305L40.97,344.328L40.978,344.351L40.984,344.375L40.99,344.399L40.994,344.424L40.997,344.449L40.999,344.474L41,344.5L41,351.5L40.999,351.526L40.997,351.551L40.994,351.576L40.99,351.601L40.984,351.625L40.978,351.649L40.97,351.672L40.961,351.695L40.951,351.717L40.94,351.738L40.928,351.759L40.915,351.78L40.901,351.799L40.886,351.818L40.87,351.836L40.854,351.854L40.836,351.87L40.818,351.886L40.799,351.901L40.78,351.915L40.759,351.928L40.738,351.94L40.717,351.951L40.695,351.961L40.672,351.97L40.649,351.978L40.625,351.984L40.601,351.99L40.576,351.994L40.551,351.997L40.526,351.999L40.5,352C40.5,352 40.474,351.999 40.474,351.999L40.449,351.997L40.424,351.994L40.399,351.99L40.375,351.984L40.351,351.978L40.328,351.97L40.305,351.961L40.283,351.951L40.262,351.94L40.241,351.928L40.22,351.915L40.201,351.901L40.182,351.886L40.164,351.87L40.146,351.854L40.13,351.836L40.114,351.818L40.099,351.799L40.085,351.78L40.072,351.759L40.06,351.738L40.049,351.717L40.039,351.695L40.03,351.672L40.022,351.649L40.016,351.625L40.01,351.601L40.006,351.576L40.003,351.551L40.001,351.526L40,351.5L40,344.5L40.001,344.474L40.003,344.449L40.006,344.424L40.01,344.399L40.016,344.375L40.022,344.351L40.03,344.328L40.039,344.305L40.049,344.283L40.06,344.262L40.072,344.241L40.085,344.22L40.099,344.201L40.114,344.182L40.13,344.164L40.146,344.146L40.164,344.13L40.182,344.114L40.201,344.099L40.22,344.085L40.241,344.072L40.262,344.06L40.283,344.049L40.305,344.039L40.328,344.03L40.351,344.022L40.375,344.016L40.399,344.01L40.424,344.006L40.449,344.003L40.474,344.001L40.5,344L40.5,344ZM43.5,342L43.525,342.001L43.549,342.002L43.574,342.005L43.598,342.01L43.622,342.015L43.645,342.022L43.669,342.029L43.691,342.038L43.714,342.048L43.735,342.059L43.757,342.071L43.777,342.084L43.797,342.098L43.817,342.113L43.836,342.129L43.854,342.146L43.871,342.164L43.887,342.183L43.902,342.203L43.916,342.223L43.929,342.243L43.941,342.265L43.952,342.286L43.962,342.309L43.971,342.331L43.978,342.355L43.985,342.378L43.99,342.402L43.995,342.426L43.998,342.451L43.999,342.475L44,342.5L44,351.5L43.999,351.525L43.998,351.549L43.995,351.574L43.99,351.598L43.985,351.622L43.978,351.645L43.971,351.669L43.962,351.691L43.952,351.714L43.941,351.735L43.929,351.757L43.916,351.777L43.902,351.797L43.887,351.817L43.871,351.836L43.854,351.854L43.836,351.871L43.817,351.887L43.797,351.902L43.777,351.916L43.757,351.929L43.735,351.941L43.714,351.952L43.691,351.962L43.669,351.971L43.645,351.978L43.622,351.985L43.598,351.99L43.574,351.995L43.549,351.998L43.525,351.999L43.5,352C43.5,352 43.475,351.999 43.475,351.999L43.451,351.998L43.426,351.995L43.402,351.99L43.378,351.985L43.355,351.978L43.331,351.971L43.309,351.962L43.286,351.952L43.265,351.941L43.243,351.929L43.223,351.916L43.203,351.902L43.183,351.887L43.164,351.871L43.146,351.854L43.129,351.836L43.113,351.817L43.098,351.797L43.084,351.777L43.071,351.757L43.059,351.735L43.048,351.714L43.038,351.691L43.029,351.669L43.022,351.645L43.015,351.622L43.01,351.598L43.005,351.574L43.002,351.549L43.001,351.525L43,351.5L43,342.5L43.001,342.475L43.002,342.451L43.005,342.426L43.01,342.402L43.015,342.378L43.022,342.355L43.029,342.331L43.038,342.309L43.048,342.286L43.059,342.265L43.071,342.243L43.084,342.223L43.098,342.203L43.113,342.183L43.129,342.164L43.146,342.146L43.164,342.129L43.183,342.113L43.203,342.098L43.223,342.084L43.243,342.071L43.265,342.059L43.286,342.048L43.309,342.038L43.331,342.029L43.355,342.022L43.378,342.015L43.402,342.01L43.426,342.005L43.451,342.002L43.475,342.001L43.5,342L43.5,342ZM46.5,346L46.525,346.001L46.549,346.002L46.574,346.005L46.598,346.01L46.622,346.015L46.645,346.022L46.669,346.029L46.691,346.038L46.714,346.048L46.735,346.059L46.757,346.071L46.777,346.084L46.797,346.098L46.817,346.113L46.836,346.129L46.854,346.146L46.871,346.164L46.887,346.183L46.902,346.203L46.916,346.223L46.929,346.243L46.941,346.265L46.952,346.286L46.962,346.309L46.971,346.331L46.978,346.355L46.985,346.378L46.99,346.402L46.995,346.426L46.998,346.451L46.999,346.475L47,346.5L47,351.5L46.999,351.525L46.998,351.549L46.995,351.574L46.99,351.598L46.985,351.622L46.978,351.645L46.971,351.669L46.962,351.691L46.952,351.714L46.941,351.735L46.929,351.757L46.916,351.777L46.902,351.797L46.887,351.817L46.871,351.836L46.854,351.854L46.836,351.871L46.817,351.887L46.797,351.902L46.777,351.916L46.757,351.929L46.735,351.941L46.714,351.952L46.691,351.962L46.669,351.971L46.645,351.978L46.622,351.985L46.598,351.99L46.574,351.995L46.549,351.998L46.525,351.999L46.5,352C46.5,352 46.475,351.999 46.475,351.999L46.451,351.998L46.426,351.995L46.402,351.99L46.378,351.985L46.355,351.978L46.331,351.971L46.309,351.962L46.286,351.952L46.265,351.941L46.243,351.929L46.223,351.916L46.203,351.902L46.183,351.887L46.164,351.871L46.146,351.854L46.129,351.836L46.113,351.817L46.098,351.797L46.084,351.777L46.071,351.757L46.059,351.735L46.048,351.714L46.038,351.691L46.029,351.669L46.022,351.645L46.015,351.622L46.01,351.598L46.005,351.574L46.002,351.549L46.001,351.525L46,351.5L46,346.5L46.001,346.475L46.002,346.451L46.005,346.426L46.01,346.402L46.015,346.378L46.022,346.355L46.029,346.331L46.038,346.309L46.048,346.286L46.059,346.265L46.071,346.243L46.084,346.223L46.098,346.203L46.113,346.183L46.129,346.164L46.146,346.146L46.164,346.129L46.183,346.113L46.203,346.098L46.223,346.084L46.243,346.071L46.265,346.059L46.286,346.048L46.309,346.038L46.331,346.029L46.355,346.022L46.378,346.015L46.402,346.01L46.426,346.005L46.451,346.002L46.475,346.001L46.5,346L46.5,346ZM37.526,340.001L37.551,340.003L37.576,340.006L37.601,340.01L37.625,340.016L37.649,340.022L37.672,340.03L37.695,340.039L37.717,340.049L37.738,340.06L37.759,340.072L37.78,340.085L37.799,340.099L37.818,340.114L37.836,340.13L37.854,340.146L37.87,340.164L37.886,340.182L37.901,340.201L37.915,340.22L37.928,340.241L37.94,340.262L37.951,340.283L37.961,340.305L37.97,340.328L37.978,340.351L37.984,340.375L37.99,340.399L37.994,340.424L37.997,340.449L37.999,340.474L38,340.5L38,351.5L37.999,351.525L37.998,351.549L37.995,351.574L37.99,351.598L37.985,351.622L37.978,351.645L37.971,351.669L37.962,351.691L37.952,351.714L37.941,351.735L37.929,351.757L37.916,351.777L37.902,351.797L37.887,351.817L37.871,351.836L37.854,351.854L37.836,351.871L37.817,351.887L37.797,351.902L37.777,351.916L37.757,351.929L37.735,351.941L37.714,351.952L37.691,351.962L37.669,351.971L37.645,351.978L37.622,351.985L37.598,351.99L37.574,351.995L37.549,351.998L37.525,351.999L37.5,352C37.5,352 37.474,351.999 37.474,351.999L37.449,351.997L37.424,351.994L37.399,351.99L37.375,351.984L37.351,351.978L37.328,351.97L37.305,351.961L37.283,351.951L37.262,351.94L37.241,351.928L37.22,351.915L37.201,351.901L37.182,351.886L37.164,351.87L37.146,351.854L37.13,351.836L37.114,351.818L37.099,351.799L37.085,351.78L37.072,351.759L37.06,351.738L37.049,351.717L37.039,351.695L37.03,351.672L37.022,351.649L37.016,351.625L37.01,351.601L37.006,351.576L37.003,351.551L37.001,351.526L37,351.5L37,340.5L37.001,340.475L37.002,340.451L37.005,340.426L37.01,340.402L37.015,340.378L37.022,340.355L37.029,340.331L37.038,340.309L37.048,340.286L37.059,340.265L37.071,340.243L37.084,340.223L37.098,340.203L37.113,340.183L37.129,340.164L37.146,340.146L37.164,340.129L37.183,340.113L37.203,340.098L37.223,340.084L37.243,340.071L37.265,340.059L37.286,340.048L37.309,340.038L37.331,340.029L37.355,340.022L37.378,340.015L37.402,340.01L37.426,340.005L37.451,340.002L37.475,340.001L37.5,340C37.5,340 37.526,340.001 37.526,340.001Z" style="fill:currentColor;"/>
                </g>
            </g>
        </g>
    </g>
</svg>
