<?xml version="1.0" encoding="UTF-8"?>
<svg width="60px" height="61px" viewBox="0 0 60 61" version="1.1" xmlns="http://www.w3.org/2000/svg" xmlns:xlink="http://www.w3.org/1999/xlink">
    <title>空态 - 被删除</title>
    <g id="功能组件" stroke="none" stroke-width="1" fill="none" fill-rule="evenodd">
        <g id="Select" transform="translate(-1201.000000, -1155.000000)">
            <g id="Part2" transform="translate(332.000000, 342.000000)">
                <g id="区分" transform="translate(0.000000, 142.000000)">
                    <g id="所有内容备份-2" transform="translate(759.000000, 530.000000)">
                        <g id="编组-30" transform="translate(0.000000, 74.000000)">
                            <g id="编组-2" transform="translate(104.000000, 68.000000)">
                                <g id="空态---被删除" transform="translate(6.000000, 0.000000)">
                                    <path d="M0.588235294,35.8823529 L10.5882353,14.1176471 L49.4117647,14.1176471 L59.4117647,35.8823529 L35.8823529,35.8823529 C35.8823529,39.1310868 33.2487338,41.7647059 30,41.7647059 C26.7512662,41.7647059 24.1176471,39.1310868 24.1176471,35.8823529 L24.1176471,35.8823529 L24.1176471,35.8823529 L0.588235294,35.8823529 Z" id="路径-6" fill="#F7F8FC"></path>
                                    <path d="M0.588235294,35.8823529 L24.1176471,35.8823529 C24.1176471,39.1310868 26.7512662,41.7647059 30,41.7647059 C33.2487338,41.7647059 35.8823529,39.1310868 35.8823529,35.8823529 L35.8823529,35.8823529 L35.8823529,35.8823529 L59.4117647,35.8823529 L59.4117647,56.4117647 C59.4117647,58.068619 58.068619,59.4117647 56.4117647,59.4117647 L3.58823529,59.4117647 C1.93138104,59.4117647 0.588235294,58.068619 0.588235294,56.4117647 L0.588235294,35.8823529 L0.588235294,35.8823529 Z" id="矩形" fill="#FFFFFF"></path>
                                    <path d="M47.4358328,14.6176471 C48.1195083,14.6176471 48.7718833,14.8167144 49.324698,15.1710917 C49.8775127,15.525469 50.3307672,16.0351564 50.6162018,16.6563965 L50.6162018,16.6563965 L59.180369,35.2960544 C59.3909667,35.7544141 59.5,36.2528795 59.5,36.757305 L59.5,36.757305 L59.5,56 C59.5,56.9664983 59.1082492,57.8414983 58.4748737,58.4748737 C57.8414983,59.1082492 56.9664983,59.5 56,59.5 L56,59.5 L4,59.5 C3.03350169,59.5 2.15850169,59.1082492 1.52512627,58.4748737 C0.891750844,57.8414983 0.5,56.9664983 0.5,56 L0.5,56 L0.5,36.757305 C0.5,36.2528795 0.609033331,35.7544141 0.819631046,35.2960544 L0.819631046,35.2960544 L9.3837982,16.6563965 C9.66923283,16.0351564 10.1224873,15.525469 10.675302,15.1710917 C11.2281167,14.8167144 11.8804917,14.6176471 12.5641672,14.6176471 L12.5641672,14.6176471 Z" id="路径-4" stroke="#DCDFED"></path>
                                    <path d="M0.588235294,35.8823529 L24.1176471,35.8823529 C24.1176471,39.1310868 26.7512662,41.7647059 30,41.7647059 C33.2487338,41.7647059 35.8823529,39.1310868 35.8823529,35.8823529 L35.8823529,35.8823529 L35.8823529,35.8823529 L59.4117647,35.8823529" id="路径-5" stroke="#DCDFED" stroke-linecap="round" stroke-linejoin="round"></path>
                                    <line x1="30" y1="0" x2="30" y2="9.41176471" id="路径-7" stroke="#DCDFED" stroke-width="1.5" stroke-linecap="round" stroke-linejoin="round"></line>
                                    <line x1="40.5882353" y1="1.26093738" x2="35.8823529" y2="9.41176471" id="路径-7" stroke="#DCDFED" stroke-width="1.5" stroke-linecap="round" stroke-linejoin="round"></line>
                                    <line x1="19.4117647" y1="1.26093738" x2="24.1176471" y2="9.41176471" id="路径-7" stroke="#DCDFED" stroke-width="1.5" stroke-linecap="round" stroke-linejoin="round"></line>
                                </g>
                            </g>
                        </g>
                    </g>
                </g>
            </g>
        </g>
    </g>
</svg>