<svg xmlns="http://www.w3.org/2000/svg" viewBox="0 0 14.01 14"><defs><style>.cls-1{fill:none;}.cls-2{fill:#323333;fill-rule:evenodd;}</style></defs><title>calendar</title><g id="图层_2" data-name="图层 2"><g id="图层_1-2" data-name="图层 1"><g id="calendar"><path class="cls-2" d="M10.5,7h-1a.5.5,0,0,1,0-1h1a.5.5,0,0,1,0,1Zm-3,0h-1a.5.5,0,0,1,0-1h1a.5.5,0,0,1,0,1Zm-3,0h-1a.5.5,0,0,1,0-1h1a.5.5,0,0,1,0,1Zm6,3h-1a.5.5,0,0,1,0-1h1a.5.5,0,0,1,0,1Zm-3,0h-1a.5.5,0,0,1,0-1h1a.5.5,0,0,1,0,1Zm-3,0h-1a.5.5,0,0,1,0-1h1a.5.5,0,0,1,0,1Zm-3-6.95A.53.53,0,0,0,1,3.58v7.93a.54.54,0,0,0,.53.54H12.47a.54.54,0,0,0,.53-.54V3.58a.53.53,0,0,0-.53-.53H11.14a.13.13,0,0,0-.1,0,.12.12,0,0,0,0,.1V3.5a.5.5,0,0,1-1,0V3.19a.14.14,0,0,0-.14-.14H4.14A.14.14,0,0,0,4,3.19V3.5a.5.5,0,0,1-1,0V3.19a.12.12,0,0,0,0-.1.13.13,0,0,0-.1,0ZM9.86,2A.14.14,0,0,0,10,1.86V1.5a.5.5,0,0,1,1,0v.36a.14.14,0,0,0,.14.14H13a1,1,0,0,1,1,1v9a1,1,0,0,1-1,1H1a1,1,0,0,1-1-1V3A1,1,0,0,1,1,2H2.86A.14.14,0,0,0,3,1.86V1.5a.5.5,0,0,1,1,0v.36A.14.14,0,0,0,4.14,2Z"/></g></g></g></svg>