<svg xmlns="http://www.w3.org/2000/svg" viewBox="0 0 14 14"><defs><style>.cls-1{fill:none;}.cls-2{fill:currentColor;fill-rule:evenodd;}</style></defs><title>check</title><g id="图层_2" data-name="图层 2"><g id="图层_1-2" data-name="图层 1"><g id="check"><path class="cls-2" d="M5.76,10.9l-.35.35a.5.5,0,0,1-.71,0l-.37-.37L.81,7.36a.51.51,0,0,1,0-.7h0a.49.49,0,0,1,.36-.15.47.47,0,0,1,.35.15L4.89,10a.19.19,0,0,0,.28,0l7.28-7.27a.48.48,0,0,1,.36-.15.51.51,0,0,1,.37.15h0a.53.53,0,0,1,.15.36.56.56,0,0,1-.15.37Z"/></g></g></g></svg>