<svg xmlns="http://www.w3.org/2000/svg" viewBox="0 0 14 14"><defs><style>.cls-1{fill:none;}.cls-2{fill:currentColor;fill-rule:evenodd;}</style></defs><title>check-circle</title><g id="图层_2" data-name="图层 2"><g id="图层_1-2" data-name="图层 1"><g id="check-circle"><path class="cls-2" d="M5.75,8.26a.19.19,0,0,0,.28,0c.59-.59,2.85-2.84,3.74-3.74a.52.52,0,0,1,.73,0h0a.51.51,0,0,1,0,.72L6.62,9.13l-.34.34a.46.46,0,0,1-.34.16.47.47,0,0,1-.36-.13l-.4-.39L3.44,7.37a.52.52,0,0,1,0-.72h0a.52.52,0,0,1,.35-.14.5.5,0,0,1,.35.14C4.61,7.12,5.42,7.94,5.75,8.26ZM7,0A7,7,0,1,1,0,7,7,7,0,0,1,7,0Z"/></g></g></g></svg>