<?xml version="1.0" encoding="UTF-8" standalone="no"?>
<!DOCTYPE svg PUBLIC "-//W3C//DTD SVG 1.1//EN" "http://www.w3.org/Graphics/SVG/1.1/DTD/svg11.dtd">
<svg width="100%" height="100%" viewBox="0 0 14 14" version="1.1" xmlns="http://www.w3.org/2000/svg" xmlns:xlink="http://www.w3.org/1999/xlink" xml:space="preserve" xmlns:serif="http://www.serif.com/" style="fill-rule:evenodd;clip-rule:evenodd;stroke-linejoin:round;stroke-miterlimit:2;">
    <g transform="matrix(1,0,0,1,-150.888,-728)">
        <g id="清除" transform="matrix(1,0,0,1,115.888,154)">
            <path d="M44.5,578.5C44.5,578.633 44.553,578.76 44.646,578.854C44.74,578.947 44.867,579 45,579C45.721,579 47.07,579 48,579C48.552,579 49,579.448 49,580C49,581.732 49,585.268 49,587C49,587.552 48.552,588 48,588C45.423,588 38.577,588 36,588C35.448,588 35,587.552 35,587C35,585.268 35,581.732 35,580C35,579.448 35.448,579 36,579L39,579C39.133,579 39.26,578.947 39.354,578.854C39.447,578.76 39.5,578.633 39.5,578.5C39.5,577.686 39.5,576.058 39.5,575C39.5,574.735 39.605,574.48 39.793,574.293C39.98,574.105 40.235,574 40.5,574L43.5,574C43.765,574 44.02,574.105 44.207,574.293C44.395,574.48 44.5,574.735 44.5,575L44.5,578.5ZM48,583.5C48,583.367 47.947,583.24 47.854,583.146C47.76,583.053 47.633,583 47.5,583C45.548,583 38.452,583 36.5,583C36.367,583 36.24,583.053 36.146,583.146C36.053,583.24 36,583.367 36,583.5C36,584.269 36,585.731 36,586.5C36,586.633 36.053,586.76 36.146,586.854C36.24,586.947 36.367,587 36.5,587C36.92,587 37.499,587 37.8,587C37.91,587 38,586.91 38,586.8C38,586.499 38,585.92 38,585.5C38,585.367 38.053,585.24 38.146,585.146C38.24,585.053 38.367,585 38.5,585C38.633,585 38.76,585.053 38.854,585.146C38.947,585.24 39,585.367 39,585.5C39,585.92 39,586.499 39,586.8C39,586.91 39.09,587 39.2,587C39.668,587 40.832,587 41.3,587C41.41,587 41.5,586.91 41.5,586.8C41.5,586.335 41.5,585.172 41.5,584.5C41.5,584.367 41.553,584.24 41.646,584.146C41.74,584.053 41.867,584 42,584C42.133,584 42.26,584.053 42.354,584.146C42.447,584.24 42.5,584.367 42.5,584.5C42.5,585.172 42.5,586.335 42.5,586.8C42.5,586.91 42.59,587 42.7,587C43.168,587 44.332,587 44.8,587C44.91,587 45,586.91 45,586.8C45,586.499 45,585.92 45,585.5C45,585.367 45.053,585.24 45.146,585.146C45.24,585.053 45.367,585 45.5,585C45.633,585 45.76,585.053 45.854,585.146C45.947,585.24 46,585.367 46,585.5C46,585.92 46,586.499 46,586.8C46,586.91 46.09,587 46.2,587C46.501,587 47.08,587 47.5,587C47.633,587 47.76,586.947 47.854,586.854C47.947,586.76 48,586.633 48,586.5C48,585.731 48,584.269 48,583.5ZM48,580.5C48,580.367 47.947,580.24 47.854,580.146C47.76,580.053 47.633,580 47.5,580C45.548,580 38.452,580 36.5,580C36.367,580 36.24,580.053 36.146,580.146C36.053,580.24 36,580.367 36,580.5C36,580.805 36,581.195 36,581.5C36,581.633 36.053,581.76 36.146,581.854C36.24,581.947 36.367,582 36.5,582C38.452,582 45.548,582 47.5,582C47.633,582 47.76,581.947 47.854,581.854C47.947,581.76 48,581.633 48,581.5C48,581.195 48,580.805 48,580.5ZM41,575C40.867,575 40.74,575.053 40.646,575.146C40.553,575.24 40.5,575.367 40.5,575.5C40.5,576.269 40.5,577.731 40.5,578.5C40.5,578.633 40.553,578.76 40.646,578.854C40.74,578.947 40.867,579 41,579C41.555,579 42.445,579 43,579C43.133,579 43.26,578.947 43.354,578.854C43.447,578.76 43.5,578.633 43.5,578.5C43.5,577.731 43.5,576.269 43.5,575.5C43.5,575.367 43.447,575.24 43.354,575.146C43.26,575.053 43.133,575 43,575C42.445,575 41.555,575 41,575Z" style="fill:rgb(51,51,51);"/>
        </g>
    </g>
</svg>
