<svg xmlns="http://www.w3.org/2000/svg" viewBox="0 0 14 14"><defs><style>.cls-1{fill:currentColor;}.cls-2{fill-rule:evenodd;}</style></defs><title>close</title><g id="图层_2" data-name="图层 2"><g id="图层_1-2" data-name="图层 1"><g id="close"><path class="cls-2" d="M6.62,5.92a.54.54,0,0,0,.76,0l3.87-3.87a.49.49,0,0,1,.7.7L8.08,6.62a.54.54,0,0,0,0,.76L12,11.25a.49.49,0,0,1-.7.7L7.38,8.08a.54.54,0,0,0-.76,0L2.75,12a.49.49,0,0,1-.7-.7L5.92,7.38a.54.54,0,0,0,0-.76L2.05,2.75a.49.49,0,0,1,.7-.7Z"/></g></g></g></svg>

