<svg xmlns="http://www.w3.org/2000/svg" viewBox="0 0 14 14"><title>copy</title><g id="图层_2" ><g id="图层_1-2" dataName="图层 1"><path className="cls-copy-2" d="M10 2.5a.5.5 0 0 1-.5.5.5.5 0 0 1-.5-.5v-1a.47.47 0 0 0-.15-.35A.47.47 0 0 0 8.5 1h-7a.5.5 0 0 0-.5.5v7a.47.47 0 0 0 .15.35.47.47 0 0 0 .35.15h1a.5.5 0 0 1 0 1H1a1 1 0 0 1-1-1V1a1 1 0 0 1 1-1h8a1 1 0 0 1 1 1zm3 3a.5.5 0 0 0-.5-.5h-7a.5.5 0 0 0-.5.5v7a.5.5 0 0 0 .5.5h7a.5.5 0 0 0 .5-.5zm1 7.5a1 1 0 0 1-1 1H5a1 1 0 0 1-1-1V5a1 1 0 0 1 1-1h8a1 1 0 0 1 1 1z" id="copy"/></g></g></svg>