<svg xmlns="http://www.w3.org/2000/svg" viewBox="0 0 14 14"><defs><style>.cls-1{fill:none;}.cls-2{fill:currentColor;fill-rule:evenodd;}</style></defs><title>delete</title><g id="图层_2" data-name="图层 2"><g id="图层_1-2" data-name="图层 1"><g id="delete"><path class="cls-2" d="M9,1.2A.2.2,0,0,0,8.8,1H5.2a.2.2,0,0,0-.2.2v.6a.2.2,0,0,0,.2.2H8.8A.2.2,0,0,0,9,1.8Zm1,9.3a.5.5,0,0,1-1,0v-5a.5.5,0,0,1,1,0Zm-5,0a.5.5,0,0,1-.85.35A.47.47,0,0,1,4,10.5v-5a.5.5,0,0,1,.85-.35A.47.47,0,0,1,5,5.5Zm2.5,0a.5.5,0,0,1-1,0v-5a.5.5,0,0,1,1,0Zm4-7A.5.5,0,0,0,11,3H3a.5.5,0,0,0-.5.5v9A.5.5,0,0,0,3,13h8a.5.5,0,0,0,.5-.5ZM10,1.5a.47.47,0,0,0,.15.35A.47.47,0,0,0,10.5,2H13a.5.5,0,0,1,0,1h-.34a.17.17,0,0,0-.16.16V13a1,1,0,0,1-1,1h-9a1,1,0,0,1-1-1V3.16A.17.17,0,0,0,1.34,3H1A.5.5,0,0,1,1,2H3.5a.47.47,0,0,0,.35-.15A.47.47,0,0,0,4,1.5V1A1,1,0,0,1,4.29.29,1,1,0,0,1,5,0H9a1,1,0,0,1,.71.29A1,1,0,0,1,10,1Z"/></g></g></g></svg>