<?xml version="1.0" encoding="UTF-8" standalone="no"?>
<!DOCTYPE svg PUBLIC "-//W3C//DTD SVG 1.1//EN" "http://www.w3.org/Graphics/SVG/1.1/DTD/svg11.dtd">
<svg width="100%" height="100%" viewBox="0 0 78 78" version="1.1" xmlns="http://www.w3.org/2000/svg" xmlns:xlink="http://www.w3.org/1999/xlink" xml:space="preserve" xmlns:serif="http://www.serif.com/" style="fill-rule:evenodd;clip-rule:evenodd;stroke-linejoin:round;stroke-miterlimit:1.41421;">
    <g transform="matrix(5.55556,0,0,5.55556,-994.444,-2744.44)">
        <g transform="matrix(1,0,0,1,7.10543e-15,458)">
            <g>
                <g id="气泡图" transform="matrix(1,0,0,1,-7.10543e-15,-304)">
                    <path d="M180,353C180,353 190.114,353 192.5,353C192.633,353 192.76,353.053 192.854,353.146C192.947,353.24 193,353.367 193,353.5C193,353.776 192.776,354 192.5,354C190.463,354 182.768,354 180,354C179.448,354 179,353.552 179,353C179,350.232 179,342.537 179,340.5C179,340.224 179.224,340 179.5,340C179.633,340 179.76,340.053 179.854,340.146C179.947,340.24 180,340.367 180,340.5C180,342.886 180,353 180,353ZM187,348C188.104,348 189,348.896 189,350C189,351.104 188.104,352 187,352C185.896,352 185,351.104 185,350C185,348.896 185.896,348 187,348ZM182.5,345C183.328,345 184,345.672 184,346.5C184,347.328 183.328,348 182.5,348C181.672,348 181,347.328 181,346.5C181,345.672 181.672,345 182.5,345ZM190,340C191.656,340 193,341.344 193,343C193,344.656 191.656,346 190,346C188.344,346 187,344.656 187,343C187,341.344 188.344,340 190,340Z" style="fill:currentColor"/>
                </g>
            </g>
        </g>
    </g>
</svg>
