<svg xmlns="http://www.w3.org/2000/svg" viewBox="0 0 14 14"><title>download</title><g id="图层_2" ><g id="图层_1-2" dataName="图层 1"><path className="cls-download-2" d="M6.16 8.28a.2.2 0 0 0 .34-.14V.5a.5.5 0 0 1 1 0v7.64a.2.2 0 0 0 .34.14l.93-.93a.5.5 0 0 1 .7 0 .49.49 0 0 1 .15.36.47.47 0 0 1-.15.35l-2.12 2.12a.48.48 0 0 1-.7 0L4.53 8.06a.47.47 0 0 1-.15-.35.49.49 0 0 1 .15-.36.51.51 0 0 1 .7 0zM14 13a1 1 0 0 1-1 1H1a1 1 0 0 1-1-1v-2.5a.5.5 0 0 1 .5-.5.5.5 0 0 1 .5.5v2a.55.55 0 0 0 .54.54h10.92a.55.55 0 0 0 .54-.54v-2a.5.5 0 0 1 1 0z" id="download"/></g></g></svg>