<svg xmlns="http://www.w3.org/2000/svg" viewBox="0 0 14 14"><defs><style>.cls-1{fill:none;}.cls-2{fill:currentColor;fill-rule:evenodd;}</style></defs><title>edit</title><g id="图层_2" data-name="图层 2"><g id="图层_1-2" data-name="图层 1"><g id="edit"><path class="cls-2" d="M7.72,2.75a.48.48,0,0,0,0,.7l2.83,2.83a.48.48,0,0,0,.7,0l1.41-1.4a.52.52,0,0,0,.14-.35.52.52,0,0,0-.14-.36L9.83,1.34a.52.52,0,0,0-.36-.14.52.52,0,0,0-.35.14ZM4.33,13a.47.47,0,0,0,.35-.15L9.84,7.7A.53.53,0,0,0,10,7.34.51.51,0,0,0,9.84,7L7,4.16A.51.51,0,0,0,6.66,4a.53.53,0,0,0-.36.15L1.15,9.32A.47.47,0,0,0,1,9.67V12.8a.2.2,0,0,0,.2.2ZM6.66,2.39,8.75.3A1,1,0,0,1,10.2.3l3.5,3.5a1,1,0,0,1,0,1.45L5.23,13.72h0a1,1,0,0,1-.68.28H.5a.47.47,0,0,1-.35-.15A.47.47,0,0,1,0,13.5V9.45a1,1,0,0,1,.28-.68Z"/></g></g></g></svg>