<?xml version="1.0" encoding="UTF-8" standalone="no"?>
<!DOCTYPE svg PUBLIC "-//W3C//DTD SVG 1.1//EN" "http://www.w3.org/Graphics/SVG/1.1/DTD/svg11.dtd">
<svg width="100%" height="100%" viewBox="0 0 14 14" version="1.1" xmlns="http://www.w3.org/2000/svg" xmlns:xlink="http://www.w3.org/1999/xlink" xml:space="preserve" xmlns:serif="http://www.serif.com/" style="fill-rule:evenodd;clip-rule:evenodd;stroke-linejoin:round;stroke-miterlimit:2;">
    <g transform="matrix(1,0,0,1,-265.027,-154.774)">
        <g id="第一组">
        </g>
        <g id="第一组1" serif:id="第一组" transform="matrix(1,0,0,1,7.10543e-15,16)">
            <g id="upload">
            </g>
        </g>
        <g id="第二组">
        </g>
        <g id="第二组1" serif:id="第二组">
        </g>
        <g id="第三组">
        </g>
        <g id="第三组1" serif:id="第三组">
        </g>
        <g id="第四组">
        </g>
        <g id="第四组1" serif:id="第四组">
        </g>
        <g id="第五组">
        </g>
        <g id="第五组1" serif:id="第五组">
        </g>
        <g id="第六组">
        </g>
        <g id="第六组1" serif:id="第六组">
        </g>
        <g id="第六组2" serif:id="第六组">
        </g>
        <g id="第六组3" serif:id="第六组">
        </g>
        <g id="第七组">
        </g>
        <g id="第七组1" serif:id="第七组">
        </g>
        <g id="第八组">
        </g>
        <g id="第八组1" serif:id="第八组">
        </g>
        <g id="第九组">
        </g>
        <g id="第九组1" serif:id="第九组">
        </g>
        <g id="第十组">
        </g>
        <g id="第十组1" serif:id="第十组">
        </g>
        <g id="第十一组">
        </g>
        <g id="第十一组1" serif:id="第十一组">
        </g>
        <g id="第十二组">
        </g>
        <g id="第十三组">
        </g>
        <g id="第十四组">
        </g>
        <g id="第十四组1" serif:id="第十四组">
        </g>
        <g id="第一组文案">
        </g>
        <g id="第一组文案1" serif:id="第一组文案">
        </g>
        <g id="第二组文案">
        </g>
        <g id="第二组文案1" serif:id="第二组文案">
        </g>
        <g id="第三组文案">
        </g>
        <g id="第三组文案1" serif:id="第三组文案">
        </g>
        <g id="第四组文案">
        </g>
        <g id="第四组文案1" serif:id="第四组文案">
        </g>
        <g id="第五组文案">
        </g>
        <g id="第五组文案1" serif:id="第五组文案">
        </g>
        <g id="第六组文案">
        </g>
        <g id="第六组文案1" serif:id="第六组文案">
        </g>
        <g id="第六组文案2" serif:id="第六组文案">
        </g>
        <g id="第六组文案3" serif:id="第六组文案">
        </g>
        <g id="第七组文案">
        </g>
        <g id="第七组文案1" serif:id="第七组文案">
        </g>
        <g id="第八组文案">
        </g>
        <g id="第八组文案1" serif:id="第八组文案">
        </g>
        <g id="第九组文案">
        </g>
        <g id="第九组文案1" serif:id="第九组文案">
        </g>
        <g id="第十组文案">
        </g>
        <g id="第十组文案1" serif:id="第十组文案">
        </g>
        <g id="第十一组文案">
        </g>
        <g id="第十一组文案1" serif:id="第十一组文案">
        </g>
        <g id="第十二组文案">
        </g>
        <g id="第十三组文案">
        </g>
        <g id="第十四组文案">
        </g>
        <g id="第十四组文案1" serif:id="第十四组文案">
        </g>
        <path id="搜索" d="M275.508,165.962C275.165,165.62 274.629,165.567 274.226,165.834C273.305,166.434 272.205,166.774 271.027,166.774C267.715,166.774 265.027,164.086 265.027,160.774C265.027,157.463 267.715,154.774 271.027,154.774C274.338,154.774 277.027,157.463 277.027,160.774C277.027,161.953 276.686,163.053 276.097,163.981C275.833,164.379 275.886,164.908 276.224,165.246C277.162,166.202 278.88,167.921 278.88,167.921C279.076,168.116 279.076,168.433 278.88,168.628C278.685,168.823 278.369,168.823 278.173,168.628C278.173,168.628 276.454,166.909 275.508,165.962ZM271.027,155.774C273.786,155.774 276.027,158.015 276.027,160.774C276.027,163.534 273.786,165.774 271.027,165.774C268.267,165.774 266.027,163.534 266.027,160.774C266.027,158.015 268.267,155.774 271.027,155.774ZM271.527,160.074C271.527,160.127 271.548,160.178 271.585,160.216C271.623,160.253 271.674,160.274 271.727,160.274C272.114,160.274 272.975,160.274 273.527,160.274C273.803,160.274 274.027,160.498 274.027,160.774C274.027,161.051 273.803,161.274 273.527,161.274C272.975,161.274 272.114,161.274 271.727,161.274C271.674,161.274 271.623,161.295 271.585,161.333C271.548,161.371 271.527,161.421 271.527,161.474C271.527,161.861 271.527,162.723 271.527,163.274C271.527,163.551 271.303,163.774 271.027,163.774C270.751,163.774 270.527,163.551 270.527,163.274C270.527,162.723 270.527,161.861 270.527,161.474C270.527,161.421 270.506,161.371 270.468,161.333C270.431,161.295 270.38,161.274 270.327,161.274C269.94,161.274 269.079,161.274 268.527,161.274C268.251,161.274 268.027,161.051 268.027,160.774C268.027,160.498 268.251,160.274 268.527,160.274C269.079,160.274 269.94,160.274 270.327,160.274C270.38,160.274 270.431,160.253 270.468,160.216C270.506,160.178 270.527,160.127 270.527,160.074C270.527,159.688 270.527,158.826 270.527,158.274C270.527,157.998 270.751,157.774 271.027,157.774C271.303,157.774 271.527,157.998 271.527,158.274C271.527,158.826 271.527,159.688 271.527,160.074Z" style="fill:currentColor;"/>
        <g id="二维码">
        </g>
        <g id="二维码1" serif:id="二维码">
        </g>
        <g id="排序">
        </g>
        <g id="线图">
        </g>
        <g transform="matrix(1,0,0,1,-0.0378418,145.096)">
            <g id="维度线图">
            </g>
        </g>
        <g id="维度柱图">
        </g>
        <g id="周期对比线图">
        </g>
        <g id="周期对比线图1" serif:id="周期对比线图">
        </g>
        <g id="成功">
        </g>
        <g id="成功1" serif:id="成功">
        </g>
        <g id="事件分析">
        </g>
        <g id="漏斗分析">
        </g>
        <g id="留存分析">
        </g>
        <g id="智能路径">
        </g>
        <g id="活跃用户分析">
        </g>
        <g id="留存魔法师">
        </g>
        <g id="分布分析">
        </g>
        <g id="活动分析">
        </g>
        <g id="转化页面流">
        </g>
        <g id="android">
        </g>
        <g id="ios">
        </g>
        <g id="pc">
        </g>
        <g id="事件变量">
        </g>
        <g id="页面变量">
        </g>
        <g id="用户变量">
        </g>
        <g id="用户来源" transform="matrix(1,0,0,1,83,901)">
            <g id="APP">
            </g>
        </g>
        <g id="地狱信息">
        </g>
        <g id="设备信息">
        </g>
        <g id="广告跟踪变量">
        </g>
        <g id="常用维度">
        </g>
        <g id="转化变量">
        </g>
        <g id="登陆用户变量">
        </g>
        <g id="访问用户变量">
        </g>
        <g id="事件变量1" serif:id="事件变量">
        </g>
        <g id="页面变量1" serif:id="页面变量">
        </g>
        <g id="转化变量1" serif:id="转化变量">
        </g>
        <g id="用户登陆变量">
        </g>
        <g id="用户访问变量">
        </g>
        <g id="页面浏览">
        </g>
        <g id="点击">
        </g>
        <g id="输入">
        </g>
        <g id="图层-1" serif:id="图层 1">
        </g>
        <g id="图层-11" serif:id="图层 1">
        </g>
        <g id="图层-12" serif:id="图层 1">
        </g>
        <g id="图层-13" serif:id="图层 1">
        </g>
        <g id="图层-14" serif:id="图层 1">
        </g>
        <g id="图层-15" serif:id="图层 1">
        </g>
        <g id="图层-16" serif:id="图层 1">
        </g>
        <g id="首页看板">
        </g>
    </g>
</svg>
