<?xml version="1.0" encoding="UTF-8" standalone="no"?>
<!DOCTYPE svg PUBLIC "-//W3C//DTD SVG 1.1//EN" "http://www.w3.org/Graphics/SVG/1.1/DTD/svg11.dtd">
<svg width="100%" height="100%" viewBox="0 0 16 16" version="1.1" xmlns="http://www.w3.org/2000/svg" xmlns:xlink="http://www.w3.org/1999/xlink" xml:space="preserve" xmlns:serif="http://www.serif.com/" style="fill-rule:evenodd;clip-rule:evenodd;stroke-linejoin:round;stroke-miterlimit:2;">
    <g transform="matrix(1,0,0,1,-243.188,-589.089)">
        <g id="event">
            <g transform="matrix(1,0,0,1,243.188,589.089)">
                <path d="M1,16C0.448,16 0,15.552 0,15L0,1C0,0.448 0.448,0 1,0L10,0C10.552,0 11,0.448 11,1L11,5L15,5C15.552,5 16,5.448 16,6L16,15C16,15.552 15.552,16 15,16L1,16ZM9,1L2,1C1.487,1 1.064,1.386 1.007,1.883L1,2L1,14C1,14.513 1.386,14.936 1.883,14.993L2,15L9,15C9.513,15 9.936,14.614 9.993,14.117L10,14L10,2C10,1.448 9.552,1 9,1ZM14,6L11.2,6C11.108,6 11.03,6.062 11.007,6.147L11,6.2L11,14.8C11,14.892 11.062,14.97 11.147,14.993L11.2,15L14,15C14.513,15 14.936,14.614 14.993,14.117L15,14L15,7C15,6.448 14.552,6 14,6ZM8.5,12C8.776,12 9,12.224 9,12.5C9,12.776 8.776,13 8.5,13L2.5,13C2.224,13 2,12.776 2,12.5C2,12.224 2.224,12 2.5,12L8.5,12ZM8.5,9C8.776,9 9,9.224 9,9.5C9,9.776 8.776,10 8.5,10L2.5,10C2.224,10 2,9.776 2,9.5C2,9.224 2.224,9 2.5,9L8.5,9ZM8.5,3C8.776,3 9,3.224 9,3.5L9,6.5C9,6.776 8.776,7 8.5,7L2.5,7C2.224,7 2,6.776 2,6.5L2,3.5C2,3.224 2.224,3 2.5,3L8.5,3ZM7.5,4L3.5,4C3.255,4 3.05,4.177 3.008,4.41L3,4.5L3,5.5C3,5.745 3.177,5.95 3.41,5.992L3.5,6L7.5,6C7.745,6 7.95,5.823 7.992,5.59L8,5.5L8,4.5C8,4.224 7.776,4 7.5,4Z" style="fill:currentColor"/>
            </g>
        </g>
    </g>
</svg>
