<?xml version="1.0" standalone="no"?><!DOCTYPE svg PUBLIC "-//W3C//DTD SVG 1.1//EN" "http://www.w3.org/Graphics/SVG/1.1/DTD/svg11.dtd"><svg class="icon" width="200px" height="200.00px" viewBox="0 0 1024 1024" version="1.1" xmlns="http://www.w3.org/2000/svg"><path d="M512 32A480 480 0 1 0 992 512 480.5647059375 480.5647059375 0 0 0 512 32z m0 903.529411875A423.529411875 423.529411875 0 1 1 935.529411875 512 424.0941178125 424.0941178125 0 0 1 512 935.529411875z"  /><path d="M504.65882375 661.6470584374999a48 48 0 0 0-35.0117653125 13.552941562500001 45.1764703125 45.1764703125 0 0 0-14.117646562500001 34.447058437500004 46.870588125 46.870588125 0 0 0 16.94117625 34.447059375 48.564705937499994 48.564705937499994 0 0 0 35.011764375000006 14.117646562500001 50.8235296875 50.8235296875 0 0 0 32.7529415625-13.552940625 48 48 0 0 0 16.94117625-35.0117653125 45.1764703125 45.1764703125 0 0 0-14.117646562500001-34.447058437500004 48.564705937499994 48.564705937499994 0 0 0-38.4-13.552941562500001zM517.0823525 265.2235296875a156.988235625 156.988235625 0 0 0-118.02352875 43.482352500000005 156.988235625 156.988235625 0 0 0-40.658823749999996 112.94117625000001h72.84705843750001a112.94117625000001 112.94117625000001 0 0 1 18.070589062499998-68.89411687500001 75.1058821875 75.1058821875 0 0 1 66.070588125-27.105883125000002 78.4941178125 78.4941178125 0 0 1 56.470588125000006 20.329411874999998 76.8 76.8 0 0 1 19.7647059375 56.470588125000006 79.6235296875 79.6235296875 0 0 1-19.2 49.6941178125l-11.294117812500001 12.988235625A334.870588125 334.870588125 0 0 0 483.7647059375 549.270588125a134.9647059375 134.9647059375 0 0 0-13.552941562500001 64.37647031249999v11.294117812500001h73.4117653125v-10.729411875a90.9176475 90.9176475 0 0 1 10.729411875-44.611764375 112.94117625000001 112.94117625000001 0 0 1 28.235294062500003-35.011764375000006 677.6470584375 677.6470584375 0 0 0 56.470588125000006-53.082353437500004 131.01176437499998 131.01176437499998 0 0 0 25.9764703125-82.4470584375 122.54117625 122.54117625 0 0 0-40.658823749999996-97.6941178125 151.34117625 151.34117625 0 0 0-107.29411781249999-36.14117625z"  /></svg>