<?xml version="1.0" encoding="UTF-8" standalone="no"?>
<!DOCTYPE svg PUBLIC "-//W3C//DTD SVG 1.1//EN" "http://www.w3.org/Graphics/SVG/1.1/DTD/svg11.dtd">
<svg width="100%" height="100%" viewBox="0 0 16 16" version="1.1" xmlns="http://www.w3.org/2000/svg" xmlns:xlink="http://www.w3.org/1999/xlink" xml:space="preserve" xmlns:serif="http://www.serif.com/" style="fill-rule:evenodd;clip-rule:evenodd;stroke-linejoin:round;stroke-miterlimit:2;">
    <g transform="matrix(1,0,0,1,-211.88,-563.588)">
        <g id="file">
            <g transform="matrix(1,0,0,1,211.88,-0.790891)">
                <g transform="matrix(1,0,0,1,0,564.379)">
                    <path d="M6.114,0.5C6.468,0.5 6.807,0.644 7.057,0.899C7.562,1.416 8.438,2.311 8.943,2.828C9.193,3.084 9.532,3.227 9.886,3.227L14.667,3.227C15.02,3.227 15.359,3.371 15.609,3.627C15.859,3.882 16,4.229 16,4.591L16,14.136C16,14.498 15.859,14.845 15.609,15.101C15.359,15.356 15.02,15.5 14.667,15.5L1.333,15.5C0.597,15.5 0,14.89 0,14.136L0,1.864C0,1.11 0.597,0.5 1.333,0.5L6.114,0.5ZM14.4,14.136C14.547,14.136 14.667,14.014 14.667,13.864L14.667,8.273C14.667,8.122 14.547,8 14.4,8L1.6,8C1.453,8 1.333,8.122 1.333,8.273L1.333,13.864C1.333,14.014 1.453,14.136 1.6,14.136L14.4,14.136ZM9.334,4.591C8.98,4.591 8.641,4.447 8.391,4.191C7.886,3.675 7.01,2.78 6.505,2.263C6.255,2.007 5.916,1.864 5.562,1.864L1.6,1.864C1.453,1.864 1.333,1.986 1.333,2.136L1.333,6.364C1.333,6.514 1.453,6.636 1.6,6.636L14.4,6.636C14.471,6.636 14.539,6.608 14.589,6.556C14.639,6.505 14.667,6.436 14.667,6.364L14.667,4.864C14.667,4.791 14.639,4.722 14.589,4.671C14.539,4.62 14.471,4.591 14.4,4.591L9.334,4.591Z" style="fill:currentColor;"/>
                </g>
            </g>
        </g>
    </g>
</svg>
