<?xml version="1.0" encoding="UTF-8" standalone="no"?>
<!DOCTYPE svg PUBLIC "-//W3C//DTD SVG 1.1//EN" "http://www.w3.org/Graphics/SVG/1.1/DTD/svg11.dtd">
<svg width="100%" height="100%" viewBox="0 0 60 50" version="1.1" xmlns="http://www.w3.org/2000/svg" xmlns:xlink="http://www.w3.org/1999/xlink" xml:space="preserve" xmlns:serif="http://www.serif.com/" style="fill-rule:evenodd;clip-rule:evenodd;stroke-linejoin:round;stroke-miterlimit:1.41421;">
    <g transform="matrix(1,0,0,1,-216.076,-255.358)">
        <g transform="matrix(1,0,0,1,216.076,255.358)">
            <path d="M22.929,0C24.255,0 25.526,0.479 26.464,1.331C28.359,3.054 31.641,6.037 33.536,7.76C34.474,8.612 35.745,9.091 37.071,9.091C40.974,9.091 49.515,9.091 55,9.091C56.326,9.091 57.598,9.57 58.536,10.422C59.473,11.275 60,12.431 60,13.636C60,21.507 60,37.584 60,45.455C60,46.66 59.473,47.816 58.536,48.669C57.598,49.521 56.326,50 55,50C43.7,50 16.3,50 5,50C2.239,50 0,47.965 0,45.455C0,35.946 0,14.054 0,4.545C0,2.035 2.239,0 5,0C10.485,0 19.027,0 22.929,0ZM54.96,46C55.535,46 56,45.622 56,45.156C56,42.01 56,30.99 56,27.844C56,27.378 55.535,27 54.96,27C48.3,27 11.7,27 5.04,27C4.465,27 4,27.378 4,27.844C4,30.99 4,42.01 4,45.156C4,45.622 4.465,46 5.04,46C11.7,46 48.3,46 54.96,46ZM35.201,12.857C33.822,12.857 32.695,12.257 31.524,11.267C29.276,9.367 26.151,6.844 24.181,4.787C23.205,3.77 21.872,4 20.493,4C16.479,4 7.994,4 5.04,4C4.465,4 4,4.486 4,5.086C4,8.432 4,18.568 4,21.914C4,22.514 4.465,23 5.04,23C11.7,23 48.3,23 54.96,23C55.236,23 55.5,22.885 55.695,22.682C55.89,22.478 56,22.202 56,21.914C56,20.356 56,15.501 56,13.943C56,13.655 55.89,13.379 55.695,13.175C55.5,12.972 55.236,12.857 54.96,12.857C51.452,12.857 40.006,12.857 35.201,12.857Z" style="fill:currentColor;"/>
        </g>
    </g>
</svg>
