<?xml version="1.0" encoding="UTF-8" standalone="no"?>
<!DOCTYPE svg PUBLIC "-//W3C//DTD SVG 1.1//EN" "http://www.w3.org/Graphics/SVG/1.1/DTD/svg11.dtd">
<svg width="100%" height="100%" viewBox="0 0 30 30" version="1.1" xmlns="http://www.w3.org/2000/svg" xmlns:xlink="http://www.w3.org/1999/xlink" xml:space="preserve" xmlns:serif="http://www.serif.com/" style="fill-rule:evenodd;clip-rule:evenodd;stroke-linejoin:round;stroke-miterlimit:2;">
    <g transform="matrix(1,0,0,1,-211.657,-750.023)">
        <g>
            <g transform="matrix(1,0,0,1,211.657,750.023)">
                <clipPath id="_clip1">
                    <path d="M7,0L22,0L30,8L30,27C30,28.657 28.657,30 27,30L7,30C5.343,30 4,28.657 4,27L4,3C4,1.343 5.343,0 7,0Z"/>
                </clipPath>
                <g clip-path="url(#_clip1)">
                    <rect x="-1" y="-5" width="36" height="40" style="fill:white;"/>
                </g>
            </g>
            <g transform="matrix(1,0,0,1,211.657,762.023)">
                <rect x="0" y="4" width="22" height="10" style="fill:rgb(255,0,69);"/>
            </g>
            <g transform="matrix(1,0,0,1,211.657,750.023)">
                <text x="4px" y="24px" style="font-family:'PingFangSC-Semibold', 'PingFang SC', sans-serif;font-weight:600;font-size:8px;fill:white;">.pdf</text>
            </g>
            <g transform="matrix(1,0,0,1,211.657,748.023)">
                <clipPath id="_clip2">
                    <path d="M4,14L4,18L0,18L4,14Z"/>
                </clipPath>
                <g clip-path="url(#_clip2)">
                    <rect x="-5" y="9" width="14" height="14" style="fill:rgb(185,0,47);"/>
                </g>
            </g>
            <g transform="matrix(1,0,0,1,211.657,728.023)">
                <clipPath id="_clip3">
                    <path d="M22,22L30,30L25,30C23.343,30 22,28.657 22,27L22,22Z"/>
                </clipPath>
                <g clip-path="url(#_clip3)">
                    <rect x="17" y="17" width="18" height="18" style="fill:rgb(223,223,223);"/>
                </g>
            </g>
        </g>
    </g>
</svg>
