<svg xmlns="http://www.w3.org/2000/svg" viewBox="0 0 14 14"><defs><style>.cls-1{fill:none;}.cls-2{fill:currentColor;fill-rule:evenodd;}</style></defs><title>filter</title><g id="图层_2" data-name="图层 2"><g id="图层_1-2" data-name="图层 1"><g id="filter"><path class="cls-2" d="M6,6.46H6L5.56,6h0ZM7.5,13a.51.51,0,0,0,.5-.5V6.86a1,1,0,0,1,.28-.69l4.16-4.32a.55.55,0,0,0,.1-.55.51.51,0,0,0-.46-.3H1.92a.51.51,0,0,0-.46.3.53.53,0,0,0,.1.55L5.56,6l.16.17A1,1,0,0,1,6,6.86V12.5a.51.51,0,0,0,.5.5ZM9,13a1,1,0,0,1-1,1H6a1,1,0,0,1-1-1V7.28a1,1,0,0,0-.27-.69L.89,2.53A1.5,1.5,0,0,1,2,0H12a1.5,1.5,0,0,1,1.09,2.53L9.27,6.59A1,1,0,0,0,9,7.28Z"/></g></g></g></svg>