
<svg xmlns="http://www.w3.org/2000/svg" viewBox="0 0 14 14"><defs><style>.cls-1{fill:none;}.cls-2{fill:currentColor;fill-rule:evenodd;}</style></defs><title>filter-2</title><g id="图层_2" data-name="图层 2"><g id="图层_1-2" data-name="图层 1"><g id="filter-2"><path class="cls-2" d="M3.5,1a.5.5,0,1,1-.5.5A.5.5,0,0,1,3.5,1ZM5.05,2a.21.21,0,0,0-.19.12,1.49,1.49,0,0,1-2.72,0A.21.21,0,0,0,2,2H.5a.47.47,0,0,1-.35-.15.48.48,0,0,1,0-.7A.47.47,0,0,1,.5,1H2A.13.13,0,0,0,2.12.92h0A1.5,1.5,0,0,1,3.5,0,1.48,1.48,0,0,1,4.86.88.21.21,0,0,0,5.05,1H13.5a.47.47,0,0,1,.35.15.48.48,0,0,1,0,.7A.47.47,0,0,1,13.5,2ZM10.5,6.5A.5.5,0,1,1,10,7,.5.5,0,0,1,10.5,6.5Zm1.55,1a.21.21,0,0,0-.19.12,1.49,1.49,0,0,1-2.72,0A.21.21,0,0,0,9,7.5H.5a.47.47,0,0,1-.35-.15.48.48,0,0,1,0-.7A.47.47,0,0,1,.5,6.5H9a.13.13,0,0,0,.12-.08h0A1.5,1.5,0,0,1,10.5,5.5a1.48,1.48,0,0,1,1.36.88.21.21,0,0,0,.19.12H13.5a.5.5,0,0,1,0,1ZM3.5,12a.5.5,0,1,1-.5.5A.5.5,0,0,1,3.5,12Zm1.55,1a.21.21,0,0,0-.19.12,1.49,1.49,0,0,1-2.72,0A.21.21,0,0,0,2,13H.5a.47.47,0,0,1-.35-.15.48.48,0,0,1,0-.7A.47.47,0,0,1,.5,12H2a.13.13,0,0,0,.12-.08h0A1.5,1.5,0,0,1,3.5,11a1.48,1.48,0,0,1,1.36.88.21.21,0,0,0,.19.12H13.5a.5.5,0,0,1,0,1Z"/></g></g></g></svg>