<?xml version="1.0" encoding="UTF-8" standalone="no"?>
<!DOCTYPE svg PUBLIC "-//W3C//DTD SVG 1.1//EN" "http://www.w3.org/Graphics/SVG/1.1/DTD/svg11.dtd">
<svg width="100%" height="100%" viewBox="0 0 59 59" version="1.1" xmlns="http://www.w3.org/2000/svg" xmlns:xlink="http://www.w3.org/1999/xlink" xml:space="preserve" xmlns:serif="http://www.serif.com/" style="fill:currentColor;fill-rule:evenodd;clip-rule:evenodd;stroke-linejoin:round;stroke-miterlimit:1.41421;">
    <g transform="matrix(4.16667,0,0,4.16667,-545.833,-1150)">
        <g id="详细信息" transform="matrix(1,0,0,1,-24,208)">
            <path d="M162,68C165.863,68 169,71.137 169,75C169,78.863 165.863,82 162,82C158.137,82 155,78.863 155,75C155,71.137 158.137,68 162,68ZM162.5,78C162.5,78.133 162.447,78.26 162.354,78.354C162.26,78.447 162.133,78.5 162,78.5C161.867,78.5 161.74,78.447 161.646,78.354C161.553,78.26 161.5,78.133 161.5,78C161.5,77.042 161.5,74.958 161.5,74C161.5,73.867 161.553,73.74 161.646,73.646C161.74,73.553 161.867,73.5 162,73.5C162.133,73.5 162.26,73.553 162.354,73.646C162.447,73.74 162.5,73.867 162.5,74C162.5,74.958 162.5,77.042 162.5,78ZM162,71.5C162.414,71.5 162.75,71.836 162.75,72.25C162.75,72.664 162.414,73 162,73C161.586,73 161.25,72.664 161.25,72.25C161.25,71.836 161.586,71.5 162,71.5Z"/>
        </g>
    </g>
</svg>
