<svg xmlns="http://www.w3.org/2000/svg" viewBox="0 0 14 14"><defs><style>.cls-1{fill:none;}.cls-2{fill:currentColor;fill-rule:evenodd;}</style></defs><title>right-double</title><g id="图层_2" data-name="图层 2"><g id="图层_1-2" data-name="图层 1"><g id="right-double"><path class="cls-2" d="M7.34,7.71,7,7.35a.48.48,0,0,1,0-.7L11.94,1.7a.5.5,0,0,1,.71,0h0a.5.5,0,0,1,0,.7L8.19,6.86a.19.19,0,0,0,0,.28l4.47,4.47a.48.48,0,0,1,0,.68h0a.51.51,0,0,1-.72,0Zm-5.63,0-.36-.36a.51.51,0,0,1,0-.7L6.3,1.7A.5.5,0,0,1,7,1.7H7a.48.48,0,0,1,0,.7L2.56,6.86a.19.19,0,0,0,0,.28L7,11.61a.48.48,0,0,1,0,.68H7a.52.52,0,0,1-.73,0Z"/></g></g></g></svg>