<?xml version="1.0" encoding="UTF-8" standalone="no"?>
<!DOCTYPE svg PUBLIC "-//W3C//DTD SVG 1.1//EN" "http://www.w3.org/Graphics/SVG/1.1/DTD/svg11.dtd">
<svg width="100%" height="100%" viewBox="0 0 78 78" version="1.1" xmlns="http://www.w3.org/2000/svg" xmlns:xlink="http://www.w3.org/1999/xlink" xml:space="preserve" xmlns:serif="http://www.serif.com/" style="fill-rule:evenodd;clip-rule:evenodd;stroke-linejoin:round;stroke-miterlimit:1.41421;">
    <g transform="matrix(5.55556,0,0,5.55556,-61.1111,-2744.44)">
        <g transform="matrix(1,0,0,1,7.10543e-15,458)">
            <g>
                <g id="线图" transform="matrix(1,0,0,1,-7.10543e-15,-331)">
                    <path d="M12,379.5C12,379.633 12.053,379.76 12.146,379.854C12.24,379.947 12.367,380 12.5,380C14.567,380 22.433,380 24.5,380C24.633,380 24.76,380.053 24.854,380.146C24.947,380.24 25,380.367 25,380.5C25,380.776 24.776,381 24.5,381C22.463,381 14.768,381 12,381C11.448,381 11,380.552 11,380C11,377.232 11,369.537 11,367.5C11,367.224 11.224,367 11.5,367C11.633,367 11.76,367.053 11.854,367.146C11.947,367.24 12,367.367 12,367.5C12,369.567 12,377.433 12,379.5ZM21.981,370.392C22.005,370.316 21.98,370.233 21.92,370.182C21.662,369.954 21.5,369.621 21.5,369.25C21.5,368.56 22.06,368 22.75,368C23.44,368 24,368.56 24,369.25C24,369.871 23.546,370.387 22.952,370.484C22.875,370.494 22.811,370.549 22.79,370.624C22.397,371.962 21.955,373.285 21.528,374.613C21.504,374.689 21.527,374.773 21.588,374.825C21.841,375.052 22,375.383 22,375.75C22,376.44 21.44,377 20.75,377C20.06,377 19.5,376.44 19.5,375.75C19.5,375.625 19.518,375.505 19.552,375.392C19.575,375.317 19.552,375.235 19.493,375.183C19.124,374.859 17.848,373.743 17.479,373.419C17.419,373.367 17.334,373.356 17.263,373.389C17.107,373.461 16.933,373.5 16.75,373.5C16.748,373.5 16.746,373.5 16.744,373.5C16.666,373.5 16.595,373.545 16.562,373.616C16.32,374.144 15.37,376.21 15.13,376.731C15.097,376.803 15.11,376.887 15.162,376.946C15.346,377.162 15.457,377.443 15.457,377.75C15.457,378.44 14.897,379 14.207,379C13.517,379 12.957,378.44 12.957,377.75C12.957,377.06 13.517,376.5 14.207,376.5C14.207,376.5 14.207,376.5 14.207,376.5C14.275,376.5 14.336,376.46 14.363,376.398C14.831,375.348 15.334,374.313 15.828,373.274C15.862,373.202 15.85,373.117 15.797,373.057C15.611,372.84 15.5,372.558 15.5,372.25C15.5,371.56 16.06,371 16.75,371C17.44,371 18,371.56 18,372.25C18,372.375 17.982,372.495 17.948,372.608C17.925,372.683 17.948,372.765 18.007,372.817C18.376,373.141 19.651,374.257 20.021,374.581C20.081,374.632 20.165,374.644 20.237,374.611C20.346,374.561 20.464,374.526 20.588,374.51C20.666,374.501 20.731,374.447 20.754,374.372C20.948,373.746 21.789,371.016 21.981,370.392Z" style="fill:currentColor;fill-rule:nonzero;"/>
                </g>
            </g>
        </g>
    </g>
</svg>
