<?xml version="1.0" encoding="UTF-8" standalone="no"?>
<!DOCTYPE svg PUBLIC "-//W3C//DTD SVG 1.1//EN" "http://www.w3.org/Graphics/SVG/1.1/DTD/svg11.dtd">
<svg width="100%" height="100%" viewBox="0 0 14 14" version="1.1" xmlns="http://www.w3.org/2000/svg" xmlns:xlink="http://www.w3.org/1999/xlink" xml:space="preserve" xmlns:serif="http://www.serif.com/" style="fill-rule:evenodd;clip-rule:evenodd;stroke-linejoin:round;stroke-miterlimit:2;">
    <g transform="matrix(1,0,0,1,-117.327,-770.38)">
        <g>
            <g transform="matrix(1.84728,0,0,1.84728,-290.638,-430.32)">
                <rect x="220.847" y="649.984" width="7.579" height="7.579" style="fill:rgb(250,250,250);fill-opacity:0;"/>
            </g>
            <g transform="matrix(1,0,0,1,117.327,769.505)">
                <path d="M12.309,1.75L1.691,1.75C0.553,1.75 0,2.253 0,3.26L0,10.477C0,11.483 0.519,11.959 1.628,11.959L3.256,11.959L3.056,13.497C3.06,13.689 3.176,13.862 3.353,13.94C3.538,14.028 3.755,14.019 3.931,13.915L7.163,11.959L12.372,11.959C13.499,11.959 14,11.483 14,10.477L14,3.26C14,2.253 13.436,1.75 12.309,1.75ZM6.349,8.78L3.599,8.78C3.294,8.785 3.025,8.581 2.948,8.288C2.9,8.094 2.945,7.89 3.068,7.733C3.192,7.577 3.381,7.485 3.581,7.485L6.331,7.485C6.636,7.481 6.905,7.684 6.982,7.978C7.03,8.172 6.986,8.376 6.862,8.533C6.738,8.689 6.549,8.781 6.349,8.78ZM10.419,6.029L3.599,6.029C3.294,6.033 3.025,5.829 2.948,5.536C2.9,5.342 2.945,5.138 3.068,4.981C3.192,4.825 3.381,4.733 3.581,4.733L10.401,4.733C10.706,4.729 10.975,4.932 11.052,5.226C11.1,5.42 11.055,5.624 10.932,5.781C10.808,5.937 10.619,6.029 10.419,6.029Z" style="fill:currentColor;fill-rule:nonzero;"/>
            </g>
        </g>
    </g>
</svg>
