<?xml version="1.0" encoding="UTF-8" standalone="no"?>
<!DOCTYPE svg PUBLIC "-//W3C//DTD SVG 1.1//EN" "http://www.w3.org/Graphics/SVG/1.1/DTD/svg11.dtd">
<svg width="100%" height="100%" viewBox="0 0 60 44" version="1.1" xmlns="http://www.w3.org/2000/svg" xmlns:xlink="http://www.w3.org/1999/xlink" xml:space="preserve" xmlns:serif="http://www.serif.com/" style="fill-rule:evenodd;clip-rule:evenodd;stroke-linejoin:round;stroke-miterlimit:1.41421;">
    <g transform="matrix(1,0,0,1,-199.653,-257.179)">
        <g transform="matrix(1,0,0,1,199.653,257.179)">
            <path d="M42.305,3.999C42.835,3.999 43.344,4.21 43.719,4.585C44.094,4.96 44.305,5.469 44.305,5.999C44.305,7.104 43.41,7.999 42.305,7.999C34.431,7.999 6,8 6,8C4.946,8 4.082,8.816 4.005,9.851L4,10L4,38C4,39.054 4.816,39.918 5.851,39.995L6,40L49,40C50.054,40 50.918,39.184 50.995,38.149L51,38C51,38 51,21.865 51,16.122C51,15.018 51.895,14.122 53,14.122C53.53,14.122 54.039,14.333 54.414,14.708C54.789,15.083 55,15.592 55,16.122C55,22.509 55,42 55,42C55,43.105 54.105,44 53,44L2,44C0.895,44 0,43.105 0,42L0,6C0,4.895 0.895,4 2,4C2,4 33.916,3.999 42.305,3.999ZM38.616,16.054C38.636,16.073 38.654,16.093 38.671,16.115L48.899,29.635C48.964,29.722 49,29.828 49,29.936L49,37.633C49,37.91 48.776,38.133 48.5,38.133L7.018,38.133C6.742,38.133 6.518,37.91 6.518,37.633C6.518,37.523 6.555,37.415 6.623,37.328C6.628,37.321 10.84,31.871 10.845,31.864C11.001,31.663 11.283,31.611 11.5,31.743L11.5,31.743C11.505,31.746 14.696,33.685 14.696,33.685C14.921,33.821 15.212,33.76 15.364,33.546L20.1,26.848C20.237,26.653 20.493,26.583 20.711,26.679C20.718,26.683 25.44,28.777 25.44,28.777C25.634,28.863 25.86,28.818 26.006,28.664L37.909,16.074C38.098,15.873 38.415,15.864 38.616,16.054ZM12,13.689C14.209,13.689 16,15.44 16,17.6C16,19.76 14.209,21.511 12,21.511C9.791,21.511 8,19.76 8,17.6C8,15.44 9.791,13.689 12,13.689ZM53.5,0C54.556,0 55.412,0.856 55.412,1.912L55.411,4.486L58.131,4.486C59.163,4.486 60,5.323 60,6.356C60,7.388 59.163,8.225 58.131,8.225L55.411,8.224L55.412,10.799C55.412,11.855 54.556,12.711 53.5,12.711C52.444,12.711 51.588,11.855 51.588,10.799L51.588,8.224L48.869,8.225C47.837,8.225 47,7.388 47,6.356C47,5.323 47.837,4.486 48.869,4.486L51.588,4.486L51.588,1.912C51.588,0.856 52.444,0 53.5,0Z" style="fill:currentColor;"/>
        </g>
    </g>
</svg>
