<svg xmlns="http://www.w3.org/2000/svg" viewBox="0 0 14 14"><defs><style>.cls-1{fill:none;}.cls-2{fill:#323333;fill-rule:evenodd;}</style></defs><title>plus-circle</title><g id="图层_2" data-name="图层 2"><g id="图层_1-2" data-name="图层 1"><g id="plus-circle"><path class="cls-2" d="M7.7,6.5a.2.2,0,0,1-.2-.2V3.5A.51.51,0,0,0,7,3H7a.51.51,0,0,0-.5.5V6.3a.2.2,0,0,1-.2.2H3.5A.51.51,0,0,0,3,7H3a.51.51,0,0,0,.5.5H6.3a.2.2,0,0,1,.2.2v2.8A.51.51,0,0,0,7,11H7a.51.51,0,0,0,.5-.5V7.7a.2.2,0,0,1,.2-.2h2.8A.51.51,0,0,0,11,7h0a.51.51,0,0,0-.5-.5ZM7,0A7,7,0,1,1,0,7,7,7,0,0,1,7,0Z"/></g></g></g></svg>