<?xml version="1.0" encoding="UTF-8" standalone="no"?>
<!DOCTYPE svg PUBLIC "-//W3C//DTD SVG 1.1//EN" "http://www.w3.org/Graphics/SVG/1.1/DTD/svg11.dtd">
<svg width="100%" height="100%" viewBox="0 0 14 14" version="1.1" xmlns="http://www.w3.org/2000/svg" xmlns:xlink="http://www.w3.org/1999/xlink" xml:space="preserve" xmlns:serif="http://www.serif.com/" style="fill-rule:evenodd;clip-rule:evenodd;stroke-linejoin:round;stroke-miterlimit:2;">
    <g transform="matrix(1,0,0,1,-156.99,-718.59)">
        <path d="M167.696,720.038L161.37,720.038C160.299,720.038 159.423,720.907 159.423,721.969L159.423,728.727C159.423,729.79 160.299,730.658 161.37,730.658L167.696,730.658L167.696,731.141C167.696,731.962 167.063,732.59 166.236,732.59L158.45,732.59C157.623,732.59 156.99,731.962 156.99,731.141L156.99,720.038C156.99,719.217 157.623,718.59 158.45,718.59L166.236,718.59C167.063,718.59 167.696,719.217 167.696,720.038ZM161.215,721.06L170.059,721.06C170.571,721.06 170.99,721.513 170.99,722.067L170.99,729.112C170.99,729.666 170.571,730.119 170.059,730.119L161.215,730.119C160.703,730.119 160.284,729.666 160.284,729.112L160.284,722.067C160.284,721.513 160.703,721.06 161.215,721.06Z" style="fill:currentColor;fill-rule:nonzero;"/>
    </g>
</svg>
