<svg xmlns="http://www.w3.org/2000/svg" viewBox="0 0 14 14"><defs><style>.cls-1{fill:none;}.cls-2{fill:currentColor;}</style></defs><title>question-circle</title><g id="图层_2" data-name="图层 2"><g id="图层_1-2" data-name="图层 1"><g id="question-circle"><path class="cls-2" d="M7,13a6,6,0,1,1,4.24-1.76A6,6,0,0,1,7,13ZM7,0A7,7,0,1,0,12,2.05,7,7,0,0,0,7,0Zm.12,3a2.54,2.54,0,0,0-1.91.7,2.54,2.54,0,0,0-.69,1.69.24.24,0,0,0,.05.14.2.2,0,0,0,.15.06h.75a.21.21,0,0,0,.2-.19A1.78,1.78,0,0,1,6,4.47,1.22,1.22,0,0,1,7,4a1.26,1.26,0,0,1,1,.33,1.25,1.25,0,0,1,.32.9A1.27,1.27,0,0,1,8,6l-.19.21a5.43,5.43,0,0,0-1.26,1.4,2.15,2.15,0,0,0-.22,1h0a.21.21,0,0,0,.19.19h.84a.15.15,0,0,0,.15-.15h0a1.55,1.55,0,0,1,.18-.73,1.81,1.81,0,0,1,.46-.57,12.48,12.48,0,0,0,.92-.86,2.1,2.1,0,0,0,.42-1.34,2,2,0,0,0-.66-1.57A2.49,2.49,0,0,0,7.12,3Zm-.2,6.43a.76.76,0,0,0-.57.22.73.73,0,0,0-.23.56.79.79,0,0,0,.23.56.81.81,0,0,0,.57.23.85.85,0,0,0,.57-.22.78.78,0,0,0,.24-.57.73.73,0,0,0-.23-.56A.78.78,0,0,0,6.92,9.43Z"/></g></g></g></svg>