<?xml version="1.0" encoding="UTF-8" standalone="no"?>
<!DOCTYPE svg PUBLIC "-//W3C//DTD SVG 1.1//EN" "http://www.w3.org/Graphics/SVG/1.1/DTD/svg11.dtd">
<svg width="100%" height="100%" viewBox="0 0 16 16" version="1.1" xmlns="http://www.w3.org/2000/svg" xmlns:xlink="http://www.w3.org/1999/xlink" xml:space="preserve" xmlns:serif="http://www.serif.com/" style="fill-rule:evenodd;clip-rule:evenodd;stroke-linejoin:round;stroke-miterlimit:2;">
    <g transform="matrix(1,0,0,1,-263.103,-243.874)">
        <g>
            <g id="转让事件" transform="matrix(1,0,0,1,253.103,-3.12622)">
                <path d="M12.609,255.282C12.647,255.343 12.649,255.421 12.614,255.485C12.579,255.548 12.512,255.588 12.439,255.588C12.331,255.588 12.22,255.588 12.141,255.588C12.112,255.587 12.085,255.6 12.066,255.621C12.047,255.642 12.038,255.671 12.041,255.699C12.396,258.69 14.93,261 18,261C20.051,261 21.864,259.968 22.94,258.397C23.084,258.177 23.375,258.108 23.602,258.24C23.608,258.238 23.612,258.24 23.616,258.243C23.736,258.311 23.822,258.426 23.853,258.56C23.885,258.694 23.86,258.836 23.785,258.951C22.483,260.848 20.324,262 18,262C14.363,262 11.374,259.226 11.033,255.678C11.028,255.627 10.985,255.588 10.934,255.588C10.864,255.588 10.762,255.588 10.661,255.588C10.588,255.588 10.521,255.548 10.486,255.485C10.451,255.421 10.453,255.343 10.491,255.282C10.734,254.893 11.149,254.23 11.38,253.859C11.417,253.801 11.481,253.765 11.55,253.765C11.619,253.765 11.683,253.801 11.72,253.859C11.951,254.23 12.366,254.893 12.609,255.282ZM25.339,254.412C25.412,254.412 25.479,254.452 25.514,254.515C25.549,254.579 25.547,254.657 25.509,254.718C25.266,255.107 24.851,255.77 24.62,256.141C24.583,256.199 24.519,256.235 24.45,256.235C24.381,256.235 24.317,256.199 24.28,256.141C24.049,255.77 23.634,255.107 23.391,254.718C23.353,254.657 23.351,254.579 23.386,254.515C23.421,254.452 23.488,254.412 23.561,254.412C23.669,254.412 23.78,254.412 23.859,254.412C23.888,254.413 23.915,254.4 23.934,254.379C23.953,254.358 23.963,254.33 23.959,254.301C23.608,251.314 21.072,249 18,249C15.949,249 14.136,250.032 13.06,251.603C12.916,251.823 12.625,251.892 12.398,251.76C12.392,251.762 12.388,251.76 12.384,251.757C12.264,251.689 12.178,251.574 12.147,251.44C12.115,251.306 12.14,251.164 12.215,251.049C13.517,249.152 15.676,248 18,248C21.635,248 24.623,250.771 24.967,254.322C24.972,254.373 25.015,254.412 25.066,254.412C25.136,254.412 25.238,254.412 25.339,254.412Z" style="fill:currentColor"/>
            </g>
        </g>
    </g>
</svg>
