<svg xmlns="http://www.w3.org/2000/svg" viewBox="0 0 14 14"><defs><style>.cls-1{fill:none;}.cls-2{fill:#323333;}</style></defs><title>setting-o</title><g id="图层_2" data-name="图层 2"><g id="图层_1-2" data-name="图层 1"><g id="setting-o"><path class="cls-2" d="M7,8.47A1.49,1.49,0,1,1,8.5,7,1.5,1.5,0,0,1,7,8.47Zm0-4a2.49,2.49,0,1,0,1.77.73A2.49,2.49,0,0,0,7,4.49Zm5.91,3.09-1.15.17a.43.43,0,0,0-.37.31l-.11.32A3.52,3.52,0,0,1,11,9l-.15.31a.46.46,0,0,0,0,.48l.7.94a1.92,1.92,0,0,1-.84.83l-.94-.69a.44.44,0,0,0-.48,0L9,11a6.14,6.14,0,0,1-.64.27l-.31.09a.47.47,0,0,0-.31.39L7.6,12.87a2,2,0,0,1-1.2,0l-.16-1.15a.44.44,0,0,0-.31-.37l-.32-.1C5.4,11.17,5.2,11.07,5,11l-.31-.16a.47.47,0,0,0-.47,0l-.95.7a2,2,0,0,1-.84-.83l.7-.94a.44.44,0,0,0,0-.48L3,9c-.1-.2-.19-.42-.27-.63L2.63,8a.46.46,0,0,0-.37-.3L1.09,7.58a2,2,0,0,1,0-1.19l1.16-.17a.43.43,0,0,0,.37-.31l.1-.32A6.54,6.54,0,0,1,3,5l.16-.31a.46.46,0,0,0,0-.48l-.72-1a2,2,0,0,1,.84-.84l1,.71a.5.5,0,0,0,.46,0L5,3c.21-.1.42-.19.64-.27L6,2.63a.46.46,0,0,0,.32-.39c.05-.42.13-1.15.13-1.15a2,2,0,0,1,1.2,0l.16,1.15a.45.45,0,0,0,.32.37l.31.1A5.67,5.67,0,0,1,9,3l.31.16a.48.48,0,0,0,.48,0l.94-.7a2,2,0,0,1,.84.84l-.69.94a.44.44,0,0,0,0,.48L11,5a3.85,3.85,0,0,1,.27.63l.11.32a.43.43,0,0,0,.37.31l1.15.17A1.91,1.91,0,0,1,12.91,7.58ZM13.85,6l-.09-.26a.48.48,0,0,0-.4-.33l-1-.15a.18.18,0,0,1-.16-.13A5.38,5.38,0,0,0,12,4.61a.2.2,0,0,1,0-.21l.61-.81a.49.49,0,0,0,0-.52l-.12-.24A3,3,0,0,0,11.13,1.5l-.24-.12a.49.49,0,0,0-.52,0L9.56,2a.18.18,0,0,1-.2,0c-.19-.09-.37-.16-.56-.23a.21.21,0,0,1-.13-.16c0-.29-.13-1-.13-1A.5.5,0,0,0,8.2.24L8,.15a3.08,3.08,0,0,0-1.9,0L5.79.24a.51.51,0,0,0-.34.4l-.14,1a.21.21,0,0,1-.13.16A5.48,5.48,0,0,0,4.62,2a.17.17,0,0,1-.2,0L3.6,1.41a.49.49,0,0,0-.52,0l-.24.12A3.06,3.06,0,0,0,1.49,2.82l-.12.24a.53.53,0,0,0,0,.52L2,4.39A.22.22,0,0,1,2,4.6a5.55,5.55,0,0,0-.24.56.22.22,0,0,1-.15.13l-1,.16a.49.49,0,0,0-.4.33L.15,6a3.08,3.08,0,0,0,0,1.9l.09.26a.49.49,0,0,0,.4.33l1,.15a.18.18,0,0,1,.16.13,5.38,5.38,0,0,0,.24.55.22.22,0,0,1,0,.21l-.62.81a.53.53,0,0,0,0,.52l.12.24a3,3,0,0,0,1.34,1.33l.24.12a.49.49,0,0,0,.52,0L4.45,12a.18.18,0,0,1,.2,0,5.48,5.48,0,0,0,.56.23.21.21,0,0,1,.13.16l.14,1a.51.51,0,0,0,.34.4l.26.09a3.08,3.08,0,0,0,1.9,0l.26-.09a.5.5,0,0,0,.34-.4l.15-1a.21.21,0,0,1,.13-.16c.19-.07.37-.14.56-.23a.17.17,0,0,1,.2,0l.81.61a.49.49,0,0,0,.52,0l.24-.12a3,3,0,0,0,1.34-1.33l.12-.24a.49.49,0,0,0,0-.52L12,9.57a.2.2,0,0,1,0-.21,3.76,3.76,0,0,0,.23-.55.21.21,0,0,1,.17-.13l1-.15a.46.46,0,0,0,.4-.33l.09-.26A3,3,0,0,0,13.85,6Z"/></g></g></g></svg>