<svg xmlns="http://www.w3.org/2000/svg" viewBox="0 0 14 14"><title>share</title><g id="图层_2" ><g id="图层_1-2" dataName="图层 1"><path className="cls-share-2" d="M11.51 1A1.5 1.5 0 1 1 10 2.5 1.5 1.5 0 0 1 11.51 1zm-9 4.5A1.5 1.5 0 1 1 1 7a1.5 1.5 0 0 1 1.5-1.5zm9 4.5A1.5 1.5 0 1 1 10 11.5a1.5 1.5 0 0 1 1.51-1.5zM8.79 3.4A.52.52 0 0 0 9 2.87a2.22 2.22 0 0 1 0-.37 2.5 2.5 0 1 1 .84 1.87.48.48 0 0 0-.6-.07c-.89.5-3.27 1.87-4 2.31A.47.47 0 0 0 5 7a.47.47 0 0 0 .22.39l4 2.32a.5.5 0 0 0 .6-.07A2.45 2.45 0 0 1 11.51 9 2.5 2.5 0 1 1 9 11.5a2.22 2.22 0 0 1 0-.37.51.51 0 0 0-.25-.52l-3.7-2.17a.48.48 0 0 0-.62.13 2.45 2.45 0 0 1-1.93.93 2.5 2.5 0 1 1 1.94-4.07.48.48 0 0 0 .6.12C5.9 5.07 8 3.86 8.79 3.4z" id="share"/></g></g></svg>