<?xml version="1.0" encoding="UTF-8" standalone="no"?>
<!DOCTYPE svg PUBLIC "-//W3C//DTD SVG 1.1//EN" "http://www.w3.org/Graphics/SVG/1.1/DTD/svg11.dtd">
<svg width="100%" height="100%" viewBox="0 0 14 14" version="1.1" xmlns="http://www.w3.org/2000/svg" xmlns:xlink="http://www.w3.org/1999/xlink" xml:space="preserve" xmlns:serif="http://www.serif.com/" style="fill-rule:evenodd;clip-rule:evenodd;stroke-linejoin:round;stroke-miterlimit:2;">
    <g transform="matrix(1,0,0,1,-265.027,-175.394)">
        <g id="第一组">
        </g>
        <g id="第一组1" serif:id="第一组" transform="matrix(1,0,0,1,7.10543e-15,16)">
            <g id="upload">
            </g>
        </g>
        <g id="第二组">
        </g>
        <g id="第二组1" serif:id="第二组">
        </g>
        <g id="第三组">
        </g>
        <g id="第三组1" serif:id="第三组">
        </g>
        <g id="第四组">
        </g>
        <g id="第四组1" serif:id="第四组">
        </g>
        <g id="第五组">
        </g>
        <g id="第五组1" serif:id="第五组">
        </g>
        <g id="第六组">
        </g>
        <g id="第六组1" serif:id="第六组">
        </g>
        <g id="第六组2" serif:id="第六组">
        </g>
        <g id="第六组3" serif:id="第六组">
        </g>
        <g id="第七组">
        </g>
        <g id="第七组1" serif:id="第七组">
        </g>
        <g id="第八组">
        </g>
        <g id="第八组1" serif:id="第八组">
        </g>
        <g id="第九组">
        </g>
        <g id="第九组1" serif:id="第九组">
        </g>
        <g id="第十组">
        </g>
        <g id="第十组1" serif:id="第十组">
        </g>
        <g id="第十一组">
        </g>
        <g id="第十一组1" serif:id="第十一组">
        </g>
        <g id="第十二组">
        </g>
        <g id="第十三组">
        </g>
        <g id="第十四组">
        </g>
        <g id="第十四组1" serif:id="第十四组">
        </g>
        <g id="第一组文案">
        </g>
        <g id="第一组文案1" serif:id="第一组文案">
        </g>
        <g id="第二组文案">
        </g>
        <g id="第二组文案1" serif:id="第二组文案">
        </g>
        <g id="第三组文案">
        </g>
        <g id="第三组文案1" serif:id="第三组文案">
        </g>
        <g id="第四组文案">
        </g>
        <g id="第四组文案1" serif:id="第四组文案">
        </g>
        <g id="第五组文案">
        </g>
        <g id="第五组文案1" serif:id="第五组文案">
        </g>
        <g id="第六组文案">
        </g>
        <g id="第六组文案1" serif:id="第六组文案">
        </g>
        <g id="第六组文案2" serif:id="第六组文案">
        </g>
        <g id="第六组文案3" serif:id="第六组文案">
        </g>
        <g id="第七组文案">
        </g>
        <g id="第七组文案1" serif:id="第七组文案">
        </g>
        <g id="第八组文案">
        </g>
        <g id="第八组文案1" serif:id="第八组文案">
        </g>
        <g id="第九组文案">
        </g>
        <g id="第九组文案1" serif:id="第九组文案">
        </g>
        <g id="第十组文案">
        </g>
        <g id="第十组文案1" serif:id="第十组文案">
        </g>
        <g id="第十一组文案">
        </g>
        <g id="第十一组文案1" serif:id="第十一组文案">
        </g>
        <g id="第十二组文案">
        </g>
        <g id="第十三组文案">
        </g>
        <g id="第十四组文案">
        </g>
        <g id="第十四组文案1" serif:id="第十四组文案">
        </g>
        <g id="二维码">
        </g>
        <g id="二维码1" serif:id="二维码">
        </g>
        <g id="排序">
        </g>
        <g id="线图">
        </g>
        <g transform="matrix(1,0,0,1,-0.0378418,145.096)">
            <g id="维度线图">
            </g>
        </g>
        <g id="维度柱图">
        </g>
        <g id="周期对比线图">
        </g>
        <g id="周期对比线图1" serif:id="周期对比线图">
        </g>
        <g id="成功">
        </g>
        <g id="成功1" serif:id="成功">
        </g>
        <g id="事件分析">
        </g>
        <g id="漏斗分析">
        </g>
        <g id="留存分析">
        </g>
        <g id="智能路径">
        </g>
        <g id="活跃用户分析">
        </g>
        <g id="留存魔法师">
        </g>
        <g id="分布分析">
        </g>
        <g id="活动分析">
        </g>
        <g id="转化页面流">
        </g>
        <g id="android">
        </g>
        <g id="ios">
        </g>
        <g id="pc">
        </g>
        <g id="事件变量">
        </g>
        <g id="页面变量">
        </g>
        <g id="用户变量">
        </g>
        <g id="用户来源" transform="matrix(1,0,0,1,83,901)">
            <g id="APP">
            </g>
        </g>
        <g id="地狱信息">
        </g>
        <g id="设备信息">
        </g>
        <g id="广告跟踪变量">
        </g>
        <g id="常用维度">
        </g>
        <g id="转化变量">
        </g>
        <g id="登陆用户变量">
        </g>
        <g id="访问用户变量">
        </g>
        <g id="事件变量1" serif:id="事件变量">
        </g>
        <g id="页面变量1" serif:id="页面变量">
        </g>
        <g id="转化变量1" serif:id="转化变量">
        </g>
        <g id="用户登陆变量">
        </g>
        <g id="用户访问变量">
        </g>
        <g id="页面浏览">
        </g>
        <g id="点击">
        </g>
        <g id="输入">
        </g>
        <g id="图层-1" serif:id="图层 1">
        </g>
        <g id="图层-11" serif:id="图层 1">
        </g>
        <g id="图层-12" serif:id="图层 1">
        </g>
        <g id="图层-13" serif:id="图层 1">
        </g>
        <g id="图层-14" serif:id="图层 1">
        </g>
        <g id="图层-15" serif:id="图层 1">
        </g>
        <g id="图层-16" serif:id="图层 1">
        </g>
        <g id="首页看板">
        </g>
        <path id="搜索" d="M275.508,186.582C275.165,186.24 274.629,186.186 274.226,186.454C273.305,187.053 272.205,187.394 271.027,187.394C267.715,187.394 265.027,184.705 265.027,181.394C265.027,178.082 267.715,175.394 271.027,175.394C274.338,175.394 277.027,178.082 277.027,181.394C277.027,182.572 276.686,183.672 276.097,184.6C275.833,184.998 275.886,185.527 276.224,185.865C277.162,186.821 278.88,188.54 278.88,188.54C279.076,188.735 279.076,189.052 278.88,189.247C278.685,189.442 278.369,189.442 278.173,189.247C278.173,189.247 276.454,187.528 275.508,186.582ZM271.027,176.394C273.786,176.394 276.027,178.634 276.027,181.394C276.027,184.153 273.786,186.394 271.027,186.394C268.267,186.394 266.027,184.153 266.027,181.394C266.027,178.634 268.267,176.394 271.027,176.394ZM274.027,181.394C274.027,181.261 273.974,181.134 273.88,181.04C273.787,180.946 273.659,180.894 273.527,180.894C272.397,180.894 269.657,180.894 268.527,180.894C268.394,180.894 268.267,180.946 268.173,181.04C268.08,181.134 268.027,181.261 268.027,181.394C268.027,181.526 268.08,181.653 268.173,181.747C268.267,181.841 268.394,181.894 268.527,181.894C269.657,181.894 272.397,181.894 273.527,181.894C273.659,181.894 273.787,181.841 273.88,181.747C273.974,181.653 274.027,181.526 274.027,181.394Z" style="fill:currentColor;"/>
    </g>
</svg>
