<?xml version="1.0" encoding="UTF-8" standalone="no"?>
<!DOCTYPE svg PUBLIC "-//W3C//DTD SVG 1.1//EN" "http://www.w3.org/Graphics/SVG/1.1/DTD/svg11.dtd">
<svg width="100%" height="100%" viewBox="0 0 14 14" version="1.1" xmlns="http://www.w3.org/2000/svg" xmlns:xlink="http://www.w3.org/1999/xlink" xml:space="preserve" xmlns:serif="http://www.serif.com/" style="fill-rule:evenodd;clip-rule:evenodd;stroke-linejoin:round;stroke-miterlimit:2;">
    <g transform="matrix(1,0,0,1,-265.027,-175.394)">
        <path id="搜索" d="M275.508,186.582C275.165,186.24 274.629,186.186 274.226,186.454C273.305,187.053 272.205,187.394 271.027,187.394C267.715,187.394 265.027,184.705 265.027,181.394C265.027,178.082 267.715,175.394 271.027,175.394C274.338,175.394 277.027,178.082 277.027,181.394C277.027,182.572 276.686,183.672 276.097,184.6C275.833,184.998 275.886,185.527 276.224,185.865C277.162,186.821 278.88,188.54 278.88,188.54C279.076,188.735 279.076,189.052 278.88,189.247C278.685,189.442 278.369,189.442 278.173,189.247C278.173,189.247 276.454,187.528 275.508,186.582ZM271.027,176.394C273.786,176.394 276.027,178.634 276.027,181.394C276.027,184.153 273.786,186.394 271.027,186.394C268.267,186.394 266.027,184.153 266.027,181.394C266.027,178.634 268.267,176.394 271.027,176.394ZM274.027,181.394C274.027,181.261 273.974,181.134 273.88,181.04C273.787,180.946 273.659,180.894 273.527,180.894C272.397,180.894 269.657,180.894 268.527,180.894C268.394,180.894 268.267,180.946 268.173,181.04C268.08,181.134 268.027,181.261 268.027,181.394C268.027,181.526 268.08,181.653 268.173,181.747C268.267,181.841 268.394,181.894 268.527,181.894C269.657,181.894 272.397,181.894 273.527,181.894C273.659,181.894 273.787,181.841 273.88,181.747C273.974,181.653 274.027,181.526 274.027,181.394Z" style="fill:currentColor;"/>
    </g>
</svg>
