<?xml version="1.0" encoding="UTF-8" standalone="no"?>
<!DOCTYPE svg PUBLIC "-//W3C//DTD SVG 1.1//EN" "http://www.w3.org/Graphics/SVG/1.1/DTD/svg11.dtd">
<svg width="100%" height="100%" viewBox="0 0 14 14" version="1.1" xmlns="http://www.w3.org/2000/svg" xmlns:xlink="http://www.w3.org/1999/xlink" xml:space="preserve" xmlns:serif="http://www.serif.com/" style="fill-rule:evenodd;clip-rule:evenodd;stroke-linejoin:round;stroke-miterlimit:2;">
    <g transform="matrix(1,0,0,1,-181.519,-703.227)">
        <g transform="matrix(1,0,0,1,181.519,703.227)">
            <path d="M7,0C10.866,0 14,3.134 14,7C14,10.866 10.866,14 7,14C3.134,14 0,10.866 0,7C0,3.134 3.134,0 7,0ZM6,4.087C5.724,4.087 5.5,4.311 5.5,4.587L5.5,9.413C5.5,9.524 5.537,9.632 5.605,9.72C5.775,9.938 6.089,9.977 6.307,9.808L9.411,7.395C9.443,7.369 9.473,7.34 9.498,7.307C9.668,7.089 9.629,6.775 9.411,6.605L6.307,4.192C6.219,4.124 6.111,4.087 6,4.087Z" style="fill:currentColor;fill-rule:nonzero;"/>
        </g>
    </g>
</svg>
