<svg xmlns="http://www.w3.org/2000/svg" xmlns:xlink="http://www.w3.org/1999/xlink" viewBox="0 0 12 14"><defs><style>.cls-1{fill:none;}.cls-2{clip-path:url(#clip-path);}</style><clipPath id="clip-path" transform="translate(-1)"><rect class="cls-1" width="14" height="14"/></clipPath></defs><g id="图层_2" data-name="图层 2"><g id="图层_1-2" data-name="图层 1"><g class="cls-2"><path d="M7,2a6,6,0,1,0,6,6A6,6,0,0,0,7,2ZM7,13a5,5,0,1,1,5-5A5,5,0,0,1,7,13Z" transform="translate(-1)"/><rect x="4" width="4" height="1" rx="0.5"/><rect x="5.5" width="1" height="3"/><path d="M12.66,3.05,12,2.34a.5.5,0,1,0-.71.71l.07.07-.7.71.56.56.71-.7.07.07a.5.5,0,0,0,.71-.71Z" transform="translate(-1)"/><path d="M3.39,3.83l-.7-.71.07-.07a.5.5,0,0,0-.71-.71l-.71.71a.5.5,0,0,0,.71.71l.07-.07.71.7Z" transform="translate(-1)"/></g></g></g></svg>