<?xml version="1.0" encoding="UTF-8" standalone="no"?>
<!DOCTYPE svg PUBLIC "-//W3C//DTD SVG 1.1//EN" "http://www.w3.org/Graphics/SVG/1.1/DTD/svg11.dtd">
<svg width="100%" height="100%" viewBox="0 0 16 16" version="1.1" xmlns="http://www.w3.org/2000/svg" xmlns:xlink="http://www.w3.org/1999/xlink" xml:space="preserve" xmlns:serif="http://www.serif.com/" style="fill-rule:evenodd;clip-rule:evenodd;stroke-linejoin:round;stroke-miterlimit:2;">
    <g transform="matrix(1,0,0,1,-275.688,-563.588)">
        <g id="tag">
            <g transform="matrix(1.14286,0,0,1.14286,-13.8624,-76.7078)">
                <g transform="matrix(1,0,0,1,253.357,560.259)">
                    <path d="M6.396,0.354C6.169,0.127 5.862,0 5.541,0L1.208,0C0.888,0 0.581,0.127 0.354,0.354C0.127,0.58 0,0.888 0,1.208L0,5.541C0,5.862 0.127,6.169 0.354,6.396C1.597,7.639 5.786,11.828 7.604,13.646C8.076,14.118 8.841,14.118 9.313,13.646C10.463,12.496 12.496,10.463 13.646,9.313C14.118,8.841 14.118,8.076 13.646,7.604C11.828,5.786 7.639,1.597 6.396,0.354ZM5.041,1.208C5.362,1.208 5.669,1.336 5.896,1.562C7.102,2.769 11.053,6.72 12.365,8.031C12.601,8.267 12.601,8.65 12.365,8.886C11.535,9.715 9.715,11.535 8.886,12.365C8.65,12.601 8.267,12.601 8.031,12.365C6.72,11.053 2.769,7.102 1.562,5.896C1.336,5.669 1.208,5.362 1.208,5.041L1.208,1.813C1.208,1.479 1.479,1.208 1.813,1.208L5.041,1.208Z" style="fill:currentColor;"/>
                </g>
                <g transform="matrix(1,0,0,1,253.357,555.259)">
                    <path d="M4.5,8C5.328,8 6,8.672 6,9.5C6,10.328 5.328,11 4.5,11C3.672,11 3,10.328 3,9.5C3,8.672 3.672,8 4.5,8ZM4.5,9C4.225,9 4,9.225 4,9.5C4,9.775 4.225,10 4.5,10C4.775,10 5,9.775 5,9.5C5,9.225 4.775,9 4.5,9Z" style="fill:currentColor;"/>
                </g>
            </g>
        </g>
    </g>
</svg>
