<?xml version="1.0" encoding="UTF-8" standalone="no"?>
<!DOCTYPE svg PUBLIC "-//W3C//DTD SVG 1.1//EN" "http://www.w3.org/Graphics/SVG/1.1/DTD/svg11.dtd">
<svg width="100%" height="100%" viewBox="0 0 16 16" version="1.1" xmlns="http://www.w3.org/2000/svg" xmlns:xlink="http://www.w3.org/1999/xlink" xml:space="preserve" xmlns:serif="http://www.serif.com/" style="fill-rule:evenodd;clip-rule:evenodd;stroke-linejoin:round;stroke-miterlimit:2;">
    <g transform="matrix(1,0,0,1,-211.694,-589.459)">
        <g id="time">
            <g transform="matrix(1.14286,0,0,1.14286,-68.5732,-85.2564)">
                <g transform="matrix(1,0,0,1,245.234,590.376)">
                    <path d="M7,0C3.134,0 0,3.134 0,7C0,10.866 3.134,14 7,14C10.866,14 14,10.866 14,7C14,3.134 10.866,0 7,0ZM7,1C10.309,1 13,3.691 13,7C13,10.309 10.309,13 7,13C3.691,13 1,10.309 1,7C1,3.691 3.691,1 7,1Z" style="fill:currentColor;"/>
                </g>
                <g transform="matrix(1,0,0,1,245.234,588.376)">
                    <path d="M8,10C8,10.133 7.947,10.26 7.854,10.354C7.76,10.447 7.633,10.5 7.5,10.5L3.999,10.5C3.723,10.5 3.5,10.277 3.5,10.001L3.5,10C3.5,9.724 3.724,9.5 4,9.5L6.8,9.5C6.911,9.5 7,9.41 7,9.3L7,5.999C7,5.723 7.223,5.5 7.499,5.5L7.501,5.5C7.633,5.5 7.76,5.553 7.854,5.646C7.947,5.74 8,5.867 8,5.999L8,10Z" style="fill:currentColor;"/>
                </g>
            </g>
        </g>
    </g>
</svg>
