<svg xmlns="http://www.w3.org/2000/svg" viewBox="0 0 14 14"><defs><style>.cls-1{fill:none;}.cls-2{fill:currentColor;fill-rule:evenodd;}</style></defs><title>no permission</title><g id="图层_2" data-name="图层 2"><g id="图层_1-2" data-name="图层 1"><g id="no_permission" data-name="no permission"><path class="cls-2" d="M7,9a.51.51,0,0,1,.5.5v1a.5.5,0,0,1-1,0v-1A.51.51,0,0,1,7,9Zm5-1.5a.51.51,0,0,0-.5-.5h-9a.47.47,0,0,0-.35.15A.47.47,0,0,0,2,7.5v5a.47.47,0,0,0,.15.35A.47.47,0,0,0,2.5,13h9a.51.51,0,0,0,.5-.5ZM13,13a1,1,0,0,1-1,1H2a1,1,0,0,1-.71-.29A1,1,0,0,1,1,13V7A1,1,0,0,1,2,6h.8A.21.21,0,0,0,3,5.8V4a4,4,0,0,1,8,0h0a.47.47,0,0,1-.15.35.48.48,0,0,1-.7,0A.47.47,0,0,1,10,4h0A3,3,0,0,0,4,4V5.8a.2.2,0,0,0,.2.2H12a1,1,0,0,1,1,1Z"/></g></g></g></svg>