<svg xmlns="http://www.w3.org/2000/svg" viewBox="0 0 14 14"><defs><style>.cls-1{fill:none;}.cls-2{fill:currentColor;fill-rule:evenodd;}</style></defs><title>Asset 1</title><g id="Layer_2" data-name="Layer 2"><g id="Layer_1-2" data-name="Layer 1"><path class="cls-2" d="M7.09,6H7A1,1,0,0,0,6,7v.09Zm.82.6L6.6,7.91A.9.9,0,0,0,7,8,1,1,0,0,0,8,7,.9.9,0,0,0,7.91,6.6Zm.94-2.35A7.06,7.06,0,0,0,7,4,6.92,6.92,0,0,0,1.28,7s0,0,0,0h0A6.79,6.79,0,0,0,3.85,9.25L5.21,7.89A1.91,1.91,0,0,1,5,7,2,2,0,0,1,7,5a1.91,1.91,0,0,1,.89.21Zm1,.37L8.65,5.86A2,2,0,0,1,9,7,2,2,0,0,1,7,9a2,2,0,0,1-1.14-.35l-1,1A7,7,0,0,0,7,10a6.92,6.92,0,0,0,5.72-3s0,0,0,0h0A6.88,6.88,0,0,0,9.89,4.62ZM9.36,3.35a.49.49,0,0,0,.5-.12l1.89-1.89a.51.51,0,0,1,.71,0,.5.5,0,0,1,0,.71L10.82,3.69a.2.2,0,0,0-.05.17.18.18,0,0,0,.1.14,7.7,7.7,0,0,1,2.39,2.08l.25.36a1,1,0,0,1,0,1.12l-.25.36A7.84,7.84,0,0,1,7,11a8,8,0,0,1-2.64-.45.5.5,0,0,0-.52.12l-2,2a.5.5,0,0,1-.7,0,.5.5,0,0,1,0-.71l1.78-1.78A.21.21,0,0,0,3,10a.17.17,0,0,0-.09-.14A8,8,0,0,1,.74,7.92L.49,7.56a1,1,0,0,1,0-1.12l.25-.36v0A7.87,7.87,0,0,1,7,3,8,8,0,0,1,9.36,3.35Z"/></g></g></svg>