<?xml version="1.0" encoding="UTF-8" standalone="no"?>
<!DOCTYPE svg PUBLIC "-//W3C//DTD SVG 1.1//EN" "http://www.w3.org/Graphics/SVG/1.1/DTD/svg11.dtd">
<svg width="100%" height="100%" viewBox="0 0 14 14" version="1.1" xmlns="http://www.w3.org/2000/svg" xmlns:xlink="http://www.w3.org/1999/xlink" xml:space="preserve" xmlns:serif="http://www.serif.com/" style="fill-rule:evenodd;clip-rule:evenodd;stroke-linejoin:round;stroke-miterlimit:1.41421;">
    <g transform="matrix(1,0,0,1,-254.527,-52)">
        <g id="第一组" transform="matrix(1,0,0,1,7.10543e-15,16)">
            <g id="upload">
                <g transform="matrix(1,0,0,1,254.527,35.8965)">
                    <path style="fill:currentColor;" d="M14,13C14,13.552 13.552,14 13,14C10.423,14 3.577,14 1,14C0.448,14 0,13.552 0,13C0,12.204 0,11.124 0,10.5C0,10.367 0.053,10.24 0.146,10.147C0.24,10.053 0.367,10 0.5,10C0.633,10 0.76,10.053 0.854,10.146C0.947,10.24 1,10.367 1,10.5C1,11.055 1,11.945 1,12.5C1,12.633 1.053,12.76 1.146,12.854C1.24,12.947 1.367,13 1.5,13C3.452,13 10.548,13 12.5,13C12.633,13 12.76,12.947 12.854,12.854C12.947,12.76 13,12.633 13,12.5C13,11.945 13,11.055 13,10.5C13,10.367 13.053,10.24 13.146,10.146C13.24,10.053 13.367,10 13.5,10C13.633,10 13.76,10.053 13.854,10.147C13.947,10.24 14,10.367 14,10.5C14,11.124 14,12.204 14,13ZM7.5,10.036C7.5,10.312 7.276,10.536 7,10.536C6.724,10.536 6.5,10.312 6.5,10.036C6.5,8.506 6.5,3.903 6.5,2.397C6.5,2.316 6.451,2.243 6.377,2.212C6.302,2.181 6.216,2.198 6.159,2.256C5.887,2.528 5.507,2.907 5.232,3.182C5.138,3.276 5.011,3.328 4.879,3.328C4.746,3.328 4.619,3.276 4.525,3.182C4.525,3.182 4.525,3.181 4.524,3.181C4.329,2.986 4.329,2.671 4.524,2.476C5.068,1.932 6.103,0.897 6.646,0.354C6.74,0.26 6.867,0.207 7,0.207C7.133,0.207 7.26,0.26 7.354,0.354C7.897,0.897 8.932,1.931 9.475,2.475C9.569,2.569 9.621,2.696 9.621,2.828C9.621,2.961 9.569,3.088 9.475,3.182C9.381,3.276 9.254,3.328 9.121,3.328C8.989,3.328 8.862,3.276 8.768,3.182C8.493,2.907 8.113,2.528 7.841,2.256C7.784,2.198 7.698,2.181 7.623,2.212C7.549,2.243 7.5,2.316 7.5,2.397C7.5,3.903 7.5,8.506 7.5,10.036Z"/>
                </g>
            </g>
        </g>
    </g>
</svg>
