<?xml version="1.0" encoding="UTF-8" standalone="no"?>
<!DOCTYPE svg PUBLIC "-//W3C//DTD SVG 1.1//EN" "http://www.w3.org/Graphics/SVG/1.1/DTD/svg11.dtd">
<svg width="100%" height="100%" viewBox="0 0 14 14" version="1.1" xmlns="http://www.w3.org/2000/svg" xmlns:xlink="http://www.w3.org/1999/xlink" xml:space="preserve" xmlns:serif="http://www.serif.com/" style="fill-rule:evenodd;clip-rule:evenodd;stroke-linejoin:round;stroke-miterlimit:2;">
    <g transform="matrix(1,0,0,1,-210.807,-705.576)">
        <g id="第一组">
        </g>
        <g id="第一组1" serif:id="第一组" transform="matrix(1,0,0,1,7.10543e-15,16)">
            <g id="upload">
            </g>
        </g>
        <g id="第二组">
        </g>
        <g id="第二组1" serif:id="第二组">
        </g>
        <g id="第三组">
        </g>
        <g id="第三组1" serif:id="第三组">
        </g>
        <g id="第四组">
        </g>
        <g id="第四组1" serif:id="第四组">
        </g>
        <g id="第五组">
        </g>
        <g id="第五组1" serif:id="第五组">
        </g>
        <g id="第六组">
        </g>
        <g id="第六组1" serif:id="第六组">
        </g>
        <g id="第六组2" serif:id="第六组">
        </g>
        <g id="第六组3" serif:id="第六组">
        </g>
        <g id="第七组">
        </g>
        <g id="第七组1" serif:id="第七组">
        </g>
        <g id="第八组">
        </g>
        <g id="第八组1" serif:id="第八组">
        </g>
        <g id="第九组">
        </g>
        <g id="第九组1" serif:id="第九组">
        </g>
        <g id="第十组">
        </g>
        <g id="第十组1" serif:id="第十组">
        </g>
        <g id="第十一组">
        </g>
        <g id="第十一组1" serif:id="第十一组">
        </g>
        <g id="第十二组">
        </g>
        <g id="第十三组">
        </g>
        <g id="第十四组">
        </g>
        <g id="第十四组1" serif:id="第十四组">
        </g>
        <g id="第一组文案">
        </g>
        <g id="第一组文案1" serif:id="第一组文案">
        </g>
        <g id="第二组文案">
        </g>
        <g id="第二组文案1" serif:id="第二组文案">
        </g>
        <g id="第三组文案">
        </g>
        <g id="第三组文案1" serif:id="第三组文案">
        </g>
        <g id="第四组文案">
        </g>
        <g id="第四组文案1" serif:id="第四组文案">
        </g>
        <g id="第五组文案">
        </g>
        <g id="第五组文案1" serif:id="第五组文案">
        </g>
        <g id="第六组文案">
        </g>
        <g id="第六组文案1" serif:id="第六组文案">
        </g>
        <g id="第六组文案2" serif:id="第六组文案">
        </g>
        <g id="第六组文案3" serif:id="第六组文案">
        </g>
        <g id="第七组文案">
        </g>
        <g id="第七组文案1" serif:id="第七组文案">
        </g>
        <g id="第八组文案">
        </g>
        <g id="第八组文案1" serif:id="第八组文案">
        </g>
        <g id="第九组文案">
        </g>
        <g id="第九组文案1" serif:id="第九组文案">
        </g>
        <g id="第十组文案">
        </g>
        <g id="第十组文案1" serif:id="第十组文案">
        </g>
        <g id="第十一组文案">
        </g>
        <g id="第十一组文案1" serif:id="第十一组文案">
        </g>
        <g id="第十二组文案">
        </g>
        <g id="第十三组文案">
        </g>
        <g id="第十四组文案">
        </g>
        <g id="第十四组文案1" serif:id="第十四组文案">
        </g>
        <g id="二维码">
        </g>
        <g id="二维码1" serif:id="二维码">
        </g>
        <g id="排序">
        </g>
        <g id="线图">
        </g>
        <g transform="matrix(1,0,0,1,-0.0378418,145.096)">
            <g id="维度线图">
            </g>
        </g>
        <g id="维度柱图">
        </g>
        <g id="周期对比线图">
        </g>
        <g id="周期对比线图1" serif:id="周期对比线图">
        </g>
        <g id="成功">
        </g>
        <g id="成功1" serif:id="成功">
        </g>
        <g id="事件分析">
        </g>
        <g id="漏斗分析">
        </g>
        <g id="留存分析">
        </g>
        <g id="智能路径">
        </g>
        <g id="活跃用户分析">
        </g>
        <g id="留存魔法师">
        </g>
        <g id="分布分析">
        </g>
        <g id="活动分析">
        </g>
        <g id="转化页面流">
        </g>
        <g id="android">
        </g>
        <g id="ios">
        </g>
        <g id="pc">
        </g>
        <g id="事件变量">
        </g>
        <g id="页面变量">
        </g>
        <g id="用户变量">
        </g>
        <g id="用户来源" transform="matrix(1,0,0,1,83,901)">
            <g id="APP">
            </g>
        </g>
        <g id="地狱信息">
        </g>
        <g id="设备信息">
        </g>
        <g id="广告跟踪变量">
        </g>
        <g id="常用维度">
        </g>
        <g id="转化变量">
        </g>
        <g id="登陆用户变量">
        </g>
        <g id="访问用户变量">
        </g>
        <g id="事件变量1" serif:id="事件变量">
        </g>
        <g id="页面变量1" serif:id="页面变量">
        </g>
        <g id="转化变量1" serif:id="转化变量">
        </g>
        <g id="用户登陆变量">
        </g>
        <g id="用户访问变量">
        </g>
        <g id="页面浏览">
        </g>
        <g id="点击">
        </g>
        <g id="输入">
        </g>
        <g id="图层-1" serif:id="图层 1">
        </g>
        <g id="图层-11" serif:id="图层 1">
        </g>
        <g id="图层-12" serif:id="图层 1">
        </g>
        <g id="图层-13" serif:id="图层 1">
        </g>
        <g id="图层-14" serif:id="图层 1">
        </g>
        <g id="图层-15" serif:id="图层 1">
        </g>
        <g id="图层-16" serif:id="图层 1">
        </g>
        <g id="首页看板">
        </g>
        <g transform="matrix(1,0,0,1,210.807,705.576)">
            <path d="M7.51,0C7.625,0.005 8.738,0.073 9.362,0.821C10.02,1.61 10.061,2.219 10.111,2.505C10.16,2.791 10.102,4.038 10.075,4.176C10.075,4.176 10.077,4.177 10.079,4.18L10.108,4.209C10.236,4.345 10.659,4.905 9.984,5.782C9.984,5.782 9.549,6.871 9.166,7.314C9.166,7.314 9.074,7.476 9.063,7.552C9.053,7.628 9.056,8.105 9.128,8.23C9.199,8.355 9.597,9.037 10.156,9.096C10.714,9.157 11.432,8.981 11.821,9.273C12.207,9.563 13.601,10.718 13.846,11.687C14.09,12.658 14.146,13.738 13.216,14L0.78,14C-0.146,13.739 -0.092,12.659 0.154,11.688C0.398,10.719 1.79,9.564 2.178,9.274C2.568,8.983 3.285,9.158 3.844,9.097C4.403,9.038 4.801,8.356 4.872,8.231C4.945,8.106 4.948,7.63 4.937,7.553C4.927,7.477 4.834,7.315 4.834,7.315C4.453,6.872 4.017,5.783 4.017,5.783C3.238,4.768 3.927,4.177 3.927,4.177C3.9,4.038 3.84,2.791 3.889,2.506C3.94,2.219 3.981,1.61 4.639,0.822C5.297,0.033 6.5,0 6.5,0L7.51,0ZM7.153,9.734L6.857,9.734C6.76,9.734 6.677,9.803 6.659,9.898L6.327,11.684C6.314,11.758 6.342,11.833 6.402,11.879L6.868,12.237C6.94,12.292 7.039,12.293 7.11,12.238L7.589,11.878C7.649,11.833 7.679,11.758 7.665,11.684L7.351,9.899C7.333,9.804 7.25,9.734 7.153,9.734ZM7.221,8.732L6.784,8.732C6.545,8.732 6.412,8.883 6.412,9.072L6.677,9.509C6.713,9.57 6.778,9.606 6.847,9.606L7.159,9.606C7.228,9.606 7.293,9.57 7.329,9.511L7.6,9.072C7.6,8.884 7.461,8.732 7.221,8.732Z" style="fill:currentColor;"/>
        </g>
    </g>
</svg>
