<?xml version="1.0" encoding="UTF-8" standalone="no"?>
<!DOCTYPE svg PUBLIC "-//W3C//DTD SVG 1.1//EN" "http://www.w3.org/Graphics/SVG/1.1/DTD/svg11.dtd">
<svg width="100%" height="100%" viewBox="0 0 16 16" version="1.1" xmlns="http://www.w3.org/2000/svg" xmlns:xlink="http://www.w3.org/1999/xlink" xml:space="preserve" xmlns:serif="http://www.serif.com/" style="fill-rule:evenodd;clip-rule:evenodd;stroke-linejoin:round;stroke-miterlimit:2;">
    <g transform="matrix(1,0,0,1,-243.184,-535.999)">
        <g id="user1" serif:id="user" transform="matrix(1,0,0,1,0,-27.5893)">
            <g transform="matrix(1,0,0,1,30.281,-1.47905)">
                <g transform="matrix(1,0,0,1,-30.281,29.0684)">
                    <path d="M259.009,549.355C258.729,548.248 257.136,546.928 256.695,546.596C256.25,546.263 255.429,546.464 254.792,546.394C254.153,546.327 253.698,545.547 253.617,545.404C253.534,545.261 253.531,544.716 253.542,544.629C253.555,544.543 253.66,544.357 253.66,544.357C254.098,543.851 254.595,542.607 254.595,542.607C255.488,541.447 254.699,540.771 254.699,540.771C254.73,540.613 254.796,539.188 254.74,538.861C254.683,538.535 254.636,537.839 253.884,536.937C253.131,536.034 251.756,535.999 251.756,535.999L250.613,535.999C250.613,535.999 249.238,536.036 248.486,536.938C247.734,537.839 247.687,538.535 247.629,538.863C247.573,539.188 247.642,540.613 247.673,540.772C247.673,540.772 246.885,541.448 247.775,542.608C247.775,542.608 248.274,543.852 248.709,544.359C248.709,544.359 248.815,544.544 248.827,544.631C248.839,544.719 248.836,545.263 248.753,545.405C248.671,545.548 248.217,546.328 247.578,546.395C246.939,546.465 246.119,546.265 245.674,546.597C245.23,546.929 243.639,548.249 243.36,549.356C243.079,550.466 243.018,551.7 244.076,551.999L258.289,551.999C259.352,551.699 259.288,550.465 259.009,549.355ZM257.849,550.891C257.372,551.008 251.817,551.006 251.184,550.992C250.552,551.006 244.997,551.008 244.518,550.891C244.011,550.767 244.203,550.298 244.313,549.627C244.424,548.954 245.614,547.863 246.09,547.565C246.566,547.27 246.708,547.395 247.948,547.222C249.185,547.051 249.676,545.928 249.814,545.523C249.951,545.116 249.871,544.138 249.76,544.032C249.65,543.927 249.19,543.143 249.143,543.014C249.094,542.885 248.881,542.399 248.881,542.399C248.15,541.557 248.54,541.16 248.603,541.118C248.666,541.076 248.677,540.794 248.666,540.254C248.656,539.713 248.593,539.432 248.793,538.34C248.995,537.248 250.762,536.999 250.762,536.999L251.605,536.999C251.605,536.999 253.372,537.248 253.574,538.34C253.774,539.432 253.71,539.713 253.698,540.254C253.689,540.794 253.698,541.075 253.762,541.118C253.828,541.16 254.216,541.556 253.487,542.399C253.487,542.399 253.273,542.885 253.225,543.015C253.178,543.143 252.716,543.927 252.607,544.032C252.495,544.138 252.417,545.116 252.553,545.523C252.69,545.929 253.182,547.051 254.423,547.222C255.659,547.394 255.802,547.27 256.278,547.565C256.755,547.863 257.946,548.954 258.056,549.627C258.166,550.298 258.356,550.767 257.849,550.891Z" style="fill:currentColor;"/>
                </g>
                <g transform="matrix(1,0,0,1,212.903,569.067)">
                    <path d="M8.129,6.437L7.866,6.437C7.808,6.437 7.753,6.401 7.723,6.34L7.5,5.903C7.5,5.714 7.612,5.563 7.813,5.563L8.181,5.563C8.383,5.563 8.5,5.715 8.5,5.903L8.272,6.342C8.242,6.401 8.187,6.437 8.129,6.437Z" style="fill:currentColor;"/>
                </g>
                <g transform="matrix(1,0,0,1,212.903,574.067)">
                    <path d="M8.882,4.528L8.169,4.952C8.064,5.017 7.916,5.016 7.809,4.951L7.116,4.529C7.027,4.475 6.985,4.386 7.005,4.299L7.499,2.193C7.525,2.081 7.649,2 7.793,2L8.233,2C8.378,2 8.501,2.083 8.528,2.195L8.995,4.299C9.016,4.386 8.971,4.475 8.882,4.528Z" style="fill:currentColor;"/>
                </g>
            </g>
        </g>
    </g>
</svg>
