<svg xmlns="http://www.w3.org/2000/svg" viewBox="0 0 14 14"><defs><style>.cls-1{fill:none;}.cls-2{fill:currentColor;}.cls-2,.cls-3{fill-rule:evenodd;}.cls-3{fill:#f1f3fa;}</style></defs><title>user-variale</title><g id="图层_2" data-name="图层 2"><g id="图层_1-2" data-name="图层 1"><g id="user-variale"><path class="cls-2" d="M13.85,11.69a6.15,6.15,0,0,0-2-2.42c-.39-.29-1.11-.11-1.66-.17s-1-.74-1-.87a2.07,2.07,0,0,1-.07-.68,1.12,1.12,0,0,1,.11-.24A7.25,7.25,0,0,0,10,5.78c.79-1,.1-1.6.1-1.6a12.79,12.79,0,0,0,0-1.67A3,3,0,0,0,9.36.82,2.77,2.77,0,0,0,7.5,0h-1A2.77,2.77,0,0,0,4.64.82a3,3,0,0,0-.75,1.69,11.14,11.14,0,0,0,0,1.67s-.69.59.09,1.6a7.49,7.49,0,0,0,.81,1.54,1,1,0,0,1,.11.23,1.83,1.83,0,0,1-.07.68c-.07.13-.47.81-1,.87S2.57,9,2.18,9.27a6.15,6.15,0,0,0-2,2.42c-.24,1-.3,2.05.63,2.31H13.22c.93-.26.87-1.34.63-2.31"/><path class="cls-3" d="M12.72,13.14c-.41.1-5.18.1-5.72.09s-5.3,0-5.72-.09S1,12.61,1.11,12a4.16,4.16,0,0,1,1.52-1.83c.41-.26.53-.15,1.6-.3a2.13,2.13,0,0,0,1.6-1.51,2.75,2.75,0,0,0,0-1.32,7,7,0,0,1-.53-.91C5.21,6,5,5.61,5,5.61c-.63-.75-.3-1.1-.24-1.14s.06-.28,0-.76A6.25,6.25,0,0,1,5,2C5.12,1,6.64.82,6.64.82h.72S8.88,1,9.05,2a6.25,6.25,0,0,1,.11,1.7c0,.48,0,.73.05.76S9.6,4.86,9,5.61c0,0-.19.43-.23.55a7.56,7.56,0,0,1-.53.9,2.63,2.63,0,0,0-.05,1.32A2.13,2.13,0,0,0,9.78,9.89c1.06.15,1.18,0,1.59.3A4.16,4.16,0,0,1,12.89,12c.1.59.26,1-.17,1.12"/><path class="cls-2" d="M7.16,9.61H6.85a.19.19,0,0,1-.17-.1l-.27-.44a.34.34,0,0,1,.37-.34h.44a.34.34,0,0,1,.38.34l-.27.44a.21.21,0,0,1-.17.1"/><path class="cls-2" d="M7.59,11.88l-.48.36a.21.21,0,0,1-.24,0l-.47-.36a.19.19,0,0,1-.07-.2L6.66,9.9a.2.2,0,0,1,.2-.17h.29a.2.2,0,0,1,.2.17l.32,1.78a.22.22,0,0,1-.08.2"/></g></g></g></svg>