<?xml version="1.0" encoding="UTF-8" standalone="no"?>
<!DOCTYPE svg PUBLIC "-//W3C//DTD SVG 1.1//EN" "http://www.w3.org/Graphics/SVG/1.1/DTD/svg11.dtd">
<svg width="100%" height="100%" viewBox="0 0 78 78" version="1.1" xmlns="http://www.w3.org/2000/svg" xmlns:xlink="http://www.w3.org/1999/xlink" xml:space="preserve" xmlns:serif="http://www.serif.com/" style="fill-rule:evenodd;clip-rule:evenodd;stroke-linejoin:round;stroke-miterlimit:1.41421;">
    <g transform="matrix(5.55556,0,0,5.55556,-61.1111,-3611.11)">
        <g transform="matrix(1,0,0,1,0,442)">
            <g>
                <g id="查看" transform="matrix(1,0,0,1,0,-316)">
                    <path d="M11.741,531.925C11.741,531.925 11.626,531.756 11.495,531.563C11.263,531.223 11.263,530.777 11.495,530.437C11.626,530.244 11.741,530.075 11.741,530.075L11.75,530.064C13.177,528.195 15.45,527 18,527C20.555,527 22.831,528.2 24.259,530.075C24.259,530.075 24.374,530.244 24.505,530.437C24.737,530.777 24.737,531.223 24.505,531.563C24.374,531.756 24.259,531.925 24.259,531.925C22.831,533.8 20.555,535 18,535C15.445,535 13.169,533.8 11.741,531.925ZM23.724,530.989C22.49,529.194 20.384,528 18,528C15.617,528 13.51,529.193 12.276,530.988C12.272,530.995 12.271,531.004 12.275,531.011C12.276,531.011 12.276,531.011 12.276,531.011C13.51,532.806 15.616,534 18,534C20.383,534 22.49,532.807 23.724,531.012C23.728,531.005 23.729,530.996 23.725,530.989C23.724,530.989 23.724,530.989 23.724,530.989ZM18,529C19.104,529 20,529.896 20,531C20,532.104 19.104,533 18,533C16.896,533 16,532.104 16,531C16,529.896 16.896,529 18,529ZM18,530C18.552,530 19,530.448 19,531C19,531.552 18.552,532 18,532C17.448,532 17,531.552 17,531C17,530.448 17.448,530 18,530Z" style="fill:currentColor;"/>
                    <clipPath id="_clip1">
                        <path d="M11.741,531.925C11.741,531.925 11.626,531.756 11.495,531.563C11.263,531.223 11.263,530.777 11.495,530.437C11.626,530.244 11.741,530.075 11.741,530.075L11.75,530.064C13.177,528.195 15.45,527 18,527C20.555,527 22.831,528.2 24.259,530.075C24.259,530.075 24.374,530.244 24.505,530.437C24.737,530.777 24.737,531.223 24.505,531.563C24.374,531.756 24.259,531.925 24.259,531.925C22.831,533.8 20.555,535 18,535C15.445,535 13.169,533.8 11.741,531.925ZM23.724,530.989C22.49,529.194 20.384,528 18,528C15.617,528 13.51,529.193 12.276,530.988C12.272,530.995 12.271,531.004 12.275,531.011C12.276,531.011 12.276,531.011 12.276,531.011C13.51,532.806 15.616,534 18,534C20.383,534 22.49,532.807 23.724,531.012C23.728,531.005 23.729,530.996 23.725,530.989C23.724,530.989 23.724,530.989 23.724,530.989ZM18,529C19.104,529 20,529.896 20,531C20,532.104 19.104,533 18,533C16.896,533 16,532.104 16,531C16,529.896 16.896,529 18,529ZM18,530C18.552,530 19,530.448 19,531C19,531.552 18.552,532 18,532C17.448,532 17,531.552 17,531C17,530.448 17.448,530 18,530Z"/>
                    </clipPath>
                    <g clip-path="url(#_clip1)">
                        <g transform="matrix(1,0,0,1,-2.84217e-14,28)">
                            <path d="M18,501C19.104,501 20,501.896 20,503C20,504.104 19.104,505 18,505C16.896,505 16,504.104 16,503C16,501.896 16.896,501 18,501ZM18,502C18.552,502 19,502.448 19,503C19,503.552 18.552,504 18,504C17.448,504 17,503.552 17,503C17,502.448 17.448,502 18,502Z" style="fill:currentColor;"/>
                        </g>
                    </g>
                </g>
            </g>
        </g>
    </g>
</svg>
