<?xml version="1.0" encoding="UTF-8" standalone="no"?>
<svg width="1em" height="1em" viewBox="0 0 59 59" style="fill-rule:evenodd;fill:currentColor">
    <g transform="matrix(4.16667,0,0,4.16667,-445.833,-1150)">
        <g transform="matrix(1,0,0,1,-24,180)">
            <path d="M138,96C141.863,96 145,99.137 145,103C145,106.863 141.863,110 138,110C134.137,110 131,106.863 131,103C131,99.137 134.137,96 138,96ZM138,105C138.552,105 139,105.448 139,106C139,106.552 138.552,107 138,107C137.448,107 137,106.552 137,106C137,105.448 137.448,105 138,105ZM138.945,99.55C138.959,99.409 138.913,99.269 138.818,99.165C138.723,99.06 138.589,99 138.448,99C138.169,99 137.831,99 137.552,99C137.411,99 137.277,99.06 137.182,99.165C137.087,99.269 137.041,99.409 137.055,99.55C137.166,100.662 137.413,103.133 137.482,103.82C137.492,103.922 137.578,104 137.681,104C137.862,104 138.138,104 138.319,104C138.422,104 138.508,103.922 138.518,103.82C138.587,103.133 138.834,100.662 138.945,99.55Z"/>
        </g>
    </g>
</svg>
